G75*
G70*
%OFA0B0*%
%FSLAX24Y24*%
%IPPOS*%
%LPD*%
%AMOC8*
5,1,8,0,0,1.08239X$1,22.5*
%
%ADD10C,0.0000*%
%ADD11R,0.0394X0.0217*%
%ADD12C,0.0084*%
%ADD13C,0.0035*%
%ADD14R,0.0394X0.0138*%
%ADD15R,0.0217X0.0472*%
%ADD16R,0.0354X0.0276*%
%ADD17R,0.0276X0.0354*%
%ADD18R,0.0551X0.0138*%
%ADD19R,0.0748X0.0709*%
%ADD20R,0.0433X0.0748*%
%ADD21R,0.0900X0.2000*%
%ADD22C,0.0740*%
%ADD23R,0.0276X0.0197*%
%ADD24R,0.0335X0.0276*%
%ADD25R,0.0740X0.0740*%
%ADD26C,0.0476*%
%ADD27R,0.0315X0.0866*%
%ADD28R,0.0472X0.0217*%
%ADD29R,0.0315X0.0127*%
%ADD30R,0.0127X0.0315*%
%ADD31R,0.1496X0.1496*%
%ADD32R,0.0157X0.0433*%
%ADD33R,0.0433X0.0157*%
%ADD34R,0.0433X0.0118*%
%ADD35R,0.0118X0.0433*%
%ADD36R,0.0512X0.0787*%
%ADD37R,0.0240X0.0870*%
%ADD38R,0.0197X0.0276*%
%ADD39C,0.0100*%
%ADD40C,0.0080*%
%ADD41OC8,0.0270*%
%ADD42C,0.0160*%
%ADD43C,0.0240*%
%ADD44C,0.0320*%
%ADD45C,0.0120*%
%ADD46C,0.0300*%
%ADD47C,0.0070*%
%ADD48OC8,0.0240*%
D10*
X001183Y005559D02*
X002265Y005559D01*
X002238Y005559D02*
X006238Y005559D01*
X006271Y005557D01*
X006305Y005552D01*
X006337Y005543D01*
X006368Y005531D01*
X006398Y005516D01*
X006426Y005498D01*
X006452Y005477D01*
X006476Y005453D01*
X006497Y005427D01*
X006515Y005399D01*
X006530Y005369D01*
X006542Y005338D01*
X006551Y005306D01*
X006556Y005272D01*
X006558Y005239D01*
X006558Y004439D01*
X006563Y004392D01*
X006572Y004346D01*
X006584Y004300D01*
X006600Y004256D01*
X006619Y004213D01*
X006642Y004171D01*
X006668Y004132D01*
X006696Y004094D01*
X006728Y004059D01*
X006762Y004027D01*
X006799Y003997D01*
X006838Y003970D01*
X006879Y003947D01*
X006921Y003927D01*
X006965Y003910D01*
X007011Y003896D01*
X007057Y003887D01*
X007104Y003880D01*
X007151Y003878D01*
X007198Y003879D01*
X007918Y003879D01*
X007964Y003881D01*
X008010Y003887D01*
X008055Y003896D01*
X008100Y003909D01*
X008143Y003926D01*
X008185Y003946D01*
X008224Y003970D01*
X008262Y003997D01*
X008297Y004027D01*
X008330Y004060D01*
X008360Y004095D01*
X008387Y004133D01*
X008411Y004172D01*
X008431Y004214D01*
X008448Y004257D01*
X008461Y004302D01*
X008470Y004347D01*
X008476Y004393D01*
X008478Y004439D01*
X008478Y008999D01*
X008480Y009022D01*
X008484Y009044D01*
X008492Y009065D01*
X008503Y009086D01*
X008517Y009104D01*
X008533Y009120D01*
X008551Y009134D01*
X008572Y009145D01*
X008593Y009153D01*
X008615Y009157D01*
X008638Y009159D01*
X008718Y009159D01*
X008747Y009161D01*
X008775Y009166D01*
X008802Y009174D01*
X008829Y009186D01*
X008853Y009201D01*
X008876Y009218D01*
X008896Y009238D01*
X008914Y009261D01*
X008929Y009285D01*
X008941Y009312D01*
X008950Y009339D01*
X008955Y009367D01*
X008957Y009396D01*
X008957Y009981D01*
X008958Y009987D01*
X008961Y009992D01*
X008966Y009995D01*
X008972Y009996D01*
X010935Y009996D01*
X010935Y004126D01*
X010937Y004095D01*
X010943Y004064D01*
X010952Y004034D01*
X010965Y004005D01*
X010981Y003978D01*
X010999Y003953D01*
X011021Y003930D01*
X011044Y003909D01*
X011070Y003891D01*
X011098Y003877D01*
X011127Y003865D01*
X011158Y003857D01*
X011189Y003852D01*
X011220Y003851D01*
X018712Y003851D01*
X019795Y004933D02*
X019793Y004996D01*
X019788Y005059D01*
X019779Y005121D01*
X019766Y005183D01*
X019750Y005244D01*
X019730Y005303D01*
X019706Y005362D01*
X019680Y005419D01*
X019650Y005474D01*
X019617Y005528D01*
X019581Y005580D01*
X019542Y005629D01*
X019500Y005676D01*
X019455Y005721D01*
X019408Y005763D01*
X019359Y005802D01*
X019307Y005838D01*
X019254Y005871D01*
X019198Y005901D01*
X019141Y005927D01*
X019082Y005951D01*
X019023Y005971D01*
X018962Y005987D01*
X018900Y006000D01*
X018838Y006009D01*
X018775Y006014D01*
X018712Y006016D01*
X017629Y006016D01*
X017629Y021370D01*
X018712Y021370D01*
X017634Y021586D02*
X017636Y021603D01*
X017641Y021619D01*
X017650Y021633D01*
X017662Y021645D01*
X017676Y021654D01*
X017692Y021659D01*
X017709Y021661D01*
X017726Y021659D01*
X017742Y021654D01*
X017756Y021645D01*
X017768Y021633D01*
X017777Y021619D01*
X017782Y021603D01*
X017784Y021586D01*
X017782Y021569D01*
X017777Y021553D01*
X017768Y021539D01*
X017756Y021527D01*
X017742Y021518D01*
X017726Y021513D01*
X017709Y021511D01*
X017692Y021513D01*
X017676Y021518D01*
X017662Y021527D01*
X017650Y021539D01*
X017641Y021553D01*
X017636Y021569D01*
X017634Y021586D01*
X017634Y021881D02*
X017636Y021898D01*
X017641Y021914D01*
X017650Y021928D01*
X017662Y021940D01*
X017676Y021949D01*
X017692Y021954D01*
X017709Y021956D01*
X017726Y021954D01*
X017742Y021949D01*
X017756Y021940D01*
X017768Y021928D01*
X017777Y021914D01*
X017782Y021898D01*
X017784Y021881D01*
X017782Y021864D01*
X017777Y021848D01*
X017768Y021834D01*
X017756Y021822D01*
X017742Y021813D01*
X017726Y021808D01*
X017709Y021806D01*
X017692Y021808D01*
X017676Y021813D01*
X017662Y021822D01*
X017650Y021834D01*
X017641Y021848D01*
X017636Y021864D01*
X017634Y021881D01*
X017634Y022176D02*
X017636Y022193D01*
X017641Y022209D01*
X017650Y022223D01*
X017662Y022235D01*
X017676Y022244D01*
X017692Y022249D01*
X017709Y022251D01*
X017726Y022249D01*
X017742Y022244D01*
X017756Y022235D01*
X017768Y022223D01*
X017777Y022209D01*
X017782Y022193D01*
X017784Y022176D01*
X017782Y022159D01*
X017777Y022143D01*
X017768Y022129D01*
X017756Y022117D01*
X017742Y022108D01*
X017726Y022103D01*
X017709Y022101D01*
X017692Y022103D01*
X017676Y022108D01*
X017662Y022117D01*
X017650Y022129D01*
X017641Y022143D01*
X017636Y022159D01*
X017634Y022176D01*
X017634Y022471D02*
X017636Y022488D01*
X017641Y022504D01*
X017650Y022518D01*
X017662Y022530D01*
X017676Y022539D01*
X017692Y022544D01*
X017709Y022546D01*
X017726Y022544D01*
X017742Y022539D01*
X017756Y022530D01*
X017768Y022518D01*
X017777Y022504D01*
X017782Y022488D01*
X017784Y022471D01*
X017782Y022454D01*
X017777Y022438D01*
X017768Y022424D01*
X017756Y022412D01*
X017742Y022403D01*
X017726Y022398D01*
X017709Y022396D01*
X017692Y022398D01*
X017676Y022403D01*
X017662Y022412D01*
X017650Y022424D01*
X017641Y022438D01*
X017636Y022454D01*
X017634Y022471D01*
X017634Y022767D02*
X017636Y022784D01*
X017641Y022800D01*
X017650Y022814D01*
X017662Y022826D01*
X017676Y022835D01*
X017692Y022840D01*
X017709Y022842D01*
X017726Y022840D01*
X017742Y022835D01*
X017756Y022826D01*
X017768Y022814D01*
X017777Y022800D01*
X017782Y022784D01*
X017784Y022767D01*
X017782Y022750D01*
X017777Y022734D01*
X017768Y022720D01*
X017756Y022708D01*
X017742Y022699D01*
X017726Y022694D01*
X017709Y022692D01*
X017692Y022694D01*
X017676Y022699D01*
X017662Y022708D01*
X017650Y022720D01*
X017641Y022734D01*
X017636Y022750D01*
X017634Y022767D01*
X017634Y023062D02*
X017636Y023079D01*
X017641Y023095D01*
X017650Y023109D01*
X017662Y023121D01*
X017676Y023130D01*
X017692Y023135D01*
X017709Y023137D01*
X017726Y023135D01*
X017742Y023130D01*
X017756Y023121D01*
X017768Y023109D01*
X017777Y023095D01*
X017782Y023079D01*
X017784Y023062D01*
X017782Y023045D01*
X017777Y023029D01*
X017768Y023015D01*
X017756Y023003D01*
X017742Y022994D01*
X017726Y022989D01*
X017709Y022987D01*
X017692Y022989D01*
X017676Y022994D01*
X017662Y023003D01*
X017650Y023015D01*
X017641Y023029D01*
X017636Y023045D01*
X017634Y023062D01*
X017634Y023339D02*
X017636Y023356D01*
X017641Y023372D01*
X017650Y023386D01*
X017662Y023398D01*
X017676Y023407D01*
X017692Y023412D01*
X017709Y023414D01*
X017726Y023412D01*
X017742Y023407D01*
X017756Y023398D01*
X017768Y023386D01*
X017777Y023372D01*
X017782Y023356D01*
X017784Y023339D01*
X017782Y023322D01*
X017777Y023306D01*
X017768Y023292D01*
X017756Y023280D01*
X017742Y023271D01*
X017726Y023266D01*
X017709Y023264D01*
X017692Y023266D01*
X017676Y023271D01*
X017662Y023280D01*
X017650Y023292D01*
X017641Y023306D01*
X017636Y023322D01*
X017634Y023339D01*
X018022Y022453D02*
X018024Y022501D01*
X018030Y022549D01*
X018040Y022596D01*
X018053Y022642D01*
X018071Y022687D01*
X018091Y022731D01*
X018116Y022773D01*
X018144Y022812D01*
X018174Y022849D01*
X018208Y022883D01*
X018245Y022915D01*
X018283Y022944D01*
X018324Y022969D01*
X018367Y022991D01*
X018412Y023009D01*
X018458Y023023D01*
X018505Y023034D01*
X018553Y023041D01*
X018601Y023044D01*
X018649Y023043D01*
X018697Y023038D01*
X018745Y023029D01*
X018791Y023017D01*
X018836Y023000D01*
X018880Y022980D01*
X018922Y022957D01*
X018962Y022930D01*
X019000Y022900D01*
X019035Y022867D01*
X019067Y022831D01*
X019097Y022793D01*
X019123Y022752D01*
X019145Y022709D01*
X019165Y022665D01*
X019180Y022620D01*
X019192Y022573D01*
X019200Y022525D01*
X019204Y022477D01*
X019204Y022429D01*
X019200Y022381D01*
X019192Y022333D01*
X019180Y022286D01*
X019165Y022241D01*
X019145Y022197D01*
X019123Y022154D01*
X019097Y022113D01*
X019067Y022075D01*
X019035Y022039D01*
X019000Y022006D01*
X018962Y021976D01*
X018922Y021949D01*
X018880Y021926D01*
X018836Y021906D01*
X018791Y021889D01*
X018745Y021877D01*
X018697Y021868D01*
X018649Y021863D01*
X018601Y021862D01*
X018553Y021865D01*
X018505Y021872D01*
X018458Y021883D01*
X018412Y021897D01*
X018367Y021915D01*
X018324Y021937D01*
X018283Y021962D01*
X018245Y021991D01*
X018208Y022023D01*
X018174Y022057D01*
X018144Y022094D01*
X018116Y022133D01*
X018091Y022175D01*
X018071Y022219D01*
X018053Y022264D01*
X018040Y022310D01*
X018030Y022357D01*
X018024Y022405D01*
X018022Y022453D01*
X018712Y023536D02*
X018775Y023534D01*
X018838Y023529D01*
X018900Y023520D01*
X018962Y023507D01*
X019023Y023491D01*
X019082Y023471D01*
X019141Y023447D01*
X019198Y023421D01*
X019254Y023391D01*
X019307Y023358D01*
X019359Y023322D01*
X019408Y023283D01*
X019455Y023241D01*
X019500Y023196D01*
X019542Y023149D01*
X019581Y023100D01*
X019617Y023048D01*
X019650Y022994D01*
X019680Y022939D01*
X019706Y022882D01*
X019730Y022823D01*
X019750Y022764D01*
X019766Y022703D01*
X019779Y022641D01*
X019788Y022579D01*
X019793Y022516D01*
X019795Y022453D01*
X019793Y022390D01*
X019788Y022327D01*
X019779Y022265D01*
X019766Y022203D01*
X019750Y022142D01*
X019730Y022083D01*
X019706Y022024D01*
X019680Y021967D01*
X019650Y021912D01*
X019617Y021858D01*
X019581Y021806D01*
X019542Y021757D01*
X019500Y021710D01*
X019455Y021665D01*
X019408Y021623D01*
X019359Y021584D01*
X019307Y021548D01*
X019254Y021515D01*
X019198Y021485D01*
X019141Y021459D01*
X019082Y021435D01*
X019023Y021415D01*
X018962Y021399D01*
X018900Y021386D01*
X018838Y021377D01*
X018775Y021372D01*
X018712Y021370D01*
X018712Y023536D02*
X011625Y023536D01*
X011574Y023534D01*
X011522Y023528D01*
X011472Y023519D01*
X011422Y023505D01*
X011373Y023488D01*
X011326Y023468D01*
X011280Y023444D01*
X011237Y023416D01*
X011195Y023386D01*
X011156Y023352D01*
X011120Y023316D01*
X011086Y023277D01*
X011056Y023235D01*
X011028Y023192D01*
X011004Y023146D01*
X010984Y023099D01*
X010967Y023050D01*
X010953Y023000D01*
X010944Y022950D01*
X010938Y022898D01*
X010936Y022847D01*
X010936Y021771D01*
X010938Y021738D01*
X010943Y021704D01*
X010952Y021672D01*
X010964Y021641D01*
X010979Y021611D01*
X010997Y021583D01*
X011018Y021557D01*
X011042Y021533D01*
X011068Y021512D01*
X011096Y021494D01*
X011126Y021479D01*
X011157Y021467D01*
X011189Y021458D01*
X011223Y021453D01*
X011256Y021451D01*
X011336Y021451D01*
X011359Y021449D01*
X011381Y021445D01*
X011402Y021437D01*
X011423Y021426D01*
X011441Y021412D01*
X011457Y021396D01*
X011471Y021378D01*
X011482Y021357D01*
X011490Y021336D01*
X011494Y021314D01*
X011496Y021291D01*
X011496Y018331D01*
X011494Y018308D01*
X011490Y018286D01*
X011482Y018265D01*
X011471Y018244D01*
X011457Y018226D01*
X011441Y018210D01*
X011423Y018196D01*
X011402Y018185D01*
X011381Y018177D01*
X011359Y018173D01*
X011336Y018171D01*
X011256Y018171D01*
X011257Y018171D02*
X011223Y018169D01*
X011190Y018164D01*
X011158Y018156D01*
X011126Y018144D01*
X011096Y018128D01*
X011068Y018110D01*
X011042Y018089D01*
X011018Y018065D01*
X010997Y018039D01*
X010978Y018011D01*
X010963Y017981D01*
X010951Y017950D01*
X010942Y017917D01*
X010937Y017884D01*
X010935Y017851D01*
X010935Y016161D01*
X010933Y016148D01*
X010928Y016136D01*
X010920Y016126D01*
X010910Y016118D01*
X010898Y016113D01*
X010885Y016111D01*
X009007Y016111D01*
X008994Y016113D01*
X008982Y016118D01*
X008972Y016126D01*
X008964Y016136D01*
X008959Y016148D01*
X008957Y016161D01*
X008957Y018326D01*
X008955Y018357D01*
X008949Y018388D01*
X008940Y018418D01*
X008927Y018447D01*
X008911Y018474D01*
X008893Y018499D01*
X008871Y018522D01*
X008848Y018543D01*
X008822Y018561D01*
X008794Y018575D01*
X008765Y018587D01*
X008734Y018595D01*
X008703Y018600D01*
X008672Y018601D01*
X001182Y018601D01*
X001183Y018601D02*
X001120Y018599D01*
X001057Y018594D01*
X000995Y018584D01*
X000933Y018572D01*
X000872Y018555D01*
X000812Y018535D01*
X000754Y018512D01*
X000697Y018485D01*
X000641Y018455D01*
X000587Y018422D01*
X000536Y018386D01*
X000486Y018347D01*
X000439Y018305D01*
X000395Y018260D01*
X000353Y018213D01*
X000314Y018163D01*
X000278Y018112D01*
X000245Y018058D01*
X000215Y018003D01*
X000188Y017945D01*
X000165Y017887D01*
X000145Y017827D01*
X000129Y017766D01*
X000116Y017704D01*
X000107Y017642D01*
X000102Y017579D01*
X000100Y017516D01*
X000102Y017453D01*
X000107Y017390D01*
X000116Y017328D01*
X000129Y017266D01*
X000145Y017205D01*
X000165Y017146D01*
X000189Y017087D01*
X000215Y017030D01*
X000245Y016975D01*
X000278Y016921D01*
X000314Y016869D01*
X000353Y016820D01*
X000395Y016773D01*
X000440Y016728D01*
X000487Y016686D01*
X000536Y016647D01*
X000588Y016611D01*
X000641Y016578D01*
X000697Y016548D01*
X000754Y016522D01*
X000813Y016498D01*
X000872Y016478D01*
X000933Y016462D01*
X000995Y016449D01*
X001057Y016440D01*
X001120Y016435D01*
X001183Y016433D01*
X002265Y016433D01*
X002265Y007719D01*
X001183Y007719D01*
X001120Y007717D01*
X001057Y007712D01*
X000995Y007703D01*
X000933Y007690D01*
X000872Y007674D01*
X000813Y007654D01*
X000754Y007630D01*
X000697Y007604D01*
X000642Y007574D01*
X000588Y007541D01*
X000536Y007505D01*
X000487Y007466D01*
X000440Y007424D01*
X000395Y007379D01*
X000353Y007332D01*
X000314Y007283D01*
X000278Y007231D01*
X000245Y007178D01*
X000215Y007122D01*
X000189Y007065D01*
X000165Y007006D01*
X000145Y006947D01*
X000129Y006886D01*
X000116Y006824D01*
X000107Y006762D01*
X000102Y006699D01*
X000100Y006636D01*
X000102Y006573D01*
X000107Y006510D01*
X000116Y006448D01*
X000129Y006386D01*
X000145Y006325D01*
X000165Y006266D01*
X000189Y006207D01*
X000215Y006150D01*
X000245Y006095D01*
X000278Y006041D01*
X000314Y005989D01*
X000353Y005940D01*
X000395Y005893D01*
X000440Y005848D01*
X000487Y005806D01*
X000536Y005767D01*
X000588Y005731D01*
X000641Y005698D01*
X000697Y005668D01*
X000754Y005642D01*
X000813Y005618D01*
X000872Y005598D01*
X000933Y005582D01*
X000995Y005569D01*
X001057Y005560D01*
X001120Y005555D01*
X001183Y005553D01*
X000610Y006636D02*
X000612Y006684D01*
X000618Y006732D01*
X000628Y006779D01*
X000641Y006825D01*
X000659Y006870D01*
X000679Y006914D01*
X000704Y006956D01*
X000732Y006995D01*
X000762Y007032D01*
X000796Y007066D01*
X000833Y007098D01*
X000871Y007127D01*
X000912Y007152D01*
X000955Y007174D01*
X001000Y007192D01*
X001046Y007206D01*
X001093Y007217D01*
X001141Y007224D01*
X001189Y007227D01*
X001237Y007226D01*
X001285Y007221D01*
X001333Y007212D01*
X001379Y007200D01*
X001424Y007183D01*
X001468Y007163D01*
X001510Y007140D01*
X001550Y007113D01*
X001588Y007083D01*
X001623Y007050D01*
X001655Y007014D01*
X001685Y006976D01*
X001711Y006935D01*
X001733Y006892D01*
X001753Y006848D01*
X001768Y006803D01*
X001780Y006756D01*
X001788Y006708D01*
X001792Y006660D01*
X001792Y006612D01*
X001788Y006564D01*
X001780Y006516D01*
X001768Y006469D01*
X001753Y006424D01*
X001733Y006380D01*
X001711Y006337D01*
X001685Y006296D01*
X001655Y006258D01*
X001623Y006222D01*
X001588Y006189D01*
X001550Y006159D01*
X001510Y006132D01*
X001468Y006109D01*
X001424Y006089D01*
X001379Y006072D01*
X001333Y006060D01*
X001285Y006051D01*
X001237Y006046D01*
X001189Y006045D01*
X001141Y006048D01*
X001093Y006055D01*
X001046Y006066D01*
X001000Y006080D01*
X000955Y006098D01*
X000912Y006120D01*
X000871Y006145D01*
X000833Y006174D01*
X000796Y006206D01*
X000762Y006240D01*
X000732Y006277D01*
X000704Y006316D01*
X000679Y006358D01*
X000659Y006402D01*
X000641Y006447D01*
X000628Y006493D01*
X000618Y006540D01*
X000612Y006588D01*
X000610Y006636D01*
X002270Y006591D02*
X002272Y006608D01*
X002277Y006624D01*
X002286Y006638D01*
X002298Y006650D01*
X002312Y006659D01*
X002328Y006664D01*
X002345Y006666D01*
X002362Y006664D01*
X002378Y006659D01*
X002392Y006650D01*
X002404Y006638D01*
X002413Y006624D01*
X002418Y006608D01*
X002420Y006591D01*
X002418Y006574D01*
X002413Y006558D01*
X002404Y006544D01*
X002392Y006532D01*
X002378Y006523D01*
X002362Y006518D01*
X002345Y006516D01*
X002328Y006518D01*
X002312Y006523D01*
X002298Y006532D01*
X002286Y006544D01*
X002277Y006558D01*
X002272Y006574D01*
X002270Y006591D01*
X002270Y006911D02*
X002272Y006928D01*
X002277Y006944D01*
X002286Y006958D01*
X002298Y006970D01*
X002312Y006979D01*
X002328Y006984D01*
X002345Y006986D01*
X002362Y006984D01*
X002378Y006979D01*
X002392Y006970D01*
X002404Y006958D01*
X002413Y006944D01*
X002418Y006928D01*
X002420Y006911D01*
X002418Y006894D01*
X002413Y006878D01*
X002404Y006864D01*
X002392Y006852D01*
X002378Y006843D01*
X002362Y006838D01*
X002345Y006836D01*
X002328Y006838D01*
X002312Y006843D01*
X002298Y006852D01*
X002286Y006864D01*
X002277Y006878D01*
X002272Y006894D01*
X002270Y006911D01*
X002270Y007231D02*
X002272Y007248D01*
X002277Y007264D01*
X002286Y007278D01*
X002298Y007290D01*
X002312Y007299D01*
X002328Y007304D01*
X002345Y007306D01*
X002362Y007304D01*
X002378Y007299D01*
X002392Y007290D01*
X002404Y007278D01*
X002413Y007264D01*
X002418Y007248D01*
X002420Y007231D01*
X002418Y007214D01*
X002413Y007198D01*
X002404Y007184D01*
X002392Y007172D01*
X002378Y007163D01*
X002362Y007158D01*
X002345Y007156D01*
X002328Y007158D01*
X002312Y007163D01*
X002298Y007172D01*
X002286Y007184D01*
X002277Y007198D01*
X002272Y007214D01*
X002270Y007231D01*
X002270Y007551D02*
X002272Y007568D01*
X002277Y007584D01*
X002286Y007598D01*
X002298Y007610D01*
X002312Y007619D01*
X002328Y007624D01*
X002345Y007626D01*
X002362Y007624D01*
X002378Y007619D01*
X002392Y007610D01*
X002404Y007598D01*
X002413Y007584D01*
X002418Y007568D01*
X002420Y007551D01*
X002418Y007534D01*
X002413Y007518D01*
X002404Y007504D01*
X002392Y007492D01*
X002378Y007483D01*
X002362Y007478D01*
X002345Y007476D01*
X002328Y007478D01*
X002312Y007483D01*
X002298Y007492D01*
X002286Y007504D01*
X002277Y007518D01*
X002272Y007534D01*
X002270Y007551D01*
X002270Y006271D02*
X002272Y006288D01*
X002277Y006304D01*
X002286Y006318D01*
X002298Y006330D01*
X002312Y006339D01*
X002328Y006344D01*
X002345Y006346D01*
X002362Y006344D01*
X002378Y006339D01*
X002392Y006330D01*
X002404Y006318D01*
X002413Y006304D01*
X002418Y006288D01*
X002420Y006271D01*
X002418Y006254D01*
X002413Y006238D01*
X002404Y006224D01*
X002392Y006212D01*
X002378Y006203D01*
X002362Y006198D01*
X002345Y006196D01*
X002328Y006198D01*
X002312Y006203D01*
X002298Y006212D01*
X002286Y006224D01*
X002277Y006238D01*
X002272Y006254D01*
X002270Y006271D01*
X002270Y005951D02*
X002272Y005968D01*
X002277Y005984D01*
X002286Y005998D01*
X002298Y006010D01*
X002312Y006019D01*
X002328Y006024D01*
X002345Y006026D01*
X002362Y006024D01*
X002378Y006019D01*
X002392Y006010D01*
X002404Y005998D01*
X002413Y005984D01*
X002418Y005968D01*
X002420Y005951D01*
X002418Y005934D01*
X002413Y005918D01*
X002404Y005904D01*
X002392Y005892D01*
X002378Y005883D01*
X002362Y005878D01*
X002345Y005876D01*
X002328Y005878D01*
X002312Y005883D01*
X002298Y005892D01*
X002286Y005904D01*
X002277Y005918D01*
X002272Y005934D01*
X002270Y005951D01*
X002270Y005671D02*
X002272Y005688D01*
X002277Y005704D01*
X002286Y005718D01*
X002298Y005730D01*
X002312Y005739D01*
X002328Y005744D01*
X002345Y005746D01*
X002362Y005744D01*
X002378Y005739D01*
X002392Y005730D01*
X002404Y005718D01*
X002413Y005704D01*
X002418Y005688D01*
X002420Y005671D01*
X002418Y005654D01*
X002413Y005638D01*
X002404Y005624D01*
X002392Y005612D01*
X002378Y005603D01*
X002362Y005598D01*
X002345Y005596D01*
X002328Y005598D01*
X002312Y005603D01*
X002298Y005612D01*
X002286Y005624D01*
X002277Y005638D01*
X002272Y005654D01*
X002270Y005671D01*
X006590Y005504D02*
X006592Y005521D01*
X006597Y005537D01*
X006606Y005551D01*
X006618Y005563D01*
X006632Y005572D01*
X006648Y005577D01*
X006665Y005579D01*
X006682Y005577D01*
X006698Y005572D01*
X006712Y005563D01*
X006724Y005551D01*
X006733Y005537D01*
X006738Y005521D01*
X006740Y005504D01*
X006738Y005487D01*
X006733Y005471D01*
X006724Y005457D01*
X006712Y005445D01*
X006698Y005436D01*
X006682Y005431D01*
X006665Y005429D01*
X006648Y005431D01*
X006632Y005436D01*
X006618Y005445D01*
X006606Y005457D01*
X006597Y005471D01*
X006592Y005487D01*
X006590Y005504D01*
X006910Y005504D02*
X006912Y005521D01*
X006917Y005537D01*
X006926Y005551D01*
X006938Y005563D01*
X006952Y005572D01*
X006968Y005577D01*
X006985Y005579D01*
X007002Y005577D01*
X007018Y005572D01*
X007032Y005563D01*
X007044Y005551D01*
X007053Y005537D01*
X007058Y005521D01*
X007060Y005504D01*
X007058Y005487D01*
X007053Y005471D01*
X007044Y005457D01*
X007032Y005445D01*
X007018Y005436D01*
X007002Y005431D01*
X006985Y005429D01*
X006968Y005431D01*
X006952Y005436D01*
X006938Y005445D01*
X006926Y005457D01*
X006917Y005471D01*
X006912Y005487D01*
X006910Y005504D01*
X007230Y005504D02*
X007232Y005521D01*
X007237Y005537D01*
X007246Y005551D01*
X007258Y005563D01*
X007272Y005572D01*
X007288Y005577D01*
X007305Y005579D01*
X007322Y005577D01*
X007338Y005572D01*
X007352Y005563D01*
X007364Y005551D01*
X007373Y005537D01*
X007378Y005521D01*
X007380Y005504D01*
X007378Y005487D01*
X007373Y005471D01*
X007364Y005457D01*
X007352Y005445D01*
X007338Y005436D01*
X007322Y005431D01*
X007305Y005429D01*
X007288Y005431D01*
X007272Y005436D01*
X007258Y005445D01*
X007246Y005457D01*
X007237Y005471D01*
X007232Y005487D01*
X007230Y005504D01*
X007550Y005504D02*
X007552Y005521D01*
X007557Y005537D01*
X007566Y005551D01*
X007578Y005563D01*
X007592Y005572D01*
X007608Y005577D01*
X007625Y005579D01*
X007642Y005577D01*
X007658Y005572D01*
X007672Y005563D01*
X007684Y005551D01*
X007693Y005537D01*
X007698Y005521D01*
X007700Y005504D01*
X007698Y005487D01*
X007693Y005471D01*
X007684Y005457D01*
X007672Y005445D01*
X007658Y005436D01*
X007642Y005431D01*
X007625Y005429D01*
X007608Y005431D01*
X007592Y005436D01*
X007578Y005445D01*
X007566Y005457D01*
X007557Y005471D01*
X007552Y005487D01*
X007550Y005504D01*
X007870Y005504D02*
X007872Y005521D01*
X007877Y005537D01*
X007886Y005551D01*
X007898Y005563D01*
X007912Y005572D01*
X007928Y005577D01*
X007945Y005579D01*
X007962Y005577D01*
X007978Y005572D01*
X007992Y005563D01*
X008004Y005551D01*
X008013Y005537D01*
X008018Y005521D01*
X008020Y005504D01*
X008018Y005487D01*
X008013Y005471D01*
X008004Y005457D01*
X007992Y005445D01*
X007978Y005436D01*
X007962Y005431D01*
X007945Y005429D01*
X007928Y005431D01*
X007912Y005436D01*
X007898Y005445D01*
X007886Y005457D01*
X007877Y005471D01*
X007872Y005487D01*
X007870Y005504D01*
X008190Y005504D02*
X008192Y005521D01*
X008197Y005537D01*
X008206Y005551D01*
X008218Y005563D01*
X008232Y005572D01*
X008248Y005577D01*
X008265Y005579D01*
X008282Y005577D01*
X008298Y005572D01*
X008312Y005563D01*
X008324Y005551D01*
X008333Y005537D01*
X008338Y005521D01*
X008340Y005504D01*
X008338Y005487D01*
X008333Y005471D01*
X008324Y005457D01*
X008312Y005445D01*
X008298Y005436D01*
X008282Y005431D01*
X008265Y005429D01*
X008248Y005431D01*
X008232Y005436D01*
X008218Y005445D01*
X008206Y005457D01*
X008197Y005471D01*
X008192Y005487D01*
X008190Y005504D01*
X006930Y004716D02*
X006932Y004764D01*
X006938Y004812D01*
X006948Y004859D01*
X006961Y004905D01*
X006979Y004950D01*
X006999Y004994D01*
X007024Y005036D01*
X007052Y005075D01*
X007082Y005112D01*
X007116Y005146D01*
X007153Y005178D01*
X007191Y005207D01*
X007232Y005232D01*
X007275Y005254D01*
X007320Y005272D01*
X007366Y005286D01*
X007413Y005297D01*
X007461Y005304D01*
X007509Y005307D01*
X007557Y005306D01*
X007605Y005301D01*
X007653Y005292D01*
X007699Y005280D01*
X007744Y005263D01*
X007788Y005243D01*
X007830Y005220D01*
X007870Y005193D01*
X007908Y005163D01*
X007943Y005130D01*
X007975Y005094D01*
X008005Y005056D01*
X008031Y005015D01*
X008053Y004972D01*
X008073Y004928D01*
X008088Y004883D01*
X008100Y004836D01*
X008108Y004788D01*
X008112Y004740D01*
X008112Y004692D01*
X008108Y004644D01*
X008100Y004596D01*
X008088Y004549D01*
X008073Y004504D01*
X008053Y004460D01*
X008031Y004417D01*
X008005Y004376D01*
X007975Y004338D01*
X007943Y004302D01*
X007908Y004269D01*
X007870Y004239D01*
X007830Y004212D01*
X007788Y004189D01*
X007744Y004169D01*
X007699Y004152D01*
X007653Y004140D01*
X007605Y004131D01*
X007557Y004126D01*
X007509Y004125D01*
X007461Y004128D01*
X007413Y004135D01*
X007366Y004146D01*
X007320Y004160D01*
X007275Y004178D01*
X007232Y004200D01*
X007191Y004225D01*
X007153Y004254D01*
X007116Y004286D01*
X007082Y004320D01*
X007052Y004357D01*
X007024Y004396D01*
X006999Y004438D01*
X006979Y004482D01*
X006961Y004527D01*
X006948Y004573D01*
X006938Y004620D01*
X006932Y004668D01*
X006930Y004716D01*
X012870Y003851D02*
X017270Y003851D01*
X017634Y004047D02*
X017636Y004064D01*
X017641Y004080D01*
X017650Y004094D01*
X017662Y004106D01*
X017676Y004115D01*
X017692Y004120D01*
X017709Y004122D01*
X017726Y004120D01*
X017742Y004115D01*
X017756Y004106D01*
X017768Y004094D01*
X017777Y004080D01*
X017782Y004064D01*
X017784Y004047D01*
X017782Y004030D01*
X017777Y004014D01*
X017768Y004000D01*
X017756Y003988D01*
X017742Y003979D01*
X017726Y003974D01*
X017709Y003972D01*
X017692Y003974D01*
X017676Y003979D01*
X017662Y003988D01*
X017650Y004000D01*
X017641Y004014D01*
X017636Y004030D01*
X017634Y004047D01*
X017634Y004343D02*
X017636Y004360D01*
X017641Y004376D01*
X017650Y004390D01*
X017662Y004402D01*
X017676Y004411D01*
X017692Y004416D01*
X017709Y004418D01*
X017726Y004416D01*
X017742Y004411D01*
X017756Y004402D01*
X017768Y004390D01*
X017777Y004376D01*
X017782Y004360D01*
X017784Y004343D01*
X017782Y004326D01*
X017777Y004310D01*
X017768Y004296D01*
X017756Y004284D01*
X017742Y004275D01*
X017726Y004270D01*
X017709Y004268D01*
X017692Y004270D01*
X017676Y004275D01*
X017662Y004284D01*
X017650Y004296D01*
X017641Y004310D01*
X017636Y004326D01*
X017634Y004343D01*
X017634Y004638D02*
X017636Y004655D01*
X017641Y004671D01*
X017650Y004685D01*
X017662Y004697D01*
X017676Y004706D01*
X017692Y004711D01*
X017709Y004713D01*
X017726Y004711D01*
X017742Y004706D01*
X017756Y004697D01*
X017768Y004685D01*
X017777Y004671D01*
X017782Y004655D01*
X017784Y004638D01*
X017782Y004621D01*
X017777Y004605D01*
X017768Y004591D01*
X017756Y004579D01*
X017742Y004570D01*
X017726Y004565D01*
X017709Y004563D01*
X017692Y004565D01*
X017676Y004570D01*
X017662Y004579D01*
X017650Y004591D01*
X017641Y004605D01*
X017636Y004621D01*
X017634Y004638D01*
X017634Y004933D02*
X017636Y004950D01*
X017641Y004966D01*
X017650Y004980D01*
X017662Y004992D01*
X017676Y005001D01*
X017692Y005006D01*
X017709Y005008D01*
X017726Y005006D01*
X017742Y005001D01*
X017756Y004992D01*
X017768Y004980D01*
X017777Y004966D01*
X017782Y004950D01*
X017784Y004933D01*
X017782Y004916D01*
X017777Y004900D01*
X017768Y004886D01*
X017756Y004874D01*
X017742Y004865D01*
X017726Y004860D01*
X017709Y004858D01*
X017692Y004860D01*
X017676Y004865D01*
X017662Y004874D01*
X017650Y004886D01*
X017641Y004900D01*
X017636Y004916D01*
X017634Y004933D01*
X017634Y005229D02*
X017636Y005246D01*
X017641Y005262D01*
X017650Y005276D01*
X017662Y005288D01*
X017676Y005297D01*
X017692Y005302D01*
X017709Y005304D01*
X017726Y005302D01*
X017742Y005297D01*
X017756Y005288D01*
X017768Y005276D01*
X017777Y005262D01*
X017782Y005246D01*
X017784Y005229D01*
X017782Y005212D01*
X017777Y005196D01*
X017768Y005182D01*
X017756Y005170D01*
X017742Y005161D01*
X017726Y005156D01*
X017709Y005154D01*
X017692Y005156D01*
X017676Y005161D01*
X017662Y005170D01*
X017650Y005182D01*
X017641Y005196D01*
X017636Y005212D01*
X017634Y005229D01*
X017634Y005524D02*
X017636Y005541D01*
X017641Y005557D01*
X017650Y005571D01*
X017662Y005583D01*
X017676Y005592D01*
X017692Y005597D01*
X017709Y005599D01*
X017726Y005597D01*
X017742Y005592D01*
X017756Y005583D01*
X017768Y005571D01*
X017777Y005557D01*
X017782Y005541D01*
X017784Y005524D01*
X017782Y005507D01*
X017777Y005491D01*
X017768Y005477D01*
X017756Y005465D01*
X017742Y005456D01*
X017726Y005451D01*
X017709Y005449D01*
X017692Y005451D01*
X017676Y005456D01*
X017662Y005465D01*
X017650Y005477D01*
X017641Y005491D01*
X017636Y005507D01*
X017634Y005524D01*
X017634Y005819D02*
X017636Y005836D01*
X017641Y005852D01*
X017650Y005866D01*
X017662Y005878D01*
X017676Y005887D01*
X017692Y005892D01*
X017709Y005894D01*
X017726Y005892D01*
X017742Y005887D01*
X017756Y005878D01*
X017768Y005866D01*
X017777Y005852D01*
X017782Y005836D01*
X017784Y005819D01*
X017782Y005802D01*
X017777Y005786D01*
X017768Y005772D01*
X017756Y005760D01*
X017742Y005751D01*
X017726Y005746D01*
X017709Y005744D01*
X017692Y005746D01*
X017676Y005751D01*
X017662Y005760D01*
X017650Y005772D01*
X017641Y005786D01*
X017636Y005802D01*
X017634Y005819D01*
X018022Y004933D02*
X018024Y004981D01*
X018030Y005029D01*
X018040Y005076D01*
X018053Y005122D01*
X018071Y005167D01*
X018091Y005211D01*
X018116Y005253D01*
X018144Y005292D01*
X018174Y005329D01*
X018208Y005363D01*
X018245Y005395D01*
X018283Y005424D01*
X018324Y005449D01*
X018367Y005471D01*
X018412Y005489D01*
X018458Y005503D01*
X018505Y005514D01*
X018553Y005521D01*
X018601Y005524D01*
X018649Y005523D01*
X018697Y005518D01*
X018745Y005509D01*
X018791Y005497D01*
X018836Y005480D01*
X018880Y005460D01*
X018922Y005437D01*
X018962Y005410D01*
X019000Y005380D01*
X019035Y005347D01*
X019067Y005311D01*
X019097Y005273D01*
X019123Y005232D01*
X019145Y005189D01*
X019165Y005145D01*
X019180Y005100D01*
X019192Y005053D01*
X019200Y005005D01*
X019204Y004957D01*
X019204Y004909D01*
X019200Y004861D01*
X019192Y004813D01*
X019180Y004766D01*
X019165Y004721D01*
X019145Y004677D01*
X019123Y004634D01*
X019097Y004593D01*
X019067Y004555D01*
X019035Y004519D01*
X019000Y004486D01*
X018962Y004456D01*
X018922Y004429D01*
X018880Y004406D01*
X018836Y004386D01*
X018791Y004369D01*
X018745Y004357D01*
X018697Y004348D01*
X018649Y004343D01*
X018601Y004342D01*
X018553Y004345D01*
X018505Y004352D01*
X018458Y004363D01*
X018412Y004377D01*
X018367Y004395D01*
X018324Y004417D01*
X018283Y004442D01*
X018245Y004471D01*
X018208Y004503D01*
X018174Y004537D01*
X018144Y004574D01*
X018116Y004613D01*
X018091Y004655D01*
X018071Y004699D01*
X018053Y004744D01*
X018040Y004790D01*
X018030Y004837D01*
X018024Y004885D01*
X018022Y004933D01*
X018712Y003850D02*
X018775Y003852D01*
X018838Y003857D01*
X018900Y003866D01*
X018962Y003879D01*
X019023Y003895D01*
X019082Y003915D01*
X019141Y003939D01*
X019198Y003965D01*
X019254Y003995D01*
X019307Y004028D01*
X019359Y004064D01*
X019408Y004103D01*
X019455Y004145D01*
X019500Y004190D01*
X019542Y004237D01*
X019581Y004286D01*
X019617Y004338D01*
X019650Y004392D01*
X019680Y004447D01*
X019706Y004504D01*
X019730Y004563D01*
X019750Y004622D01*
X019766Y004683D01*
X019779Y004745D01*
X019788Y004807D01*
X019793Y004870D01*
X019795Y004933D01*
X007024Y018599D02*
X002624Y018599D01*
X002190Y018402D02*
X002192Y018419D01*
X002197Y018435D01*
X002206Y018449D01*
X002218Y018461D01*
X002232Y018470D01*
X002248Y018475D01*
X002265Y018477D01*
X002282Y018475D01*
X002298Y018470D01*
X002312Y018461D01*
X002324Y018449D01*
X002333Y018435D01*
X002338Y018419D01*
X002340Y018402D01*
X002338Y018385D01*
X002333Y018369D01*
X002324Y018355D01*
X002312Y018343D01*
X002298Y018334D01*
X002282Y018329D01*
X002265Y018327D01*
X002248Y018329D01*
X002232Y018334D01*
X002218Y018343D01*
X002206Y018355D01*
X002197Y018369D01*
X002192Y018385D01*
X002190Y018402D01*
X002190Y018107D02*
X002192Y018124D01*
X002197Y018140D01*
X002206Y018154D01*
X002218Y018166D01*
X002232Y018175D01*
X002248Y018180D01*
X002265Y018182D01*
X002282Y018180D01*
X002298Y018175D01*
X002312Y018166D01*
X002324Y018154D01*
X002333Y018140D01*
X002338Y018124D01*
X002340Y018107D01*
X002338Y018090D01*
X002333Y018074D01*
X002324Y018060D01*
X002312Y018048D01*
X002298Y018039D01*
X002282Y018034D01*
X002265Y018032D01*
X002248Y018034D01*
X002232Y018039D01*
X002218Y018048D01*
X002206Y018060D01*
X002197Y018074D01*
X002192Y018090D01*
X002190Y018107D01*
X002190Y017811D02*
X002192Y017828D01*
X002197Y017844D01*
X002206Y017858D01*
X002218Y017870D01*
X002232Y017879D01*
X002248Y017884D01*
X002265Y017886D01*
X002282Y017884D01*
X002298Y017879D01*
X002312Y017870D01*
X002324Y017858D01*
X002333Y017844D01*
X002338Y017828D01*
X002340Y017811D01*
X002338Y017794D01*
X002333Y017778D01*
X002324Y017764D01*
X002312Y017752D01*
X002298Y017743D01*
X002282Y017738D01*
X002265Y017736D01*
X002248Y017738D01*
X002232Y017743D01*
X002218Y017752D01*
X002206Y017764D01*
X002197Y017778D01*
X002192Y017794D01*
X002190Y017811D01*
X002190Y017516D02*
X002192Y017533D01*
X002197Y017549D01*
X002206Y017563D01*
X002218Y017575D01*
X002232Y017584D01*
X002248Y017589D01*
X002265Y017591D01*
X002282Y017589D01*
X002298Y017584D01*
X002312Y017575D01*
X002324Y017563D01*
X002333Y017549D01*
X002338Y017533D01*
X002340Y017516D01*
X002338Y017499D01*
X002333Y017483D01*
X002324Y017469D01*
X002312Y017457D01*
X002298Y017448D01*
X002282Y017443D01*
X002265Y017441D01*
X002248Y017443D01*
X002232Y017448D01*
X002218Y017457D01*
X002206Y017469D01*
X002197Y017483D01*
X002192Y017499D01*
X002190Y017516D01*
X002190Y017221D02*
X002192Y017238D01*
X002197Y017254D01*
X002206Y017268D01*
X002218Y017280D01*
X002232Y017289D01*
X002248Y017294D01*
X002265Y017296D01*
X002282Y017294D01*
X002298Y017289D01*
X002312Y017280D01*
X002324Y017268D01*
X002333Y017254D01*
X002338Y017238D01*
X002340Y017221D01*
X002338Y017204D01*
X002333Y017188D01*
X002324Y017174D01*
X002312Y017162D01*
X002298Y017153D01*
X002282Y017148D01*
X002265Y017146D01*
X002248Y017148D01*
X002232Y017153D01*
X002218Y017162D01*
X002206Y017174D01*
X002197Y017188D01*
X002192Y017204D01*
X002190Y017221D01*
X002190Y016926D02*
X002192Y016943D01*
X002197Y016959D01*
X002206Y016973D01*
X002218Y016985D01*
X002232Y016994D01*
X002248Y016999D01*
X002265Y017001D01*
X002282Y016999D01*
X002298Y016994D01*
X002312Y016985D01*
X002324Y016973D01*
X002333Y016959D01*
X002338Y016943D01*
X002340Y016926D01*
X002338Y016909D01*
X002333Y016893D01*
X002324Y016879D01*
X002312Y016867D01*
X002298Y016858D01*
X002282Y016853D01*
X002265Y016851D01*
X002248Y016853D01*
X002232Y016858D01*
X002218Y016867D01*
X002206Y016879D01*
X002197Y016893D01*
X002192Y016909D01*
X002190Y016926D01*
X002190Y016630D02*
X002192Y016647D01*
X002197Y016663D01*
X002206Y016677D01*
X002218Y016689D01*
X002232Y016698D01*
X002248Y016703D01*
X002265Y016705D01*
X002282Y016703D01*
X002298Y016698D01*
X002312Y016689D01*
X002324Y016677D01*
X002333Y016663D01*
X002338Y016647D01*
X002340Y016630D01*
X002338Y016613D01*
X002333Y016597D01*
X002324Y016583D01*
X002312Y016571D01*
X002298Y016562D01*
X002282Y016557D01*
X002265Y016555D01*
X002248Y016557D01*
X002232Y016562D01*
X002218Y016571D01*
X002206Y016583D01*
X002197Y016597D01*
X002192Y016613D01*
X002190Y016630D01*
X000690Y017516D02*
X000692Y017564D01*
X000698Y017612D01*
X000708Y017659D01*
X000721Y017705D01*
X000739Y017750D01*
X000759Y017794D01*
X000784Y017836D01*
X000812Y017875D01*
X000842Y017912D01*
X000876Y017946D01*
X000913Y017978D01*
X000951Y018007D01*
X000992Y018032D01*
X001035Y018054D01*
X001080Y018072D01*
X001126Y018086D01*
X001173Y018097D01*
X001221Y018104D01*
X001269Y018107D01*
X001317Y018106D01*
X001365Y018101D01*
X001413Y018092D01*
X001459Y018080D01*
X001504Y018063D01*
X001548Y018043D01*
X001590Y018020D01*
X001630Y017993D01*
X001668Y017963D01*
X001703Y017930D01*
X001735Y017894D01*
X001765Y017856D01*
X001791Y017815D01*
X001813Y017772D01*
X001833Y017728D01*
X001848Y017683D01*
X001860Y017636D01*
X001868Y017588D01*
X001872Y017540D01*
X001872Y017492D01*
X001868Y017444D01*
X001860Y017396D01*
X001848Y017349D01*
X001833Y017304D01*
X001813Y017260D01*
X001791Y017217D01*
X001765Y017176D01*
X001735Y017138D01*
X001703Y017102D01*
X001668Y017069D01*
X001630Y017039D01*
X001590Y017012D01*
X001548Y016989D01*
X001504Y016969D01*
X001459Y016952D01*
X001413Y016940D01*
X001365Y016931D01*
X001317Y016926D01*
X001269Y016925D01*
X001221Y016928D01*
X001173Y016935D01*
X001126Y016946D01*
X001080Y016960D01*
X001035Y016978D01*
X000992Y017000D01*
X000951Y017025D01*
X000913Y017054D01*
X000876Y017086D01*
X000842Y017120D01*
X000812Y017157D01*
X000784Y017196D01*
X000759Y017238D01*
X000739Y017282D01*
X000721Y017327D01*
X000708Y017373D01*
X000698Y017420D01*
X000692Y017468D01*
X000690Y017516D01*
X011330Y022650D02*
X011332Y022698D01*
X011338Y022746D01*
X011348Y022793D01*
X011361Y022839D01*
X011379Y022884D01*
X011399Y022928D01*
X011424Y022970D01*
X011452Y023009D01*
X011482Y023046D01*
X011516Y023080D01*
X011553Y023112D01*
X011591Y023141D01*
X011632Y023166D01*
X011675Y023188D01*
X011720Y023206D01*
X011766Y023220D01*
X011813Y023231D01*
X011861Y023238D01*
X011909Y023241D01*
X011957Y023240D01*
X012005Y023235D01*
X012053Y023226D01*
X012099Y023214D01*
X012144Y023197D01*
X012188Y023177D01*
X012230Y023154D01*
X012270Y023127D01*
X012308Y023097D01*
X012343Y023064D01*
X012375Y023028D01*
X012405Y022990D01*
X012431Y022949D01*
X012453Y022906D01*
X012473Y022862D01*
X012488Y022817D01*
X012500Y022770D01*
X012508Y022722D01*
X012512Y022674D01*
X012512Y022626D01*
X012508Y022578D01*
X012500Y022530D01*
X012488Y022483D01*
X012473Y022438D01*
X012453Y022394D01*
X012431Y022351D01*
X012405Y022310D01*
X012375Y022272D01*
X012343Y022236D01*
X012308Y022203D01*
X012270Y022173D01*
X012230Y022146D01*
X012188Y022123D01*
X012144Y022103D01*
X012099Y022086D01*
X012053Y022074D01*
X012005Y022065D01*
X011957Y022060D01*
X011909Y022059D01*
X011861Y022062D01*
X011813Y022069D01*
X011766Y022080D01*
X011720Y022094D01*
X011675Y022112D01*
X011632Y022134D01*
X011591Y022159D01*
X011553Y022188D01*
X011516Y022220D01*
X011482Y022254D01*
X011452Y022291D01*
X011424Y022330D01*
X011399Y022372D01*
X011379Y022416D01*
X011361Y022461D01*
X011348Y022507D01*
X011338Y022554D01*
X011332Y022602D01*
X011330Y022650D01*
D11*
X008462Y013645D03*
X008462Y013153D03*
X008462Y012661D03*
X008462Y012169D03*
X007675Y012169D03*
X007675Y012661D03*
X007675Y013153D03*
X007675Y013645D03*
X011432Y010360D03*
X011432Y009868D03*
X011432Y009376D03*
X011432Y008884D03*
X012220Y008884D03*
X012220Y009376D03*
X012220Y009868D03*
X012220Y010360D03*
D12*
X013659Y009914D02*
X013659Y008326D01*
X013659Y009914D02*
X015247Y009914D01*
X015247Y008326D01*
X013659Y008326D01*
X013659Y008409D02*
X015247Y008409D01*
X015247Y008492D02*
X013659Y008492D01*
X013659Y008575D02*
X015247Y008575D01*
X015247Y008658D02*
X013659Y008658D01*
X013659Y008741D02*
X015247Y008741D01*
X015247Y008824D02*
X013659Y008824D01*
X013659Y008907D02*
X015247Y008907D01*
X015247Y008990D02*
X013659Y008990D01*
X013659Y009073D02*
X015247Y009073D01*
X015247Y009156D02*
X013659Y009156D01*
X013659Y009239D02*
X015247Y009239D01*
X015247Y009322D02*
X013659Y009322D01*
X013659Y009405D02*
X015247Y009405D01*
X015247Y009488D02*
X013659Y009488D01*
X013659Y009571D02*
X015247Y009571D01*
X015247Y009654D02*
X013659Y009654D01*
X013659Y009737D02*
X015247Y009737D01*
X015247Y009820D02*
X013659Y009820D01*
X013659Y009903D02*
X015247Y009903D01*
X006235Y012535D02*
X006235Y014123D01*
X006235Y012535D02*
X004647Y012535D01*
X004647Y014123D01*
X006235Y014123D01*
X006235Y012618D02*
X004647Y012618D01*
X004647Y012701D02*
X006235Y012701D01*
X006235Y012784D02*
X004647Y012784D01*
X004647Y012867D02*
X006235Y012867D01*
X006235Y012950D02*
X004647Y012950D01*
X004647Y013033D02*
X006235Y013033D01*
X006235Y013116D02*
X004647Y013116D01*
X004647Y013199D02*
X006235Y013199D01*
X006235Y013282D02*
X004647Y013282D01*
X004647Y013365D02*
X006235Y013365D01*
X006235Y013448D02*
X004647Y013448D01*
X004647Y013531D02*
X006235Y013531D01*
X006235Y013614D02*
X004647Y013614D01*
X004647Y013697D02*
X006235Y013697D01*
X006235Y013780D02*
X004647Y013780D01*
X004647Y013863D02*
X006235Y013863D01*
X006235Y013946D02*
X004647Y013946D01*
X004647Y014029D02*
X006235Y014029D01*
X006235Y014112D02*
X004647Y014112D01*
D13*
X004597Y014852D02*
X004513Y014852D01*
X004597Y014852D02*
X004597Y014532D01*
X004513Y014532D01*
X004513Y014852D01*
X004513Y014566D02*
X004597Y014566D01*
X004597Y014600D02*
X004513Y014600D01*
X004513Y014634D02*
X004597Y014634D01*
X004597Y014668D02*
X004513Y014668D01*
X004513Y014702D02*
X004597Y014702D01*
X004597Y014736D02*
X004513Y014736D01*
X004513Y014770D02*
X004597Y014770D01*
X004597Y014804D02*
X004513Y014804D01*
X004513Y014838D02*
X004597Y014838D01*
X004710Y014852D02*
X004794Y014852D01*
X004794Y014532D01*
X004710Y014532D01*
X004710Y014852D01*
X004710Y014566D02*
X004794Y014566D01*
X004794Y014600D02*
X004710Y014600D01*
X004710Y014634D02*
X004794Y014634D01*
X004794Y014668D02*
X004710Y014668D01*
X004710Y014702D02*
X004794Y014702D01*
X004794Y014736D02*
X004710Y014736D01*
X004710Y014770D02*
X004794Y014770D01*
X004794Y014804D02*
X004710Y014804D01*
X004710Y014838D02*
X004794Y014838D01*
X004907Y014852D02*
X004991Y014852D01*
X004991Y014532D01*
X004907Y014532D01*
X004907Y014852D01*
X004907Y014566D02*
X004991Y014566D01*
X004991Y014600D02*
X004907Y014600D01*
X004907Y014634D02*
X004991Y014634D01*
X004991Y014668D02*
X004907Y014668D01*
X004907Y014702D02*
X004991Y014702D01*
X004991Y014736D02*
X004907Y014736D01*
X004907Y014770D02*
X004991Y014770D01*
X004991Y014804D02*
X004907Y014804D01*
X004907Y014838D02*
X004991Y014838D01*
X005104Y014852D02*
X005188Y014852D01*
X005188Y014532D01*
X005104Y014532D01*
X005104Y014852D01*
X005104Y014566D02*
X005188Y014566D01*
X005188Y014600D02*
X005104Y014600D01*
X005104Y014634D02*
X005188Y014634D01*
X005188Y014668D02*
X005104Y014668D01*
X005104Y014702D02*
X005188Y014702D01*
X005188Y014736D02*
X005104Y014736D01*
X005104Y014770D02*
X005188Y014770D01*
X005188Y014804D02*
X005104Y014804D01*
X005104Y014838D02*
X005188Y014838D01*
X005301Y014852D02*
X005385Y014852D01*
X005385Y014532D01*
X005301Y014532D01*
X005301Y014852D01*
X005301Y014566D02*
X005385Y014566D01*
X005385Y014600D02*
X005301Y014600D01*
X005301Y014634D02*
X005385Y014634D01*
X005385Y014668D02*
X005301Y014668D01*
X005301Y014702D02*
X005385Y014702D01*
X005385Y014736D02*
X005301Y014736D01*
X005301Y014770D02*
X005385Y014770D01*
X005385Y014804D02*
X005301Y014804D01*
X005301Y014838D02*
X005385Y014838D01*
X005498Y014852D02*
X005582Y014852D01*
X005582Y014532D01*
X005498Y014532D01*
X005498Y014852D01*
X005498Y014566D02*
X005582Y014566D01*
X005582Y014600D02*
X005498Y014600D01*
X005498Y014634D02*
X005582Y014634D01*
X005582Y014668D02*
X005498Y014668D01*
X005498Y014702D02*
X005582Y014702D01*
X005582Y014736D02*
X005498Y014736D01*
X005498Y014770D02*
X005582Y014770D01*
X005582Y014804D02*
X005498Y014804D01*
X005498Y014838D02*
X005582Y014838D01*
X005695Y014852D02*
X005779Y014852D01*
X005779Y014532D01*
X005695Y014532D01*
X005695Y014852D01*
X005695Y014566D02*
X005779Y014566D01*
X005779Y014600D02*
X005695Y014600D01*
X005695Y014634D02*
X005779Y014634D01*
X005779Y014668D02*
X005695Y014668D01*
X005695Y014702D02*
X005779Y014702D01*
X005779Y014736D02*
X005695Y014736D01*
X005695Y014770D02*
X005779Y014770D01*
X005779Y014804D02*
X005695Y014804D01*
X005695Y014838D02*
X005779Y014838D01*
X005891Y014852D02*
X005975Y014852D01*
X005975Y014532D01*
X005891Y014532D01*
X005891Y014852D01*
X005891Y014566D02*
X005975Y014566D01*
X005975Y014600D02*
X005891Y014600D01*
X005891Y014634D02*
X005975Y014634D01*
X005975Y014668D02*
X005891Y014668D01*
X005891Y014702D02*
X005975Y014702D01*
X005975Y014736D02*
X005891Y014736D01*
X005891Y014770D02*
X005975Y014770D01*
X005975Y014804D02*
X005891Y014804D01*
X005891Y014838D02*
X005975Y014838D01*
X006088Y014852D02*
X006172Y014852D01*
X006172Y014532D01*
X006088Y014532D01*
X006088Y014852D01*
X006088Y014566D02*
X006172Y014566D01*
X006172Y014600D02*
X006088Y014600D01*
X006088Y014634D02*
X006172Y014634D01*
X006172Y014668D02*
X006088Y014668D01*
X006088Y014702D02*
X006172Y014702D01*
X006172Y014736D02*
X006088Y014736D01*
X006088Y014770D02*
X006172Y014770D01*
X006172Y014804D02*
X006088Y014804D01*
X006088Y014838D02*
X006172Y014838D01*
X006285Y014852D02*
X006369Y014852D01*
X006369Y014532D01*
X006285Y014532D01*
X006285Y014852D01*
X006285Y014566D02*
X006369Y014566D01*
X006369Y014600D02*
X006285Y014600D01*
X006285Y014634D02*
X006369Y014634D01*
X006369Y014668D02*
X006285Y014668D01*
X006285Y014702D02*
X006369Y014702D01*
X006369Y014736D02*
X006285Y014736D01*
X006285Y014770D02*
X006369Y014770D01*
X006369Y014804D02*
X006285Y014804D01*
X006285Y014838D02*
X006369Y014838D01*
X006482Y014852D02*
X006566Y014852D01*
X006566Y014532D01*
X006482Y014532D01*
X006482Y014852D01*
X006482Y014566D02*
X006566Y014566D01*
X006566Y014600D02*
X006482Y014600D01*
X006482Y014634D02*
X006566Y014634D01*
X006566Y014668D02*
X006482Y014668D01*
X006482Y014702D02*
X006566Y014702D01*
X006566Y014736D02*
X006482Y014736D01*
X006482Y014770D02*
X006566Y014770D01*
X006566Y014804D02*
X006482Y014804D01*
X006482Y014838D02*
X006566Y014838D01*
X006964Y014454D02*
X006964Y014370D01*
X006644Y014370D01*
X006644Y014454D01*
X006964Y014454D01*
X006964Y014404D02*
X006644Y014404D01*
X006644Y014438D02*
X006964Y014438D01*
X006964Y014257D02*
X006964Y014173D01*
X006644Y014173D01*
X006644Y014257D01*
X006964Y014257D01*
X006964Y014207D02*
X006644Y014207D01*
X006644Y014241D02*
X006964Y014241D01*
X006964Y014060D02*
X006964Y013976D01*
X006644Y013976D01*
X006644Y014060D01*
X006964Y014060D01*
X006964Y014010D02*
X006644Y014010D01*
X006644Y014044D02*
X006964Y014044D01*
X006964Y013863D02*
X006964Y013779D01*
X006644Y013779D01*
X006644Y013863D01*
X006964Y013863D01*
X006964Y013813D02*
X006644Y013813D01*
X006644Y013847D02*
X006964Y013847D01*
X006964Y013666D02*
X006964Y013582D01*
X006644Y013582D01*
X006644Y013666D01*
X006964Y013666D01*
X006964Y013616D02*
X006644Y013616D01*
X006644Y013650D02*
X006964Y013650D01*
X006964Y013470D02*
X006964Y013386D01*
X006644Y013386D01*
X006644Y013470D01*
X006964Y013470D01*
X006964Y013420D02*
X006644Y013420D01*
X006644Y013454D02*
X006964Y013454D01*
X006964Y013273D02*
X006964Y013189D01*
X006644Y013189D01*
X006644Y013273D01*
X006964Y013273D01*
X006964Y013223D02*
X006644Y013223D01*
X006644Y013257D02*
X006964Y013257D01*
X006964Y013076D02*
X006964Y012992D01*
X006644Y012992D01*
X006644Y013076D01*
X006964Y013076D01*
X006964Y013026D02*
X006644Y013026D01*
X006644Y013060D02*
X006964Y013060D01*
X006964Y012879D02*
X006964Y012795D01*
X006644Y012795D01*
X006644Y012879D01*
X006964Y012879D01*
X006964Y012829D02*
X006644Y012829D01*
X006644Y012863D02*
X006964Y012863D01*
X006964Y012682D02*
X006964Y012598D01*
X006644Y012598D01*
X006644Y012682D01*
X006964Y012682D01*
X006964Y012632D02*
X006644Y012632D01*
X006644Y012666D02*
X006964Y012666D01*
X006964Y012485D02*
X006964Y012401D01*
X006644Y012401D01*
X006644Y012485D01*
X006964Y012485D01*
X006964Y012435D02*
X006644Y012435D01*
X006644Y012469D02*
X006964Y012469D01*
X006964Y012288D02*
X006964Y012204D01*
X006644Y012204D01*
X006644Y012288D01*
X006964Y012288D01*
X006964Y012238D02*
X006644Y012238D01*
X006644Y012272D02*
X006964Y012272D01*
X006566Y011806D02*
X006482Y011806D01*
X006482Y012126D01*
X006566Y012126D01*
X006566Y011806D01*
X006566Y011840D02*
X006482Y011840D01*
X006482Y011874D02*
X006566Y011874D01*
X006566Y011908D02*
X006482Y011908D01*
X006482Y011942D02*
X006566Y011942D01*
X006566Y011976D02*
X006482Y011976D01*
X006482Y012010D02*
X006566Y012010D01*
X006566Y012044D02*
X006482Y012044D01*
X006482Y012078D02*
X006566Y012078D01*
X006566Y012112D02*
X006482Y012112D01*
X006369Y011806D02*
X006285Y011806D01*
X006285Y012126D01*
X006369Y012126D01*
X006369Y011806D01*
X006369Y011840D02*
X006285Y011840D01*
X006285Y011874D02*
X006369Y011874D01*
X006369Y011908D02*
X006285Y011908D01*
X006285Y011942D02*
X006369Y011942D01*
X006369Y011976D02*
X006285Y011976D01*
X006285Y012010D02*
X006369Y012010D01*
X006369Y012044D02*
X006285Y012044D01*
X006285Y012078D02*
X006369Y012078D01*
X006369Y012112D02*
X006285Y012112D01*
X006172Y011806D02*
X006088Y011806D01*
X006088Y012126D01*
X006172Y012126D01*
X006172Y011806D01*
X006172Y011840D02*
X006088Y011840D01*
X006088Y011874D02*
X006172Y011874D01*
X006172Y011908D02*
X006088Y011908D01*
X006088Y011942D02*
X006172Y011942D01*
X006172Y011976D02*
X006088Y011976D01*
X006088Y012010D02*
X006172Y012010D01*
X006172Y012044D02*
X006088Y012044D01*
X006088Y012078D02*
X006172Y012078D01*
X006172Y012112D02*
X006088Y012112D01*
X005975Y011806D02*
X005891Y011806D01*
X005891Y012126D01*
X005975Y012126D01*
X005975Y011806D01*
X005975Y011840D02*
X005891Y011840D01*
X005891Y011874D02*
X005975Y011874D01*
X005975Y011908D02*
X005891Y011908D01*
X005891Y011942D02*
X005975Y011942D01*
X005975Y011976D02*
X005891Y011976D01*
X005891Y012010D02*
X005975Y012010D01*
X005975Y012044D02*
X005891Y012044D01*
X005891Y012078D02*
X005975Y012078D01*
X005975Y012112D02*
X005891Y012112D01*
X005779Y011806D02*
X005695Y011806D01*
X005695Y012126D01*
X005779Y012126D01*
X005779Y011806D01*
X005779Y011840D02*
X005695Y011840D01*
X005695Y011874D02*
X005779Y011874D01*
X005779Y011908D02*
X005695Y011908D01*
X005695Y011942D02*
X005779Y011942D01*
X005779Y011976D02*
X005695Y011976D01*
X005695Y012010D02*
X005779Y012010D01*
X005779Y012044D02*
X005695Y012044D01*
X005695Y012078D02*
X005779Y012078D01*
X005779Y012112D02*
X005695Y012112D01*
X005582Y011806D02*
X005498Y011806D01*
X005498Y012126D01*
X005582Y012126D01*
X005582Y011806D01*
X005582Y011840D02*
X005498Y011840D01*
X005498Y011874D02*
X005582Y011874D01*
X005582Y011908D02*
X005498Y011908D01*
X005498Y011942D02*
X005582Y011942D01*
X005582Y011976D02*
X005498Y011976D01*
X005498Y012010D02*
X005582Y012010D01*
X005582Y012044D02*
X005498Y012044D01*
X005498Y012078D02*
X005582Y012078D01*
X005582Y012112D02*
X005498Y012112D01*
X005385Y011806D02*
X005301Y011806D01*
X005301Y012126D01*
X005385Y012126D01*
X005385Y011806D01*
X005385Y011840D02*
X005301Y011840D01*
X005301Y011874D02*
X005385Y011874D01*
X005385Y011908D02*
X005301Y011908D01*
X005301Y011942D02*
X005385Y011942D01*
X005385Y011976D02*
X005301Y011976D01*
X005301Y012010D02*
X005385Y012010D01*
X005385Y012044D02*
X005301Y012044D01*
X005301Y012078D02*
X005385Y012078D01*
X005385Y012112D02*
X005301Y012112D01*
X005188Y011806D02*
X005104Y011806D01*
X005104Y012126D01*
X005188Y012126D01*
X005188Y011806D01*
X005188Y011840D02*
X005104Y011840D01*
X005104Y011874D02*
X005188Y011874D01*
X005188Y011908D02*
X005104Y011908D01*
X005104Y011942D02*
X005188Y011942D01*
X005188Y011976D02*
X005104Y011976D01*
X005104Y012010D02*
X005188Y012010D01*
X005188Y012044D02*
X005104Y012044D01*
X005104Y012078D02*
X005188Y012078D01*
X005188Y012112D02*
X005104Y012112D01*
X004991Y011806D02*
X004907Y011806D01*
X004907Y012126D01*
X004991Y012126D01*
X004991Y011806D01*
X004991Y011840D02*
X004907Y011840D01*
X004907Y011874D02*
X004991Y011874D01*
X004991Y011908D02*
X004907Y011908D01*
X004907Y011942D02*
X004991Y011942D01*
X004991Y011976D02*
X004907Y011976D01*
X004907Y012010D02*
X004991Y012010D01*
X004991Y012044D02*
X004907Y012044D01*
X004907Y012078D02*
X004991Y012078D01*
X004991Y012112D02*
X004907Y012112D01*
X004794Y011806D02*
X004710Y011806D01*
X004710Y012126D01*
X004794Y012126D01*
X004794Y011806D01*
X004794Y011840D02*
X004710Y011840D01*
X004710Y011874D02*
X004794Y011874D01*
X004794Y011908D02*
X004710Y011908D01*
X004710Y011942D02*
X004794Y011942D01*
X004794Y011976D02*
X004710Y011976D01*
X004710Y012010D02*
X004794Y012010D01*
X004794Y012044D02*
X004710Y012044D01*
X004710Y012078D02*
X004794Y012078D01*
X004794Y012112D02*
X004710Y012112D01*
X004597Y011806D02*
X004513Y011806D01*
X004513Y012126D01*
X004597Y012126D01*
X004597Y011806D01*
X004597Y011840D02*
X004513Y011840D01*
X004513Y011874D02*
X004597Y011874D01*
X004597Y011908D02*
X004513Y011908D01*
X004513Y011942D02*
X004597Y011942D01*
X004597Y011976D02*
X004513Y011976D01*
X004513Y012010D02*
X004597Y012010D01*
X004597Y012044D02*
X004513Y012044D01*
X004513Y012078D02*
X004597Y012078D01*
X004597Y012112D02*
X004513Y012112D01*
X004401Y011806D02*
X004317Y011806D01*
X004317Y012126D01*
X004401Y012126D01*
X004401Y011806D01*
X004401Y011840D02*
X004317Y011840D01*
X004317Y011874D02*
X004401Y011874D01*
X004401Y011908D02*
X004317Y011908D01*
X004317Y011942D02*
X004401Y011942D01*
X004401Y011976D02*
X004317Y011976D01*
X004317Y012010D02*
X004401Y012010D01*
X004401Y012044D02*
X004317Y012044D01*
X004317Y012078D02*
X004401Y012078D01*
X004401Y012112D02*
X004317Y012112D01*
X003918Y012204D02*
X003918Y012288D01*
X004238Y012288D01*
X004238Y012204D01*
X003918Y012204D01*
X003918Y012238D02*
X004238Y012238D01*
X004238Y012272D02*
X003918Y012272D01*
X003918Y012401D02*
X003918Y012485D01*
X004238Y012485D01*
X004238Y012401D01*
X003918Y012401D01*
X003918Y012435D02*
X004238Y012435D01*
X004238Y012469D02*
X003918Y012469D01*
X003918Y012598D02*
X003918Y012682D01*
X004238Y012682D01*
X004238Y012598D01*
X003918Y012598D01*
X003918Y012632D02*
X004238Y012632D01*
X004238Y012666D02*
X003918Y012666D01*
X003918Y012795D02*
X003918Y012879D01*
X004238Y012879D01*
X004238Y012795D01*
X003918Y012795D01*
X003918Y012829D02*
X004238Y012829D01*
X004238Y012863D02*
X003918Y012863D01*
X003918Y012992D02*
X003918Y013076D01*
X004238Y013076D01*
X004238Y012992D01*
X003918Y012992D01*
X003918Y013026D02*
X004238Y013026D01*
X004238Y013060D02*
X003918Y013060D01*
X003918Y013189D02*
X003918Y013273D01*
X004238Y013273D01*
X004238Y013189D01*
X003918Y013189D01*
X003918Y013223D02*
X004238Y013223D01*
X004238Y013257D02*
X003918Y013257D01*
X003918Y013386D02*
X003918Y013470D01*
X004238Y013470D01*
X004238Y013386D01*
X003918Y013386D01*
X003918Y013420D02*
X004238Y013420D01*
X004238Y013454D02*
X003918Y013454D01*
X003918Y013582D02*
X003918Y013666D01*
X004238Y013666D01*
X004238Y013582D01*
X003918Y013582D01*
X003918Y013616D02*
X004238Y013616D01*
X004238Y013650D02*
X003918Y013650D01*
X003918Y013779D02*
X003918Y013863D01*
X004238Y013863D01*
X004238Y013779D01*
X003918Y013779D01*
X003918Y013813D02*
X004238Y013813D01*
X004238Y013847D02*
X003918Y013847D01*
X003918Y013976D02*
X003918Y014060D01*
X004238Y014060D01*
X004238Y013976D01*
X003918Y013976D01*
X003918Y014010D02*
X004238Y014010D01*
X004238Y014044D02*
X003918Y014044D01*
X003918Y014173D02*
X003918Y014257D01*
X004238Y014257D01*
X004238Y014173D01*
X003918Y014173D01*
X003918Y014207D02*
X004238Y014207D01*
X004238Y014241D02*
X003918Y014241D01*
X003918Y014370D02*
X003918Y014454D01*
X004238Y014454D01*
X004238Y014370D01*
X003918Y014370D01*
X003918Y014404D02*
X004238Y014404D01*
X004238Y014438D02*
X003918Y014438D01*
X004317Y014852D02*
X004401Y014852D01*
X004401Y014532D01*
X004317Y014532D01*
X004317Y014852D01*
X004317Y014566D02*
X004401Y014566D01*
X004401Y014600D02*
X004317Y014600D01*
X004317Y014634D02*
X004401Y014634D01*
X004401Y014668D02*
X004317Y014668D01*
X004317Y014702D02*
X004401Y014702D01*
X004401Y014736D02*
X004317Y014736D01*
X004317Y014770D02*
X004401Y014770D01*
X004401Y014804D02*
X004317Y014804D01*
X004317Y014838D02*
X004401Y014838D01*
X012930Y010245D02*
X012930Y010161D01*
X012930Y010245D02*
X013250Y010245D01*
X013250Y010161D01*
X012930Y010161D01*
X012930Y010195D02*
X013250Y010195D01*
X013250Y010229D02*
X012930Y010229D01*
X012930Y010048D02*
X012930Y009964D01*
X012930Y010048D02*
X013250Y010048D01*
X013250Y009964D01*
X012930Y009964D01*
X012930Y009998D02*
X013250Y009998D01*
X013250Y010032D02*
X012930Y010032D01*
X012930Y009851D02*
X012930Y009767D01*
X012930Y009851D02*
X013250Y009851D01*
X013250Y009767D01*
X012930Y009767D01*
X012930Y009801D02*
X013250Y009801D01*
X013250Y009835D02*
X012930Y009835D01*
X012930Y009654D02*
X012930Y009570D01*
X012930Y009654D02*
X013250Y009654D01*
X013250Y009570D01*
X012930Y009570D01*
X012930Y009604D02*
X013250Y009604D01*
X013250Y009638D02*
X012930Y009638D01*
X012930Y009458D02*
X012930Y009374D01*
X012930Y009458D02*
X013250Y009458D01*
X013250Y009374D01*
X012930Y009374D01*
X012930Y009408D02*
X013250Y009408D01*
X013250Y009442D02*
X012930Y009442D01*
X012930Y009261D02*
X012930Y009177D01*
X012930Y009261D02*
X013250Y009261D01*
X013250Y009177D01*
X012930Y009177D01*
X012930Y009211D02*
X013250Y009211D01*
X013250Y009245D02*
X012930Y009245D01*
X012930Y009064D02*
X012930Y008980D01*
X012930Y009064D02*
X013250Y009064D01*
X013250Y008980D01*
X012930Y008980D01*
X012930Y009014D02*
X013250Y009014D01*
X013250Y009048D02*
X012930Y009048D01*
X012930Y008867D02*
X012930Y008783D01*
X012930Y008867D02*
X013250Y008867D01*
X013250Y008783D01*
X012930Y008783D01*
X012930Y008817D02*
X013250Y008817D01*
X013250Y008851D02*
X012930Y008851D01*
X012930Y008670D02*
X012930Y008586D01*
X012930Y008670D02*
X013250Y008670D01*
X013250Y008586D01*
X012930Y008586D01*
X012930Y008620D02*
X013250Y008620D01*
X013250Y008654D02*
X012930Y008654D01*
X012930Y008473D02*
X012930Y008389D01*
X012930Y008473D02*
X013250Y008473D01*
X013250Y008389D01*
X012930Y008389D01*
X012930Y008423D02*
X013250Y008423D01*
X013250Y008457D02*
X012930Y008457D01*
X012930Y008276D02*
X012930Y008192D01*
X012930Y008276D02*
X013250Y008276D01*
X013250Y008192D01*
X012930Y008192D01*
X012930Y008226D02*
X013250Y008226D01*
X013250Y008260D02*
X012930Y008260D01*
X012930Y008080D02*
X012930Y007996D01*
X012930Y008080D02*
X013250Y008080D01*
X013250Y007996D01*
X012930Y007996D01*
X012930Y008030D02*
X013250Y008030D01*
X013250Y008064D02*
X012930Y008064D01*
X013329Y007597D02*
X013413Y007597D01*
X013329Y007597D02*
X013329Y007917D01*
X013413Y007917D01*
X013413Y007597D01*
X013413Y007631D02*
X013329Y007631D01*
X013329Y007665D02*
X013413Y007665D01*
X013413Y007699D02*
X013329Y007699D01*
X013329Y007733D02*
X013413Y007733D01*
X013413Y007767D02*
X013329Y007767D01*
X013329Y007801D02*
X013413Y007801D01*
X013413Y007835D02*
X013329Y007835D01*
X013329Y007869D02*
X013413Y007869D01*
X013413Y007903D02*
X013329Y007903D01*
X013525Y007597D02*
X013609Y007597D01*
X013525Y007597D02*
X013525Y007917D01*
X013609Y007917D01*
X013609Y007597D01*
X013609Y007631D02*
X013525Y007631D01*
X013525Y007665D02*
X013609Y007665D01*
X013609Y007699D02*
X013525Y007699D01*
X013525Y007733D02*
X013609Y007733D01*
X013609Y007767D02*
X013525Y007767D01*
X013525Y007801D02*
X013609Y007801D01*
X013609Y007835D02*
X013525Y007835D01*
X013525Y007869D02*
X013609Y007869D01*
X013609Y007903D02*
X013525Y007903D01*
X013722Y007597D02*
X013806Y007597D01*
X013722Y007597D02*
X013722Y007917D01*
X013806Y007917D01*
X013806Y007597D01*
X013806Y007631D02*
X013722Y007631D01*
X013722Y007665D02*
X013806Y007665D01*
X013806Y007699D02*
X013722Y007699D01*
X013722Y007733D02*
X013806Y007733D01*
X013806Y007767D02*
X013722Y007767D01*
X013722Y007801D02*
X013806Y007801D01*
X013806Y007835D02*
X013722Y007835D01*
X013722Y007869D02*
X013806Y007869D01*
X013806Y007903D02*
X013722Y007903D01*
X013919Y007597D02*
X014003Y007597D01*
X013919Y007597D02*
X013919Y007917D01*
X014003Y007917D01*
X014003Y007597D01*
X014003Y007631D02*
X013919Y007631D01*
X013919Y007665D02*
X014003Y007665D01*
X014003Y007699D02*
X013919Y007699D01*
X013919Y007733D02*
X014003Y007733D01*
X014003Y007767D02*
X013919Y007767D01*
X013919Y007801D02*
X014003Y007801D01*
X014003Y007835D02*
X013919Y007835D01*
X013919Y007869D02*
X014003Y007869D01*
X014003Y007903D02*
X013919Y007903D01*
X014116Y007597D02*
X014200Y007597D01*
X014116Y007597D02*
X014116Y007917D01*
X014200Y007917D01*
X014200Y007597D01*
X014200Y007631D02*
X014116Y007631D01*
X014116Y007665D02*
X014200Y007665D01*
X014200Y007699D02*
X014116Y007699D01*
X014116Y007733D02*
X014200Y007733D01*
X014200Y007767D02*
X014116Y007767D01*
X014116Y007801D02*
X014200Y007801D01*
X014200Y007835D02*
X014116Y007835D01*
X014116Y007869D02*
X014200Y007869D01*
X014200Y007903D02*
X014116Y007903D01*
X014313Y007597D02*
X014397Y007597D01*
X014313Y007597D02*
X014313Y007917D01*
X014397Y007917D01*
X014397Y007597D01*
X014397Y007631D02*
X014313Y007631D01*
X014313Y007665D02*
X014397Y007665D01*
X014397Y007699D02*
X014313Y007699D01*
X014313Y007733D02*
X014397Y007733D01*
X014397Y007767D02*
X014313Y007767D01*
X014313Y007801D02*
X014397Y007801D01*
X014397Y007835D02*
X014313Y007835D01*
X014313Y007869D02*
X014397Y007869D01*
X014397Y007903D02*
X014313Y007903D01*
X014510Y007597D02*
X014594Y007597D01*
X014510Y007597D02*
X014510Y007917D01*
X014594Y007917D01*
X014594Y007597D01*
X014594Y007631D02*
X014510Y007631D01*
X014510Y007665D02*
X014594Y007665D01*
X014594Y007699D02*
X014510Y007699D01*
X014510Y007733D02*
X014594Y007733D01*
X014594Y007767D02*
X014510Y007767D01*
X014510Y007801D02*
X014594Y007801D01*
X014594Y007835D02*
X014510Y007835D01*
X014510Y007869D02*
X014594Y007869D01*
X014594Y007903D02*
X014510Y007903D01*
X014707Y007597D02*
X014791Y007597D01*
X014707Y007597D02*
X014707Y007917D01*
X014791Y007917D01*
X014791Y007597D01*
X014791Y007631D02*
X014707Y007631D01*
X014707Y007665D02*
X014791Y007665D01*
X014791Y007699D02*
X014707Y007699D01*
X014707Y007733D02*
X014791Y007733D01*
X014791Y007767D02*
X014707Y007767D01*
X014707Y007801D02*
X014791Y007801D01*
X014791Y007835D02*
X014707Y007835D01*
X014707Y007869D02*
X014791Y007869D01*
X014791Y007903D02*
X014707Y007903D01*
X014903Y007597D02*
X014987Y007597D01*
X014903Y007597D02*
X014903Y007917D01*
X014987Y007917D01*
X014987Y007597D01*
X014987Y007631D02*
X014903Y007631D01*
X014903Y007665D02*
X014987Y007665D01*
X014987Y007699D02*
X014903Y007699D01*
X014903Y007733D02*
X014987Y007733D01*
X014987Y007767D02*
X014903Y007767D01*
X014903Y007801D02*
X014987Y007801D01*
X014987Y007835D02*
X014903Y007835D01*
X014903Y007869D02*
X014987Y007869D01*
X014987Y007903D02*
X014903Y007903D01*
X015100Y007597D02*
X015184Y007597D01*
X015100Y007597D02*
X015100Y007917D01*
X015184Y007917D01*
X015184Y007597D01*
X015184Y007631D02*
X015100Y007631D01*
X015100Y007665D02*
X015184Y007665D01*
X015184Y007699D02*
X015100Y007699D01*
X015100Y007733D02*
X015184Y007733D01*
X015184Y007767D02*
X015100Y007767D01*
X015100Y007801D02*
X015184Y007801D01*
X015184Y007835D02*
X015100Y007835D01*
X015100Y007869D02*
X015184Y007869D01*
X015184Y007903D02*
X015100Y007903D01*
X015297Y007597D02*
X015381Y007597D01*
X015297Y007597D02*
X015297Y007917D01*
X015381Y007917D01*
X015381Y007597D01*
X015381Y007631D02*
X015297Y007631D01*
X015297Y007665D02*
X015381Y007665D01*
X015381Y007699D02*
X015297Y007699D01*
X015297Y007733D02*
X015381Y007733D01*
X015381Y007767D02*
X015297Y007767D01*
X015297Y007801D02*
X015381Y007801D01*
X015381Y007835D02*
X015297Y007835D01*
X015297Y007869D02*
X015381Y007869D01*
X015381Y007903D02*
X015297Y007903D01*
X015494Y007597D02*
X015578Y007597D01*
X015494Y007597D02*
X015494Y007917D01*
X015578Y007917D01*
X015578Y007597D01*
X015578Y007631D02*
X015494Y007631D01*
X015494Y007665D02*
X015578Y007665D01*
X015578Y007699D02*
X015494Y007699D01*
X015494Y007733D02*
X015578Y007733D01*
X015578Y007767D02*
X015494Y007767D01*
X015494Y007801D02*
X015578Y007801D01*
X015578Y007835D02*
X015494Y007835D01*
X015494Y007869D02*
X015578Y007869D01*
X015578Y007903D02*
X015494Y007903D01*
X015976Y007996D02*
X015976Y008080D01*
X015976Y007996D02*
X015656Y007996D01*
X015656Y008080D01*
X015976Y008080D01*
X015976Y008030D02*
X015656Y008030D01*
X015656Y008064D02*
X015976Y008064D01*
X015976Y008192D02*
X015976Y008276D01*
X015976Y008192D02*
X015656Y008192D01*
X015656Y008276D01*
X015976Y008276D01*
X015976Y008226D02*
X015656Y008226D01*
X015656Y008260D02*
X015976Y008260D01*
X015976Y008389D02*
X015976Y008473D01*
X015976Y008389D02*
X015656Y008389D01*
X015656Y008473D01*
X015976Y008473D01*
X015976Y008423D02*
X015656Y008423D01*
X015656Y008457D02*
X015976Y008457D01*
X015976Y008586D02*
X015976Y008670D01*
X015976Y008586D02*
X015656Y008586D01*
X015656Y008670D01*
X015976Y008670D01*
X015976Y008620D02*
X015656Y008620D01*
X015656Y008654D02*
X015976Y008654D01*
X015976Y008783D02*
X015976Y008867D01*
X015976Y008783D02*
X015656Y008783D01*
X015656Y008867D01*
X015976Y008867D01*
X015976Y008817D02*
X015656Y008817D01*
X015656Y008851D02*
X015976Y008851D01*
X015976Y008980D02*
X015976Y009064D01*
X015976Y008980D02*
X015656Y008980D01*
X015656Y009064D01*
X015976Y009064D01*
X015976Y009014D02*
X015656Y009014D01*
X015656Y009048D02*
X015976Y009048D01*
X015976Y009177D02*
X015976Y009261D01*
X015976Y009177D02*
X015656Y009177D01*
X015656Y009261D01*
X015976Y009261D01*
X015976Y009211D02*
X015656Y009211D01*
X015656Y009245D02*
X015976Y009245D01*
X015976Y009374D02*
X015976Y009458D01*
X015976Y009374D02*
X015656Y009374D01*
X015656Y009458D01*
X015976Y009458D01*
X015976Y009408D02*
X015656Y009408D01*
X015656Y009442D02*
X015976Y009442D01*
X015976Y009570D02*
X015976Y009654D01*
X015976Y009570D02*
X015656Y009570D01*
X015656Y009654D01*
X015976Y009654D01*
X015976Y009604D02*
X015656Y009604D01*
X015656Y009638D02*
X015976Y009638D01*
X015976Y009767D02*
X015976Y009851D01*
X015976Y009767D02*
X015656Y009767D01*
X015656Y009851D01*
X015976Y009851D01*
X015976Y009801D02*
X015656Y009801D01*
X015656Y009835D02*
X015976Y009835D01*
X015976Y009964D02*
X015976Y010048D01*
X015976Y009964D02*
X015656Y009964D01*
X015656Y010048D01*
X015976Y010048D01*
X015976Y009998D02*
X015656Y009998D01*
X015656Y010032D02*
X015976Y010032D01*
X015976Y010161D02*
X015976Y010245D01*
X015976Y010161D02*
X015656Y010161D01*
X015656Y010245D01*
X015976Y010245D01*
X015976Y010195D02*
X015656Y010195D01*
X015656Y010229D02*
X015976Y010229D01*
X015578Y010644D02*
X015494Y010644D01*
X015578Y010644D02*
X015578Y010324D01*
X015494Y010324D01*
X015494Y010644D01*
X015494Y010358D02*
X015578Y010358D01*
X015578Y010392D02*
X015494Y010392D01*
X015494Y010426D02*
X015578Y010426D01*
X015578Y010460D02*
X015494Y010460D01*
X015494Y010494D02*
X015578Y010494D01*
X015578Y010528D02*
X015494Y010528D01*
X015494Y010562D02*
X015578Y010562D01*
X015578Y010596D02*
X015494Y010596D01*
X015494Y010630D02*
X015578Y010630D01*
X015381Y010644D02*
X015297Y010644D01*
X015381Y010644D02*
X015381Y010324D01*
X015297Y010324D01*
X015297Y010644D01*
X015297Y010358D02*
X015381Y010358D01*
X015381Y010392D02*
X015297Y010392D01*
X015297Y010426D02*
X015381Y010426D01*
X015381Y010460D02*
X015297Y010460D01*
X015297Y010494D02*
X015381Y010494D01*
X015381Y010528D02*
X015297Y010528D01*
X015297Y010562D02*
X015381Y010562D01*
X015381Y010596D02*
X015297Y010596D01*
X015297Y010630D02*
X015381Y010630D01*
X015184Y010644D02*
X015100Y010644D01*
X015184Y010644D02*
X015184Y010324D01*
X015100Y010324D01*
X015100Y010644D01*
X015100Y010358D02*
X015184Y010358D01*
X015184Y010392D02*
X015100Y010392D01*
X015100Y010426D02*
X015184Y010426D01*
X015184Y010460D02*
X015100Y010460D01*
X015100Y010494D02*
X015184Y010494D01*
X015184Y010528D02*
X015100Y010528D01*
X015100Y010562D02*
X015184Y010562D01*
X015184Y010596D02*
X015100Y010596D01*
X015100Y010630D02*
X015184Y010630D01*
X014987Y010644D02*
X014903Y010644D01*
X014987Y010644D02*
X014987Y010324D01*
X014903Y010324D01*
X014903Y010644D01*
X014903Y010358D02*
X014987Y010358D01*
X014987Y010392D02*
X014903Y010392D01*
X014903Y010426D02*
X014987Y010426D01*
X014987Y010460D02*
X014903Y010460D01*
X014903Y010494D02*
X014987Y010494D01*
X014987Y010528D02*
X014903Y010528D01*
X014903Y010562D02*
X014987Y010562D01*
X014987Y010596D02*
X014903Y010596D01*
X014903Y010630D02*
X014987Y010630D01*
X014791Y010644D02*
X014707Y010644D01*
X014791Y010644D02*
X014791Y010324D01*
X014707Y010324D01*
X014707Y010644D01*
X014707Y010358D02*
X014791Y010358D01*
X014791Y010392D02*
X014707Y010392D01*
X014707Y010426D02*
X014791Y010426D01*
X014791Y010460D02*
X014707Y010460D01*
X014707Y010494D02*
X014791Y010494D01*
X014791Y010528D02*
X014707Y010528D01*
X014707Y010562D02*
X014791Y010562D01*
X014791Y010596D02*
X014707Y010596D01*
X014707Y010630D02*
X014791Y010630D01*
X014594Y010644D02*
X014510Y010644D01*
X014594Y010644D02*
X014594Y010324D01*
X014510Y010324D01*
X014510Y010644D01*
X014510Y010358D02*
X014594Y010358D01*
X014594Y010392D02*
X014510Y010392D01*
X014510Y010426D02*
X014594Y010426D01*
X014594Y010460D02*
X014510Y010460D01*
X014510Y010494D02*
X014594Y010494D01*
X014594Y010528D02*
X014510Y010528D01*
X014510Y010562D02*
X014594Y010562D01*
X014594Y010596D02*
X014510Y010596D01*
X014510Y010630D02*
X014594Y010630D01*
X014397Y010644D02*
X014313Y010644D01*
X014397Y010644D02*
X014397Y010324D01*
X014313Y010324D01*
X014313Y010644D01*
X014313Y010358D02*
X014397Y010358D01*
X014397Y010392D02*
X014313Y010392D01*
X014313Y010426D02*
X014397Y010426D01*
X014397Y010460D02*
X014313Y010460D01*
X014313Y010494D02*
X014397Y010494D01*
X014397Y010528D02*
X014313Y010528D01*
X014313Y010562D02*
X014397Y010562D01*
X014397Y010596D02*
X014313Y010596D01*
X014313Y010630D02*
X014397Y010630D01*
X014200Y010644D02*
X014116Y010644D01*
X014200Y010644D02*
X014200Y010324D01*
X014116Y010324D01*
X014116Y010644D01*
X014116Y010358D02*
X014200Y010358D01*
X014200Y010392D02*
X014116Y010392D01*
X014116Y010426D02*
X014200Y010426D01*
X014200Y010460D02*
X014116Y010460D01*
X014116Y010494D02*
X014200Y010494D01*
X014200Y010528D02*
X014116Y010528D01*
X014116Y010562D02*
X014200Y010562D01*
X014200Y010596D02*
X014116Y010596D01*
X014116Y010630D02*
X014200Y010630D01*
X014003Y010644D02*
X013919Y010644D01*
X014003Y010644D02*
X014003Y010324D01*
X013919Y010324D01*
X013919Y010644D01*
X013919Y010358D02*
X014003Y010358D01*
X014003Y010392D02*
X013919Y010392D01*
X013919Y010426D02*
X014003Y010426D01*
X014003Y010460D02*
X013919Y010460D01*
X013919Y010494D02*
X014003Y010494D01*
X014003Y010528D02*
X013919Y010528D01*
X013919Y010562D02*
X014003Y010562D01*
X014003Y010596D02*
X013919Y010596D01*
X013919Y010630D02*
X014003Y010630D01*
X013806Y010644D02*
X013722Y010644D01*
X013806Y010644D02*
X013806Y010324D01*
X013722Y010324D01*
X013722Y010644D01*
X013722Y010358D02*
X013806Y010358D01*
X013806Y010392D02*
X013722Y010392D01*
X013722Y010426D02*
X013806Y010426D01*
X013806Y010460D02*
X013722Y010460D01*
X013722Y010494D02*
X013806Y010494D01*
X013806Y010528D02*
X013722Y010528D01*
X013722Y010562D02*
X013806Y010562D01*
X013806Y010596D02*
X013722Y010596D01*
X013722Y010630D02*
X013806Y010630D01*
X013609Y010644D02*
X013525Y010644D01*
X013609Y010644D02*
X013609Y010324D01*
X013525Y010324D01*
X013525Y010644D01*
X013525Y010358D02*
X013609Y010358D01*
X013609Y010392D02*
X013525Y010392D01*
X013525Y010426D02*
X013609Y010426D01*
X013609Y010460D02*
X013525Y010460D01*
X013525Y010494D02*
X013609Y010494D01*
X013609Y010528D02*
X013525Y010528D01*
X013525Y010562D02*
X013609Y010562D01*
X013609Y010596D02*
X013525Y010596D01*
X013525Y010630D02*
X013609Y010630D01*
X013413Y010644D02*
X013329Y010644D01*
X013413Y010644D02*
X013413Y010324D01*
X013329Y010324D01*
X013329Y010644D01*
X013329Y010358D02*
X013413Y010358D01*
X013413Y010392D02*
X013329Y010392D01*
X013329Y010426D02*
X013413Y010426D01*
X013413Y010460D02*
X013329Y010460D01*
X013329Y010494D02*
X013413Y010494D01*
X013413Y010528D02*
X013329Y010528D01*
X013329Y010562D02*
X013413Y010562D01*
X013413Y010596D02*
X013329Y010596D01*
X013329Y010630D02*
X013413Y010630D01*
D14*
X014125Y007079D03*
X014125Y006803D03*
X014125Y006547D03*
X014834Y006547D03*
X014834Y006803D03*
X014834Y007079D03*
X005769Y015370D03*
X005769Y015646D03*
X005769Y015902D03*
X005061Y015902D03*
X005061Y015646D03*
X005061Y015370D03*
D15*
X006445Y010328D03*
X007193Y010328D03*
X007193Y009305D03*
X006819Y009305D03*
X006445Y009305D03*
D16*
X006130Y008843D03*
X005638Y008834D03*
X005638Y008323D03*
X006130Y008331D03*
X005818Y007755D03*
X005818Y007243D03*
X005819Y006782D03*
X006290Y006787D03*
X006290Y006276D03*
X005819Y006270D03*
X005885Y009577D03*
X005397Y009577D03*
X005397Y010089D03*
X005885Y010089D03*
X005958Y010723D03*
X005469Y010719D03*
X004957Y010719D03*
X004919Y010095D03*
X004919Y009583D03*
X004957Y011231D03*
X005469Y011231D03*
X005958Y011235D03*
X007170Y011003D03*
X007625Y011003D03*
X007625Y011514D03*
X007170Y011514D03*
X008146Y011507D03*
X008146Y010996D03*
X008616Y011003D03*
X008616Y011515D03*
X008618Y014337D03*
X008618Y014849D03*
X008151Y014849D03*
X007678Y014819D03*
X007678Y014307D03*
X008151Y014337D03*
X004431Y015372D03*
X004431Y015884D03*
X003979Y015884D03*
X003486Y015770D03*
X003018Y015783D03*
X003018Y016295D03*
X003486Y016282D03*
X003979Y015372D03*
X002578Y015783D03*
X002578Y016295D03*
X011256Y008142D03*
X011256Y007630D03*
X013338Y011274D03*
X013766Y011278D03*
X013766Y011790D03*
X013338Y011786D03*
X014298Y011630D03*
X014298Y011118D03*
X016709Y014271D03*
X016709Y014783D03*
X017198Y014782D03*
X017198Y014270D03*
X016276Y015835D03*
X016276Y016347D03*
X015736Y016347D03*
X015736Y015835D03*
X015956Y016955D03*
X016418Y016961D03*
X016418Y017472D03*
X015956Y017467D03*
X015790Y018821D03*
X016256Y018835D03*
X016256Y019347D03*
X015790Y019332D03*
X014756Y019995D03*
X014296Y019995D03*
X013828Y020003D03*
X013828Y020515D03*
X014296Y020507D03*
X014756Y020507D03*
X013430Y016901D03*
X013430Y016389D03*
X015424Y007158D03*
X015876Y007158D03*
X015876Y006646D03*
X015424Y006646D03*
X016320Y006719D03*
X016776Y006687D03*
X017256Y006687D03*
X017256Y006175D03*
X016776Y006175D03*
X016320Y006207D03*
D17*
X013554Y006213D03*
X013554Y006665D03*
X013554Y007117D03*
X013043Y007117D03*
X013043Y006665D03*
X013043Y006213D03*
X012218Y007219D03*
X012218Y007671D03*
X012238Y008123D03*
X011726Y008123D03*
X011706Y007671D03*
X011706Y007219D03*
X011665Y004164D03*
X012176Y004164D03*
X008110Y010517D03*
X007598Y010517D03*
X011468Y010937D03*
X011980Y010937D03*
X012005Y011472D03*
X012033Y011963D03*
X011521Y011963D03*
X011493Y011472D03*
X014641Y015316D03*
X014310Y015791D03*
X013799Y015791D03*
X013062Y015742D03*
X012550Y015742D03*
X012740Y017611D03*
X012899Y018062D03*
X013252Y017611D03*
X013411Y018062D03*
X015517Y018170D03*
X016029Y018170D03*
X015153Y015316D03*
G36*
X015984Y011683D02*
X015789Y011488D01*
X015540Y011737D01*
X015735Y011932D01*
X015984Y011683D01*
G37*
G36*
X015622Y011321D02*
X015427Y011126D01*
X015178Y011375D01*
X015373Y011570D01*
X015622Y011321D01*
G37*
X008488Y015470D03*
X007977Y015470D03*
X006852Y015332D03*
X006852Y015784D03*
X006852Y016237D03*
X006340Y016237D03*
X006340Y015784D03*
X006340Y015332D03*
X007718Y018285D03*
X008230Y018285D03*
X003214Y009479D03*
X003214Y008999D03*
X003214Y008519D03*
X002702Y008519D03*
X002702Y008999D03*
X002702Y009479D03*
D18*
X006851Y008046D03*
X006851Y007790D03*
X006851Y007534D03*
X006851Y007278D03*
X006851Y007022D03*
X013124Y019284D03*
X013124Y019540D03*
X013124Y019796D03*
X013124Y020051D03*
X013124Y020307D03*
D19*
X012081Y021370D03*
X012081Y018221D03*
X007894Y009109D03*
X007894Y005959D03*
D20*
X005300Y006058D03*
X003135Y006058D03*
X011369Y006271D03*
X012275Y006271D03*
X012275Y004814D03*
X011369Y004814D03*
X008525Y016179D03*
X007620Y016179D03*
X007620Y017636D03*
X008525Y017636D03*
X013555Y023031D03*
X015720Y023031D03*
D21*
X006564Y017589D03*
X004824Y017589D03*
X003084Y017589D03*
X013330Y004861D03*
X015070Y004861D03*
X016810Y004861D03*
D22*
X016856Y007971D03*
X016856Y008971D03*
X016856Y009971D03*
X016842Y012432D03*
X016842Y013432D03*
X004060Y010293D03*
X003060Y010293D03*
X003058Y012499D03*
X003058Y013499D03*
X003058Y014499D03*
D23*
X007625Y010125D03*
X007651Y009725D03*
X008137Y010125D03*
X008163Y009725D03*
X015683Y015217D03*
X016195Y015217D03*
X016590Y015217D03*
X017101Y015217D03*
D24*
X017212Y007131D03*
X016582Y007131D03*
X003313Y015259D03*
X002683Y015259D03*
D25*
X003058Y011499D03*
X016856Y010971D03*
D26*
X014932Y021453D02*
X014932Y021928D01*
X014341Y021928D02*
X014341Y021453D01*
X004494Y007637D02*
X004494Y007161D01*
X003903Y007161D02*
X003903Y007637D01*
D27*
X003922Y007712D03*
X004513Y007712D03*
X014342Y021378D03*
X014933Y021378D03*
D28*
X015287Y020645D03*
X015287Y019897D03*
X014968Y019505D03*
X014968Y019131D03*
X014968Y018757D03*
X013944Y018757D03*
X013944Y019505D03*
X016310Y019897D03*
X016310Y020271D03*
X016310Y020645D03*
X005070Y009213D03*
X005070Y008465D03*
X004046Y008465D03*
X004046Y008839D03*
X004046Y009213D03*
D29*
X011415Y016327D03*
X011415Y016524D03*
X011415Y016721D03*
X011415Y016918D03*
X011415Y017114D03*
X012518Y017114D03*
X012518Y016918D03*
X012518Y016721D03*
X012518Y016524D03*
X012518Y016327D03*
D30*
X012163Y016170D03*
X011967Y016170D03*
X011770Y016170D03*
X011770Y017233D03*
X011967Y017233D03*
X012163Y017233D03*
D31*
X012633Y013992D03*
D32*
X012436Y012811D03*
X012043Y012811D03*
X012830Y012811D03*
X013224Y012811D03*
X013224Y015173D03*
X012830Y015173D03*
X012436Y015173D03*
X012043Y015173D03*
D33*
X011452Y014583D03*
X011452Y014189D03*
X011452Y013796D03*
X011452Y013402D03*
X013814Y013402D03*
X013814Y013796D03*
X013814Y014189D03*
X013814Y014583D03*
D34*
X014107Y016715D03*
X014107Y016912D03*
X014107Y017109D03*
X014107Y017306D03*
X014107Y017503D03*
X015288Y017503D03*
X015288Y017306D03*
X015288Y017109D03*
X015288Y016912D03*
X015288Y016715D03*
D35*
X014895Y016518D03*
X014698Y016518D03*
X014501Y016518D03*
X014501Y017699D03*
X014698Y017699D03*
X014895Y017699D03*
D36*
X017056Y015915D03*
X017056Y021915D03*
D37*
X016017Y014502D03*
X015517Y014502D03*
X015017Y014502D03*
X014517Y014502D03*
X014517Y012442D03*
X015017Y012442D03*
X015517Y012442D03*
X016017Y012442D03*
D38*
X016136Y021054D03*
X016136Y021566D03*
X016296Y022014D03*
X016296Y022526D03*
D39*
X016140Y021131D02*
X016136Y021127D01*
X016136Y021054D01*
X014933Y021378D02*
X014856Y021301D01*
X014976Y021646D02*
X014932Y021691D01*
X014856Y019451D02*
X014856Y019400D01*
X014676Y018091D02*
X014698Y018069D01*
X014676Y018091D02*
X014596Y018091D01*
X014596Y018011D01*
X014501Y017915D01*
X013343Y019284D02*
X013124Y019284D01*
X012952Y018491D02*
X012899Y018437D01*
X012899Y018062D01*
X014698Y016409D02*
X014698Y016329D01*
X014856Y016171D01*
X014895Y016209D01*
X014895Y016289D01*
X014476Y014484D02*
X014480Y014481D01*
X013204Y014484D02*
X012771Y014051D01*
X012338Y014484D01*
X012610Y013697D02*
X012708Y013599D01*
X012708Y013496D01*
X012732Y013697D02*
X012610Y013697D01*
X014298Y011118D02*
X014355Y011061D01*
X014355Y010484D01*
X014158Y010484D02*
X014158Y010172D01*
X014136Y010150D01*
X015329Y010150D01*
X015445Y010033D01*
X015445Y009658D01*
X015491Y009612D01*
X015816Y009612D01*
X016216Y009531D02*
X016256Y009531D01*
X016336Y009611D01*
X016476Y009471D01*
X017236Y009471D01*
X016856Y008971D02*
X016514Y008628D01*
X015816Y008628D01*
X015816Y008431D02*
X016396Y008431D01*
X016856Y007971D01*
X015841Y007432D02*
X015247Y007432D01*
X015142Y007537D01*
X015142Y007757D01*
X015142Y007992D01*
X015052Y008083D01*
X014756Y008083D01*
X014749Y008075D01*
X014749Y007757D01*
X014945Y007757D02*
X014945Y007439D01*
X015129Y007256D01*
X015366Y007256D01*
X014756Y008083D02*
X013889Y008083D01*
X013871Y008083D01*
X013764Y007977D01*
X013764Y007757D01*
X013764Y007505D01*
X013961Y007757D02*
X013961Y008075D01*
X014158Y007757D02*
X014158Y007225D01*
X014355Y007420D02*
X014381Y007394D01*
X014355Y007420D02*
X014355Y007757D01*
X014552Y007757D02*
X014552Y008075D01*
X013477Y008557D02*
X013477Y010051D01*
X013575Y010150D01*
X014136Y010150D01*
X013090Y008825D02*
X012852Y008825D01*
X012690Y008987D01*
X012671Y008987D01*
X012606Y008628D02*
X012551Y008573D01*
X012606Y008628D02*
X013090Y008628D01*
X013090Y008431D02*
X013352Y008431D01*
X013477Y008557D01*
X012309Y007291D02*
X012149Y007131D01*
X012218Y007219D02*
X012289Y007291D01*
X012309Y007291D01*
X013043Y006665D02*
X012808Y006431D01*
X012776Y006431D01*
X015816Y008825D02*
X015911Y008825D01*
X016856Y010811D02*
X016856Y010971D01*
X017336Y014112D02*
X017336Y014132D01*
X017198Y014270D01*
X017198Y014782D02*
X017198Y015120D01*
X017101Y015217D01*
X017000Y005051D02*
X016810Y004861D01*
X016872Y004798D01*
X016872Y004651D01*
X017013Y004511D01*
X017376Y004511D01*
X017256Y005051D02*
X017000Y005051D01*
X008462Y012661D02*
X008381Y012661D01*
X008078Y012359D01*
X008078Y011879D01*
X008158Y011799D01*
X008158Y011534D01*
X007675Y012661D02*
X007421Y012661D01*
X007198Y012439D01*
X006418Y012398D02*
X006319Y012300D01*
X004566Y012300D01*
X004449Y012416D01*
X004449Y012792D01*
X004404Y012837D01*
X004078Y012837D01*
X004843Y014367D02*
X004752Y014457D01*
X004752Y014692D01*
X004752Y014912D01*
X004628Y015037D01*
X004040Y015037D01*
X003998Y015079D01*
X003998Y015352D01*
X003979Y015372D01*
X003978Y015843D02*
X004431Y015843D01*
X004431Y015884D01*
X004409Y015314D02*
X004646Y015314D01*
X004949Y015011D01*
X004949Y014692D01*
X005146Y014692D02*
X005146Y014374D01*
X005138Y014367D01*
X004843Y014367D01*
X005138Y014367D02*
X005352Y014367D01*
X005952Y014367D01*
X006024Y014367D01*
X006130Y014473D01*
X006130Y014692D01*
X006130Y015122D01*
X006340Y015332D01*
X006340Y015784D01*
X006340Y016237D01*
X006852Y016237D02*
X006852Y015784D01*
X006852Y015332D01*
X007128Y015017D02*
X006378Y015017D01*
X006327Y014967D01*
X006327Y014692D01*
X005933Y014692D02*
X005933Y014374D01*
X005737Y014692D02*
X005737Y015225D01*
X005540Y015029D02*
X005513Y015056D01*
X005540Y015029D02*
X005540Y014692D01*
X005343Y014692D02*
X005343Y014374D01*
X006418Y013893D02*
X006418Y012398D01*
X006418Y013893D02*
X006543Y014018D01*
X006804Y014018D01*
X007204Y009725D02*
X007651Y009725D01*
X006958Y008279D02*
X006851Y008171D01*
X006851Y008046D01*
X006130Y008331D02*
X005882Y008579D01*
X005678Y009079D02*
X005758Y009159D01*
X006299Y009159D01*
X005339Y008579D02*
X005198Y008439D01*
X002702Y008519D02*
X002702Y008999D01*
D40*
X002702Y009479D01*
X002558Y009623D01*
X002558Y010599D01*
X002798Y010839D01*
X003598Y010839D01*
X003838Y011079D01*
X004078Y011079D01*
X004238Y011239D01*
X004238Y011639D01*
X004359Y011759D01*
X004359Y011966D01*
X004078Y011879D02*
X003918Y011719D01*
X004078Y011879D02*
X004078Y012246D01*
X004078Y012443D02*
X003843Y012443D01*
X003758Y012359D01*
X003758Y012119D01*
X003678Y012039D01*
X003680Y012837D02*
X003518Y012999D01*
X003758Y013239D01*
X003758Y013559D01*
X003838Y013639D01*
X004064Y013639D01*
X004078Y013624D01*
X004078Y013428D02*
X005343Y013428D01*
X005441Y013329D01*
X005438Y013326D01*
X005438Y013319D01*
X005744Y012300D02*
X005737Y012292D01*
X005737Y011966D01*
X005758Y011988D01*
X005758Y012018D01*
X005758Y011988D02*
X005758Y011559D01*
X005798Y011519D01*
X005938Y011519D01*
X005918Y011499D01*
X005958Y011235D02*
X006074Y011235D01*
X006078Y011239D01*
X006082Y011235D01*
X006078Y011239D02*
X006074Y011239D01*
X006327Y011310D02*
X006558Y011079D01*
X006558Y010759D01*
X006718Y010599D01*
X006718Y010119D01*
X006878Y009959D01*
X007459Y009959D01*
X007625Y010125D01*
X007918Y010039D02*
X007918Y009992D01*
X007651Y009725D01*
X007918Y010039D02*
X008004Y010125D01*
X008137Y010125D01*
X008238Y010439D02*
X008318Y010439D01*
X008478Y010279D01*
X008478Y009799D01*
X008404Y009725D01*
X008163Y009725D01*
X008404Y009725D02*
X008558Y009571D01*
X008558Y009559D01*
X008238Y010439D02*
X008160Y010517D01*
X008110Y010517D01*
X008146Y010996D02*
X008352Y010996D01*
X008609Y010996D01*
X008616Y011003D01*
X008146Y011507D02*
X008158Y011520D01*
X008158Y011534D01*
X007758Y011759D02*
X007625Y011626D01*
X007625Y011514D01*
X007198Y011639D02*
X007198Y012039D01*
X007625Y012039D01*
X007625Y012119D01*
X007675Y012169D01*
X007198Y012039D02*
X007118Y012039D01*
X006911Y012246D01*
X006804Y012246D01*
X006804Y012443D02*
X007194Y012443D01*
X007198Y012439D01*
X007118Y012999D02*
X007520Y012999D01*
X007675Y013153D01*
X007278Y013399D02*
X008078Y013399D01*
X008462Y013593D02*
X008476Y013579D01*
X008698Y013579D01*
X008798Y013479D01*
X008798Y012279D01*
X008718Y012199D01*
X008492Y012199D01*
X008462Y012169D01*
X007198Y011639D02*
X007170Y011611D01*
X007170Y011514D01*
X006878Y011239D02*
X006878Y011125D01*
X006952Y011051D01*
X007122Y011051D01*
X007170Y011003D01*
X007224Y011003D01*
X007232Y011011D01*
X007232Y010931D01*
X007244Y010999D02*
X007232Y011011D01*
X007244Y010999D02*
X007247Y010999D01*
X007516Y010679D02*
X006878Y010679D01*
X006718Y010839D01*
X006718Y011159D01*
X006524Y011353D01*
X006524Y011966D01*
X006327Y011966D02*
X006327Y011310D01*
X006798Y011319D02*
X006798Y011799D01*
X006858Y011859D01*
X006798Y011319D02*
X006878Y011239D01*
X007516Y010679D02*
X007598Y010597D01*
X007598Y010517D01*
X007204Y009725D02*
X007118Y009639D01*
X007038Y009719D01*
X006299Y009719D01*
X006219Y009639D01*
X006219Y009399D01*
X006139Y009319D01*
X005518Y009319D01*
X005397Y009440D01*
X005397Y009577D01*
X005885Y009577D02*
X005937Y009577D01*
X005965Y009605D01*
X005965Y009685D01*
X006238Y009959D01*
X006398Y009959D01*
X006478Y010039D01*
X006478Y010295D01*
X006445Y010328D01*
X007118Y009639D02*
X007118Y009299D01*
X007187Y009299D01*
X007193Y009305D01*
X007278Y008039D02*
X006858Y008039D01*
X006851Y008046D01*
X007278Y008039D02*
X007358Y007959D01*
X007358Y006839D01*
X007198Y006679D01*
X006398Y006679D01*
X006290Y006787D01*
X006270Y006767D02*
X006270Y006710D01*
X006078Y006519D01*
X005918Y006519D01*
X005838Y006439D01*
X005838Y006290D01*
X005819Y006270D01*
X005838Y005879D02*
X006158Y005879D01*
X006238Y005959D01*
X006238Y006304D01*
X006261Y006304D01*
X006290Y006276D01*
X005819Y006782D02*
X005621Y006782D01*
X005438Y006599D01*
X005038Y006599D01*
X004798Y006359D01*
X004798Y006079D01*
X003958Y006399D02*
X003918Y006439D01*
X003918Y007384D01*
X003903Y007399D01*
X003918Y007399D01*
X003889Y007428D01*
X003903Y007399D02*
X003922Y007418D01*
X003922Y007712D01*
X004513Y007712D02*
X004513Y007418D01*
X004494Y007399D01*
X004192Y008439D02*
X004166Y008465D01*
X004046Y008465D01*
X004064Y008465D01*
X004078Y008451D01*
X004046Y009213D02*
X004072Y009239D01*
X004478Y009239D01*
X004558Y009159D01*
X005070Y008465D02*
X005172Y008465D01*
X005198Y008439D01*
X005339Y008579D02*
X005882Y008579D01*
X005818Y007243D02*
X005442Y007243D01*
X005438Y007239D01*
X006318Y007159D02*
X006398Y007159D01*
X006535Y007022D01*
X006851Y007022D01*
X006874Y006999D01*
X004060Y010293D02*
X004558Y010792D01*
X004558Y011319D01*
X004798Y011559D01*
X004878Y011559D01*
X004949Y011630D01*
X004949Y011966D01*
X004752Y011966D02*
X004752Y011753D01*
X004638Y011639D01*
X004478Y011639D01*
X004398Y011559D01*
X004398Y011159D01*
X004158Y010919D01*
X003918Y010919D01*
X003518Y010519D01*
X003285Y010519D01*
X003060Y010293D01*
X003214Y009479D02*
X003518Y009479D01*
X003238Y008559D02*
X003214Y008535D01*
X003214Y008519D01*
X004957Y011231D02*
X005017Y011231D01*
X005038Y011253D01*
X005038Y011399D01*
X005198Y011559D01*
X005358Y011559D01*
X005540Y011740D01*
X005540Y011966D01*
X005744Y012300D02*
X006319Y012300D01*
X006804Y013034D02*
X007083Y013034D01*
X007118Y012999D01*
X007198Y013799D02*
X007176Y013821D01*
X006804Y013821D01*
X006804Y014018D02*
X007018Y014018D01*
X007198Y014199D01*
X007258Y014519D02*
X007258Y014579D01*
X007438Y014759D01*
X007618Y014759D01*
X007678Y014819D01*
X007598Y015239D02*
X007825Y015239D01*
X007977Y015390D01*
X007977Y015470D01*
X007998Y015492D01*
X007998Y015719D01*
X008378Y016099D01*
X008445Y016099D01*
X008525Y016179D01*
X007620Y016940D02*
X007278Y016599D01*
X007278Y015639D01*
X007438Y015479D01*
X007438Y015319D01*
X007290Y015170D01*
X007290Y015159D01*
X007148Y015017D01*
X007128Y015017D01*
X007052Y014692D02*
X007598Y015239D01*
X008151Y014991D02*
X008151Y014849D01*
X008158Y014841D01*
X008158Y014839D01*
X008462Y013645D02*
X008462Y013593D01*
X007052Y014692D02*
X006524Y014692D01*
X005952Y014367D02*
X005945Y014374D01*
X005933Y014374D01*
X005352Y014367D02*
X005343Y014376D01*
X005343Y014692D01*
X005061Y015646D02*
X005769Y015646D01*
X005769Y016028D01*
X005678Y016119D01*
X005769Y015902D02*
X005769Y015646D01*
X005061Y015902D02*
X005061Y016736D01*
X004878Y016919D01*
X004878Y017535D01*
X004824Y017589D01*
X003979Y015884D02*
X003978Y015883D01*
X003978Y015843D01*
X004431Y015372D02*
X004409Y015350D01*
X004409Y015314D01*
X003838Y014759D02*
X003608Y014989D01*
X003048Y014989D01*
X002978Y015059D01*
X002978Y015459D01*
X003038Y015519D01*
X003038Y015763D01*
X003018Y015783D01*
X002958Y015843D01*
X002958Y015959D01*
X002878Y016039D01*
X002718Y016039D01*
X002578Y016179D01*
X002578Y016295D01*
X003313Y015259D02*
X003333Y015239D01*
X003058Y014499D02*
X003539Y014018D01*
X004078Y014018D01*
X004078Y013821D02*
X003381Y013821D01*
X003058Y013499D01*
X002638Y012999D02*
X002478Y012839D01*
X002478Y011799D01*
X002778Y011499D01*
X003058Y011499D01*
X003680Y012837D02*
X004078Y012837D01*
X003518Y012999D02*
X002638Y012999D01*
X006852Y015332D02*
X006918Y015399D01*
X007118Y015399D01*
X007620Y016940D02*
X007620Y017636D01*
X007620Y018107D01*
X007718Y018205D01*
X007718Y018285D01*
X007998Y018039D02*
X007998Y017559D01*
X008078Y017479D01*
X007998Y018039D02*
X008230Y018270D01*
X008230Y018285D01*
X011096Y017771D02*
X011106Y016632D01*
X011147Y016674D01*
X011148Y016674D01*
X011148Y016963D01*
X011146Y016965D01*
X011127Y016997D01*
X011118Y017032D01*
X011118Y017114D01*
X011415Y017114D01*
X011415Y017114D01*
X011118Y017114D01*
X011118Y017196D01*
X011101Y017196D01*
X011118Y017196D02*
X011127Y017232D01*
X011146Y017264D01*
X011172Y017290D01*
X011204Y017308D01*
X011239Y017318D01*
X011415Y017318D01*
X011415Y017114D01*
X011415Y017530D01*
X011576Y017691D01*
X011896Y017691D01*
X011976Y017611D01*
X012136Y017611D01*
X012456Y017611D01*
X012463Y017640D02*
X012711Y017640D01*
X012711Y017582D01*
X012463Y017582D01*
X012463Y017415D01*
X012472Y017379D01*
X012491Y017348D01*
X012517Y017321D01*
X012549Y017303D01*
X012584Y017293D01*
X012670Y017293D01*
X012666Y017289D01*
X012666Y017288D01*
X012367Y017288D01*
X012367Y017408D01*
X012357Y017444D01*
X012339Y017476D01*
X012313Y017502D01*
X012281Y017520D01*
X012245Y017530D01*
X012163Y017530D01*
X012081Y017530D01*
X012065Y017526D01*
X012048Y017530D01*
X011967Y017530D01*
X011967Y017433D01*
X011967Y017530D01*
X011885Y017530D01*
X011849Y017520D01*
X011817Y017502D01*
X011815Y017500D01*
X011661Y017500D01*
X011596Y017436D01*
X011596Y017317D01*
X011591Y017318D01*
X011415Y017318D01*
X011415Y017114D01*
X011415Y017114D01*
X011415Y017117D02*
X011415Y017117D01*
X011415Y017196D02*
X011415Y017196D01*
X011415Y017274D02*
X011415Y017274D01*
X011596Y017353D02*
X011100Y017353D01*
X011099Y017431D02*
X011596Y017431D01*
X011831Y017510D02*
X011098Y017510D01*
X011098Y017588D02*
X012711Y017588D01*
X012711Y017582D02*
X012711Y017335D01*
X012746Y017369D01*
X012769Y017392D01*
X012769Y017582D01*
X012711Y017582D01*
X012711Y017640D02*
X012711Y017753D01*
X012743Y017744D01*
X012769Y017744D01*
X012769Y017640D01*
X012711Y017640D01*
X012711Y017667D02*
X012769Y017667D01*
X012769Y017640D02*
X013004Y017640D01*
X013004Y017632D01*
X012986Y017613D01*
X012986Y017582D01*
X012769Y017582D01*
X012769Y017640D01*
X012769Y017588D02*
X012986Y017588D01*
X012769Y017510D02*
X012711Y017510D01*
X012711Y017431D02*
X012769Y017431D01*
X012730Y017353D02*
X012711Y017353D01*
X012487Y017353D02*
X012367Y017353D01*
X012361Y017431D02*
X012463Y017431D01*
X012463Y017510D02*
X012299Y017510D01*
X012163Y017510D02*
X012163Y017510D01*
X012163Y017530D02*
X012163Y017433D01*
X012163Y017433D01*
X012163Y017530D01*
X012163Y017584D02*
X012136Y017611D01*
X012163Y017584D02*
X012163Y017233D01*
X011967Y017233D01*
X011967Y017233D01*
X012163Y017233D01*
X012163Y017233D01*
X011967Y017233D02*
X011967Y017521D01*
X011976Y017531D01*
X011967Y017510D02*
X011967Y017510D01*
X011967Y017433D02*
X011967Y017433D01*
X011661Y017756D02*
X012463Y017756D01*
X012463Y017640D01*
X012463Y017667D02*
X011097Y017667D01*
X011097Y017745D02*
X012463Y017745D01*
X012565Y017923D02*
X012565Y018525D01*
X013490Y018512D01*
X013646Y018356D01*
X013646Y018348D01*
X013734Y018261D01*
X014198Y018261D01*
X014437Y018500D01*
X015096Y018491D01*
X015100Y018538D01*
X015250Y018538D01*
X015314Y018603D01*
X015314Y018910D01*
X015281Y018944D01*
X015314Y018977D01*
X015314Y019284D01*
X015281Y019318D01*
X015314Y019351D01*
X015314Y019531D01*
X015486Y019531D01*
X015482Y019524D01*
X015473Y019489D01*
X015473Y019361D01*
X015761Y019361D01*
X015761Y019303D01*
X015473Y019303D01*
X015473Y019176D01*
X015482Y019141D01*
X015500Y019109D01*
X015527Y019083D01*
X015558Y019064D01*
X015562Y019063D01*
X015503Y019004D01*
X015503Y018637D01*
X015567Y018573D01*
X016012Y018573D01*
X016030Y018590D01*
X016034Y018587D01*
X016479Y018587D01*
X016523Y018631D01*
X016545Y018631D01*
X016560Y018646D01*
X016718Y018646D01*
X016861Y018789D01*
X016861Y018992D01*
X016806Y019047D01*
X016806Y019212D01*
X016855Y019261D01*
X016866Y019272D01*
X016866Y018793D01*
X016714Y018641D01*
X016626Y018553D01*
X016626Y018108D01*
X017026Y017708D01*
X017026Y017353D01*
X016846Y017353D01*
X016838Y017361D02*
X016918Y017281D01*
X016954Y017281D01*
X017026Y017353D01*
X017026Y017431D02*
X016768Y017431D01*
X016705Y017494D02*
X016705Y017656D01*
X016656Y017704D01*
X016701Y017749D01*
X016701Y017952D01*
X016558Y018096D01*
X016355Y018096D01*
X016276Y018017D01*
X016276Y018393D01*
X016212Y018457D01*
X015845Y018457D01*
X015786Y018398D01*
X015785Y018401D01*
X015767Y018433D01*
X015741Y018459D01*
X015709Y018477D01*
X015673Y018487D01*
X015546Y018487D01*
X015546Y018199D01*
X015488Y018199D01*
X015488Y018487D01*
X015361Y018487D01*
X015325Y018477D01*
X015293Y018459D01*
X015267Y018433D01*
X015249Y018401D01*
X015239Y018365D01*
X015239Y018199D01*
X015488Y018199D01*
X015488Y018141D01*
X015239Y018141D01*
X015239Y017974D01*
X015249Y017939D01*
X015267Y017907D01*
X015293Y017881D01*
X015325Y017862D01*
X015361Y017853D01*
X015390Y017853D01*
X015378Y017841D01*
X015298Y017761D01*
X015254Y017761D01*
X015166Y017673D01*
X015166Y017672D01*
X015148Y017672D01*
X015094Y017726D01*
X015094Y017934D01*
X015084Y017970D01*
X015066Y018002D01*
X015040Y018028D01*
X015008Y018046D01*
X014972Y018056D01*
X014895Y018056D01*
X014895Y017771D01*
X014895Y017771D01*
X014895Y018056D01*
X014858Y018056D01*
X014858Y018135D01*
X014841Y018152D01*
X014841Y018192D01*
X014698Y018336D01*
X014495Y018336D01*
X014351Y018192D01*
X014351Y017992D01*
X014341Y017982D01*
X014341Y017971D01*
X014332Y017962D01*
X014332Y017759D01*
X014274Y017702D01*
X014107Y017702D01*
X013872Y017702D01*
X013837Y017692D01*
X013805Y017674D01*
X013779Y017648D01*
X013760Y017616D01*
X013751Y017580D01*
X013751Y017503D01*
X014107Y017503D01*
X014107Y017702D01*
X014107Y017503D01*
X014107Y017503D01*
X014107Y017503D01*
X013751Y017503D01*
X013751Y017434D01*
X013465Y017149D01*
X013207Y017149D01*
X013142Y017085D01*
X013142Y016718D01*
X013207Y016653D01*
X013586Y016653D01*
X013586Y016637D01*
X013207Y016637D01*
X013142Y016573D01*
X013142Y016403D01*
X013011Y016272D01*
X013011Y016069D01*
X013052Y016029D01*
X012879Y016029D01*
X012814Y015964D01*
X012814Y015598D01*
X012798Y015581D01*
X012798Y015964D01*
X012734Y016029D01*
X012367Y016029D01*
X012367Y016029D01*
X012367Y016154D01*
X012721Y016154D01*
X012785Y016218D01*
X012785Y016286D01*
X012958Y016286D01*
X013101Y016429D01*
X013101Y016632D01*
X013046Y016687D01*
X013046Y017101D01*
X013095Y017101D01*
X013255Y017261D01*
X013318Y017323D01*
X013436Y017323D01*
X013500Y017388D01*
X013500Y017774D01*
X013594Y017774D01*
X013659Y017839D01*
X013659Y018284D01*
X013594Y018349D01*
X013228Y018349D01*
X013168Y018290D01*
X013167Y018293D01*
X013149Y018325D01*
X013123Y018351D01*
X013091Y018369D01*
X013055Y018379D01*
X012928Y018379D01*
X012928Y018091D01*
X012870Y018091D01*
X012870Y018379D01*
X012743Y018379D01*
X012707Y018369D01*
X012675Y018351D01*
X012649Y018325D01*
X012631Y018293D01*
X012621Y018257D01*
X012621Y018091D01*
X012870Y018091D01*
X012870Y018033D01*
X012621Y018033D01*
X012621Y017928D01*
X012584Y017928D01*
X012565Y017923D01*
X012565Y017981D02*
X012621Y017981D01*
X012565Y018059D02*
X012870Y018059D01*
X012870Y018138D02*
X012928Y018138D01*
X012928Y018216D02*
X012870Y018216D01*
X012870Y018295D02*
X012928Y018295D01*
X012928Y018373D02*
X012870Y018373D01*
X012952Y018491D02*
X013496Y018491D01*
X013736Y018251D01*
X013736Y018011D01*
X013816Y017931D01*
X013816Y017611D01*
X013798Y017667D02*
X013500Y017667D01*
X013500Y017745D02*
X014318Y017745D01*
X014332Y017824D02*
X013644Y017824D01*
X013659Y017902D02*
X014332Y017902D01*
X014341Y017981D02*
X013659Y017981D01*
X013659Y018059D02*
X014351Y018059D01*
X014351Y018138D02*
X013659Y018138D01*
X013659Y018216D02*
X014376Y018216D01*
X014454Y018295D02*
X014233Y018295D01*
X014216Y018251D02*
X014456Y018491D01*
X014496Y018491D01*
X014390Y018452D02*
X015286Y018452D01*
X015241Y018373D02*
X014311Y018373D01*
X014216Y018251D02*
X013896Y018251D01*
X013816Y018171D01*
X013816Y017931D01*
X013867Y017880D01*
X013896Y017851D02*
X013816Y017771D01*
X013896Y017851D02*
X013816Y017931D01*
X013896Y018011D01*
X013700Y018295D02*
X013648Y018295D01*
X013629Y018373D02*
X013076Y018373D01*
X013166Y018295D02*
X013174Y018295D01*
X013550Y018452D02*
X012565Y018452D01*
X012565Y018373D02*
X012722Y018373D01*
X012632Y018295D02*
X012565Y018295D01*
X012565Y018216D02*
X012621Y018216D01*
X012621Y018138D02*
X012565Y018138D01*
X012711Y017745D02*
X012740Y017745D01*
X013269Y017274D02*
X013591Y017274D01*
X013669Y017353D02*
X013465Y017353D01*
X013500Y017431D02*
X013748Y017431D01*
X013736Y017451D02*
X013496Y017211D01*
X013256Y017211D01*
X013116Y017071D01*
X013116Y017051D01*
X013096Y017051D01*
X013142Y017039D02*
X013046Y017039D01*
X013046Y016960D02*
X013142Y016960D01*
X013142Y016882D02*
X013046Y016882D01*
X013046Y016803D02*
X013142Y016803D01*
X013142Y016725D02*
X013046Y016725D01*
X013087Y016646D02*
X013586Y016646D01*
X013736Y016811D02*
X013838Y016912D01*
X014107Y016912D01*
X014107Y016715D02*
X013996Y016604D01*
X013996Y016511D01*
X013736Y016811D02*
X013736Y016171D01*
X013656Y016091D01*
X013576Y016091D01*
X013436Y015951D01*
X013436Y015591D01*
X013759Y015691D02*
X013759Y015751D01*
X013799Y015791D01*
X013816Y015691D02*
X013759Y015691D01*
X014296Y015717D02*
X014296Y015777D01*
X014310Y015791D01*
X014616Y016011D02*
X014476Y016151D01*
X014501Y016175D01*
X014501Y016518D01*
X014698Y016518D02*
X014698Y016409D01*
X014895Y016518D02*
X014895Y016289D01*
X015064Y016310D02*
X015064Y016546D01*
X015465Y016546D01*
X015449Y016530D01*
X015449Y016163D01*
X015514Y016099D01*
X015756Y016099D01*
X015772Y016083D01*
X015531Y016083D01*
X015518Y016096D01*
X015315Y016096D01*
X015171Y015952D01*
X015171Y015749D01*
X015287Y015634D01*
X015181Y015634D01*
X015181Y015345D01*
X015124Y015345D01*
X015124Y015634D01*
X014996Y015634D01*
X014961Y015624D01*
X014929Y015606D01*
X014903Y015580D01*
X014884Y015548D01*
X014883Y015544D01*
X014824Y015604D01*
X014766Y015604D01*
X014766Y015926D01*
X014958Y015926D01*
X015101Y016069D01*
X015101Y016272D01*
X015064Y016310D01*
X015064Y016332D02*
X015449Y016332D01*
X015449Y016254D02*
X015101Y016254D01*
X015101Y016175D02*
X015449Y016175D01*
X015449Y016411D02*
X015064Y016411D01*
X015064Y016489D02*
X015449Y016489D01*
X015598Y016912D02*
X015288Y016912D01*
X015598Y016912D02*
X015656Y016971D01*
X015656Y017291D01*
X015641Y017306D01*
X015288Y017306D01*
X015288Y017503D02*
X015316Y017531D01*
X015316Y017611D01*
X015416Y017611D01*
X015456Y017651D02*
X015656Y017451D01*
X015656Y017291D01*
X015956Y017467D02*
X016072Y017467D01*
X016056Y017451D01*
X016056Y017611D01*
X016216Y017771D01*
X016376Y017771D01*
X016456Y017851D01*
X016376Y017851D01*
X016319Y018059D02*
X016276Y018059D01*
X016276Y018138D02*
X016626Y018138D01*
X016626Y018216D02*
X016276Y018216D01*
X016276Y018295D02*
X016626Y018295D01*
X016626Y018373D02*
X016276Y018373D01*
X016217Y018452D02*
X016626Y018452D01*
X016626Y018530D02*
X015099Y018530D01*
X015314Y018609D02*
X015531Y018609D01*
X015503Y018687D02*
X015314Y018687D01*
X015314Y018766D02*
X015503Y018766D01*
X015503Y018844D02*
X015314Y018844D01*
X015302Y018923D02*
X015503Y018923D01*
X015503Y019001D02*
X015314Y019001D01*
X015314Y019080D02*
X015531Y019080D01*
X015477Y019158D02*
X015314Y019158D01*
X015314Y019237D02*
X015473Y019237D01*
X015496Y019291D02*
X015668Y019291D01*
X015736Y019291D02*
X015778Y019332D01*
X015790Y019332D01*
X015761Y019315D02*
X015283Y019315D01*
X015314Y019394D02*
X015473Y019394D01*
X015473Y019472D02*
X015314Y019472D01*
X015496Y019291D02*
X015416Y019211D01*
X015416Y018571D01*
X015496Y018491D01*
X015576Y018491D01*
X015496Y018411D01*
X015496Y018190D01*
X015517Y018170D01*
X015177Y018170D01*
X015176Y018171D01*
X015016Y018171D01*
X014895Y018049D01*
X014895Y017699D01*
X014895Y017824D02*
X014895Y017824D01*
X014895Y017902D02*
X014895Y017902D01*
X014895Y017981D02*
X014895Y017981D01*
X014858Y018059D02*
X015239Y018059D01*
X015239Y017981D02*
X015078Y017981D01*
X015094Y017902D02*
X015271Y017902D01*
X015361Y017824D02*
X015094Y017824D01*
X015094Y017745D02*
X015239Y017745D01*
X015239Y018138D02*
X014855Y018138D01*
X014817Y018216D02*
X015239Y018216D01*
X015239Y018295D02*
X014739Y018295D01*
X014698Y018069D02*
X014698Y017699D01*
X014501Y017699D02*
X014501Y017915D01*
X014107Y017667D02*
X014107Y017667D01*
X014107Y017588D02*
X014107Y017588D01*
X014107Y017510D02*
X014107Y017510D01*
X014107Y017306D02*
X013834Y017306D01*
X013430Y016901D01*
X013175Y017117D02*
X013112Y017117D01*
X013190Y017196D02*
X013512Y017196D01*
X013500Y017510D02*
X013751Y017510D01*
X013736Y017531D02*
X013736Y017451D01*
X013753Y017588D02*
X013500Y017588D01*
X012856Y016731D02*
X012856Y016531D01*
X012850Y016524D01*
X012518Y016524D01*
X012810Y016684D02*
X012856Y016731D01*
X013101Y016568D02*
X013142Y016568D01*
X013142Y016489D02*
X013101Y016489D01*
X013096Y016411D02*
X012936Y016251D01*
X012936Y016091D01*
X012242Y016091D01*
X012163Y016170D01*
X012163Y016170D01*
X011967Y016170D01*
X011967Y016170D01*
X012163Y016170D01*
X011967Y016170D01*
X011770Y016170D02*
X011770Y016057D01*
X011776Y016051D01*
X011776Y015831D01*
X011976Y015631D01*
X011696Y015351D02*
X011116Y015351D01*
X011096Y015371D01*
X011096Y016411D01*
X011210Y016524D01*
X011415Y016524D01*
X011415Y016327D02*
X011415Y015992D01*
X011516Y015891D01*
X011096Y015371D02*
X011096Y012571D01*
X011336Y012331D01*
X011736Y012331D01*
X011521Y012115D01*
X011521Y011963D01*
X011273Y011936D02*
X011144Y011936D01*
X011144Y011858D02*
X011273Y011858D01*
X011273Y011779D02*
X011145Y011779D01*
X011146Y011701D02*
X011224Y011701D01*
X011225Y011703D02*
X011215Y011667D01*
X011215Y011501D01*
X011464Y011501D01*
X011464Y011443D01*
X011215Y011443D01*
X011215Y011276D01*
X011225Y011241D01*
X011243Y011209D01*
X011256Y011196D01*
X011220Y011160D01*
X011220Y010715D01*
X011284Y010650D01*
X011543Y010650D01*
X011584Y010609D01*
X011446Y010609D01*
X011446Y010375D01*
X011418Y010375D01*
X011418Y010609D01*
X011217Y010609D01*
X011181Y010599D01*
X011155Y010584D01*
X011141Y012314D01*
X011273Y012182D01*
X011273Y011763D01*
X011269Y011761D01*
X011243Y011735D01*
X011225Y011703D01*
X011215Y011622D02*
X011146Y011622D01*
X011147Y011544D02*
X011215Y011544D01*
X011154Y011472D02*
X011133Y011451D01*
X011133Y010445D01*
X011218Y010360D01*
X011432Y010360D01*
X011245Y010360D01*
X011093Y010208D01*
X011096Y010205D01*
X011096Y008971D01*
X011183Y008884D01*
X011432Y008884D01*
X011419Y008870D01*
X011419Y008653D01*
X011256Y008491D01*
X011256Y008142D01*
X011227Y008171D02*
X011227Y008420D01*
X011172Y008420D01*
X011170Y008652D01*
X011181Y008645D01*
X011217Y008636D01*
X011418Y008636D01*
X011418Y008870D01*
X011169Y008870D01*
X011168Y008898D01*
X011418Y008898D01*
X011418Y008870D01*
X011446Y008870D01*
X011446Y008636D01*
X011511Y008636D01*
X011475Y008600D01*
X011475Y008413D01*
X011452Y008420D01*
X011285Y008420D01*
X011285Y008171D01*
X011227Y008171D01*
X011227Y008247D02*
X011285Y008247D01*
X011285Y008325D02*
X011227Y008325D01*
X011227Y008404D02*
X011285Y008404D01*
X011172Y008482D02*
X011475Y008482D01*
X011475Y008561D02*
X011171Y008561D01*
X011171Y008639D02*
X011204Y008639D01*
X011418Y008639D02*
X011446Y008639D01*
X011446Y008718D02*
X011418Y008718D01*
X011418Y008796D02*
X011446Y008796D01*
X011418Y008875D02*
X011169Y008875D01*
X011167Y009114D02*
X011166Y009182D01*
X011190Y009158D01*
X011672Y009158D01*
X011672Y009126D01*
X011648Y009132D01*
X011446Y009132D01*
X011446Y008898D01*
X011418Y008898D01*
X011418Y009132D01*
X011217Y009132D01*
X011181Y009123D01*
X011167Y009114D01*
X011418Y009110D02*
X011446Y009110D01*
X011446Y009032D02*
X011418Y009032D01*
X011418Y008953D02*
X011446Y008953D01*
X011432Y009376D02*
X011316Y009376D01*
X011432Y009376D02*
X011639Y009376D01*
X011822Y009559D01*
X011901Y009638D01*
X011901Y010622D01*
X012019Y010740D01*
X012019Y010898D01*
X011980Y010937D01*
X012005Y010962D01*
X012296Y010857D02*
X012296Y011291D01*
X012456Y011451D01*
X012456Y012251D01*
X012536Y012331D01*
X012413Y012454D01*
X012413Y012788D01*
X012436Y012811D01*
X012236Y012491D02*
X012216Y012471D01*
X012216Y012251D01*
X012296Y012171D01*
X012296Y011691D01*
X012078Y011472D01*
X012005Y011472D01*
X011656Y011611D02*
X012008Y011963D01*
X012033Y011963D01*
X012033Y012067D01*
X012004Y012093D02*
X012061Y012093D01*
X012061Y012015D02*
X012004Y012015D01*
X012004Y011992D02*
X012004Y012280D01*
X011981Y012280D01*
X011981Y012432D01*
X011959Y012455D01*
X012043Y012455D01*
X012066Y012455D01*
X012066Y012280D01*
X012061Y012280D01*
X012061Y011992D01*
X012004Y011992D01*
X012004Y012172D02*
X012061Y012172D01*
X012061Y012250D02*
X012004Y012250D01*
X011981Y012329D02*
X012066Y012329D01*
X012066Y012407D02*
X011981Y012407D01*
X012043Y012455D02*
X012043Y012811D01*
X012043Y012455D01*
X012043Y012486D02*
X012043Y012486D01*
X012043Y012564D02*
X012043Y012564D01*
X012043Y012643D02*
X012043Y012643D01*
X012043Y012721D02*
X012043Y012721D01*
X012056Y012798D02*
X012043Y012811D01*
X012043Y012811D01*
X012043Y012800D02*
X012043Y012800D01*
X012236Y012491D02*
X012236Y013284D01*
X012216Y013304D01*
X012610Y013697D01*
X012610Y013697D01*
X012474Y013833D01*
X012633Y013992D01*
X013194Y014553D01*
X013204Y014543D01*
X013204Y014484D01*
X013194Y014553D02*
X013232Y014591D01*
X012830Y014189D02*
X012633Y013992D01*
X012043Y014583D01*
X012474Y013833D02*
X012436Y013796D01*
X013256Y013451D02*
X013256Y013324D01*
X013496Y013084D01*
X013496Y012111D01*
X013496Y011944D01*
X013338Y011786D01*
X013496Y011931D02*
X013496Y012111D01*
X013224Y012218D02*
X013224Y012811D01*
X013176Y012764D01*
X012830Y012811D02*
X012830Y012144D01*
X012716Y012031D01*
X012716Y011771D01*
X012716Y011391D01*
X012456Y011131D01*
X012456Y010992D01*
X012965Y010484D01*
X013371Y010484D01*
X013567Y010484D02*
X013567Y010739D01*
X013496Y010811D01*
X012936Y010811D01*
X012776Y010971D01*
X012776Y011051D01*
X012756Y011071D01*
X013016Y011051D02*
X013016Y012011D01*
X013224Y012218D01*
X012806Y012788D02*
X012830Y012811D01*
X013305Y013402D02*
X013256Y013451D01*
X013896Y012811D02*
X014456Y013371D01*
X014456Y013531D01*
X014856Y013931D01*
X015336Y013931D01*
X015517Y014111D01*
X015517Y014502D01*
X015287Y014527D02*
X015277Y014527D01*
X015277Y014522D02*
X015277Y014955D01*
X015267Y014991D01*
X015262Y014999D01*
X015304Y014999D01*
X015287Y014982D01*
X015287Y014093D01*
X015277Y014083D01*
X015277Y014482D01*
X015037Y014482D01*
X015037Y014522D01*
X014997Y014522D01*
X014997Y014999D01*
X015037Y014999D01*
X015037Y014522D01*
X015277Y014522D01*
X015277Y014448D02*
X015287Y014448D01*
X015277Y014370D02*
X015287Y014370D01*
X015277Y014291D02*
X015287Y014291D01*
X015277Y014213D02*
X015287Y014213D01*
X015277Y014134D02*
X015287Y014134D01*
X014997Y014482D02*
X014757Y014482D01*
X014757Y014048D01*
X014758Y014044D01*
X014747Y014033D01*
X014747Y014982D01*
X014700Y015029D01*
X014792Y015029D01*
X014785Y015023D01*
X014767Y014991D01*
X014757Y014955D01*
X014757Y014522D01*
X014997Y014522D01*
X014997Y014482D01*
X015017Y014502D02*
X015017Y014811D01*
X015176Y014971D01*
X015176Y015293D01*
X015153Y015316D01*
X015181Y015312D02*
X015435Y015312D01*
X015430Y015288D02*
X015181Y015288D01*
X015181Y015345D01*
X015430Y015345D01*
X015430Y015512D01*
X015421Y015548D01*
X015402Y015580D01*
X015376Y015606D01*
X015495Y015606D01*
X015514Y015587D01*
X015959Y015587D01*
X016006Y015634D01*
X016054Y015587D01*
X016146Y015587D01*
X016146Y015475D01*
X016196Y015425D01*
X016011Y015425D01*
X015947Y015361D01*
X015947Y015073D01*
X015973Y015047D01*
X015926Y015047D01*
X015926Y015069D01*
X015931Y015073D01*
X015931Y015361D01*
X015866Y015425D01*
X015499Y015425D01*
X015435Y015361D01*
X015435Y015073D01*
X015461Y015047D01*
X015396Y015047D01*
X015402Y015053D01*
X015421Y015085D01*
X015430Y015121D01*
X015430Y015288D01*
X015430Y015233D02*
X015435Y015233D01*
X015430Y015155D02*
X015435Y015155D01*
X015435Y015076D02*
X015416Y015076D01*
X015303Y014998D02*
X015263Y014998D01*
X015277Y014919D02*
X015287Y014919D01*
X015277Y014841D02*
X015287Y014841D01*
X015277Y014762D02*
X015287Y014762D01*
X015277Y014684D02*
X015287Y014684D01*
X015277Y014605D02*
X015287Y014605D01*
X015037Y014605D02*
X014997Y014605D01*
X014997Y014527D02*
X015037Y014527D01*
X015037Y014684D02*
X014997Y014684D01*
X014997Y014762D02*
X015037Y014762D01*
X015037Y014841D02*
X014997Y014841D01*
X014997Y014919D02*
X015037Y014919D01*
X015037Y014998D02*
X014997Y014998D01*
X014771Y014998D02*
X014731Y014998D01*
X014747Y014919D02*
X014757Y014919D01*
X014747Y014841D02*
X014757Y014841D01*
X014747Y014762D02*
X014757Y014762D01*
X014747Y014684D02*
X014757Y014684D01*
X014747Y014605D02*
X014757Y014605D01*
X014747Y014527D02*
X014757Y014527D01*
X014747Y014448D02*
X014757Y014448D01*
X014747Y014370D02*
X014757Y014370D01*
X014747Y014291D02*
X014757Y014291D01*
X014747Y014213D02*
X014757Y014213D01*
X014747Y014134D02*
X014757Y014134D01*
X014747Y014056D02*
X014757Y014056D01*
X014936Y013691D02*
X015416Y013691D01*
X015776Y014051D01*
X015776Y015203D01*
X015696Y015203D01*
X015683Y015217D01*
X015683Y015237D01*
X015901Y015390D02*
X015976Y015390D01*
X015947Y015312D02*
X015931Y015312D01*
X015931Y015233D02*
X015947Y015233D01*
X015947Y015155D02*
X015931Y015155D01*
X015931Y015076D02*
X015947Y015076D01*
X016195Y015217D02*
X016590Y015217D01*
X016622Y015217D01*
X016616Y015211D01*
X016616Y016571D01*
X016776Y016731D01*
X016776Y017131D01*
X017016Y017131D01*
X017176Y017291D01*
X017176Y017771D01*
X016776Y018171D01*
X016776Y018491D01*
X017016Y018731D01*
X017016Y020251D01*
X016696Y020571D01*
X016316Y020571D01*
X016316Y020639D01*
X016310Y020645D01*
X016136Y021054D02*
X016136Y021058D01*
X016060Y021134D01*
X016136Y021566D02*
X016136Y021611D01*
X015896Y021851D01*
X015692Y021646D01*
X014976Y021646D01*
X014976Y021421D01*
X014933Y021378D01*
X014936Y021374D01*
X014933Y021378D02*
X015016Y021294D01*
X015016Y021211D01*
X014932Y021691D02*
X014936Y021695D01*
X014936Y022267D01*
X014872Y022331D01*
X014216Y022331D01*
X013816Y021931D01*
X013816Y021371D01*
X014341Y021379D02*
X014342Y021378D01*
X014341Y021379D02*
X014341Y021691D01*
X015496Y020971D02*
X015656Y020811D01*
X015656Y020331D01*
X015370Y019897D02*
X015287Y019897D01*
X015370Y019897D02*
X015450Y019817D01*
X015565Y019359D02*
X015576Y019359D01*
X015565Y019359D02*
X015538Y019332D01*
X014968Y019505D02*
X014882Y019505D01*
X014776Y019611D01*
X014856Y019451D02*
X014882Y019425D01*
X014376Y019291D02*
X014376Y019915D01*
X014296Y019995D01*
X014296Y019915D01*
X014712Y019951D02*
X014756Y019995D01*
X014376Y019291D02*
X014216Y019131D01*
X014216Y018811D01*
X014162Y018757D01*
X013944Y018757D01*
X013796Y018411D02*
X014136Y018411D01*
X014376Y018651D01*
X014862Y018651D01*
X014968Y018757D01*
X015488Y018452D02*
X015546Y018452D01*
X015576Y018491D02*
X016216Y018491D01*
X016856Y017851D01*
X016856Y017531D01*
X016705Y017510D02*
X017026Y017510D01*
X017026Y017588D02*
X016705Y017588D01*
X016694Y017667D02*
X017026Y017667D01*
X016989Y017745D02*
X016697Y017745D01*
X016701Y017824D02*
X016911Y017824D01*
X016832Y017902D02*
X016701Y017902D01*
X016673Y017981D02*
X016754Y017981D01*
X016675Y018059D02*
X016594Y018059D01*
X017056Y018331D02*
X017096Y018371D01*
X017096Y018411D01*
X017176Y018491D01*
X017176Y020331D01*
X016936Y020571D01*
X016936Y020971D01*
X017056Y021090D01*
X017056Y021915D01*
X017096Y021956D01*
X017096Y023051D01*
X017016Y023131D01*
X016776Y022891D01*
X016216Y022891D01*
X016776Y022926D02*
X017336Y022926D01*
X017336Y022848D02*
X016776Y022848D01*
X016776Y022769D02*
X017336Y022769D01*
X017336Y022691D02*
X016776Y022691D01*
X016776Y022612D02*
X017336Y022612D01*
X017336Y022534D02*
X016776Y022534D01*
X016776Y022455D02*
X017336Y022455D01*
X017336Y022377D02*
X016776Y022377D01*
X016776Y022298D02*
X017336Y022298D01*
X017336Y022220D02*
X016776Y022220D01*
X016776Y022141D02*
X017336Y022141D01*
X017336Y022063D02*
X016776Y022063D01*
X016776Y021984D02*
X017336Y021984D01*
X017336Y021931D02*
X017336Y023396D01*
X016776Y023396D01*
X016776Y021931D01*
X017336Y021931D01*
X017336Y023005D02*
X016776Y023005D01*
X016776Y023083D02*
X017336Y023083D01*
X017336Y023162D02*
X016776Y023162D01*
X016776Y023240D02*
X017336Y023240D01*
X017336Y023319D02*
X016776Y023319D01*
X017256Y020651D02*
X017336Y020571D01*
X017336Y017211D01*
X017056Y016930D01*
X017056Y015915D01*
X017136Y015835D01*
X017136Y015251D01*
X017101Y015217D01*
X017158Y015160D01*
X016709Y014783D02*
X016657Y014731D01*
X016376Y014731D01*
X016415Y014486D02*
X016275Y014486D01*
X016247Y014513D01*
X016247Y014021D01*
X016183Y013957D01*
X016126Y013957D01*
X016126Y013948D01*
X016038Y013861D01*
X015486Y013308D01*
X015486Y012988D01*
X015484Y012987D01*
X015683Y012987D01*
X015747Y012922D01*
X015747Y012073D01*
X015752Y012073D01*
X015757Y012071D01*
X015757Y012422D01*
X015997Y012422D01*
X015997Y012462D01*
X015997Y013017D01*
X015879Y013017D01*
X015843Y013007D01*
X015811Y012989D01*
X015785Y012963D01*
X015767Y012931D01*
X015757Y012895D01*
X015757Y012462D01*
X015997Y012462D01*
X016037Y012462D01*
X016037Y013017D01*
X016131Y013017D01*
X016131Y013152D01*
X016275Y013296D01*
X016379Y013296D01*
X016362Y013337D01*
X016362Y013528D01*
X016435Y013704D01*
X016570Y013839D01*
X016746Y013912D01*
X016937Y013912D01*
X017114Y013839D01*
X017186Y013766D01*
X017186Y014023D01*
X016975Y014023D01*
X016975Y014023D01*
X016972Y014021D01*
X016940Y014003D01*
X016905Y013993D01*
X016738Y013993D01*
X016738Y014242D01*
X016680Y014242D01*
X016392Y014242D01*
X016392Y014115D01*
X016402Y014079D01*
X016420Y014047D01*
X016446Y014021D01*
X016478Y014003D01*
X016514Y013993D01*
X016680Y013993D01*
X016680Y014242D01*
X016680Y014300D01*
X016392Y014300D01*
X016392Y014427D01*
X016402Y014463D01*
X016415Y014486D01*
X016398Y014448D02*
X016247Y014448D01*
X016247Y014370D02*
X016392Y014370D01*
X016392Y014213D02*
X016247Y014213D01*
X016247Y014291D02*
X016680Y014291D01*
X016709Y014271D02*
X016636Y014198D01*
X016409Y014198D01*
X016396Y014211D01*
X016376Y014191D01*
X016376Y014011D01*
X016017Y013651D01*
X016017Y012442D01*
X016007Y012442D01*
X015976Y012411D01*
X015976Y012431D01*
X015976Y012411D02*
X015976Y012091D01*
X016056Y012011D01*
X016037Y012015D02*
X015997Y012015D01*
X015997Y012093D02*
X016037Y012093D01*
X015976Y012091D02*
X015976Y011851D01*
X016016Y011851D01*
X015875Y011710D01*
X015762Y011710D01*
X015803Y011710D02*
X015959Y011867D01*
X015879Y011867D01*
X015878Y011867D01*
X015762Y011751D01*
X015803Y011710D01*
X015790Y011779D02*
X015872Y011779D01*
X015869Y011858D02*
X015951Y011858D01*
X015976Y011851D02*
X015976Y011771D01*
X016007Y011858D02*
X016171Y011858D01*
X016155Y011867D02*
X016189Y011876D01*
X016089Y011775D01*
X015997Y011867D01*
X015997Y012422D01*
X016037Y012422D01*
X016037Y011867D01*
X016155Y011867D01*
X016093Y011779D02*
X016085Y011779D01*
X016037Y011936D02*
X015997Y011936D01*
X015997Y012172D02*
X016037Y012172D01*
X016037Y012250D02*
X015997Y012250D01*
X015997Y012329D02*
X016037Y012329D01*
X016037Y012407D02*
X015997Y012407D01*
X015997Y012486D02*
X016037Y012486D01*
X016037Y012564D02*
X015997Y012564D01*
X015997Y012643D02*
X016037Y012643D01*
X016037Y012721D02*
X015997Y012721D01*
X015997Y012800D02*
X016037Y012800D01*
X016037Y012878D02*
X015997Y012878D01*
X015997Y012957D02*
X016037Y012957D01*
X016131Y013035D02*
X015486Y013035D01*
X015486Y013114D02*
X016131Y013114D01*
X016172Y013192D02*
X015486Y013192D01*
X015486Y013271D02*
X016250Y013271D01*
X016362Y013349D02*
X015527Y013349D01*
X015606Y013428D02*
X016362Y013428D01*
X016362Y013506D02*
X015684Y013506D01*
X015763Y013585D02*
X016386Y013585D01*
X016418Y013663D02*
X015841Y013663D01*
X015920Y013742D02*
X016473Y013742D01*
X016551Y013820D02*
X015998Y013820D01*
X016077Y013899D02*
X016714Y013899D01*
X016738Y014056D02*
X016680Y014056D01*
X016680Y014134D02*
X016738Y014134D01*
X016738Y014213D02*
X016680Y014213D01*
X016392Y014134D02*
X016247Y014134D01*
X016247Y014056D02*
X016415Y014056D01*
X016203Y013977D02*
X017186Y013977D01*
X017186Y013899D02*
X016969Y013899D01*
X017132Y013820D02*
X017186Y013820D01*
X017486Y013820D02*
X017489Y013820D01*
X017486Y013742D02*
X017489Y013742D01*
X017486Y013663D02*
X017489Y013663D01*
X017486Y013585D02*
X017489Y013585D01*
X017486Y013506D02*
X017489Y013506D01*
X017486Y013428D02*
X017489Y013428D01*
X017486Y013349D02*
X017489Y013349D01*
X017486Y013271D02*
X017489Y013271D01*
X017486Y013192D02*
X017489Y013192D01*
X017486Y013114D02*
X017489Y013114D01*
X017486Y013035D02*
X017489Y013035D01*
X017486Y012957D02*
X017489Y012957D01*
X017486Y012878D02*
X017489Y012878D01*
X017486Y012800D02*
X017489Y012800D01*
X017486Y012721D02*
X017489Y012721D01*
X017486Y012643D02*
X017489Y012643D01*
X017486Y012564D02*
X017489Y012564D01*
X017486Y012486D02*
X017489Y012486D01*
X017486Y012407D02*
X017489Y012407D01*
X017486Y012329D02*
X017489Y012329D01*
X017486Y012250D02*
X017489Y012250D01*
X017486Y012172D02*
X017489Y012172D01*
X017486Y012093D02*
X017489Y012093D01*
X017486Y012015D02*
X017489Y012015D01*
X017486Y011936D02*
X017489Y011936D01*
X017486Y011858D02*
X017489Y011858D01*
X017486Y011779D02*
X017489Y011779D01*
X017486Y011701D02*
X017489Y011701D01*
X017486Y011622D02*
X017489Y011622D01*
X017486Y011544D02*
X017489Y011544D01*
X017486Y011465D02*
X017489Y011465D01*
X017486Y011387D02*
X017489Y011387D01*
X017486Y011308D02*
X017489Y011308D01*
X017486Y011230D02*
X017489Y011230D01*
X017486Y011151D02*
X017489Y011151D01*
X017486Y011073D02*
X017489Y011073D01*
X017486Y010994D02*
X017489Y010994D01*
X017486Y010916D02*
X017489Y010916D01*
X017486Y010837D02*
X017489Y010837D01*
X017486Y010759D02*
X017489Y010759D01*
X017486Y010680D02*
X017489Y010680D01*
X017486Y010602D02*
X017489Y010602D01*
X017486Y010523D02*
X017489Y010523D01*
X017486Y010445D02*
X017489Y010445D01*
X017486Y010428D02*
X017486Y014036D01*
X017489Y014039D01*
X017489Y008011D01*
X017336Y008011D01*
X017336Y008009D02*
X017336Y008066D01*
X017263Y008243D01*
X017128Y008378D01*
X016952Y008451D01*
X016761Y008451D01*
X016649Y008404D01*
X016583Y008471D01*
X016649Y008537D01*
X016761Y008491D01*
X016952Y008491D01*
X017128Y008564D01*
X017263Y008699D01*
X017336Y008875D01*
X017489Y008875D01*
X017489Y008953D02*
X017336Y008953D01*
X017336Y008875D02*
X017336Y009066D01*
X017263Y009243D01*
X017128Y009378D01*
X016952Y009451D01*
X016761Y009451D01*
X016584Y009378D01*
X016449Y009243D01*
X016376Y009066D01*
X016376Y008875D01*
X016412Y008788D01*
X016134Y008788D01*
X016134Y008825D01*
X016134Y008887D01*
X016123Y008927D01*
X016104Y008961D01*
X016104Y009116D01*
X016099Y009120D01*
X016104Y009124D01*
X016104Y009313D01*
X016099Y009317D01*
X016104Y009321D01*
X016104Y009477D01*
X016123Y009510D01*
X016134Y009550D01*
X016134Y009612D01*
X015896Y009612D01*
X015896Y009612D01*
X016134Y009612D01*
X016134Y009659D01*
X016157Y009659D01*
X016376Y009878D01*
X016376Y009875D01*
X016449Y009699D01*
X016584Y009564D01*
X016761Y009491D01*
X016952Y009491D01*
X017128Y009564D01*
X017263Y009699D01*
X017336Y009875D01*
X017336Y010066D01*
X017263Y010243D01*
X017205Y010301D01*
X017358Y010301D01*
X017398Y010341D01*
X017486Y010428D01*
X017489Y010366D02*
X017424Y010366D01*
X017489Y010288D02*
X017218Y010288D01*
X017277Y010209D02*
X017489Y010209D01*
X017489Y010131D02*
X017309Y010131D01*
X017336Y010052D02*
X017489Y010052D01*
X017489Y009974D02*
X017336Y009974D01*
X017336Y009895D02*
X017489Y009895D01*
X017489Y009817D02*
X017312Y009817D01*
X017280Y009738D02*
X017489Y009738D01*
X017489Y009660D02*
X017224Y009660D01*
X017146Y009581D02*
X017489Y009581D01*
X017489Y009503D02*
X016981Y009503D01*
X017015Y009424D02*
X017489Y009424D01*
X017489Y009346D02*
X017160Y009346D01*
X017238Y009267D02*
X017489Y009267D01*
X017416Y009291D02*
X017416Y008011D01*
X017489Y008011D02*
X017336Y008009D01*
X017326Y008090D02*
X017489Y008090D01*
X017489Y008168D02*
X017294Y008168D01*
X017259Y008247D02*
X017489Y008247D01*
X017489Y008325D02*
X017180Y008325D01*
X017065Y008404D02*
X017489Y008404D01*
X017489Y008482D02*
X016594Y008482D01*
X016409Y008796D02*
X016134Y008796D01*
X016134Y008825D02*
X015896Y008825D01*
X015896Y008825D01*
X016134Y008825D01*
X016151Y008825D02*
X016216Y008891D01*
X016216Y009531D01*
X016136Y009611D01*
X015818Y009611D01*
X015816Y009612D01*
X015816Y009809D02*
X016095Y009809D01*
X016376Y010091D01*
X016376Y010251D01*
X016576Y010451D01*
X017296Y010451D01*
X017336Y010491D01*
X017336Y014112D01*
X017486Y013977D02*
X017489Y013977D01*
X017486Y013899D02*
X017489Y013899D01*
X016376Y013051D02*
X016296Y012971D01*
X016296Y012171D01*
X016376Y012091D01*
X016376Y011851D01*
X015736Y011211D01*
X015736Y011131D01*
X015336Y010731D01*
X015339Y010728D01*
X015339Y010484D01*
X015142Y010484D02*
X015142Y010765D01*
X014936Y010971D01*
X014936Y011371D01*
X015496Y011931D01*
X015496Y012421D01*
X015517Y012442D01*
X015517Y012472D01*
X015496Y012492D01*
X015496Y012811D01*
X015712Y012957D02*
X015782Y012957D01*
X015757Y012878D02*
X015747Y012878D01*
X015747Y012800D02*
X015757Y012800D01*
X015747Y012721D02*
X015757Y012721D01*
X015747Y012643D02*
X015757Y012643D01*
X015747Y012564D02*
X015757Y012564D01*
X015747Y012486D02*
X015757Y012486D01*
X015747Y012407D02*
X015757Y012407D01*
X015747Y012329D02*
X015757Y012329D01*
X015747Y012250D02*
X015757Y012250D01*
X015747Y012172D02*
X015757Y012172D01*
X015747Y012093D02*
X015757Y012093D01*
X015256Y011931D02*
X014776Y011451D01*
X014776Y010891D01*
X014945Y010721D01*
X014945Y010484D01*
X014749Y010484D02*
X014749Y010678D01*
X014616Y010811D01*
X014616Y011771D01*
X014776Y011931D01*
X014776Y012931D01*
X014616Y013091D01*
X014616Y013371D01*
X014936Y013691D01*
X014936Y013211D02*
X015017Y013130D01*
X015017Y012442D01*
X015256Y011931D02*
X015256Y012971D01*
X015336Y013051D01*
X015336Y013371D01*
X015976Y014011D01*
X015976Y014461D01*
X016017Y014502D01*
X016153Y015469D02*
X015430Y015469D01*
X015367Y015451D02*
X015496Y015451D01*
X015576Y015531D01*
X015421Y015547D02*
X016146Y015547D01*
X016015Y015626D02*
X015998Y015626D01*
X015736Y015835D02*
X015432Y015835D01*
X015416Y015851D01*
X015238Y016018D02*
X015050Y016018D01*
X015101Y016097D02*
X015758Y016097D01*
X015976Y016091D02*
X015736Y016331D01*
X015736Y016347D01*
X015736Y016491D01*
X015896Y016651D01*
X015896Y016895D01*
X015956Y016955D01*
X016276Y016631D02*
X016276Y016347D01*
X016276Y016631D02*
X016336Y016691D01*
X016418Y016772D01*
X016418Y016961D01*
X016776Y017131D02*
X016776Y017211D01*
X016515Y017472D01*
X016418Y017472D01*
X016705Y017494D02*
X016838Y017361D01*
X016056Y018011D02*
X015896Y017851D01*
X015896Y018038D02*
X016029Y018170D01*
X016029Y018038D01*
X016056Y018011D01*
X015840Y018452D02*
X015748Y018452D01*
X015546Y018373D02*
X015488Y018373D01*
X015488Y018295D02*
X015546Y018295D01*
X015546Y018216D02*
X015488Y018216D01*
X016501Y018609D02*
X016682Y018609D01*
X016759Y018687D02*
X016761Y018687D01*
X016838Y018766D02*
X016839Y018766D01*
X016861Y018844D02*
X016866Y018844D01*
X016861Y018923D02*
X016866Y018923D01*
X016866Y019001D02*
X016852Y019001D01*
X016866Y019080D02*
X016806Y019080D01*
X016806Y019158D02*
X016866Y019158D01*
X016866Y019237D02*
X016831Y019237D01*
X017256Y020571D02*
X017256Y020651D01*
X013476Y018731D02*
X012856Y018731D01*
X012536Y019051D01*
X012536Y019291D01*
X013016Y019291D02*
X013023Y019284D01*
X013124Y019284D01*
X013124Y020307D02*
X013101Y020331D01*
X011597Y018181D02*
X011597Y017821D01*
X011661Y017756D01*
X011597Y017824D02*
X011158Y017824D01*
X011096Y017771D02*
X011397Y018031D01*
X011417Y018031D01*
X011556Y018111D01*
X011556Y018111D01*
X011556Y018111D01*
X011597Y018181D01*
X011597Y018138D02*
X011571Y018138D01*
X011597Y018059D02*
X011466Y018059D01*
X011340Y017981D02*
X011597Y017981D01*
X011597Y017902D02*
X011249Y017902D01*
X011156Y017274D02*
X011100Y017274D01*
X011102Y017117D02*
X011118Y017117D01*
X011118Y017039D02*
X011102Y017039D01*
X011103Y016960D02*
X011148Y016960D01*
X011148Y016882D02*
X011104Y016882D01*
X011104Y016803D02*
X011148Y016803D01*
X011148Y016725D02*
X011105Y016725D01*
X011105Y016646D02*
X011120Y016646D01*
X012367Y016097D02*
X013011Y016097D01*
X013011Y016175D02*
X012743Y016175D01*
X012785Y016254D02*
X013011Y016254D01*
X013004Y016332D02*
X013072Y016332D01*
X013083Y016411D02*
X013142Y016411D01*
X013256Y016216D02*
X013430Y016389D01*
X013256Y016216D02*
X013256Y016171D01*
X013062Y015742D02*
X012998Y015742D01*
X012990Y015734D01*
X012990Y015589D01*
X013016Y015616D01*
X012990Y015589D02*
X013075Y015589D01*
X012814Y015626D02*
X012798Y015626D01*
X012798Y015704D02*
X012814Y015704D01*
X012814Y015783D02*
X012798Y015783D01*
X012798Y015861D02*
X012814Y015861D01*
X012814Y015940D02*
X012798Y015940D01*
X012744Y016018D02*
X012868Y016018D01*
X012550Y015742D02*
X012550Y015662D01*
X012436Y015547D01*
X012830Y015173D02*
X012856Y015200D01*
X013224Y015173D02*
X013261Y015211D01*
X013814Y014583D02*
X013888Y014583D01*
X013896Y014591D01*
X014216Y014591D01*
X014227Y014580D01*
X014306Y014502D01*
X014517Y014502D01*
X014501Y014502D01*
X014480Y014481D01*
X014476Y014484D02*
X014476Y014520D01*
X014641Y015316D02*
X014616Y015341D01*
X014616Y016011D01*
X014476Y016151D02*
X014056Y016151D01*
X014766Y015861D02*
X015171Y015861D01*
X015171Y015783D02*
X014766Y015783D01*
X014766Y015704D02*
X015216Y015704D01*
X015181Y015626D02*
X015124Y015626D01*
X015124Y015547D02*
X015181Y015547D01*
X015181Y015469D02*
X015124Y015469D01*
X015124Y015390D02*
X015181Y015390D01*
X015430Y015390D02*
X015465Y015390D01*
X014967Y015626D02*
X014766Y015626D01*
X014880Y015547D02*
X014884Y015547D01*
X014972Y015940D02*
X015171Y015940D01*
X015976Y016091D02*
X016020Y016091D01*
X016276Y015835D01*
X016376Y015735D01*
X016376Y015571D01*
X016842Y012432D02*
X016842Y012076D01*
X015896Y011131D01*
X015896Y011051D01*
X015576Y010731D01*
X015576Y010524D01*
X015536Y010484D01*
X015543Y010491D01*
X015816Y010731D02*
X015816Y010203D01*
X015816Y010203D01*
X015816Y010006D02*
X016052Y010006D01*
X016216Y010171D01*
X016216Y010491D01*
X016059Y010680D02*
X015978Y010680D01*
X015966Y010668D02*
X016206Y010908D01*
X016206Y011008D01*
X016346Y011148D01*
X016346Y011011D01*
X016816Y011011D01*
X016816Y011481D01*
X016678Y011481D01*
X016738Y011541D01*
X016918Y011541D01*
X016983Y011606D01*
X017118Y011606D01*
X017186Y011674D01*
X017186Y011481D01*
X016896Y011481D01*
X016896Y011011D01*
X016816Y011011D01*
X016816Y010931D01*
X016346Y010931D01*
X016346Y010707D01*
X016318Y010736D01*
X016115Y010736D01*
X015971Y010592D01*
X015971Y010389D01*
X015988Y010372D01*
X015966Y010372D01*
X015966Y010668D01*
X015966Y010602D02*
X015981Y010602D01*
X015971Y010523D02*
X015966Y010523D01*
X015966Y010445D02*
X015971Y010445D01*
X015816Y010731D02*
X016056Y010971D01*
X016056Y011071D01*
X016676Y011691D01*
X016856Y011691D01*
X017016Y011851D01*
X017134Y011622D02*
X017186Y011622D01*
X017186Y011544D02*
X016922Y011544D01*
X016896Y011465D02*
X016816Y011465D01*
X016816Y011387D02*
X016896Y011387D01*
X016896Y011308D02*
X016816Y011308D01*
X016816Y011230D02*
X016896Y011230D01*
X016896Y011151D02*
X016816Y011151D01*
X016816Y011073D02*
X016896Y011073D01*
X016816Y010994D02*
X016206Y010994D01*
X016206Y010916D02*
X016346Y010916D01*
X016346Y010837D02*
X016135Y010837D01*
X016057Y010759D02*
X016346Y010759D01*
X016346Y011073D02*
X016271Y011073D01*
X016816Y010931D02*
X016816Y010601D01*
X016896Y010601D01*
X016896Y010931D01*
X016816Y010931D01*
X016816Y010916D02*
X016896Y010916D01*
X016896Y010837D02*
X016816Y010837D01*
X016816Y010759D02*
X016896Y010759D01*
X016896Y010680D02*
X016816Y010680D01*
X016816Y010602D02*
X016896Y010602D01*
X016400Y009817D02*
X016315Y009817D01*
X016236Y009738D02*
X016433Y009738D01*
X016488Y009660D02*
X016158Y009660D01*
X016134Y009581D02*
X016567Y009581D01*
X016731Y009503D02*
X016119Y009503D01*
X016104Y009424D02*
X016697Y009424D01*
X016553Y009346D02*
X016104Y009346D01*
X016104Y009267D02*
X016474Y009267D01*
X016427Y009189D02*
X016104Y009189D01*
X016104Y009110D02*
X016395Y009110D01*
X016376Y009032D02*
X016104Y009032D01*
X016108Y008953D02*
X016376Y008953D01*
X016376Y008875D02*
X016134Y008875D01*
X016151Y008825D02*
X015911Y008825D01*
X015816Y009022D02*
X015285Y009022D01*
X015187Y009120D01*
X014453Y009120D01*
X014456Y009123D01*
X014456Y009131D01*
X014536Y008091D02*
X013896Y008091D01*
X013889Y008083D01*
X013953Y008083D01*
X013961Y008075D01*
X013889Y008083D02*
X013871Y008083D01*
X013567Y007757D02*
X013576Y007748D01*
X013576Y007531D01*
X013498Y007452D01*
X012846Y007452D01*
X012696Y007302D01*
X012696Y007211D01*
X012376Y006891D01*
X012136Y006891D01*
X011896Y006651D01*
X011896Y005531D01*
X012296Y005131D01*
X012296Y004835D01*
X012275Y004814D01*
X012275Y004263D01*
X012176Y004164D01*
X011816Y004411D02*
X011816Y004971D01*
X011816Y005051D01*
X011816Y004411D02*
X011665Y004259D01*
X011665Y004164D01*
X013336Y004891D02*
X013336Y004971D01*
X013736Y004571D01*
X013896Y004571D01*
X013736Y004411D01*
X015070Y004861D02*
X015096Y004887D01*
X015096Y005531D01*
X014834Y005793D01*
X014834Y006547D01*
X014834Y006803D02*
X015184Y006803D01*
X015256Y006731D01*
X015336Y006731D01*
X015424Y006643D01*
X015424Y006646D01*
X015379Y006731D02*
X015336Y006731D01*
X015424Y007158D02*
X015424Y007198D01*
X015366Y007256D01*
X014956Y007151D02*
X014956Y007031D01*
X014576Y007031D01*
X014451Y007156D01*
X014451Y007327D01*
X014372Y007406D01*
X014351Y007427D01*
X014351Y007730D01*
X014360Y007742D01*
X014351Y007784D01*
X014351Y007821D01*
X014393Y007821D01*
X014393Y007549D01*
X014462Y007480D01*
X014527Y007480D01*
X014796Y007211D01*
X014896Y007211D01*
X014956Y007151D01*
X014956Y007148D02*
X014459Y007148D01*
X014451Y007226D02*
X014781Y007226D01*
X014782Y007131D02*
X014616Y007131D01*
X014381Y007366D01*
X014381Y007394D01*
X014395Y007383D02*
X014624Y007383D01*
X014702Y007305D02*
X014451Y007305D01*
X014545Y007462D02*
X014351Y007462D01*
X014351Y007540D02*
X014401Y007540D01*
X014393Y007619D02*
X014351Y007619D01*
X014351Y007697D02*
X014393Y007697D01*
X014393Y007776D02*
X014353Y007776D01*
X014552Y008075D02*
X014536Y008091D01*
X014158Y007225D02*
X014158Y007112D01*
X014125Y007079D01*
X014125Y006803D02*
X013889Y006803D01*
X013816Y006731D01*
X013816Y006651D01*
X013896Y006571D01*
X014136Y006571D01*
X014136Y006559D01*
X014125Y006547D01*
X014125Y006342D01*
X014136Y006331D01*
X014125Y006803D02*
X014834Y006803D01*
X014834Y007079D02*
X014782Y007131D01*
X014956Y007069D02*
X014538Y007069D01*
X013764Y007327D02*
X013554Y007117D01*
X013764Y007327D02*
X013764Y007505D01*
X013371Y007725D02*
X013256Y007611D01*
X012776Y007611D01*
X012456Y007291D01*
X012309Y007291D01*
X012296Y007211D02*
X012216Y007211D01*
X012225Y007219D01*
X012218Y007219D01*
X012069Y007071D01*
X012069Y007051D01*
X012056Y007051D01*
X011736Y006731D01*
X011736Y006411D01*
X011596Y006271D01*
X011369Y006271D01*
X011256Y007630D02*
X011297Y007671D01*
X011644Y008123D02*
X011625Y008142D01*
X011625Y008538D01*
X011822Y008735D01*
X011822Y009559D01*
X011541Y009868D02*
X011744Y010071D01*
X011744Y010661D01*
X011468Y010937D01*
X011220Y010916D02*
X011152Y010916D01*
X011151Y010994D02*
X011220Y010994D01*
X011220Y011073D02*
X011151Y011073D01*
X011150Y011151D02*
X011220Y011151D01*
X011231Y011230D02*
X011149Y011230D01*
X011149Y011308D02*
X011215Y011308D01*
X011215Y011387D02*
X011148Y011387D01*
X011148Y011465D02*
X011464Y011465D01*
X011493Y011472D02*
X011154Y011472D01*
X011493Y011472D02*
X011632Y011611D01*
X011656Y011611D01*
X011273Y012015D02*
X011143Y012015D01*
X011142Y012093D02*
X011273Y012093D01*
X011273Y012172D02*
X011142Y012172D01*
X011141Y012250D02*
X011204Y012250D01*
X011676Y012811D02*
X011676Y013111D01*
X011452Y013335D01*
X011452Y013402D01*
X013016Y011051D02*
X013096Y010971D01*
X013696Y010971D01*
X013961Y010706D01*
X013961Y010484D01*
X014158Y010484D02*
X014158Y010801D01*
X014096Y010801D01*
X014082Y010797D01*
X014023Y010856D01*
X013879Y011000D01*
X013962Y011000D01*
X013997Y011010D01*
X014011Y011018D01*
X014011Y010935D01*
X014075Y010870D01*
X014195Y010870D01*
X014195Y010801D01*
X014158Y010801D01*
X014158Y010484D01*
X014158Y010484D01*
X014158Y010766D01*
X013976Y010948D01*
X013976Y011131D01*
X013829Y011278D01*
X013795Y011249D02*
X013795Y011307D01*
X014016Y011307D01*
X014011Y011302D01*
X014011Y011249D01*
X013795Y011249D01*
X013737Y011249D02*
X013449Y011249D01*
X013449Y011246D01*
X013367Y011246D01*
X013367Y011303D01*
X013655Y011303D01*
X013655Y011307D01*
X013737Y011307D01*
X013737Y011249D01*
X013885Y010994D02*
X014011Y010994D01*
X014030Y010916D02*
X013963Y010916D01*
X014042Y010837D02*
X014195Y010837D01*
X014158Y010759D02*
X014158Y010759D01*
X014158Y010680D02*
X014158Y010680D01*
X014158Y010602D02*
X014158Y010602D01*
X014158Y010523D02*
X014158Y010523D01*
X014298Y011630D02*
X014076Y011852D01*
X014076Y011891D01*
X013867Y011891D01*
X013766Y011790D01*
X014256Y012211D02*
X014458Y012211D01*
X014517Y012151D01*
X014517Y012179D01*
X013896Y012731D02*
X013896Y012811D01*
X012296Y010857D02*
X012950Y010203D01*
X013090Y010203D01*
X013090Y010006D02*
X012733Y010006D01*
X012688Y010051D01*
X012688Y010091D01*
X012419Y010360D01*
X012220Y010360D01*
X012220Y009868D02*
X012439Y009868D01*
X012676Y009631D01*
X012855Y009809D01*
X013090Y009809D01*
X013090Y009219D02*
X013082Y009211D01*
X012876Y009211D01*
X012796Y009291D01*
X012616Y009291D01*
X012531Y009376D01*
X012220Y009376D01*
X012220Y009868D02*
X012459Y009868D01*
X012944Y009219D02*
X013090Y009219D01*
X012556Y008628D02*
X012556Y008579D01*
X012551Y008573D01*
X012728Y008404D02*
X012773Y008404D01*
X012773Y008379D02*
X012569Y008176D01*
X012516Y008176D01*
X012516Y008319D01*
X012513Y008328D01*
X012653Y008328D01*
X012773Y008449D01*
X012773Y008431D01*
X012773Y008379D01*
X012773Y008431D02*
X013090Y008431D01*
X013090Y008431D01*
X012773Y008431D01*
X012797Y008431D02*
X012616Y008251D01*
X012216Y008251D01*
X012238Y008229D01*
X012238Y008123D01*
X012218Y008103D01*
X012209Y008152D02*
X012209Y008440D01*
X012082Y008440D01*
X012046Y008431D01*
X012014Y008412D01*
X011988Y008386D01*
X011970Y008354D01*
X011969Y008351D01*
X011910Y008410D01*
X011775Y008410D01*
X011775Y008476D01*
X011971Y008672D01*
X011977Y008666D01*
X012306Y008666D01*
X012306Y008472D01*
X012338Y008440D01*
X012267Y008440D01*
X012267Y008152D01*
X012209Y008152D01*
X012209Y008168D02*
X012267Y008168D01*
X012267Y008247D02*
X012209Y008247D01*
X012216Y008251D02*
X012216Y008331D01*
X012056Y008491D01*
X012006Y008404D02*
X011916Y008404D01*
X011782Y008482D02*
X012306Y008482D01*
X012306Y008561D02*
X011860Y008561D01*
X011939Y008639D02*
X012306Y008639D01*
X012267Y008404D02*
X012209Y008404D01*
X012209Y008325D02*
X012267Y008325D01*
X012514Y008325D02*
X012719Y008325D01*
X012640Y008247D02*
X012516Y008247D01*
X012616Y008011D02*
X012616Y007931D01*
X012616Y008011D02*
X012840Y008234D01*
X013090Y008234D01*
X013090Y008431D02*
X012797Y008431D01*
X013371Y007757D02*
X013371Y007725D01*
X013016Y006891D02*
X012776Y006891D01*
X012756Y006871D01*
X013043Y006784D02*
X013043Y006665D01*
X013043Y006224D02*
X013043Y006213D01*
X011706Y008103D02*
X011726Y008123D01*
X011644Y008123D01*
X011541Y009868D02*
X011432Y009868D01*
X011418Y010112D02*
X011217Y010112D01*
X011181Y010122D01*
X011158Y010135D01*
X011159Y010056D01*
X011190Y010087D01*
X011547Y010087D01*
X011572Y010112D01*
X011446Y010112D01*
X011446Y010346D01*
X011418Y010346D01*
X011418Y010112D01*
X011418Y010131D02*
X011446Y010131D01*
X011446Y010209D02*
X011418Y010209D01*
X011418Y010288D02*
X011446Y010288D01*
X011418Y010346D02*
X011157Y010346D01*
X011156Y010375D01*
X011418Y010375D01*
X011418Y010346D01*
X011418Y010366D02*
X011156Y010366D01*
X011158Y010131D02*
X011166Y010131D01*
X011418Y010445D02*
X011446Y010445D01*
X011446Y010523D02*
X011418Y010523D01*
X011418Y010602D02*
X011446Y010602D01*
X011254Y010680D02*
X011154Y010680D01*
X011155Y010602D02*
X011191Y010602D01*
X011220Y010759D02*
X011153Y010759D01*
X011153Y010837D02*
X011220Y010837D01*
X016376Y007611D02*
X016520Y007467D01*
X016600Y007467D01*
X016616Y007451D01*
X016776Y007451D01*
X016896Y007331D01*
X016896Y006807D01*
X016776Y006687D01*
X016876Y006587D01*
X016936Y006587D01*
X016936Y006491D01*
X017016Y006411D01*
X017096Y006411D01*
X017256Y006251D01*
X017256Y006175D01*
X017316Y005671D02*
X016616Y004971D01*
X017256Y005051D02*
X017276Y005071D01*
X017376Y005071D01*
X017376Y005671D02*
X017316Y005671D01*
X016353Y006175D02*
X016320Y006207D01*
X016347Y006235D01*
X016841Y007971D02*
X016856Y007971D01*
X017121Y008561D02*
X017489Y008561D01*
X017489Y008639D02*
X017204Y008639D01*
X017271Y008718D02*
X017489Y008718D01*
X017489Y008796D02*
X017304Y008796D01*
X017336Y009032D02*
X017489Y009032D01*
X017489Y009110D02*
X017318Y009110D01*
X017285Y009189D02*
X017489Y009189D01*
X017416Y009291D02*
X017236Y009471D01*
D41*
X016336Y009611D03*
X016216Y010491D03*
X015267Y011060D03*
X016016Y011851D03*
X017016Y011851D03*
X016376Y013051D03*
X016396Y014211D03*
X016376Y014731D03*
X015416Y015491D03*
X015416Y015851D03*
X014856Y016171D03*
X014227Y015300D03*
X014147Y014980D03*
X014227Y014580D03*
X013436Y015591D03*
X013256Y016171D03*
X012856Y016531D03*
X011976Y015631D03*
X011696Y015351D03*
X011516Y015891D03*
X012216Y014411D03*
X012616Y014011D03*
X013016Y014411D03*
X013016Y013611D03*
X012216Y013611D03*
X011676Y012811D03*
X011736Y012331D03*
X012536Y012331D03*
X012716Y011771D03*
X012756Y011071D03*
X012688Y010051D03*
X012676Y009631D03*
X012671Y008987D03*
X012551Y008573D03*
X012616Y007931D03*
X012056Y008491D03*
X011256Y008491D03*
X011456Y007351D03*
X011496Y006891D03*
X012756Y006871D03*
X012776Y006431D03*
X012776Y005691D03*
X012776Y005131D03*
X012776Y004491D03*
X011816Y004971D03*
X013896Y005131D03*
X013896Y005691D03*
X014136Y006331D03*
X015136Y006811D03*
X015416Y006411D03*
X015816Y006411D03*
X016216Y005691D03*
X016216Y005131D03*
X016216Y004571D03*
X017376Y004511D03*
X017376Y005071D03*
X017376Y005671D03*
X016376Y007611D03*
X015016Y009131D03*
X014856Y009531D03*
X014456Y009691D03*
X014056Y009531D03*
X013896Y009131D03*
X014056Y008731D03*
X014456Y008571D03*
X014856Y008731D03*
X014456Y009131D03*
X014076Y011891D03*
X014256Y012211D03*
X013896Y012731D03*
X013496Y012111D03*
X014936Y013211D03*
X014056Y016151D03*
X013996Y016511D03*
X013816Y017931D03*
X014596Y018091D03*
X014536Y019051D03*
X013896Y019091D03*
X012536Y019291D03*
X012136Y020331D03*
X012796Y021171D03*
X013516Y020611D03*
X013816Y021371D03*
X014456Y020791D03*
X015896Y021851D03*
X016216Y022891D03*
X017256Y020651D03*
X016696Y020171D03*
X016616Y018891D03*
X017056Y018331D03*
X016456Y017851D03*
X016856Y017531D03*
X016336Y016691D03*
X015896Y017851D03*
X012716Y021971D03*
X008078Y017479D03*
X007198Y016999D03*
X007198Y018279D03*
X005918Y018359D03*
X005918Y017559D03*
X005918Y016839D03*
X005678Y016119D03*
X007118Y015399D03*
X007258Y014519D03*
X007198Y013799D03*
X007278Y013399D03*
X007198Y012439D03*
X006858Y011859D03*
X007758Y011759D03*
X008558Y010679D03*
X008558Y009559D03*
X006798Y008839D03*
X006958Y008279D03*
X005438Y007239D03*
X005358Y008039D03*
X004558Y009159D03*
X003598Y008839D03*
X003518Y009159D03*
X003518Y009479D03*
X005018Y010399D03*
X005478Y010399D03*
X005958Y010399D03*
X005938Y011519D03*
X005438Y012679D03*
X005038Y012919D03*
X004798Y013319D03*
X005038Y013719D03*
X005438Y013959D03*
X005838Y013719D03*
X006078Y013319D03*
X005838Y012919D03*
X005438Y013319D03*
X003838Y014759D03*
X004158Y016119D03*
X003758Y016839D03*
X003758Y017479D03*
X003758Y018199D03*
X008078Y013959D03*
X008318Y015079D03*
X003918Y011719D03*
X003678Y012039D03*
X003958Y006399D03*
X004798Y006079D03*
X005838Y005879D03*
X013896Y004571D03*
D42*
X013896Y005131D02*
X013656Y005131D01*
X013386Y004861D01*
X013330Y004861D01*
X011496Y007409D02*
X011496Y007671D01*
X008616Y011515D02*
X008616Y012015D01*
X008462Y012169D01*
X008462Y013645D02*
X008618Y013802D01*
X008618Y014337D01*
X008151Y014337D01*
X008121Y014307D01*
X007678Y014307D01*
X007570Y014199D01*
X007198Y014199D01*
X006082Y011239D02*
X006082Y011235D01*
X006318Y010999D01*
X006318Y010679D01*
X006398Y010599D01*
X006398Y010375D01*
X006445Y010328D01*
X006445Y009305D02*
X006299Y009159D01*
X006445Y009285D02*
X006445Y009305D01*
X005678Y009079D02*
X005678Y008874D01*
X005638Y008834D01*
X004046Y008839D02*
X003598Y008839D01*
X003518Y008919D01*
X003518Y009079D01*
X003438Y008999D01*
X003214Y008999D01*
X003518Y009079D02*
X003518Y009479D01*
X003198Y008599D02*
X003238Y008559D01*
X003332Y008465D01*
X004046Y008465D01*
X004078Y008451D02*
X004078Y008513D01*
X004078Y008451D02*
X004078Y008119D01*
X003918Y007959D01*
X003918Y007716D01*
X003922Y007712D01*
X011452Y013796D02*
X012031Y013796D01*
X012216Y013611D01*
X012616Y014011D02*
X012856Y014251D01*
X012856Y014651D01*
X012830Y014677D01*
X012830Y015173D01*
X012856Y015200D02*
X012856Y015371D01*
X013016Y015531D01*
X013016Y015616D01*
X013224Y015173D02*
X013619Y015173D01*
X013816Y015371D01*
X013816Y015691D01*
X013816Y015713D01*
X014296Y015717D02*
X014296Y015371D01*
X014216Y015291D01*
X014216Y014591D01*
X013896Y014591D02*
X013232Y014591D01*
X012436Y015173D02*
X012436Y015547D01*
X012043Y015173D02*
X012043Y014583D01*
X013305Y013402D02*
X013814Y013402D01*
X015176Y015373D02*
X015176Y015611D01*
X015096Y015691D01*
X015416Y017611D02*
X015456Y017651D01*
X015576Y017771D01*
X015656Y017771D01*
X015896Y018011D01*
X015896Y018038D01*
X015790Y018821D02*
X016136Y018821D01*
X016150Y018835D01*
X016256Y018835D01*
X016136Y018821D02*
X016466Y018821D01*
X016616Y018971D01*
X016616Y019291D01*
X016776Y019451D01*
X016776Y020091D01*
X016696Y020171D01*
X016596Y020271D01*
X016310Y020271D01*
X016310Y019897D02*
X016310Y019884D01*
X016277Y019851D01*
X015976Y019851D01*
X015896Y019931D01*
X015896Y020811D01*
X016060Y020974D01*
X016060Y021134D01*
X016140Y021131D02*
X016376Y021131D01*
X016536Y021291D01*
X016536Y021851D01*
X016373Y022014D01*
X016296Y022014D01*
X015976Y022331D02*
X015256Y022331D01*
X015016Y022571D01*
X014136Y022571D01*
X013176Y021611D01*
X013176Y020360D01*
X013124Y020307D01*
X013147Y020331D01*
X013416Y020331D01*
X013776Y019971D01*
X013808Y020003D01*
X013828Y020003D01*
X013816Y019991D01*
X013816Y019691D01*
X013944Y019562D01*
X013944Y019505D01*
X013896Y019091D02*
X013536Y019091D01*
X013343Y019284D01*
X013906Y019841D02*
X013776Y019971D01*
X013828Y020003D02*
X013864Y019967D01*
X013836Y020507D02*
X013828Y020515D01*
X013732Y020611D01*
X013516Y020611D01*
X013101Y020331D02*
X012136Y020331D01*
X012899Y018062D02*
X012899Y017769D01*
X012740Y017611D01*
X012936Y017291D02*
X012856Y017211D01*
X012856Y016531D01*
X012936Y017291D02*
X013016Y017291D01*
X013176Y017451D01*
X013176Y017535D01*
X013252Y017611D01*
X013256Y017615D01*
X013256Y017851D01*
X013411Y018005D01*
X013411Y018062D01*
X014536Y019051D02*
X014616Y019131D01*
X014968Y019131D01*
X014856Y019451D02*
X014776Y019531D01*
X014776Y019611D01*
X014776Y019975D01*
X014756Y019995D01*
X014760Y019995D01*
X014936Y020171D01*
X015576Y020171D01*
X015656Y020251D01*
X015656Y020331D01*
X015450Y019817D02*
X015576Y019691D01*
X015576Y019359D01*
X015538Y019332D02*
X015790Y019332D01*
X016176Y019427D02*
X016310Y019561D01*
X016310Y019897D01*
X016676Y020191D02*
X016696Y020171D01*
X016176Y019427D02*
X016256Y019347D01*
X016082Y018821D02*
X015790Y018821D01*
X014740Y020491D02*
X014756Y020507D01*
X014456Y020811D02*
X014341Y020926D01*
X014341Y021691D01*
X015016Y021211D02*
X015256Y021211D01*
X015496Y020971D01*
X015976Y022331D02*
X016172Y022526D01*
X016296Y022526D01*
X015400Y011348D02*
X015263Y011211D01*
X015256Y011211D01*
X015267Y011200D01*
X015267Y011060D01*
X017416Y008011D02*
X017416Y007335D01*
X017212Y007131D01*
X016320Y006207D02*
X016320Y006199D01*
X016296Y006175D01*
X016287Y006175D02*
X016320Y006207D01*
X016287Y006175D02*
X016052Y006175D01*
X015816Y006411D02*
X015816Y006586D01*
X015876Y006646D01*
X015903Y007131D02*
X015876Y007158D01*
X015876Y007398D01*
X015841Y007432D01*
X016216Y005131D02*
X016456Y005131D01*
X016616Y004971D01*
X016726Y004861D01*
X016810Y004861D01*
D43*
X008618Y014849D02*
X008151Y014849D01*
X008158Y014839D02*
X007758Y014839D01*
X007739Y014819D01*
X007678Y014819D01*
X005938Y011519D02*
X005898Y011479D01*
X005758Y011479D01*
X005958Y011279D01*
X005958Y011235D01*
X005472Y011235D01*
X005469Y011231D01*
X005469Y010719D02*
X005469Y010408D01*
X005478Y010399D01*
X005397Y010318D01*
X005397Y010089D01*
X005885Y010089D02*
X005885Y010325D01*
X005958Y010399D01*
X005958Y010723D01*
X006819Y009305D02*
X006819Y008859D01*
X006798Y008839D01*
X006558Y008599D01*
X006314Y008843D01*
X006130Y008843D01*
X006078Y008359D02*
X006106Y008331D01*
X006130Y008331D01*
X006130Y008171D01*
X006318Y007983D01*
X006318Y007719D01*
X006282Y007755D01*
X005818Y007755D01*
X006318Y007719D02*
X006318Y007159D01*
X006290Y006787D02*
X006270Y006767D01*
X005358Y008039D02*
X005638Y008319D01*
X005638Y008323D01*
X005358Y008039D02*
X004718Y007399D01*
X004494Y007399D01*
X004398Y008439D02*
X004192Y008439D01*
X004072Y008439D01*
X004398Y008439D02*
X004558Y008599D01*
X004558Y008679D01*
X004718Y008839D01*
X005634Y008839D01*
X005638Y008834D01*
X006558Y008599D02*
X006851Y008306D01*
X007170Y011003D02*
X007625Y011003D01*
D44*
X005472Y010723D02*
X005469Y010719D01*
X005017Y010401D02*
X005018Y010399D01*
X005918Y016839D02*
X006318Y016839D01*
X006798Y016999D02*
X007198Y016999D01*
X006564Y017589D02*
X006268Y017589D01*
X006238Y017559D01*
X005918Y017559D01*
X006238Y017559D02*
X006318Y017559D01*
X006318Y018359D02*
X005918Y018359D01*
X006798Y018279D02*
X007198Y018279D01*
X003758Y018199D02*
X003358Y018199D01*
X003328Y017589D02*
X003084Y017589D01*
X003328Y017589D02*
X003438Y017479D01*
X003758Y017479D01*
X003438Y017479D02*
X003358Y017479D01*
X003358Y016839D02*
X003758Y016839D01*
X011496Y007409D02*
X011496Y006891D01*
X013043Y006665D02*
X013043Y006213D01*
X013043Y006665D02*
X013043Y007117D01*
X012796Y021171D02*
X012796Y021891D01*
X012716Y021971D01*
D45*
X008078Y013959D02*
X008078Y013399D01*
X008078Y013319D01*
X008238Y013159D01*
X008457Y013159D01*
X008462Y013153D01*
X002638Y013045D02*
X002512Y013171D01*
X002512Y015089D01*
X002683Y015259D01*
X002638Y013045D02*
X002638Y012999D01*
X014517Y012442D02*
X014517Y012179D01*
D46*
X012218Y008103D02*
X012218Y007671D01*
X011706Y007671D02*
X011706Y007219D01*
X011706Y007671D02*
X011496Y007671D01*
X011297Y007671D01*
X011706Y007671D02*
X011706Y008103D01*
X013554Y007117D02*
X013554Y006665D01*
X013554Y006213D01*
X015816Y006411D02*
X016052Y006175D01*
X016776Y006175D01*
X017256Y006687D02*
X017256Y007086D01*
X017212Y007131D01*
X016582Y007131D02*
X016296Y007131D01*
X016320Y007107D01*
X016320Y006719D01*
X016296Y007131D02*
X015903Y007131D01*
X008558Y010679D02*
X008558Y010790D01*
X008352Y010996D01*
X005018Y010399D02*
X004919Y010299D01*
X004919Y010095D01*
X005018Y010399D02*
X004957Y010460D01*
X004957Y010719D01*
X004919Y009583D02*
X004919Y009364D01*
X005070Y009213D01*
X003313Y015259D02*
X003425Y015371D01*
X003952Y015371D01*
X003953Y015372D01*
X003979Y015372D01*
X003486Y015433D02*
X003486Y015770D01*
X003486Y015433D02*
X003313Y015259D01*
X002683Y015259D02*
X002578Y015363D01*
X002578Y015783D01*
X003018Y016295D02*
X003474Y016295D01*
X003982Y016295D01*
X004158Y016119D01*
X003979Y015939D01*
X003979Y015884D01*
X003486Y016282D02*
X003474Y016295D01*
X008318Y015079D02*
X008488Y015249D01*
X008488Y015470D01*
X013836Y020507D02*
X014296Y020507D01*
X014296Y020631D01*
X014456Y020791D01*
X014296Y020507D02*
X014756Y020507D01*
D47*
X013476Y018731D02*
X013796Y018411D01*
X005938Y015379D02*
X005938Y015299D01*
X005838Y015199D01*
X005838Y014979D01*
X005798Y014939D01*
X005798Y014917D01*
X005779Y014898D01*
X005779Y014540D01*
X005778Y014539D01*
X005728Y014539D01*
X005728Y014573D01*
X005721Y014580D01*
X005708Y014668D01*
X005708Y015113D01*
X005632Y015189D01*
X005598Y015223D01*
X005598Y015399D01*
X005898Y015399D01*
X005938Y015379D01*
X005938Y015359D02*
X005598Y015359D01*
X005598Y015290D02*
X005930Y015290D01*
X005861Y015222D02*
X005599Y015222D01*
X005668Y015153D02*
X005838Y015153D01*
X005838Y015085D02*
X005708Y015085D01*
X005708Y015016D02*
X005838Y015016D01*
X005807Y014948D02*
X005708Y014948D01*
X005708Y014879D02*
X005779Y014879D01*
X005779Y014811D02*
X005708Y014811D01*
X005708Y014742D02*
X005779Y014742D01*
X005779Y014674D02*
X005708Y014674D01*
X005717Y014605D02*
X005779Y014605D01*
X005582Y014605D02*
X005497Y014605D01*
X005497Y014537D02*
X005582Y014537D01*
X005582Y014519D02*
X005497Y014519D01*
X005497Y014898D01*
X005431Y014964D01*
X005413Y014964D01*
X005338Y015039D01*
X005298Y015039D01*
X005038Y015299D01*
X004978Y015399D01*
X005238Y015399D01*
X005578Y015059D01*
X005578Y014659D01*
X005582Y014629D01*
X005582Y014519D01*
X005578Y014674D02*
X005497Y014674D01*
X005497Y014742D02*
X005578Y014742D01*
X005578Y014811D02*
X005497Y014811D01*
X005497Y014879D02*
X005578Y014879D01*
X005578Y014948D02*
X005448Y014948D01*
X005361Y015016D02*
X005578Y015016D01*
X005552Y015085D02*
X005252Y015085D01*
X005184Y015153D02*
X005484Y015153D01*
X005415Y015222D02*
X005115Y015222D01*
X005047Y015290D02*
X005347Y015290D01*
X005278Y015359D02*
X005002Y015359D01*
X004878Y015839D02*
X005258Y015839D01*
X005258Y016739D01*
X004498Y016739D01*
X004498Y016339D01*
X004858Y015979D01*
X004858Y015859D01*
X004878Y015839D01*
X004858Y015907D02*
X005258Y015907D01*
X005258Y015975D02*
X004858Y015975D01*
X004793Y016044D02*
X005258Y016044D01*
X005258Y016112D02*
X004725Y016112D01*
X004656Y016181D02*
X005258Y016181D01*
X005258Y016249D02*
X004588Y016249D01*
X004519Y016318D02*
X005258Y016318D01*
X005258Y016386D02*
X004498Y016386D01*
X004498Y016455D02*
X005258Y016455D01*
X005258Y016523D02*
X004498Y016523D01*
X004498Y016592D02*
X005258Y016592D01*
X005258Y016660D02*
X004498Y016660D01*
X004498Y016729D02*
X005258Y016729D01*
X014116Y007751D02*
X014201Y007768D01*
X014201Y007551D01*
X014210Y007542D01*
X014210Y007360D01*
X014246Y007324D01*
X014246Y007310D01*
X014316Y007240D01*
X014316Y007051D01*
X014296Y007031D01*
X013996Y007031D01*
X013936Y007091D01*
X013936Y007211D01*
X014096Y007371D01*
X014096Y007532D01*
X014115Y007551D01*
X014115Y007750D01*
X014116Y007751D01*
X014140Y007755D02*
X014201Y007755D01*
X014201Y007687D02*
X014115Y007687D01*
X014115Y007618D02*
X014201Y007618D01*
X014202Y007550D02*
X014114Y007550D01*
X014096Y007481D02*
X014210Y007481D01*
X014210Y007413D02*
X014096Y007413D01*
X014070Y007344D02*
X014226Y007344D01*
X014280Y007276D02*
X014001Y007276D01*
X013936Y007207D02*
X014316Y007207D01*
X014316Y007139D02*
X013936Y007139D01*
X013957Y007070D02*
X014316Y007070D01*
X014696Y006551D02*
X015016Y006571D01*
X015016Y006331D01*
X015496Y005851D01*
X015496Y005611D01*
X014776Y005611D01*
X014616Y005771D01*
X014616Y005891D01*
X014636Y005911D01*
X014636Y006491D01*
X014696Y006551D01*
X014668Y006522D02*
X015016Y006522D01*
X015016Y006454D02*
X014636Y006454D01*
X014636Y006385D02*
X015016Y006385D01*
X015030Y006317D02*
X014636Y006317D01*
X014636Y006248D02*
X015099Y006248D01*
X015167Y006180D02*
X014636Y006180D01*
X014636Y006111D02*
X015236Y006111D01*
X015304Y006043D02*
X014636Y006043D01*
X014636Y005974D02*
X015373Y005974D01*
X015441Y005906D02*
X014631Y005906D01*
X014616Y005837D02*
X015496Y005837D01*
X015496Y005769D02*
X014618Y005769D01*
X014687Y005700D02*
X015496Y005700D01*
X015496Y005632D02*
X014755Y005632D01*
D48*
X016376Y015571D03*
M02*
