G75*
G70*
%OFA0B0*%
%FSLAX24Y24*%
%IPPOS*%
%LPD*%
%AMOC8*
5,1,8,0,0,1.08239X$1,22.5*
%
%ADD10C,0.0000*%
%ADD11C,0.0080*%
%ADD12C,0.0060*%
%ADD13C,0.0050*%
%ADD14R,0.0098X0.0098*%
%ADD15C,0.0028*%
%ADD16R,0.0157X0.0079*%
D10*
X001183Y005559D02*
X002265Y005559D01*
X002238Y005559D02*
X006238Y005559D01*
X006271Y005557D01*
X006305Y005552D01*
X006337Y005543D01*
X006368Y005531D01*
X006398Y005516D01*
X006426Y005498D01*
X006452Y005477D01*
X006476Y005453D01*
X006497Y005427D01*
X006515Y005399D01*
X006530Y005369D01*
X006542Y005338D01*
X006551Y005306D01*
X006556Y005272D01*
X006558Y005239D01*
X006558Y004439D01*
X006563Y004392D01*
X006572Y004346D01*
X006584Y004300D01*
X006600Y004256D01*
X006619Y004213D01*
X006642Y004171D01*
X006668Y004132D01*
X006696Y004094D01*
X006728Y004059D01*
X006762Y004027D01*
X006799Y003997D01*
X006838Y003970D01*
X006879Y003947D01*
X006921Y003927D01*
X006965Y003910D01*
X007011Y003896D01*
X007057Y003887D01*
X007104Y003880D01*
X007151Y003878D01*
X007198Y003879D01*
X007918Y003879D01*
X007964Y003881D01*
X008010Y003887D01*
X008055Y003896D01*
X008100Y003909D01*
X008143Y003926D01*
X008185Y003946D01*
X008224Y003970D01*
X008262Y003997D01*
X008297Y004027D01*
X008330Y004060D01*
X008360Y004095D01*
X008387Y004133D01*
X008411Y004172D01*
X008431Y004214D01*
X008448Y004257D01*
X008461Y004302D01*
X008470Y004347D01*
X008476Y004393D01*
X008478Y004439D01*
X008478Y008999D01*
X008480Y009022D01*
X008484Y009044D01*
X008492Y009065D01*
X008503Y009086D01*
X008517Y009104D01*
X008533Y009120D01*
X008551Y009134D01*
X008572Y009145D01*
X008593Y009153D01*
X008615Y009157D01*
X008638Y009159D01*
X008718Y009159D01*
X008747Y009161D01*
X008775Y009166D01*
X008802Y009174D01*
X008829Y009186D01*
X008853Y009201D01*
X008876Y009218D01*
X008896Y009238D01*
X008914Y009261D01*
X008929Y009285D01*
X008941Y009312D01*
X008950Y009339D01*
X008955Y009367D01*
X008957Y009396D01*
X008957Y009981D01*
X008957Y009976D02*
X008957Y016186D01*
X008957Y016161D02*
X008957Y018326D01*
X008955Y018357D01*
X008949Y018388D01*
X008940Y018418D01*
X008927Y018447D01*
X008911Y018474D01*
X008893Y018499D01*
X008871Y018522D01*
X008848Y018543D01*
X008822Y018561D01*
X008794Y018575D01*
X008765Y018587D01*
X008734Y018595D01*
X008703Y018600D01*
X008672Y018601D01*
X001182Y018601D01*
X001183Y018601D02*
X001120Y018599D01*
X001057Y018594D01*
X000995Y018584D01*
X000933Y018572D01*
X000872Y018555D01*
X000812Y018535D01*
X000754Y018512D01*
X000697Y018485D01*
X000641Y018455D01*
X000587Y018422D01*
X000536Y018386D01*
X000486Y018347D01*
X000439Y018305D01*
X000395Y018260D01*
X000353Y018213D01*
X000314Y018163D01*
X000278Y018112D01*
X000245Y018058D01*
X000215Y018003D01*
X000188Y017945D01*
X000165Y017887D01*
X000145Y017827D01*
X000129Y017766D01*
X000116Y017704D01*
X000107Y017642D01*
X000102Y017579D01*
X000100Y017516D01*
X000102Y017453D01*
X000107Y017390D01*
X000116Y017328D01*
X000129Y017266D01*
X000145Y017205D01*
X000165Y017146D01*
X000189Y017087D01*
X000215Y017030D01*
X000245Y016975D01*
X000278Y016921D01*
X000314Y016869D01*
X000353Y016820D01*
X000395Y016773D01*
X000440Y016728D01*
X000487Y016686D01*
X000536Y016647D01*
X000588Y016611D01*
X000641Y016578D01*
X000697Y016548D01*
X000754Y016522D01*
X000813Y016498D01*
X000872Y016478D01*
X000933Y016462D01*
X000995Y016449D01*
X001057Y016440D01*
X001120Y016435D01*
X001183Y016433D01*
X002265Y016433D01*
X002265Y007719D01*
X001183Y007719D01*
X001120Y007717D01*
X001057Y007712D01*
X000995Y007703D01*
X000933Y007690D01*
X000872Y007674D01*
X000813Y007654D01*
X000754Y007630D01*
X000697Y007604D01*
X000642Y007574D01*
X000588Y007541D01*
X000536Y007505D01*
X000487Y007466D01*
X000440Y007424D01*
X000395Y007379D01*
X000353Y007332D01*
X000314Y007283D01*
X000278Y007231D01*
X000245Y007178D01*
X000215Y007122D01*
X000189Y007065D01*
X000165Y007006D01*
X000145Y006947D01*
X000129Y006886D01*
X000116Y006824D01*
X000107Y006762D01*
X000102Y006699D01*
X000100Y006636D01*
X000102Y006573D01*
X000107Y006510D01*
X000116Y006448D01*
X000129Y006386D01*
X000145Y006325D01*
X000165Y006266D01*
X000189Y006207D01*
X000215Y006150D01*
X000245Y006095D01*
X000278Y006041D01*
X000314Y005989D01*
X000353Y005940D01*
X000395Y005893D01*
X000440Y005848D01*
X000487Y005806D01*
X000536Y005767D01*
X000588Y005731D01*
X000641Y005698D01*
X000697Y005668D01*
X000754Y005642D01*
X000813Y005618D01*
X000872Y005598D01*
X000933Y005582D01*
X000995Y005569D01*
X001057Y005560D01*
X001120Y005555D01*
X001183Y005553D01*
X000610Y006636D02*
X000612Y006684D01*
X000618Y006732D01*
X000628Y006779D01*
X000641Y006825D01*
X000659Y006870D01*
X000679Y006914D01*
X000704Y006956D01*
X000732Y006995D01*
X000762Y007032D01*
X000796Y007066D01*
X000833Y007098D01*
X000871Y007127D01*
X000912Y007152D01*
X000955Y007174D01*
X001000Y007192D01*
X001046Y007206D01*
X001093Y007217D01*
X001141Y007224D01*
X001189Y007227D01*
X001237Y007226D01*
X001285Y007221D01*
X001333Y007212D01*
X001379Y007200D01*
X001424Y007183D01*
X001468Y007163D01*
X001510Y007140D01*
X001550Y007113D01*
X001588Y007083D01*
X001623Y007050D01*
X001655Y007014D01*
X001685Y006976D01*
X001711Y006935D01*
X001733Y006892D01*
X001753Y006848D01*
X001768Y006803D01*
X001780Y006756D01*
X001788Y006708D01*
X001792Y006660D01*
X001792Y006612D01*
X001788Y006564D01*
X001780Y006516D01*
X001768Y006469D01*
X001753Y006424D01*
X001733Y006380D01*
X001711Y006337D01*
X001685Y006296D01*
X001655Y006258D01*
X001623Y006222D01*
X001588Y006189D01*
X001550Y006159D01*
X001510Y006132D01*
X001468Y006109D01*
X001424Y006089D01*
X001379Y006072D01*
X001333Y006060D01*
X001285Y006051D01*
X001237Y006046D01*
X001189Y006045D01*
X001141Y006048D01*
X001093Y006055D01*
X001046Y006066D01*
X001000Y006080D01*
X000955Y006098D01*
X000912Y006120D01*
X000871Y006145D01*
X000833Y006174D01*
X000796Y006206D01*
X000762Y006240D01*
X000732Y006277D01*
X000704Y006316D01*
X000679Y006358D01*
X000659Y006402D01*
X000641Y006447D01*
X000628Y006493D01*
X000618Y006540D01*
X000612Y006588D01*
X000610Y006636D01*
X002270Y006591D02*
X002272Y006608D01*
X002277Y006624D01*
X002286Y006638D01*
X002298Y006650D01*
X002312Y006659D01*
X002328Y006664D01*
X002345Y006666D01*
X002362Y006664D01*
X002378Y006659D01*
X002392Y006650D01*
X002404Y006638D01*
X002413Y006624D01*
X002418Y006608D01*
X002420Y006591D01*
X002418Y006574D01*
X002413Y006558D01*
X002404Y006544D01*
X002392Y006532D01*
X002378Y006523D01*
X002362Y006518D01*
X002345Y006516D01*
X002328Y006518D01*
X002312Y006523D01*
X002298Y006532D01*
X002286Y006544D01*
X002277Y006558D01*
X002272Y006574D01*
X002270Y006591D01*
X002270Y006911D02*
X002272Y006928D01*
X002277Y006944D01*
X002286Y006958D01*
X002298Y006970D01*
X002312Y006979D01*
X002328Y006984D01*
X002345Y006986D01*
X002362Y006984D01*
X002378Y006979D01*
X002392Y006970D01*
X002404Y006958D01*
X002413Y006944D01*
X002418Y006928D01*
X002420Y006911D01*
X002418Y006894D01*
X002413Y006878D01*
X002404Y006864D01*
X002392Y006852D01*
X002378Y006843D01*
X002362Y006838D01*
X002345Y006836D01*
X002328Y006838D01*
X002312Y006843D01*
X002298Y006852D01*
X002286Y006864D01*
X002277Y006878D01*
X002272Y006894D01*
X002270Y006911D01*
X002270Y007231D02*
X002272Y007248D01*
X002277Y007264D01*
X002286Y007278D01*
X002298Y007290D01*
X002312Y007299D01*
X002328Y007304D01*
X002345Y007306D01*
X002362Y007304D01*
X002378Y007299D01*
X002392Y007290D01*
X002404Y007278D01*
X002413Y007264D01*
X002418Y007248D01*
X002420Y007231D01*
X002418Y007214D01*
X002413Y007198D01*
X002404Y007184D01*
X002392Y007172D01*
X002378Y007163D01*
X002362Y007158D01*
X002345Y007156D01*
X002328Y007158D01*
X002312Y007163D01*
X002298Y007172D01*
X002286Y007184D01*
X002277Y007198D01*
X002272Y007214D01*
X002270Y007231D01*
X002270Y007551D02*
X002272Y007568D01*
X002277Y007584D01*
X002286Y007598D01*
X002298Y007610D01*
X002312Y007619D01*
X002328Y007624D01*
X002345Y007626D01*
X002362Y007624D01*
X002378Y007619D01*
X002392Y007610D01*
X002404Y007598D01*
X002413Y007584D01*
X002418Y007568D01*
X002420Y007551D01*
X002418Y007534D01*
X002413Y007518D01*
X002404Y007504D01*
X002392Y007492D01*
X002378Y007483D01*
X002362Y007478D01*
X002345Y007476D01*
X002328Y007478D01*
X002312Y007483D01*
X002298Y007492D01*
X002286Y007504D01*
X002277Y007518D01*
X002272Y007534D01*
X002270Y007551D01*
X002270Y006271D02*
X002272Y006288D01*
X002277Y006304D01*
X002286Y006318D01*
X002298Y006330D01*
X002312Y006339D01*
X002328Y006344D01*
X002345Y006346D01*
X002362Y006344D01*
X002378Y006339D01*
X002392Y006330D01*
X002404Y006318D01*
X002413Y006304D01*
X002418Y006288D01*
X002420Y006271D01*
X002418Y006254D01*
X002413Y006238D01*
X002404Y006224D01*
X002392Y006212D01*
X002378Y006203D01*
X002362Y006198D01*
X002345Y006196D01*
X002328Y006198D01*
X002312Y006203D01*
X002298Y006212D01*
X002286Y006224D01*
X002277Y006238D01*
X002272Y006254D01*
X002270Y006271D01*
X002270Y005951D02*
X002272Y005968D01*
X002277Y005984D01*
X002286Y005998D01*
X002298Y006010D01*
X002312Y006019D01*
X002328Y006024D01*
X002345Y006026D01*
X002362Y006024D01*
X002378Y006019D01*
X002392Y006010D01*
X002404Y005998D01*
X002413Y005984D01*
X002418Y005968D01*
X002420Y005951D01*
X002418Y005934D01*
X002413Y005918D01*
X002404Y005904D01*
X002392Y005892D01*
X002378Y005883D01*
X002362Y005878D01*
X002345Y005876D01*
X002328Y005878D01*
X002312Y005883D01*
X002298Y005892D01*
X002286Y005904D01*
X002277Y005918D01*
X002272Y005934D01*
X002270Y005951D01*
X002270Y005671D02*
X002272Y005688D01*
X002277Y005704D01*
X002286Y005718D01*
X002298Y005730D01*
X002312Y005739D01*
X002328Y005744D01*
X002345Y005746D01*
X002362Y005744D01*
X002378Y005739D01*
X002392Y005730D01*
X002404Y005718D01*
X002413Y005704D01*
X002418Y005688D01*
X002420Y005671D01*
X002418Y005654D01*
X002413Y005638D01*
X002404Y005624D01*
X002392Y005612D01*
X002378Y005603D01*
X002362Y005598D01*
X002345Y005596D01*
X002328Y005598D01*
X002312Y005603D01*
X002298Y005612D01*
X002286Y005624D01*
X002277Y005638D01*
X002272Y005654D01*
X002270Y005671D01*
X006590Y005504D02*
X006592Y005521D01*
X006597Y005537D01*
X006606Y005551D01*
X006618Y005563D01*
X006632Y005572D01*
X006648Y005577D01*
X006665Y005579D01*
X006682Y005577D01*
X006698Y005572D01*
X006712Y005563D01*
X006724Y005551D01*
X006733Y005537D01*
X006738Y005521D01*
X006740Y005504D01*
X006738Y005487D01*
X006733Y005471D01*
X006724Y005457D01*
X006712Y005445D01*
X006698Y005436D01*
X006682Y005431D01*
X006665Y005429D01*
X006648Y005431D01*
X006632Y005436D01*
X006618Y005445D01*
X006606Y005457D01*
X006597Y005471D01*
X006592Y005487D01*
X006590Y005504D01*
X006910Y005504D02*
X006912Y005521D01*
X006917Y005537D01*
X006926Y005551D01*
X006938Y005563D01*
X006952Y005572D01*
X006968Y005577D01*
X006985Y005579D01*
X007002Y005577D01*
X007018Y005572D01*
X007032Y005563D01*
X007044Y005551D01*
X007053Y005537D01*
X007058Y005521D01*
X007060Y005504D01*
X007058Y005487D01*
X007053Y005471D01*
X007044Y005457D01*
X007032Y005445D01*
X007018Y005436D01*
X007002Y005431D01*
X006985Y005429D01*
X006968Y005431D01*
X006952Y005436D01*
X006938Y005445D01*
X006926Y005457D01*
X006917Y005471D01*
X006912Y005487D01*
X006910Y005504D01*
X007230Y005504D02*
X007232Y005521D01*
X007237Y005537D01*
X007246Y005551D01*
X007258Y005563D01*
X007272Y005572D01*
X007288Y005577D01*
X007305Y005579D01*
X007322Y005577D01*
X007338Y005572D01*
X007352Y005563D01*
X007364Y005551D01*
X007373Y005537D01*
X007378Y005521D01*
X007380Y005504D01*
X007378Y005487D01*
X007373Y005471D01*
X007364Y005457D01*
X007352Y005445D01*
X007338Y005436D01*
X007322Y005431D01*
X007305Y005429D01*
X007288Y005431D01*
X007272Y005436D01*
X007258Y005445D01*
X007246Y005457D01*
X007237Y005471D01*
X007232Y005487D01*
X007230Y005504D01*
X007550Y005504D02*
X007552Y005521D01*
X007557Y005537D01*
X007566Y005551D01*
X007578Y005563D01*
X007592Y005572D01*
X007608Y005577D01*
X007625Y005579D01*
X007642Y005577D01*
X007658Y005572D01*
X007672Y005563D01*
X007684Y005551D01*
X007693Y005537D01*
X007698Y005521D01*
X007700Y005504D01*
X007698Y005487D01*
X007693Y005471D01*
X007684Y005457D01*
X007672Y005445D01*
X007658Y005436D01*
X007642Y005431D01*
X007625Y005429D01*
X007608Y005431D01*
X007592Y005436D01*
X007578Y005445D01*
X007566Y005457D01*
X007557Y005471D01*
X007552Y005487D01*
X007550Y005504D01*
X007870Y005504D02*
X007872Y005521D01*
X007877Y005537D01*
X007886Y005551D01*
X007898Y005563D01*
X007912Y005572D01*
X007928Y005577D01*
X007945Y005579D01*
X007962Y005577D01*
X007978Y005572D01*
X007992Y005563D01*
X008004Y005551D01*
X008013Y005537D01*
X008018Y005521D01*
X008020Y005504D01*
X008018Y005487D01*
X008013Y005471D01*
X008004Y005457D01*
X007992Y005445D01*
X007978Y005436D01*
X007962Y005431D01*
X007945Y005429D01*
X007928Y005431D01*
X007912Y005436D01*
X007898Y005445D01*
X007886Y005457D01*
X007877Y005471D01*
X007872Y005487D01*
X007870Y005504D01*
X008190Y005504D02*
X008192Y005521D01*
X008197Y005537D01*
X008206Y005551D01*
X008218Y005563D01*
X008232Y005572D01*
X008248Y005577D01*
X008265Y005579D01*
X008282Y005577D01*
X008298Y005572D01*
X008312Y005563D01*
X008324Y005551D01*
X008333Y005537D01*
X008338Y005521D01*
X008340Y005504D01*
X008338Y005487D01*
X008333Y005471D01*
X008324Y005457D01*
X008312Y005445D01*
X008298Y005436D01*
X008282Y005431D01*
X008265Y005429D01*
X008248Y005431D01*
X008232Y005436D01*
X008218Y005445D01*
X008206Y005457D01*
X008197Y005471D01*
X008192Y005487D01*
X008190Y005504D01*
X006930Y004716D02*
X006932Y004764D01*
X006938Y004812D01*
X006948Y004859D01*
X006961Y004905D01*
X006979Y004950D01*
X006999Y004994D01*
X007024Y005036D01*
X007052Y005075D01*
X007082Y005112D01*
X007116Y005146D01*
X007153Y005178D01*
X007191Y005207D01*
X007232Y005232D01*
X007275Y005254D01*
X007320Y005272D01*
X007366Y005286D01*
X007413Y005297D01*
X007461Y005304D01*
X007509Y005307D01*
X007557Y005306D01*
X007605Y005301D01*
X007653Y005292D01*
X007699Y005280D01*
X007744Y005263D01*
X007788Y005243D01*
X007830Y005220D01*
X007870Y005193D01*
X007908Y005163D01*
X007943Y005130D01*
X007975Y005094D01*
X008005Y005056D01*
X008031Y005015D01*
X008053Y004972D01*
X008073Y004928D01*
X008088Y004883D01*
X008100Y004836D01*
X008108Y004788D01*
X008112Y004740D01*
X008112Y004692D01*
X008108Y004644D01*
X008100Y004596D01*
X008088Y004549D01*
X008073Y004504D01*
X008053Y004460D01*
X008031Y004417D01*
X008005Y004376D01*
X007975Y004338D01*
X007943Y004302D01*
X007908Y004269D01*
X007870Y004239D01*
X007830Y004212D01*
X007788Y004189D01*
X007744Y004169D01*
X007699Y004152D01*
X007653Y004140D01*
X007605Y004131D01*
X007557Y004126D01*
X007509Y004125D01*
X007461Y004128D01*
X007413Y004135D01*
X007366Y004146D01*
X007320Y004160D01*
X007275Y004178D01*
X007232Y004200D01*
X007191Y004225D01*
X007153Y004254D01*
X007116Y004286D01*
X007082Y004320D01*
X007052Y004357D01*
X007024Y004396D01*
X006999Y004438D01*
X006979Y004482D01*
X006961Y004527D01*
X006948Y004573D01*
X006938Y004620D01*
X006932Y004668D01*
X006930Y004716D01*
X010935Y004126D02*
X010935Y009996D01*
X008972Y009996D01*
X008966Y009995D01*
X008961Y009992D01*
X008958Y009987D01*
X008957Y009981D01*
X010935Y009761D02*
X010935Y016171D01*
X010935Y016161D02*
X010935Y017851D01*
X010937Y017884D01*
X010942Y017917D01*
X010951Y017950D01*
X010963Y017981D01*
X010978Y018011D01*
X010997Y018039D01*
X011018Y018065D01*
X011042Y018089D01*
X011068Y018110D01*
X011096Y018128D01*
X011126Y018144D01*
X011158Y018156D01*
X011190Y018164D01*
X011223Y018169D01*
X011257Y018171D01*
X011256Y018171D02*
X011336Y018171D01*
X011359Y018173D01*
X011381Y018177D01*
X011402Y018185D01*
X011423Y018196D01*
X011441Y018210D01*
X011457Y018226D01*
X011471Y018244D01*
X011482Y018265D01*
X011490Y018286D01*
X011494Y018308D01*
X011496Y018331D01*
X011496Y021291D01*
X011494Y021314D01*
X011490Y021336D01*
X011482Y021357D01*
X011471Y021378D01*
X011457Y021396D01*
X011441Y021412D01*
X011423Y021426D01*
X011402Y021437D01*
X011381Y021445D01*
X011359Y021449D01*
X011336Y021451D01*
X011256Y021451D01*
X011223Y021453D01*
X011189Y021458D01*
X011157Y021467D01*
X011126Y021479D01*
X011096Y021494D01*
X011068Y021512D01*
X011042Y021533D01*
X011018Y021557D01*
X010997Y021583D01*
X010979Y021611D01*
X010964Y021641D01*
X010952Y021672D01*
X010943Y021704D01*
X010938Y021738D01*
X010936Y021771D01*
X010936Y022847D01*
X010938Y022898D01*
X010944Y022950D01*
X010953Y023000D01*
X010967Y023050D01*
X010984Y023099D01*
X011004Y023146D01*
X011028Y023192D01*
X011056Y023235D01*
X011086Y023277D01*
X011120Y023316D01*
X011156Y023352D01*
X011195Y023386D01*
X011237Y023416D01*
X011280Y023444D01*
X011326Y023468D01*
X011373Y023488D01*
X011422Y023505D01*
X011472Y023519D01*
X011522Y023528D01*
X011574Y023534D01*
X011625Y023536D01*
X018712Y023536D01*
X018775Y023534D01*
X018838Y023529D01*
X018900Y023520D01*
X018962Y023507D01*
X019023Y023491D01*
X019082Y023471D01*
X019141Y023447D01*
X019198Y023421D01*
X019254Y023391D01*
X019307Y023358D01*
X019359Y023322D01*
X019408Y023283D01*
X019455Y023241D01*
X019500Y023196D01*
X019542Y023149D01*
X019581Y023100D01*
X019617Y023048D01*
X019650Y022994D01*
X019680Y022939D01*
X019706Y022882D01*
X019730Y022823D01*
X019750Y022764D01*
X019766Y022703D01*
X019779Y022641D01*
X019788Y022579D01*
X019793Y022516D01*
X019795Y022453D01*
X019793Y022390D01*
X019788Y022327D01*
X019779Y022265D01*
X019766Y022203D01*
X019750Y022142D01*
X019730Y022083D01*
X019706Y022024D01*
X019680Y021967D01*
X019650Y021912D01*
X019617Y021858D01*
X019581Y021806D01*
X019542Y021757D01*
X019500Y021710D01*
X019455Y021665D01*
X019408Y021623D01*
X019359Y021584D01*
X019307Y021548D01*
X019254Y021515D01*
X019198Y021485D01*
X019141Y021459D01*
X019082Y021435D01*
X019023Y021415D01*
X018962Y021399D01*
X018900Y021386D01*
X018838Y021377D01*
X018775Y021372D01*
X018712Y021370D01*
X017629Y021370D01*
X017629Y006016D01*
X018712Y006016D01*
X017634Y005819D02*
X017636Y005836D01*
X017641Y005852D01*
X017650Y005866D01*
X017662Y005878D01*
X017676Y005887D01*
X017692Y005892D01*
X017709Y005894D01*
X017726Y005892D01*
X017742Y005887D01*
X017756Y005878D01*
X017768Y005866D01*
X017777Y005852D01*
X017782Y005836D01*
X017784Y005819D01*
X017782Y005802D01*
X017777Y005786D01*
X017768Y005772D01*
X017756Y005760D01*
X017742Y005751D01*
X017726Y005746D01*
X017709Y005744D01*
X017692Y005746D01*
X017676Y005751D01*
X017662Y005760D01*
X017650Y005772D01*
X017641Y005786D01*
X017636Y005802D01*
X017634Y005819D01*
X017634Y005524D02*
X017636Y005541D01*
X017641Y005557D01*
X017650Y005571D01*
X017662Y005583D01*
X017676Y005592D01*
X017692Y005597D01*
X017709Y005599D01*
X017726Y005597D01*
X017742Y005592D01*
X017756Y005583D01*
X017768Y005571D01*
X017777Y005557D01*
X017782Y005541D01*
X017784Y005524D01*
X017782Y005507D01*
X017777Y005491D01*
X017768Y005477D01*
X017756Y005465D01*
X017742Y005456D01*
X017726Y005451D01*
X017709Y005449D01*
X017692Y005451D01*
X017676Y005456D01*
X017662Y005465D01*
X017650Y005477D01*
X017641Y005491D01*
X017636Y005507D01*
X017634Y005524D01*
X017634Y005229D02*
X017636Y005246D01*
X017641Y005262D01*
X017650Y005276D01*
X017662Y005288D01*
X017676Y005297D01*
X017692Y005302D01*
X017709Y005304D01*
X017726Y005302D01*
X017742Y005297D01*
X017756Y005288D01*
X017768Y005276D01*
X017777Y005262D01*
X017782Y005246D01*
X017784Y005229D01*
X017782Y005212D01*
X017777Y005196D01*
X017768Y005182D01*
X017756Y005170D01*
X017742Y005161D01*
X017726Y005156D01*
X017709Y005154D01*
X017692Y005156D01*
X017676Y005161D01*
X017662Y005170D01*
X017650Y005182D01*
X017641Y005196D01*
X017636Y005212D01*
X017634Y005229D01*
X017634Y004933D02*
X017636Y004950D01*
X017641Y004966D01*
X017650Y004980D01*
X017662Y004992D01*
X017676Y005001D01*
X017692Y005006D01*
X017709Y005008D01*
X017726Y005006D01*
X017742Y005001D01*
X017756Y004992D01*
X017768Y004980D01*
X017777Y004966D01*
X017782Y004950D01*
X017784Y004933D01*
X017782Y004916D01*
X017777Y004900D01*
X017768Y004886D01*
X017756Y004874D01*
X017742Y004865D01*
X017726Y004860D01*
X017709Y004858D01*
X017692Y004860D01*
X017676Y004865D01*
X017662Y004874D01*
X017650Y004886D01*
X017641Y004900D01*
X017636Y004916D01*
X017634Y004933D01*
X017634Y004638D02*
X017636Y004655D01*
X017641Y004671D01*
X017650Y004685D01*
X017662Y004697D01*
X017676Y004706D01*
X017692Y004711D01*
X017709Y004713D01*
X017726Y004711D01*
X017742Y004706D01*
X017756Y004697D01*
X017768Y004685D01*
X017777Y004671D01*
X017782Y004655D01*
X017784Y004638D01*
X017782Y004621D01*
X017777Y004605D01*
X017768Y004591D01*
X017756Y004579D01*
X017742Y004570D01*
X017726Y004565D01*
X017709Y004563D01*
X017692Y004565D01*
X017676Y004570D01*
X017662Y004579D01*
X017650Y004591D01*
X017641Y004605D01*
X017636Y004621D01*
X017634Y004638D01*
X017634Y004343D02*
X017636Y004360D01*
X017641Y004376D01*
X017650Y004390D01*
X017662Y004402D01*
X017676Y004411D01*
X017692Y004416D01*
X017709Y004418D01*
X017726Y004416D01*
X017742Y004411D01*
X017756Y004402D01*
X017768Y004390D01*
X017777Y004376D01*
X017782Y004360D01*
X017784Y004343D01*
X017782Y004326D01*
X017777Y004310D01*
X017768Y004296D01*
X017756Y004284D01*
X017742Y004275D01*
X017726Y004270D01*
X017709Y004268D01*
X017692Y004270D01*
X017676Y004275D01*
X017662Y004284D01*
X017650Y004296D01*
X017641Y004310D01*
X017636Y004326D01*
X017634Y004343D01*
X017634Y004047D02*
X017636Y004064D01*
X017641Y004080D01*
X017650Y004094D01*
X017662Y004106D01*
X017676Y004115D01*
X017692Y004120D01*
X017709Y004122D01*
X017726Y004120D01*
X017742Y004115D01*
X017756Y004106D01*
X017768Y004094D01*
X017777Y004080D01*
X017782Y004064D01*
X017784Y004047D01*
X017782Y004030D01*
X017777Y004014D01*
X017768Y004000D01*
X017756Y003988D01*
X017742Y003979D01*
X017726Y003974D01*
X017709Y003972D01*
X017692Y003974D01*
X017676Y003979D01*
X017662Y003988D01*
X017650Y004000D01*
X017641Y004014D01*
X017636Y004030D01*
X017634Y004047D01*
X017270Y003851D02*
X012870Y003851D01*
X011220Y003851D02*
X018712Y003851D01*
X019795Y004933D02*
X019793Y004996D01*
X019788Y005059D01*
X019779Y005121D01*
X019766Y005183D01*
X019750Y005244D01*
X019730Y005303D01*
X019706Y005362D01*
X019680Y005419D01*
X019650Y005474D01*
X019617Y005528D01*
X019581Y005580D01*
X019542Y005629D01*
X019500Y005676D01*
X019455Y005721D01*
X019408Y005763D01*
X019359Y005802D01*
X019307Y005838D01*
X019254Y005871D01*
X019198Y005901D01*
X019141Y005927D01*
X019082Y005951D01*
X019023Y005971D01*
X018962Y005987D01*
X018900Y006000D01*
X018838Y006009D01*
X018775Y006014D01*
X018712Y006016D01*
X019795Y004933D02*
X019793Y004870D01*
X019788Y004807D01*
X019779Y004745D01*
X019766Y004683D01*
X019750Y004622D01*
X019730Y004563D01*
X019706Y004504D01*
X019680Y004447D01*
X019650Y004392D01*
X019617Y004338D01*
X019581Y004286D01*
X019542Y004237D01*
X019500Y004190D01*
X019455Y004145D01*
X019408Y004103D01*
X019359Y004064D01*
X019307Y004028D01*
X019254Y003995D01*
X019198Y003965D01*
X019141Y003939D01*
X019082Y003915D01*
X019023Y003895D01*
X018962Y003879D01*
X018900Y003866D01*
X018838Y003857D01*
X018775Y003852D01*
X018712Y003850D01*
X018022Y004933D02*
X018024Y004981D01*
X018030Y005029D01*
X018040Y005076D01*
X018053Y005122D01*
X018071Y005167D01*
X018091Y005211D01*
X018116Y005253D01*
X018144Y005292D01*
X018174Y005329D01*
X018208Y005363D01*
X018245Y005395D01*
X018283Y005424D01*
X018324Y005449D01*
X018367Y005471D01*
X018412Y005489D01*
X018458Y005503D01*
X018505Y005514D01*
X018553Y005521D01*
X018601Y005524D01*
X018649Y005523D01*
X018697Y005518D01*
X018745Y005509D01*
X018791Y005497D01*
X018836Y005480D01*
X018880Y005460D01*
X018922Y005437D01*
X018962Y005410D01*
X019000Y005380D01*
X019035Y005347D01*
X019067Y005311D01*
X019097Y005273D01*
X019123Y005232D01*
X019145Y005189D01*
X019165Y005145D01*
X019180Y005100D01*
X019192Y005053D01*
X019200Y005005D01*
X019204Y004957D01*
X019204Y004909D01*
X019200Y004861D01*
X019192Y004813D01*
X019180Y004766D01*
X019165Y004721D01*
X019145Y004677D01*
X019123Y004634D01*
X019097Y004593D01*
X019067Y004555D01*
X019035Y004519D01*
X019000Y004486D01*
X018962Y004456D01*
X018922Y004429D01*
X018880Y004406D01*
X018836Y004386D01*
X018791Y004369D01*
X018745Y004357D01*
X018697Y004348D01*
X018649Y004343D01*
X018601Y004342D01*
X018553Y004345D01*
X018505Y004352D01*
X018458Y004363D01*
X018412Y004377D01*
X018367Y004395D01*
X018324Y004417D01*
X018283Y004442D01*
X018245Y004471D01*
X018208Y004503D01*
X018174Y004537D01*
X018144Y004574D01*
X018116Y004613D01*
X018091Y004655D01*
X018071Y004699D01*
X018053Y004744D01*
X018040Y004790D01*
X018030Y004837D01*
X018024Y004885D01*
X018022Y004933D01*
X011220Y003851D02*
X011189Y003852D01*
X011158Y003857D01*
X011127Y003865D01*
X011098Y003877D01*
X011070Y003891D01*
X011044Y003909D01*
X011021Y003930D01*
X010999Y003953D01*
X010981Y003978D01*
X010965Y004005D01*
X010952Y004034D01*
X010943Y004064D01*
X010937Y004095D01*
X010935Y004126D01*
X010885Y016111D02*
X009007Y016111D01*
X008994Y016113D01*
X008982Y016118D01*
X008972Y016126D01*
X008964Y016136D01*
X008959Y016148D01*
X008957Y016161D01*
X010885Y016111D02*
X010898Y016113D01*
X010910Y016118D01*
X010920Y016126D01*
X010928Y016136D01*
X010933Y016148D01*
X010935Y016161D01*
X007024Y018599D02*
X002624Y018599D01*
X002190Y018402D02*
X002192Y018419D01*
X002197Y018435D01*
X002206Y018449D01*
X002218Y018461D01*
X002232Y018470D01*
X002248Y018475D01*
X002265Y018477D01*
X002282Y018475D01*
X002298Y018470D01*
X002312Y018461D01*
X002324Y018449D01*
X002333Y018435D01*
X002338Y018419D01*
X002340Y018402D01*
X002338Y018385D01*
X002333Y018369D01*
X002324Y018355D01*
X002312Y018343D01*
X002298Y018334D01*
X002282Y018329D01*
X002265Y018327D01*
X002248Y018329D01*
X002232Y018334D01*
X002218Y018343D01*
X002206Y018355D01*
X002197Y018369D01*
X002192Y018385D01*
X002190Y018402D01*
X002190Y018107D02*
X002192Y018124D01*
X002197Y018140D01*
X002206Y018154D01*
X002218Y018166D01*
X002232Y018175D01*
X002248Y018180D01*
X002265Y018182D01*
X002282Y018180D01*
X002298Y018175D01*
X002312Y018166D01*
X002324Y018154D01*
X002333Y018140D01*
X002338Y018124D01*
X002340Y018107D01*
X002338Y018090D01*
X002333Y018074D01*
X002324Y018060D01*
X002312Y018048D01*
X002298Y018039D01*
X002282Y018034D01*
X002265Y018032D01*
X002248Y018034D01*
X002232Y018039D01*
X002218Y018048D01*
X002206Y018060D01*
X002197Y018074D01*
X002192Y018090D01*
X002190Y018107D01*
X002190Y017811D02*
X002192Y017828D01*
X002197Y017844D01*
X002206Y017858D01*
X002218Y017870D01*
X002232Y017879D01*
X002248Y017884D01*
X002265Y017886D01*
X002282Y017884D01*
X002298Y017879D01*
X002312Y017870D01*
X002324Y017858D01*
X002333Y017844D01*
X002338Y017828D01*
X002340Y017811D01*
X002338Y017794D01*
X002333Y017778D01*
X002324Y017764D01*
X002312Y017752D01*
X002298Y017743D01*
X002282Y017738D01*
X002265Y017736D01*
X002248Y017738D01*
X002232Y017743D01*
X002218Y017752D01*
X002206Y017764D01*
X002197Y017778D01*
X002192Y017794D01*
X002190Y017811D01*
X002190Y017516D02*
X002192Y017533D01*
X002197Y017549D01*
X002206Y017563D01*
X002218Y017575D01*
X002232Y017584D01*
X002248Y017589D01*
X002265Y017591D01*
X002282Y017589D01*
X002298Y017584D01*
X002312Y017575D01*
X002324Y017563D01*
X002333Y017549D01*
X002338Y017533D01*
X002340Y017516D01*
X002338Y017499D01*
X002333Y017483D01*
X002324Y017469D01*
X002312Y017457D01*
X002298Y017448D01*
X002282Y017443D01*
X002265Y017441D01*
X002248Y017443D01*
X002232Y017448D01*
X002218Y017457D01*
X002206Y017469D01*
X002197Y017483D01*
X002192Y017499D01*
X002190Y017516D01*
X002190Y017221D02*
X002192Y017238D01*
X002197Y017254D01*
X002206Y017268D01*
X002218Y017280D01*
X002232Y017289D01*
X002248Y017294D01*
X002265Y017296D01*
X002282Y017294D01*
X002298Y017289D01*
X002312Y017280D01*
X002324Y017268D01*
X002333Y017254D01*
X002338Y017238D01*
X002340Y017221D01*
X002338Y017204D01*
X002333Y017188D01*
X002324Y017174D01*
X002312Y017162D01*
X002298Y017153D01*
X002282Y017148D01*
X002265Y017146D01*
X002248Y017148D01*
X002232Y017153D01*
X002218Y017162D01*
X002206Y017174D01*
X002197Y017188D01*
X002192Y017204D01*
X002190Y017221D01*
X002190Y016926D02*
X002192Y016943D01*
X002197Y016959D01*
X002206Y016973D01*
X002218Y016985D01*
X002232Y016994D01*
X002248Y016999D01*
X002265Y017001D01*
X002282Y016999D01*
X002298Y016994D01*
X002312Y016985D01*
X002324Y016973D01*
X002333Y016959D01*
X002338Y016943D01*
X002340Y016926D01*
X002338Y016909D01*
X002333Y016893D01*
X002324Y016879D01*
X002312Y016867D01*
X002298Y016858D01*
X002282Y016853D01*
X002265Y016851D01*
X002248Y016853D01*
X002232Y016858D01*
X002218Y016867D01*
X002206Y016879D01*
X002197Y016893D01*
X002192Y016909D01*
X002190Y016926D01*
X002190Y016630D02*
X002192Y016647D01*
X002197Y016663D01*
X002206Y016677D01*
X002218Y016689D01*
X002232Y016698D01*
X002248Y016703D01*
X002265Y016705D01*
X002282Y016703D01*
X002298Y016698D01*
X002312Y016689D01*
X002324Y016677D01*
X002333Y016663D01*
X002338Y016647D01*
X002340Y016630D01*
X002338Y016613D01*
X002333Y016597D01*
X002324Y016583D01*
X002312Y016571D01*
X002298Y016562D01*
X002282Y016557D01*
X002265Y016555D01*
X002248Y016557D01*
X002232Y016562D01*
X002218Y016571D01*
X002206Y016583D01*
X002197Y016597D01*
X002192Y016613D01*
X002190Y016630D01*
X000690Y017516D02*
X000692Y017564D01*
X000698Y017612D01*
X000708Y017659D01*
X000721Y017705D01*
X000739Y017750D01*
X000759Y017794D01*
X000784Y017836D01*
X000812Y017875D01*
X000842Y017912D01*
X000876Y017946D01*
X000913Y017978D01*
X000951Y018007D01*
X000992Y018032D01*
X001035Y018054D01*
X001080Y018072D01*
X001126Y018086D01*
X001173Y018097D01*
X001221Y018104D01*
X001269Y018107D01*
X001317Y018106D01*
X001365Y018101D01*
X001413Y018092D01*
X001459Y018080D01*
X001504Y018063D01*
X001548Y018043D01*
X001590Y018020D01*
X001630Y017993D01*
X001668Y017963D01*
X001703Y017930D01*
X001735Y017894D01*
X001765Y017856D01*
X001791Y017815D01*
X001813Y017772D01*
X001833Y017728D01*
X001848Y017683D01*
X001860Y017636D01*
X001868Y017588D01*
X001872Y017540D01*
X001872Y017492D01*
X001868Y017444D01*
X001860Y017396D01*
X001848Y017349D01*
X001833Y017304D01*
X001813Y017260D01*
X001791Y017217D01*
X001765Y017176D01*
X001735Y017138D01*
X001703Y017102D01*
X001668Y017069D01*
X001630Y017039D01*
X001590Y017012D01*
X001548Y016989D01*
X001504Y016969D01*
X001459Y016952D01*
X001413Y016940D01*
X001365Y016931D01*
X001317Y016926D01*
X001269Y016925D01*
X001221Y016928D01*
X001173Y016935D01*
X001126Y016946D01*
X001080Y016960D01*
X001035Y016978D01*
X000992Y017000D01*
X000951Y017025D01*
X000913Y017054D01*
X000876Y017086D01*
X000842Y017120D01*
X000812Y017157D01*
X000784Y017196D01*
X000759Y017238D01*
X000739Y017282D01*
X000721Y017327D01*
X000708Y017373D01*
X000698Y017420D01*
X000692Y017468D01*
X000690Y017516D01*
X011330Y022650D02*
X011332Y022698D01*
X011338Y022746D01*
X011348Y022793D01*
X011361Y022839D01*
X011379Y022884D01*
X011399Y022928D01*
X011424Y022970D01*
X011452Y023009D01*
X011482Y023046D01*
X011516Y023080D01*
X011553Y023112D01*
X011591Y023141D01*
X011632Y023166D01*
X011675Y023188D01*
X011720Y023206D01*
X011766Y023220D01*
X011813Y023231D01*
X011861Y023238D01*
X011909Y023241D01*
X011957Y023240D01*
X012005Y023235D01*
X012053Y023226D01*
X012099Y023214D01*
X012144Y023197D01*
X012188Y023177D01*
X012230Y023154D01*
X012270Y023127D01*
X012308Y023097D01*
X012343Y023064D01*
X012375Y023028D01*
X012405Y022990D01*
X012431Y022949D01*
X012453Y022906D01*
X012473Y022862D01*
X012488Y022817D01*
X012500Y022770D01*
X012508Y022722D01*
X012512Y022674D01*
X012512Y022626D01*
X012508Y022578D01*
X012500Y022530D01*
X012488Y022483D01*
X012473Y022438D01*
X012453Y022394D01*
X012431Y022351D01*
X012405Y022310D01*
X012375Y022272D01*
X012343Y022236D01*
X012308Y022203D01*
X012270Y022173D01*
X012230Y022146D01*
X012188Y022123D01*
X012144Y022103D01*
X012099Y022086D01*
X012053Y022074D01*
X012005Y022065D01*
X011957Y022060D01*
X011909Y022059D01*
X011861Y022062D01*
X011813Y022069D01*
X011766Y022080D01*
X011720Y022094D01*
X011675Y022112D01*
X011632Y022134D01*
X011591Y022159D01*
X011553Y022188D01*
X011516Y022220D01*
X011482Y022254D01*
X011452Y022291D01*
X011424Y022330D01*
X011399Y022372D01*
X011379Y022416D01*
X011361Y022461D01*
X011348Y022507D01*
X011338Y022554D01*
X011332Y022602D01*
X011330Y022650D01*
X017634Y022767D02*
X017636Y022784D01*
X017641Y022800D01*
X017650Y022814D01*
X017662Y022826D01*
X017676Y022835D01*
X017692Y022840D01*
X017709Y022842D01*
X017726Y022840D01*
X017742Y022835D01*
X017756Y022826D01*
X017768Y022814D01*
X017777Y022800D01*
X017782Y022784D01*
X017784Y022767D01*
X017782Y022750D01*
X017777Y022734D01*
X017768Y022720D01*
X017756Y022708D01*
X017742Y022699D01*
X017726Y022694D01*
X017709Y022692D01*
X017692Y022694D01*
X017676Y022699D01*
X017662Y022708D01*
X017650Y022720D01*
X017641Y022734D01*
X017636Y022750D01*
X017634Y022767D01*
X017634Y023062D02*
X017636Y023079D01*
X017641Y023095D01*
X017650Y023109D01*
X017662Y023121D01*
X017676Y023130D01*
X017692Y023135D01*
X017709Y023137D01*
X017726Y023135D01*
X017742Y023130D01*
X017756Y023121D01*
X017768Y023109D01*
X017777Y023095D01*
X017782Y023079D01*
X017784Y023062D01*
X017782Y023045D01*
X017777Y023029D01*
X017768Y023015D01*
X017756Y023003D01*
X017742Y022994D01*
X017726Y022989D01*
X017709Y022987D01*
X017692Y022989D01*
X017676Y022994D01*
X017662Y023003D01*
X017650Y023015D01*
X017641Y023029D01*
X017636Y023045D01*
X017634Y023062D01*
X017634Y023339D02*
X017636Y023356D01*
X017641Y023372D01*
X017650Y023386D01*
X017662Y023398D01*
X017676Y023407D01*
X017692Y023412D01*
X017709Y023414D01*
X017726Y023412D01*
X017742Y023407D01*
X017756Y023398D01*
X017768Y023386D01*
X017777Y023372D01*
X017782Y023356D01*
X017784Y023339D01*
X017782Y023322D01*
X017777Y023306D01*
X017768Y023292D01*
X017756Y023280D01*
X017742Y023271D01*
X017726Y023266D01*
X017709Y023264D01*
X017692Y023266D01*
X017676Y023271D01*
X017662Y023280D01*
X017650Y023292D01*
X017641Y023306D01*
X017636Y023322D01*
X017634Y023339D01*
X017634Y022471D02*
X017636Y022488D01*
X017641Y022504D01*
X017650Y022518D01*
X017662Y022530D01*
X017676Y022539D01*
X017692Y022544D01*
X017709Y022546D01*
X017726Y022544D01*
X017742Y022539D01*
X017756Y022530D01*
X017768Y022518D01*
X017777Y022504D01*
X017782Y022488D01*
X017784Y022471D01*
X017782Y022454D01*
X017777Y022438D01*
X017768Y022424D01*
X017756Y022412D01*
X017742Y022403D01*
X017726Y022398D01*
X017709Y022396D01*
X017692Y022398D01*
X017676Y022403D01*
X017662Y022412D01*
X017650Y022424D01*
X017641Y022438D01*
X017636Y022454D01*
X017634Y022471D01*
X017634Y022176D02*
X017636Y022193D01*
X017641Y022209D01*
X017650Y022223D01*
X017662Y022235D01*
X017676Y022244D01*
X017692Y022249D01*
X017709Y022251D01*
X017726Y022249D01*
X017742Y022244D01*
X017756Y022235D01*
X017768Y022223D01*
X017777Y022209D01*
X017782Y022193D01*
X017784Y022176D01*
X017782Y022159D01*
X017777Y022143D01*
X017768Y022129D01*
X017756Y022117D01*
X017742Y022108D01*
X017726Y022103D01*
X017709Y022101D01*
X017692Y022103D01*
X017676Y022108D01*
X017662Y022117D01*
X017650Y022129D01*
X017641Y022143D01*
X017636Y022159D01*
X017634Y022176D01*
X017634Y021881D02*
X017636Y021898D01*
X017641Y021914D01*
X017650Y021928D01*
X017662Y021940D01*
X017676Y021949D01*
X017692Y021954D01*
X017709Y021956D01*
X017726Y021954D01*
X017742Y021949D01*
X017756Y021940D01*
X017768Y021928D01*
X017777Y021914D01*
X017782Y021898D01*
X017784Y021881D01*
X017782Y021864D01*
X017777Y021848D01*
X017768Y021834D01*
X017756Y021822D01*
X017742Y021813D01*
X017726Y021808D01*
X017709Y021806D01*
X017692Y021808D01*
X017676Y021813D01*
X017662Y021822D01*
X017650Y021834D01*
X017641Y021848D01*
X017636Y021864D01*
X017634Y021881D01*
X017634Y021586D02*
X017636Y021603D01*
X017641Y021619D01*
X017650Y021633D01*
X017662Y021645D01*
X017676Y021654D01*
X017692Y021659D01*
X017709Y021661D01*
X017726Y021659D01*
X017742Y021654D01*
X017756Y021645D01*
X017768Y021633D01*
X017777Y021619D01*
X017782Y021603D01*
X017784Y021586D01*
X017782Y021569D01*
X017777Y021553D01*
X017768Y021539D01*
X017756Y021527D01*
X017742Y021518D01*
X017726Y021513D01*
X017709Y021511D01*
X017692Y021513D01*
X017676Y021518D01*
X017662Y021527D01*
X017650Y021539D01*
X017641Y021553D01*
X017636Y021569D01*
X017634Y021586D01*
X018022Y022453D02*
X018024Y022501D01*
X018030Y022549D01*
X018040Y022596D01*
X018053Y022642D01*
X018071Y022687D01*
X018091Y022731D01*
X018116Y022773D01*
X018144Y022812D01*
X018174Y022849D01*
X018208Y022883D01*
X018245Y022915D01*
X018283Y022944D01*
X018324Y022969D01*
X018367Y022991D01*
X018412Y023009D01*
X018458Y023023D01*
X018505Y023034D01*
X018553Y023041D01*
X018601Y023044D01*
X018649Y023043D01*
X018697Y023038D01*
X018745Y023029D01*
X018791Y023017D01*
X018836Y023000D01*
X018880Y022980D01*
X018922Y022957D01*
X018962Y022930D01*
X019000Y022900D01*
X019035Y022867D01*
X019067Y022831D01*
X019097Y022793D01*
X019123Y022752D01*
X019145Y022709D01*
X019165Y022665D01*
X019180Y022620D01*
X019192Y022573D01*
X019200Y022525D01*
X019204Y022477D01*
X019204Y022429D01*
X019200Y022381D01*
X019192Y022333D01*
X019180Y022286D01*
X019165Y022241D01*
X019145Y022197D01*
X019123Y022154D01*
X019097Y022113D01*
X019067Y022075D01*
X019035Y022039D01*
X019000Y022006D01*
X018962Y021976D01*
X018922Y021949D01*
X018880Y021926D01*
X018836Y021906D01*
X018791Y021889D01*
X018745Y021877D01*
X018697Y021868D01*
X018649Y021863D01*
X018601Y021862D01*
X018553Y021865D01*
X018505Y021872D01*
X018458Y021883D01*
X018412Y021897D01*
X018367Y021915D01*
X018324Y021937D01*
X018283Y021962D01*
X018245Y021991D01*
X018208Y022023D01*
X018174Y022057D01*
X018144Y022094D01*
X018116Y022133D01*
X018091Y022175D01*
X018071Y022219D01*
X018053Y022264D01*
X018040Y022310D01*
X018030Y022357D01*
X018024Y022405D01*
X018022Y022453D01*
D11*
X017489Y021159D02*
X017489Y016671D01*
X016622Y016671D01*
X016622Y021159D01*
X017489Y021159D01*
X015968Y020831D02*
X015629Y020831D01*
X015479Y020377D02*
X015479Y020165D01*
X015629Y019711D02*
X015968Y019711D01*
X014625Y019691D02*
X014287Y019691D01*
X014137Y019236D02*
X014137Y019025D01*
X014287Y018571D02*
X014625Y018571D01*
X013203Y018457D02*
X012573Y018457D01*
X012651Y018929D02*
X013203Y018929D01*
X013203Y018457D01*
X012651Y018929D02*
X012651Y020662D01*
X013203Y020662D01*
X013203Y021134D01*
X012573Y021134D01*
X011510Y021134D02*
X011510Y018457D01*
X008702Y017143D02*
X008702Y016671D01*
X008191Y015923D02*
X007954Y015923D01*
X007443Y016671D02*
X007443Y017143D01*
X007954Y017891D02*
X008191Y017891D01*
X003558Y014749D02*
X003558Y014249D01*
X003308Y013999D01*
X003558Y013749D01*
X003558Y013249D01*
X003308Y012999D01*
X003558Y012749D01*
X003558Y012249D01*
X003308Y011999D01*
X003558Y011749D01*
X003558Y011249D01*
X003308Y010999D01*
X002808Y010999D01*
X002558Y011249D01*
X002558Y011749D01*
X002808Y011999D01*
X002558Y012249D01*
X002558Y012749D01*
X002808Y012999D01*
X002558Y013249D01*
X002558Y013749D01*
X002808Y013999D01*
X002558Y014249D01*
X002558Y014749D01*
X002808Y014999D01*
X003308Y014999D01*
X003558Y014749D01*
X003310Y010793D02*
X002810Y010793D01*
X002560Y010543D01*
X002560Y010043D01*
X002810Y009793D01*
X003310Y009793D01*
X003560Y010043D01*
X003810Y009793D01*
X004310Y009793D01*
X004560Y010043D01*
X004560Y010543D01*
X004310Y010793D01*
X003810Y010793D01*
X003560Y010543D01*
X003310Y010793D01*
X004389Y009399D02*
X004727Y009399D01*
X004877Y008944D02*
X004877Y008733D01*
X004727Y008279D02*
X004389Y008279D01*
X003643Y008159D02*
X003430Y008159D01*
X003537Y008266D02*
X003537Y008052D01*
X006259Y009648D02*
X006259Y009986D01*
X006713Y010136D02*
X006924Y010136D01*
X007379Y009986D02*
X007379Y009648D01*
X007402Y008873D02*
X006772Y008873D01*
X006772Y008400D01*
X007323Y008400D01*
X007323Y006668D01*
X006772Y006668D01*
X006772Y006195D01*
X007402Y006195D01*
X008465Y006195D02*
X008465Y008873D01*
X011192Y005779D02*
X011192Y005306D01*
X011704Y004558D02*
X011940Y004558D01*
X012452Y005306D02*
X012452Y005779D01*
X011940Y006527D02*
X011704Y006527D01*
X016356Y007721D02*
X016356Y008221D01*
X016606Y008471D01*
X016356Y008721D01*
X016356Y009221D01*
X016606Y009471D01*
X016356Y009721D01*
X016356Y010221D01*
X016606Y010471D01*
X016356Y010721D01*
X016356Y011221D01*
X016606Y011471D01*
X017106Y011471D01*
X017356Y011221D01*
X017356Y010721D01*
X017106Y010471D01*
X017356Y010221D01*
X017356Y009721D01*
X017106Y009471D01*
X017356Y009221D01*
X017356Y008721D01*
X017106Y008471D01*
X017356Y008221D01*
X017356Y007721D01*
X017106Y007471D01*
X016606Y007471D01*
X016356Y007721D01*
X016592Y011932D02*
X016342Y012182D01*
X016342Y012682D01*
X016592Y012932D01*
X016342Y013182D01*
X016342Y013682D01*
X016592Y013932D01*
X017092Y013932D01*
X017342Y013682D01*
X017342Y013182D01*
X017092Y012932D01*
X017342Y012682D01*
X017342Y012182D01*
X017092Y011932D01*
X016592Y011932D01*
X015920Y013862D02*
X015922Y013877D01*
X015928Y013890D01*
X015937Y013902D01*
X015948Y013911D01*
X015962Y013917D01*
X015977Y013919D01*
X015992Y013917D01*
X016005Y013911D01*
X016017Y013902D01*
X016026Y013891D01*
X016032Y013877D01*
X016034Y013862D01*
X016032Y013847D01*
X016026Y013834D01*
X016017Y013822D01*
X016006Y013813D01*
X015992Y013807D01*
X015977Y013805D01*
X015962Y013807D01*
X015949Y013813D01*
X015937Y013822D01*
X015928Y013833D01*
X015922Y013847D01*
X015920Y013862D01*
D12*
X016197Y014181D02*
X016197Y012762D01*
X014337Y012762D02*
X014337Y014181D01*
X015293Y021284D02*
X015293Y021457D01*
X015206Y021371D02*
X015380Y021371D01*
D13*
X015385Y021535D02*
X015188Y021535D01*
X015385Y021535D02*
X015385Y021141D01*
X015818Y021141D01*
X015818Y022578D01*
X015483Y023443D02*
X015483Y021139D01*
X015168Y021139D01*
X015168Y021317D01*
X014105Y021317D02*
X014105Y021139D01*
X013790Y021139D01*
X013790Y023443D01*
X013456Y022578D02*
X013456Y021141D01*
X013889Y021141D01*
X013889Y021535D01*
X014086Y021535D01*
X014051Y017699D02*
X014053Y017713D01*
X014059Y017727D01*
X014067Y017739D01*
X014079Y017747D01*
X014093Y017753D01*
X014107Y017755D01*
X014121Y017753D01*
X014135Y017747D01*
X014147Y017739D01*
X014155Y017727D01*
X014161Y017713D01*
X014163Y017699D01*
X014161Y017685D01*
X014155Y017671D01*
X014147Y017659D01*
X014135Y017651D01*
X014121Y017645D01*
X014107Y017643D01*
X014093Y017645D01*
X014079Y017651D01*
X014067Y017659D01*
X014059Y017671D01*
X014053Y017685D01*
X014051Y017699D01*
X014107Y017699D02*
X014107Y017640D01*
X014107Y017699D02*
X014363Y017699D01*
X015032Y017699D02*
X015288Y017699D01*
X015288Y017640D01*
X015288Y016577D02*
X015288Y016518D01*
X015032Y016518D01*
X014363Y016518D02*
X014107Y016518D01*
X014107Y016577D01*
X013814Y015173D02*
X013421Y015173D01*
X013814Y015173D02*
X013814Y014780D01*
X013717Y015173D02*
X013719Y015192D01*
X013724Y015210D01*
X013733Y015227D01*
X013745Y015242D01*
X013760Y015254D01*
X013777Y015263D01*
X013795Y015268D01*
X013814Y015270D01*
X013833Y015268D01*
X013851Y015263D01*
X013868Y015254D01*
X013883Y015242D01*
X013895Y015227D01*
X013904Y015210D01*
X013909Y015192D01*
X013911Y015173D01*
X013909Y015154D01*
X013904Y015136D01*
X013895Y015119D01*
X013883Y015104D01*
X013868Y015092D01*
X013851Y015083D01*
X013833Y015078D01*
X013814Y015076D01*
X013795Y015078D01*
X013777Y015083D01*
X013760Y015092D01*
X013745Y015104D01*
X013733Y015119D01*
X013724Y015136D01*
X013719Y015154D01*
X013717Y015173D01*
X012557Y016130D02*
X012557Y016189D01*
X012557Y016130D02*
X012301Y016130D01*
X011632Y016130D02*
X011376Y016130D01*
X011376Y016189D01*
X011452Y015173D02*
X011846Y015173D01*
X011452Y015173D02*
X011452Y014780D01*
X011452Y013205D02*
X011452Y012811D01*
X011846Y012811D01*
X013421Y012811D02*
X013814Y012811D01*
X013814Y013205D01*
X012417Y010607D02*
X011236Y010607D01*
X011187Y010607D02*
X011189Y010620D01*
X011194Y010632D01*
X011203Y010643D01*
X011213Y010651D01*
X011226Y010655D01*
X011239Y010656D01*
X011252Y010653D01*
X011264Y010647D01*
X011274Y010638D01*
X011281Y010627D01*
X011285Y010614D01*
X011285Y010600D01*
X011281Y010587D01*
X011274Y010576D01*
X011264Y010567D01*
X011252Y010561D01*
X011239Y010558D01*
X011226Y010559D01*
X011213Y010563D01*
X011203Y010571D01*
X011194Y010582D01*
X011189Y010594D01*
X011187Y010607D01*
X011236Y008638D02*
X012417Y008638D01*
X008610Y011923D02*
X008612Y011936D01*
X008617Y011948D01*
X008626Y011959D01*
X008636Y011967D01*
X008649Y011971D01*
X008662Y011972D01*
X008675Y011969D01*
X008687Y011963D01*
X008697Y011954D01*
X008704Y011943D01*
X008708Y011930D01*
X008708Y011916D01*
X008704Y011903D01*
X008697Y011892D01*
X008687Y011883D01*
X008675Y011877D01*
X008662Y011874D01*
X008649Y011875D01*
X008636Y011879D01*
X008626Y011887D01*
X008617Y011898D01*
X008612Y011910D01*
X008610Y011923D01*
X008659Y011923D02*
X007478Y011923D01*
X007478Y013891D02*
X008659Y013891D01*
X011376Y017252D02*
X011376Y017311D01*
X011320Y017311D02*
X011322Y017325D01*
X011328Y017339D01*
X011336Y017351D01*
X011348Y017359D01*
X011362Y017365D01*
X011376Y017367D01*
X011390Y017365D01*
X011404Y017359D01*
X011416Y017351D01*
X011424Y017339D01*
X011430Y017325D01*
X011432Y017311D01*
X011430Y017297D01*
X011424Y017283D01*
X011416Y017271D01*
X011404Y017263D01*
X011390Y017257D01*
X011376Y017255D01*
X011362Y017257D01*
X011348Y017263D01*
X011336Y017271D01*
X011328Y017283D01*
X011322Y017297D01*
X011320Y017311D01*
X011376Y017311D02*
X011632Y017311D01*
X012301Y017311D02*
X012557Y017311D01*
X012557Y017252D01*
X005398Y007948D02*
X004965Y007948D01*
X004965Y007554D01*
X004769Y007554D01*
X004730Y007773D02*
X004730Y007950D01*
X005045Y007950D01*
X005045Y005647D01*
X005398Y006511D02*
X005398Y007948D01*
X003667Y007950D02*
X003667Y007773D01*
X003667Y007950D02*
X003352Y007950D01*
X003352Y005647D01*
X003036Y006511D02*
X003036Y007948D01*
X003469Y007948D01*
X003469Y007554D01*
X003666Y007554D01*
D14*
X005405Y015912D03*
X014489Y006538D03*
D15*
X016621Y006973D02*
X017251Y006973D01*
X017251Y007288D02*
X016621Y007288D01*
X003273Y015101D02*
X002643Y015101D01*
X002643Y015416D02*
X003273Y015416D01*
D16*
X002998Y015259D03*
X016897Y007131D03*
M02*
