%
M48
M72
T01C0.0120
T02C0.0150
T03C0.0276
T04C0.0400
T05C0.1181
%
T01
X16376Y15571
T02
X17709Y21586
X17709Y21881
X17709Y22176
X17709Y22471
X17709Y22767
X17709Y23062
X17709Y23339
X17256Y20651
X16696Y20171
X16616Y18891
X17056Y18331
X16456Y17851
X16856Y17531
X16336Y16691
X15896Y17851
X14596Y18091
X13816Y17931
X14536Y19051
X13896Y19091
X12536Y19291
X12136Y20331
X12796Y21171
X13516Y20611
X13816Y21371
X14456Y20791
X15896Y21851
X16216Y22891
X2345Y6591
X2345Y6911
X2345Y7231
X2345Y7551
X2345Y6271
X2345Y5951
X2345Y5671
X3958Y6399
X4798Y6079
X5838Y5879
X6665Y5504
X6985Y5504
X7305Y5504
X7625Y5504
X7945Y5504
X8265Y5504
X5438Y7239
X5358Y8039
X4558Y9159
X3598Y8839
X3518Y9159
X3518Y9479
X5018Y10399
X5478Y10399
X5958Y10399
X5938Y11519
X6858Y11859
X7198Y12439
X7758Y11759
X8558Y10679
X8558Y9559
X6798Y8839
X6958Y8279
X3918Y11719
X3678Y12039
X4798Y13319
X5038Y12919
X5438Y12679
X5838Y12919
X6078Y13319
X5838Y13719
X5438Y13959
X5038Y13719
X5438Y13319
X3838Y14759
X4158Y16119
X3758Y16839
X3758Y17479
X3758Y18199
X7198Y18279
X8078Y17479
X7198Y16999
X5918Y16839
X5918Y17559
X5918Y18359
X5678Y16119
X7118Y15399
X7258Y14519
X7198Y13799
X7278Y13399
X8078Y13959
X8318Y15079
X11516Y15891
X11696Y15351
X11976Y15631
X12856Y16531
X13256Y16171
X13436Y15591
X14056Y16151
X13996Y16511
X14856Y16171
X15416Y15851
X15416Y15491
X16376Y14731
X16396Y14211
X16376Y13051
X16016Y11851
X15267Y11060
X16216Y10491
X16336Y9611
X15016Y9131
X14856Y9531
X14456Y9691
X14056Y9531
X13896Y9131
X14056Y8731
X14456Y8571
X14856Y8731
X14456Y9131
X12756Y11071
X12716Y11771
X12536Y12331
X13496Y12111
X14076Y11891
X14256Y12211
X13896Y12731
X13016Y13611
X12616Y14011
X12216Y14411
X12216Y13611
X11676Y12811
X11736Y12331
X13016Y14411
X14227Y14580
X14147Y14980
X14227Y15300
X14936Y13211
X17016Y11851
X16376Y7611
X15816Y6411
X15416Y6411
X15136Y6811
X14136Y6331
X13896Y5691
X13896Y5131
X13896Y4571
X12776Y4491
X17376Y4511
X17709Y4638
X17709Y4343
X17709Y4047
X17709Y4933
X17709Y5229
X17709Y5524
X17709Y5819
X17376Y5671
X17376Y5071
X16216Y5131
X16216Y5691
X16216Y4571
X12776Y5131
X12776Y5691
X12776Y6431
X12756Y6871
X12616Y7931
X12551Y8573
X12671Y8987
X12676Y9631
X12688Y10051
X12056Y8491
X11256Y8491
X11456Y7351
X11496Y6891
X11816Y4971
X2265Y16630
X2265Y16926
X2265Y17221
X2265Y17516
X2265Y17811
X2265Y18107
X2265Y18402
X12716Y21971
T03
X3903Y7399
X4494Y7399
X14341Y21691
X14932Y21691
T04
X3060Y10293
X4060Y10293
X3058Y11499
X3058Y12499
X3058Y13499
X3058Y14499
X16842Y13432
X16842Y12432
X16856Y10971
X16856Y9971
X16856Y8971
X16856Y7971
T05
X18613Y4933
X1201Y6636
X7521Y4716
X11921Y22650
X18613Y22453
X1281Y17516
M30
