G75*
G70*
%OFA0B0*%
%FSLAX24Y24*%
%IPPOS*%
%LPD*%
%AMOC8*
5,1,8,0,0,1.08239X$1,22.5*
%
%ADD10C,0.0000*%
%ADD11R,0.0315X0.0315*%
%ADD12R,0.0900X0.2000*%
%ADD13R,0.0600X0.0300*%
%ADD14C,0.0740*%
%ADD15C,0.0500*%
%ADD16R,0.0740X0.0740*%
%ADD17C,0.0476*%
%ADD18R,0.0276X0.0354*%
%ADD19C,0.0080*%
%ADD20OC8,0.0270*%
%ADD21C,0.0100*%
%ADD22C,0.0160*%
%ADD23C,0.0320*%
%ADD24OC8,0.0240*%
D10*
X001183Y005559D02*
X002265Y005559D01*
X002238Y005559D02*
X006238Y005559D01*
X006271Y005557D01*
X006305Y005552D01*
X006337Y005543D01*
X006368Y005531D01*
X006398Y005516D01*
X006426Y005498D01*
X006452Y005477D01*
X006476Y005453D01*
X006497Y005427D01*
X006515Y005399D01*
X006530Y005369D01*
X006542Y005338D01*
X006551Y005306D01*
X006556Y005272D01*
X006558Y005239D01*
X006558Y004439D01*
X006563Y004392D01*
X006572Y004346D01*
X006584Y004300D01*
X006600Y004256D01*
X006619Y004213D01*
X006642Y004171D01*
X006668Y004132D01*
X006696Y004094D01*
X006728Y004059D01*
X006762Y004027D01*
X006799Y003997D01*
X006838Y003970D01*
X006879Y003947D01*
X006921Y003927D01*
X006965Y003910D01*
X007011Y003896D01*
X007057Y003887D01*
X007104Y003880D01*
X007151Y003878D01*
X007198Y003879D01*
X007918Y003879D01*
X007964Y003881D01*
X008010Y003887D01*
X008055Y003896D01*
X008100Y003909D01*
X008143Y003926D01*
X008185Y003946D01*
X008224Y003970D01*
X008262Y003997D01*
X008297Y004027D01*
X008330Y004060D01*
X008360Y004095D01*
X008387Y004133D01*
X008411Y004172D01*
X008431Y004214D01*
X008448Y004257D01*
X008461Y004302D01*
X008470Y004347D01*
X008476Y004393D01*
X008478Y004439D01*
X008478Y008999D01*
X008480Y009022D01*
X008484Y009044D01*
X008492Y009065D01*
X008503Y009086D01*
X008517Y009104D01*
X008533Y009120D01*
X008551Y009134D01*
X008572Y009145D01*
X008593Y009153D01*
X008615Y009157D01*
X008638Y009159D01*
X008718Y009159D01*
X008747Y009161D01*
X008775Y009166D01*
X008802Y009174D01*
X008829Y009186D01*
X008853Y009201D01*
X008876Y009218D01*
X008896Y009238D01*
X008914Y009261D01*
X008929Y009285D01*
X008941Y009312D01*
X008950Y009339D01*
X008955Y009367D01*
X008957Y009396D01*
X008957Y009981D01*
X008958Y009987D01*
X008961Y009992D01*
X008966Y009995D01*
X008972Y009996D01*
X010935Y009996D01*
X010935Y004126D01*
X010937Y004095D01*
X010943Y004064D01*
X010952Y004034D01*
X010965Y004005D01*
X010981Y003978D01*
X010999Y003953D01*
X011021Y003930D01*
X011044Y003909D01*
X011070Y003891D01*
X011098Y003877D01*
X011127Y003865D01*
X011158Y003857D01*
X011189Y003852D01*
X011220Y003851D01*
X018712Y003851D01*
X019795Y004933D02*
X019793Y004996D01*
X019788Y005059D01*
X019779Y005121D01*
X019766Y005183D01*
X019750Y005244D01*
X019730Y005303D01*
X019706Y005362D01*
X019680Y005419D01*
X019650Y005474D01*
X019617Y005528D01*
X019581Y005580D01*
X019542Y005629D01*
X019500Y005676D01*
X019455Y005721D01*
X019408Y005763D01*
X019359Y005802D01*
X019307Y005838D01*
X019254Y005871D01*
X019198Y005901D01*
X019141Y005927D01*
X019082Y005951D01*
X019023Y005971D01*
X018962Y005987D01*
X018900Y006000D01*
X018838Y006009D01*
X018775Y006014D01*
X018712Y006016D01*
X017629Y006016D01*
X017629Y021370D01*
X018712Y021370D01*
X017634Y021586D02*
X017636Y021603D01*
X017641Y021619D01*
X017650Y021633D01*
X017662Y021645D01*
X017676Y021654D01*
X017692Y021659D01*
X017709Y021661D01*
X017726Y021659D01*
X017742Y021654D01*
X017756Y021645D01*
X017768Y021633D01*
X017777Y021619D01*
X017782Y021603D01*
X017784Y021586D01*
X017782Y021569D01*
X017777Y021553D01*
X017768Y021539D01*
X017756Y021527D01*
X017742Y021518D01*
X017726Y021513D01*
X017709Y021511D01*
X017692Y021513D01*
X017676Y021518D01*
X017662Y021527D01*
X017650Y021539D01*
X017641Y021553D01*
X017636Y021569D01*
X017634Y021586D01*
X017634Y021881D02*
X017636Y021898D01*
X017641Y021914D01*
X017650Y021928D01*
X017662Y021940D01*
X017676Y021949D01*
X017692Y021954D01*
X017709Y021956D01*
X017726Y021954D01*
X017742Y021949D01*
X017756Y021940D01*
X017768Y021928D01*
X017777Y021914D01*
X017782Y021898D01*
X017784Y021881D01*
X017782Y021864D01*
X017777Y021848D01*
X017768Y021834D01*
X017756Y021822D01*
X017742Y021813D01*
X017726Y021808D01*
X017709Y021806D01*
X017692Y021808D01*
X017676Y021813D01*
X017662Y021822D01*
X017650Y021834D01*
X017641Y021848D01*
X017636Y021864D01*
X017634Y021881D01*
X017634Y022176D02*
X017636Y022193D01*
X017641Y022209D01*
X017650Y022223D01*
X017662Y022235D01*
X017676Y022244D01*
X017692Y022249D01*
X017709Y022251D01*
X017726Y022249D01*
X017742Y022244D01*
X017756Y022235D01*
X017768Y022223D01*
X017777Y022209D01*
X017782Y022193D01*
X017784Y022176D01*
X017782Y022159D01*
X017777Y022143D01*
X017768Y022129D01*
X017756Y022117D01*
X017742Y022108D01*
X017726Y022103D01*
X017709Y022101D01*
X017692Y022103D01*
X017676Y022108D01*
X017662Y022117D01*
X017650Y022129D01*
X017641Y022143D01*
X017636Y022159D01*
X017634Y022176D01*
X017634Y022471D02*
X017636Y022488D01*
X017641Y022504D01*
X017650Y022518D01*
X017662Y022530D01*
X017676Y022539D01*
X017692Y022544D01*
X017709Y022546D01*
X017726Y022544D01*
X017742Y022539D01*
X017756Y022530D01*
X017768Y022518D01*
X017777Y022504D01*
X017782Y022488D01*
X017784Y022471D01*
X017782Y022454D01*
X017777Y022438D01*
X017768Y022424D01*
X017756Y022412D01*
X017742Y022403D01*
X017726Y022398D01*
X017709Y022396D01*
X017692Y022398D01*
X017676Y022403D01*
X017662Y022412D01*
X017650Y022424D01*
X017641Y022438D01*
X017636Y022454D01*
X017634Y022471D01*
X017634Y022767D02*
X017636Y022784D01*
X017641Y022800D01*
X017650Y022814D01*
X017662Y022826D01*
X017676Y022835D01*
X017692Y022840D01*
X017709Y022842D01*
X017726Y022840D01*
X017742Y022835D01*
X017756Y022826D01*
X017768Y022814D01*
X017777Y022800D01*
X017782Y022784D01*
X017784Y022767D01*
X017782Y022750D01*
X017777Y022734D01*
X017768Y022720D01*
X017756Y022708D01*
X017742Y022699D01*
X017726Y022694D01*
X017709Y022692D01*
X017692Y022694D01*
X017676Y022699D01*
X017662Y022708D01*
X017650Y022720D01*
X017641Y022734D01*
X017636Y022750D01*
X017634Y022767D01*
X017634Y023062D02*
X017636Y023079D01*
X017641Y023095D01*
X017650Y023109D01*
X017662Y023121D01*
X017676Y023130D01*
X017692Y023135D01*
X017709Y023137D01*
X017726Y023135D01*
X017742Y023130D01*
X017756Y023121D01*
X017768Y023109D01*
X017777Y023095D01*
X017782Y023079D01*
X017784Y023062D01*
X017782Y023045D01*
X017777Y023029D01*
X017768Y023015D01*
X017756Y023003D01*
X017742Y022994D01*
X017726Y022989D01*
X017709Y022987D01*
X017692Y022989D01*
X017676Y022994D01*
X017662Y023003D01*
X017650Y023015D01*
X017641Y023029D01*
X017636Y023045D01*
X017634Y023062D01*
X017634Y023339D02*
X017636Y023356D01*
X017641Y023372D01*
X017650Y023386D01*
X017662Y023398D01*
X017676Y023407D01*
X017692Y023412D01*
X017709Y023414D01*
X017726Y023412D01*
X017742Y023407D01*
X017756Y023398D01*
X017768Y023386D01*
X017777Y023372D01*
X017782Y023356D01*
X017784Y023339D01*
X017782Y023322D01*
X017777Y023306D01*
X017768Y023292D01*
X017756Y023280D01*
X017742Y023271D01*
X017726Y023266D01*
X017709Y023264D01*
X017692Y023266D01*
X017676Y023271D01*
X017662Y023280D01*
X017650Y023292D01*
X017641Y023306D01*
X017636Y023322D01*
X017634Y023339D01*
X018022Y022453D02*
X018024Y022501D01*
X018030Y022549D01*
X018040Y022596D01*
X018053Y022642D01*
X018071Y022687D01*
X018091Y022731D01*
X018116Y022773D01*
X018144Y022812D01*
X018174Y022849D01*
X018208Y022883D01*
X018245Y022915D01*
X018283Y022944D01*
X018324Y022969D01*
X018367Y022991D01*
X018412Y023009D01*
X018458Y023023D01*
X018505Y023034D01*
X018553Y023041D01*
X018601Y023044D01*
X018649Y023043D01*
X018697Y023038D01*
X018745Y023029D01*
X018791Y023017D01*
X018836Y023000D01*
X018880Y022980D01*
X018922Y022957D01*
X018962Y022930D01*
X019000Y022900D01*
X019035Y022867D01*
X019067Y022831D01*
X019097Y022793D01*
X019123Y022752D01*
X019145Y022709D01*
X019165Y022665D01*
X019180Y022620D01*
X019192Y022573D01*
X019200Y022525D01*
X019204Y022477D01*
X019204Y022429D01*
X019200Y022381D01*
X019192Y022333D01*
X019180Y022286D01*
X019165Y022241D01*
X019145Y022197D01*
X019123Y022154D01*
X019097Y022113D01*
X019067Y022075D01*
X019035Y022039D01*
X019000Y022006D01*
X018962Y021976D01*
X018922Y021949D01*
X018880Y021926D01*
X018836Y021906D01*
X018791Y021889D01*
X018745Y021877D01*
X018697Y021868D01*
X018649Y021863D01*
X018601Y021862D01*
X018553Y021865D01*
X018505Y021872D01*
X018458Y021883D01*
X018412Y021897D01*
X018367Y021915D01*
X018324Y021937D01*
X018283Y021962D01*
X018245Y021991D01*
X018208Y022023D01*
X018174Y022057D01*
X018144Y022094D01*
X018116Y022133D01*
X018091Y022175D01*
X018071Y022219D01*
X018053Y022264D01*
X018040Y022310D01*
X018030Y022357D01*
X018024Y022405D01*
X018022Y022453D01*
X018712Y023536D02*
X018775Y023534D01*
X018838Y023529D01*
X018900Y023520D01*
X018962Y023507D01*
X019023Y023491D01*
X019082Y023471D01*
X019141Y023447D01*
X019198Y023421D01*
X019254Y023391D01*
X019307Y023358D01*
X019359Y023322D01*
X019408Y023283D01*
X019455Y023241D01*
X019500Y023196D01*
X019542Y023149D01*
X019581Y023100D01*
X019617Y023048D01*
X019650Y022994D01*
X019680Y022939D01*
X019706Y022882D01*
X019730Y022823D01*
X019750Y022764D01*
X019766Y022703D01*
X019779Y022641D01*
X019788Y022579D01*
X019793Y022516D01*
X019795Y022453D01*
X019793Y022390D01*
X019788Y022327D01*
X019779Y022265D01*
X019766Y022203D01*
X019750Y022142D01*
X019730Y022083D01*
X019706Y022024D01*
X019680Y021967D01*
X019650Y021912D01*
X019617Y021858D01*
X019581Y021806D01*
X019542Y021757D01*
X019500Y021710D01*
X019455Y021665D01*
X019408Y021623D01*
X019359Y021584D01*
X019307Y021548D01*
X019254Y021515D01*
X019198Y021485D01*
X019141Y021459D01*
X019082Y021435D01*
X019023Y021415D01*
X018962Y021399D01*
X018900Y021386D01*
X018838Y021377D01*
X018775Y021372D01*
X018712Y021370D01*
X018712Y023536D02*
X011625Y023536D01*
X011574Y023534D01*
X011522Y023528D01*
X011472Y023519D01*
X011422Y023505D01*
X011373Y023488D01*
X011326Y023468D01*
X011280Y023444D01*
X011237Y023416D01*
X011195Y023386D01*
X011156Y023352D01*
X011120Y023316D01*
X011086Y023277D01*
X011056Y023235D01*
X011028Y023192D01*
X011004Y023146D01*
X010984Y023099D01*
X010967Y023050D01*
X010953Y023000D01*
X010944Y022950D01*
X010938Y022898D01*
X010936Y022847D01*
X010936Y021771D01*
X010938Y021738D01*
X010943Y021704D01*
X010952Y021672D01*
X010964Y021641D01*
X010979Y021611D01*
X010997Y021583D01*
X011018Y021557D01*
X011042Y021533D01*
X011068Y021512D01*
X011096Y021494D01*
X011126Y021479D01*
X011157Y021467D01*
X011189Y021458D01*
X011223Y021453D01*
X011256Y021451D01*
X011336Y021451D01*
X011359Y021449D01*
X011381Y021445D01*
X011402Y021437D01*
X011423Y021426D01*
X011441Y021412D01*
X011457Y021396D01*
X011471Y021378D01*
X011482Y021357D01*
X011490Y021336D01*
X011494Y021314D01*
X011496Y021291D01*
X011496Y018331D01*
X011494Y018308D01*
X011490Y018286D01*
X011482Y018265D01*
X011471Y018244D01*
X011457Y018226D01*
X011441Y018210D01*
X011423Y018196D01*
X011402Y018185D01*
X011381Y018177D01*
X011359Y018173D01*
X011336Y018171D01*
X011256Y018171D01*
X011257Y018171D02*
X011223Y018169D01*
X011190Y018164D01*
X011158Y018156D01*
X011126Y018144D01*
X011096Y018128D01*
X011068Y018110D01*
X011042Y018089D01*
X011018Y018065D01*
X010997Y018039D01*
X010978Y018011D01*
X010963Y017981D01*
X010951Y017950D01*
X010942Y017917D01*
X010937Y017884D01*
X010935Y017851D01*
X010935Y016161D01*
X010933Y016148D01*
X010928Y016136D01*
X010920Y016126D01*
X010910Y016118D01*
X010898Y016113D01*
X010885Y016111D01*
X009007Y016111D01*
X008994Y016113D01*
X008982Y016118D01*
X008972Y016126D01*
X008964Y016136D01*
X008959Y016148D01*
X008957Y016161D01*
X008957Y018326D01*
X008955Y018357D01*
X008949Y018388D01*
X008940Y018418D01*
X008927Y018447D01*
X008911Y018474D01*
X008893Y018499D01*
X008871Y018522D01*
X008848Y018543D01*
X008822Y018561D01*
X008794Y018575D01*
X008765Y018587D01*
X008734Y018595D01*
X008703Y018600D01*
X008672Y018601D01*
X001182Y018601D01*
X001183Y018601D02*
X001120Y018599D01*
X001057Y018594D01*
X000995Y018584D01*
X000933Y018572D01*
X000872Y018555D01*
X000812Y018535D01*
X000754Y018512D01*
X000697Y018485D01*
X000641Y018455D01*
X000587Y018422D01*
X000536Y018386D01*
X000486Y018347D01*
X000439Y018305D01*
X000395Y018260D01*
X000353Y018213D01*
X000314Y018163D01*
X000278Y018112D01*
X000245Y018058D01*
X000215Y018003D01*
X000188Y017945D01*
X000165Y017887D01*
X000145Y017827D01*
X000129Y017766D01*
X000116Y017704D01*
X000107Y017642D01*
X000102Y017579D01*
X000100Y017516D01*
X000102Y017453D01*
X000107Y017390D01*
X000116Y017328D01*
X000129Y017266D01*
X000145Y017205D01*
X000165Y017146D01*
X000189Y017087D01*
X000215Y017030D01*
X000245Y016975D01*
X000278Y016921D01*
X000314Y016869D01*
X000353Y016820D01*
X000395Y016773D01*
X000440Y016728D01*
X000487Y016686D01*
X000536Y016647D01*
X000588Y016611D01*
X000641Y016578D01*
X000697Y016548D01*
X000754Y016522D01*
X000813Y016498D01*
X000872Y016478D01*
X000933Y016462D01*
X000995Y016449D01*
X001057Y016440D01*
X001120Y016435D01*
X001183Y016433D01*
X002265Y016433D01*
X002265Y007719D01*
X001183Y007719D01*
X001120Y007717D01*
X001057Y007712D01*
X000995Y007703D01*
X000933Y007690D01*
X000872Y007674D01*
X000813Y007654D01*
X000754Y007630D01*
X000697Y007604D01*
X000642Y007574D01*
X000588Y007541D01*
X000536Y007505D01*
X000487Y007466D01*
X000440Y007424D01*
X000395Y007379D01*
X000353Y007332D01*
X000314Y007283D01*
X000278Y007231D01*
X000245Y007178D01*
X000215Y007122D01*
X000189Y007065D01*
X000165Y007006D01*
X000145Y006947D01*
X000129Y006886D01*
X000116Y006824D01*
X000107Y006762D01*
X000102Y006699D01*
X000100Y006636D01*
X000102Y006573D01*
X000107Y006510D01*
X000116Y006448D01*
X000129Y006386D01*
X000145Y006325D01*
X000165Y006266D01*
X000189Y006207D01*
X000215Y006150D01*
X000245Y006095D01*
X000278Y006041D01*
X000314Y005989D01*
X000353Y005940D01*
X000395Y005893D01*
X000440Y005848D01*
X000487Y005806D01*
X000536Y005767D01*
X000588Y005731D01*
X000641Y005698D01*
X000697Y005668D01*
X000754Y005642D01*
X000813Y005618D01*
X000872Y005598D01*
X000933Y005582D01*
X000995Y005569D01*
X001057Y005560D01*
X001120Y005555D01*
X001183Y005553D01*
X000610Y006636D02*
X000612Y006684D01*
X000618Y006732D01*
X000628Y006779D01*
X000641Y006825D01*
X000659Y006870D01*
X000679Y006914D01*
X000704Y006956D01*
X000732Y006995D01*
X000762Y007032D01*
X000796Y007066D01*
X000833Y007098D01*
X000871Y007127D01*
X000912Y007152D01*
X000955Y007174D01*
X001000Y007192D01*
X001046Y007206D01*
X001093Y007217D01*
X001141Y007224D01*
X001189Y007227D01*
X001237Y007226D01*
X001285Y007221D01*
X001333Y007212D01*
X001379Y007200D01*
X001424Y007183D01*
X001468Y007163D01*
X001510Y007140D01*
X001550Y007113D01*
X001588Y007083D01*
X001623Y007050D01*
X001655Y007014D01*
X001685Y006976D01*
X001711Y006935D01*
X001733Y006892D01*
X001753Y006848D01*
X001768Y006803D01*
X001780Y006756D01*
X001788Y006708D01*
X001792Y006660D01*
X001792Y006612D01*
X001788Y006564D01*
X001780Y006516D01*
X001768Y006469D01*
X001753Y006424D01*
X001733Y006380D01*
X001711Y006337D01*
X001685Y006296D01*
X001655Y006258D01*
X001623Y006222D01*
X001588Y006189D01*
X001550Y006159D01*
X001510Y006132D01*
X001468Y006109D01*
X001424Y006089D01*
X001379Y006072D01*
X001333Y006060D01*
X001285Y006051D01*
X001237Y006046D01*
X001189Y006045D01*
X001141Y006048D01*
X001093Y006055D01*
X001046Y006066D01*
X001000Y006080D01*
X000955Y006098D01*
X000912Y006120D01*
X000871Y006145D01*
X000833Y006174D01*
X000796Y006206D01*
X000762Y006240D01*
X000732Y006277D01*
X000704Y006316D01*
X000679Y006358D01*
X000659Y006402D01*
X000641Y006447D01*
X000628Y006493D01*
X000618Y006540D01*
X000612Y006588D01*
X000610Y006636D01*
X002270Y006591D02*
X002272Y006608D01*
X002277Y006624D01*
X002286Y006638D01*
X002298Y006650D01*
X002312Y006659D01*
X002328Y006664D01*
X002345Y006666D01*
X002362Y006664D01*
X002378Y006659D01*
X002392Y006650D01*
X002404Y006638D01*
X002413Y006624D01*
X002418Y006608D01*
X002420Y006591D01*
X002418Y006574D01*
X002413Y006558D01*
X002404Y006544D01*
X002392Y006532D01*
X002378Y006523D01*
X002362Y006518D01*
X002345Y006516D01*
X002328Y006518D01*
X002312Y006523D01*
X002298Y006532D01*
X002286Y006544D01*
X002277Y006558D01*
X002272Y006574D01*
X002270Y006591D01*
X002270Y006911D02*
X002272Y006928D01*
X002277Y006944D01*
X002286Y006958D01*
X002298Y006970D01*
X002312Y006979D01*
X002328Y006984D01*
X002345Y006986D01*
X002362Y006984D01*
X002378Y006979D01*
X002392Y006970D01*
X002404Y006958D01*
X002413Y006944D01*
X002418Y006928D01*
X002420Y006911D01*
X002418Y006894D01*
X002413Y006878D01*
X002404Y006864D01*
X002392Y006852D01*
X002378Y006843D01*
X002362Y006838D01*
X002345Y006836D01*
X002328Y006838D01*
X002312Y006843D01*
X002298Y006852D01*
X002286Y006864D01*
X002277Y006878D01*
X002272Y006894D01*
X002270Y006911D01*
X002270Y007231D02*
X002272Y007248D01*
X002277Y007264D01*
X002286Y007278D01*
X002298Y007290D01*
X002312Y007299D01*
X002328Y007304D01*
X002345Y007306D01*
X002362Y007304D01*
X002378Y007299D01*
X002392Y007290D01*
X002404Y007278D01*
X002413Y007264D01*
X002418Y007248D01*
X002420Y007231D01*
X002418Y007214D01*
X002413Y007198D01*
X002404Y007184D01*
X002392Y007172D01*
X002378Y007163D01*
X002362Y007158D01*
X002345Y007156D01*
X002328Y007158D01*
X002312Y007163D01*
X002298Y007172D01*
X002286Y007184D01*
X002277Y007198D01*
X002272Y007214D01*
X002270Y007231D01*
X002270Y007551D02*
X002272Y007568D01*
X002277Y007584D01*
X002286Y007598D01*
X002298Y007610D01*
X002312Y007619D01*
X002328Y007624D01*
X002345Y007626D01*
X002362Y007624D01*
X002378Y007619D01*
X002392Y007610D01*
X002404Y007598D01*
X002413Y007584D01*
X002418Y007568D01*
X002420Y007551D01*
X002418Y007534D01*
X002413Y007518D01*
X002404Y007504D01*
X002392Y007492D01*
X002378Y007483D01*
X002362Y007478D01*
X002345Y007476D01*
X002328Y007478D01*
X002312Y007483D01*
X002298Y007492D01*
X002286Y007504D01*
X002277Y007518D01*
X002272Y007534D01*
X002270Y007551D01*
X002270Y006271D02*
X002272Y006288D01*
X002277Y006304D01*
X002286Y006318D01*
X002298Y006330D01*
X002312Y006339D01*
X002328Y006344D01*
X002345Y006346D01*
X002362Y006344D01*
X002378Y006339D01*
X002392Y006330D01*
X002404Y006318D01*
X002413Y006304D01*
X002418Y006288D01*
X002420Y006271D01*
X002418Y006254D01*
X002413Y006238D01*
X002404Y006224D01*
X002392Y006212D01*
X002378Y006203D01*
X002362Y006198D01*
X002345Y006196D01*
X002328Y006198D01*
X002312Y006203D01*
X002298Y006212D01*
X002286Y006224D01*
X002277Y006238D01*
X002272Y006254D01*
X002270Y006271D01*
X002270Y005951D02*
X002272Y005968D01*
X002277Y005984D01*
X002286Y005998D01*
X002298Y006010D01*
X002312Y006019D01*
X002328Y006024D01*
X002345Y006026D01*
X002362Y006024D01*
X002378Y006019D01*
X002392Y006010D01*
X002404Y005998D01*
X002413Y005984D01*
X002418Y005968D01*
X002420Y005951D01*
X002418Y005934D01*
X002413Y005918D01*
X002404Y005904D01*
X002392Y005892D01*
X002378Y005883D01*
X002362Y005878D01*
X002345Y005876D01*
X002328Y005878D01*
X002312Y005883D01*
X002298Y005892D01*
X002286Y005904D01*
X002277Y005918D01*
X002272Y005934D01*
X002270Y005951D01*
X002270Y005671D02*
X002272Y005688D01*
X002277Y005704D01*
X002286Y005718D01*
X002298Y005730D01*
X002312Y005739D01*
X002328Y005744D01*
X002345Y005746D01*
X002362Y005744D01*
X002378Y005739D01*
X002392Y005730D01*
X002404Y005718D01*
X002413Y005704D01*
X002418Y005688D01*
X002420Y005671D01*
X002418Y005654D01*
X002413Y005638D01*
X002404Y005624D01*
X002392Y005612D01*
X002378Y005603D01*
X002362Y005598D01*
X002345Y005596D01*
X002328Y005598D01*
X002312Y005603D01*
X002298Y005612D01*
X002286Y005624D01*
X002277Y005638D01*
X002272Y005654D01*
X002270Y005671D01*
X006590Y005504D02*
X006592Y005521D01*
X006597Y005537D01*
X006606Y005551D01*
X006618Y005563D01*
X006632Y005572D01*
X006648Y005577D01*
X006665Y005579D01*
X006682Y005577D01*
X006698Y005572D01*
X006712Y005563D01*
X006724Y005551D01*
X006733Y005537D01*
X006738Y005521D01*
X006740Y005504D01*
X006738Y005487D01*
X006733Y005471D01*
X006724Y005457D01*
X006712Y005445D01*
X006698Y005436D01*
X006682Y005431D01*
X006665Y005429D01*
X006648Y005431D01*
X006632Y005436D01*
X006618Y005445D01*
X006606Y005457D01*
X006597Y005471D01*
X006592Y005487D01*
X006590Y005504D01*
X006910Y005504D02*
X006912Y005521D01*
X006917Y005537D01*
X006926Y005551D01*
X006938Y005563D01*
X006952Y005572D01*
X006968Y005577D01*
X006985Y005579D01*
X007002Y005577D01*
X007018Y005572D01*
X007032Y005563D01*
X007044Y005551D01*
X007053Y005537D01*
X007058Y005521D01*
X007060Y005504D01*
X007058Y005487D01*
X007053Y005471D01*
X007044Y005457D01*
X007032Y005445D01*
X007018Y005436D01*
X007002Y005431D01*
X006985Y005429D01*
X006968Y005431D01*
X006952Y005436D01*
X006938Y005445D01*
X006926Y005457D01*
X006917Y005471D01*
X006912Y005487D01*
X006910Y005504D01*
X007230Y005504D02*
X007232Y005521D01*
X007237Y005537D01*
X007246Y005551D01*
X007258Y005563D01*
X007272Y005572D01*
X007288Y005577D01*
X007305Y005579D01*
X007322Y005577D01*
X007338Y005572D01*
X007352Y005563D01*
X007364Y005551D01*
X007373Y005537D01*
X007378Y005521D01*
X007380Y005504D01*
X007378Y005487D01*
X007373Y005471D01*
X007364Y005457D01*
X007352Y005445D01*
X007338Y005436D01*
X007322Y005431D01*
X007305Y005429D01*
X007288Y005431D01*
X007272Y005436D01*
X007258Y005445D01*
X007246Y005457D01*
X007237Y005471D01*
X007232Y005487D01*
X007230Y005504D01*
X007550Y005504D02*
X007552Y005521D01*
X007557Y005537D01*
X007566Y005551D01*
X007578Y005563D01*
X007592Y005572D01*
X007608Y005577D01*
X007625Y005579D01*
X007642Y005577D01*
X007658Y005572D01*
X007672Y005563D01*
X007684Y005551D01*
X007693Y005537D01*
X007698Y005521D01*
X007700Y005504D01*
X007698Y005487D01*
X007693Y005471D01*
X007684Y005457D01*
X007672Y005445D01*
X007658Y005436D01*
X007642Y005431D01*
X007625Y005429D01*
X007608Y005431D01*
X007592Y005436D01*
X007578Y005445D01*
X007566Y005457D01*
X007557Y005471D01*
X007552Y005487D01*
X007550Y005504D01*
X007870Y005504D02*
X007872Y005521D01*
X007877Y005537D01*
X007886Y005551D01*
X007898Y005563D01*
X007912Y005572D01*
X007928Y005577D01*
X007945Y005579D01*
X007962Y005577D01*
X007978Y005572D01*
X007992Y005563D01*
X008004Y005551D01*
X008013Y005537D01*
X008018Y005521D01*
X008020Y005504D01*
X008018Y005487D01*
X008013Y005471D01*
X008004Y005457D01*
X007992Y005445D01*
X007978Y005436D01*
X007962Y005431D01*
X007945Y005429D01*
X007928Y005431D01*
X007912Y005436D01*
X007898Y005445D01*
X007886Y005457D01*
X007877Y005471D01*
X007872Y005487D01*
X007870Y005504D01*
X008190Y005504D02*
X008192Y005521D01*
X008197Y005537D01*
X008206Y005551D01*
X008218Y005563D01*
X008232Y005572D01*
X008248Y005577D01*
X008265Y005579D01*
X008282Y005577D01*
X008298Y005572D01*
X008312Y005563D01*
X008324Y005551D01*
X008333Y005537D01*
X008338Y005521D01*
X008340Y005504D01*
X008338Y005487D01*
X008333Y005471D01*
X008324Y005457D01*
X008312Y005445D01*
X008298Y005436D01*
X008282Y005431D01*
X008265Y005429D01*
X008248Y005431D01*
X008232Y005436D01*
X008218Y005445D01*
X008206Y005457D01*
X008197Y005471D01*
X008192Y005487D01*
X008190Y005504D01*
X006930Y004716D02*
X006932Y004764D01*
X006938Y004812D01*
X006948Y004859D01*
X006961Y004905D01*
X006979Y004950D01*
X006999Y004994D01*
X007024Y005036D01*
X007052Y005075D01*
X007082Y005112D01*
X007116Y005146D01*
X007153Y005178D01*
X007191Y005207D01*
X007232Y005232D01*
X007275Y005254D01*
X007320Y005272D01*
X007366Y005286D01*
X007413Y005297D01*
X007461Y005304D01*
X007509Y005307D01*
X007557Y005306D01*
X007605Y005301D01*
X007653Y005292D01*
X007699Y005280D01*
X007744Y005263D01*
X007788Y005243D01*
X007830Y005220D01*
X007870Y005193D01*
X007908Y005163D01*
X007943Y005130D01*
X007975Y005094D01*
X008005Y005056D01*
X008031Y005015D01*
X008053Y004972D01*
X008073Y004928D01*
X008088Y004883D01*
X008100Y004836D01*
X008108Y004788D01*
X008112Y004740D01*
X008112Y004692D01*
X008108Y004644D01*
X008100Y004596D01*
X008088Y004549D01*
X008073Y004504D01*
X008053Y004460D01*
X008031Y004417D01*
X008005Y004376D01*
X007975Y004338D01*
X007943Y004302D01*
X007908Y004269D01*
X007870Y004239D01*
X007830Y004212D01*
X007788Y004189D01*
X007744Y004169D01*
X007699Y004152D01*
X007653Y004140D01*
X007605Y004131D01*
X007557Y004126D01*
X007509Y004125D01*
X007461Y004128D01*
X007413Y004135D01*
X007366Y004146D01*
X007320Y004160D01*
X007275Y004178D01*
X007232Y004200D01*
X007191Y004225D01*
X007153Y004254D01*
X007116Y004286D01*
X007082Y004320D01*
X007052Y004357D01*
X007024Y004396D01*
X006999Y004438D01*
X006979Y004482D01*
X006961Y004527D01*
X006948Y004573D01*
X006938Y004620D01*
X006932Y004668D01*
X006930Y004716D01*
X012870Y003851D02*
X017270Y003851D01*
X017634Y004047D02*
X017636Y004064D01*
X017641Y004080D01*
X017650Y004094D01*
X017662Y004106D01*
X017676Y004115D01*
X017692Y004120D01*
X017709Y004122D01*
X017726Y004120D01*
X017742Y004115D01*
X017756Y004106D01*
X017768Y004094D01*
X017777Y004080D01*
X017782Y004064D01*
X017784Y004047D01*
X017782Y004030D01*
X017777Y004014D01*
X017768Y004000D01*
X017756Y003988D01*
X017742Y003979D01*
X017726Y003974D01*
X017709Y003972D01*
X017692Y003974D01*
X017676Y003979D01*
X017662Y003988D01*
X017650Y004000D01*
X017641Y004014D01*
X017636Y004030D01*
X017634Y004047D01*
X017634Y004343D02*
X017636Y004360D01*
X017641Y004376D01*
X017650Y004390D01*
X017662Y004402D01*
X017676Y004411D01*
X017692Y004416D01*
X017709Y004418D01*
X017726Y004416D01*
X017742Y004411D01*
X017756Y004402D01*
X017768Y004390D01*
X017777Y004376D01*
X017782Y004360D01*
X017784Y004343D01*
X017782Y004326D01*
X017777Y004310D01*
X017768Y004296D01*
X017756Y004284D01*
X017742Y004275D01*
X017726Y004270D01*
X017709Y004268D01*
X017692Y004270D01*
X017676Y004275D01*
X017662Y004284D01*
X017650Y004296D01*
X017641Y004310D01*
X017636Y004326D01*
X017634Y004343D01*
X017634Y004638D02*
X017636Y004655D01*
X017641Y004671D01*
X017650Y004685D01*
X017662Y004697D01*
X017676Y004706D01*
X017692Y004711D01*
X017709Y004713D01*
X017726Y004711D01*
X017742Y004706D01*
X017756Y004697D01*
X017768Y004685D01*
X017777Y004671D01*
X017782Y004655D01*
X017784Y004638D01*
X017782Y004621D01*
X017777Y004605D01*
X017768Y004591D01*
X017756Y004579D01*
X017742Y004570D01*
X017726Y004565D01*
X017709Y004563D01*
X017692Y004565D01*
X017676Y004570D01*
X017662Y004579D01*
X017650Y004591D01*
X017641Y004605D01*
X017636Y004621D01*
X017634Y004638D01*
X017634Y004933D02*
X017636Y004950D01*
X017641Y004966D01*
X017650Y004980D01*
X017662Y004992D01*
X017676Y005001D01*
X017692Y005006D01*
X017709Y005008D01*
X017726Y005006D01*
X017742Y005001D01*
X017756Y004992D01*
X017768Y004980D01*
X017777Y004966D01*
X017782Y004950D01*
X017784Y004933D01*
X017782Y004916D01*
X017777Y004900D01*
X017768Y004886D01*
X017756Y004874D01*
X017742Y004865D01*
X017726Y004860D01*
X017709Y004858D01*
X017692Y004860D01*
X017676Y004865D01*
X017662Y004874D01*
X017650Y004886D01*
X017641Y004900D01*
X017636Y004916D01*
X017634Y004933D01*
X017634Y005229D02*
X017636Y005246D01*
X017641Y005262D01*
X017650Y005276D01*
X017662Y005288D01*
X017676Y005297D01*
X017692Y005302D01*
X017709Y005304D01*
X017726Y005302D01*
X017742Y005297D01*
X017756Y005288D01*
X017768Y005276D01*
X017777Y005262D01*
X017782Y005246D01*
X017784Y005229D01*
X017782Y005212D01*
X017777Y005196D01*
X017768Y005182D01*
X017756Y005170D01*
X017742Y005161D01*
X017726Y005156D01*
X017709Y005154D01*
X017692Y005156D01*
X017676Y005161D01*
X017662Y005170D01*
X017650Y005182D01*
X017641Y005196D01*
X017636Y005212D01*
X017634Y005229D01*
X017634Y005524D02*
X017636Y005541D01*
X017641Y005557D01*
X017650Y005571D01*
X017662Y005583D01*
X017676Y005592D01*
X017692Y005597D01*
X017709Y005599D01*
X017726Y005597D01*
X017742Y005592D01*
X017756Y005583D01*
X017768Y005571D01*
X017777Y005557D01*
X017782Y005541D01*
X017784Y005524D01*
X017782Y005507D01*
X017777Y005491D01*
X017768Y005477D01*
X017756Y005465D01*
X017742Y005456D01*
X017726Y005451D01*
X017709Y005449D01*
X017692Y005451D01*
X017676Y005456D01*
X017662Y005465D01*
X017650Y005477D01*
X017641Y005491D01*
X017636Y005507D01*
X017634Y005524D01*
X017634Y005819D02*
X017636Y005836D01*
X017641Y005852D01*
X017650Y005866D01*
X017662Y005878D01*
X017676Y005887D01*
X017692Y005892D01*
X017709Y005894D01*
X017726Y005892D01*
X017742Y005887D01*
X017756Y005878D01*
X017768Y005866D01*
X017777Y005852D01*
X017782Y005836D01*
X017784Y005819D01*
X017782Y005802D01*
X017777Y005786D01*
X017768Y005772D01*
X017756Y005760D01*
X017742Y005751D01*
X017726Y005746D01*
X017709Y005744D01*
X017692Y005746D01*
X017676Y005751D01*
X017662Y005760D01*
X017650Y005772D01*
X017641Y005786D01*
X017636Y005802D01*
X017634Y005819D01*
X018022Y004933D02*
X018024Y004981D01*
X018030Y005029D01*
X018040Y005076D01*
X018053Y005122D01*
X018071Y005167D01*
X018091Y005211D01*
X018116Y005253D01*
X018144Y005292D01*
X018174Y005329D01*
X018208Y005363D01*
X018245Y005395D01*
X018283Y005424D01*
X018324Y005449D01*
X018367Y005471D01*
X018412Y005489D01*
X018458Y005503D01*
X018505Y005514D01*
X018553Y005521D01*
X018601Y005524D01*
X018649Y005523D01*
X018697Y005518D01*
X018745Y005509D01*
X018791Y005497D01*
X018836Y005480D01*
X018880Y005460D01*
X018922Y005437D01*
X018962Y005410D01*
X019000Y005380D01*
X019035Y005347D01*
X019067Y005311D01*
X019097Y005273D01*
X019123Y005232D01*
X019145Y005189D01*
X019165Y005145D01*
X019180Y005100D01*
X019192Y005053D01*
X019200Y005005D01*
X019204Y004957D01*
X019204Y004909D01*
X019200Y004861D01*
X019192Y004813D01*
X019180Y004766D01*
X019165Y004721D01*
X019145Y004677D01*
X019123Y004634D01*
X019097Y004593D01*
X019067Y004555D01*
X019035Y004519D01*
X019000Y004486D01*
X018962Y004456D01*
X018922Y004429D01*
X018880Y004406D01*
X018836Y004386D01*
X018791Y004369D01*
X018745Y004357D01*
X018697Y004348D01*
X018649Y004343D01*
X018601Y004342D01*
X018553Y004345D01*
X018505Y004352D01*
X018458Y004363D01*
X018412Y004377D01*
X018367Y004395D01*
X018324Y004417D01*
X018283Y004442D01*
X018245Y004471D01*
X018208Y004503D01*
X018174Y004537D01*
X018144Y004574D01*
X018116Y004613D01*
X018091Y004655D01*
X018071Y004699D01*
X018053Y004744D01*
X018040Y004790D01*
X018030Y004837D01*
X018024Y004885D01*
X018022Y004933D01*
X018712Y003850D02*
X018775Y003852D01*
X018838Y003857D01*
X018900Y003866D01*
X018962Y003879D01*
X019023Y003895D01*
X019082Y003915D01*
X019141Y003939D01*
X019198Y003965D01*
X019254Y003995D01*
X019307Y004028D01*
X019359Y004064D01*
X019408Y004103D01*
X019455Y004145D01*
X019500Y004190D01*
X019542Y004237D01*
X019581Y004286D01*
X019617Y004338D01*
X019650Y004392D01*
X019680Y004447D01*
X019706Y004504D01*
X019730Y004563D01*
X019750Y004622D01*
X019766Y004683D01*
X019779Y004745D01*
X019788Y004807D01*
X019793Y004870D01*
X019795Y004933D01*
X007024Y018599D02*
X002624Y018599D01*
X002190Y018402D02*
X002192Y018419D01*
X002197Y018435D01*
X002206Y018449D01*
X002218Y018461D01*
X002232Y018470D01*
X002248Y018475D01*
X002265Y018477D01*
X002282Y018475D01*
X002298Y018470D01*
X002312Y018461D01*
X002324Y018449D01*
X002333Y018435D01*
X002338Y018419D01*
X002340Y018402D01*
X002338Y018385D01*
X002333Y018369D01*
X002324Y018355D01*
X002312Y018343D01*
X002298Y018334D01*
X002282Y018329D01*
X002265Y018327D01*
X002248Y018329D01*
X002232Y018334D01*
X002218Y018343D01*
X002206Y018355D01*
X002197Y018369D01*
X002192Y018385D01*
X002190Y018402D01*
X002190Y018107D02*
X002192Y018124D01*
X002197Y018140D01*
X002206Y018154D01*
X002218Y018166D01*
X002232Y018175D01*
X002248Y018180D01*
X002265Y018182D01*
X002282Y018180D01*
X002298Y018175D01*
X002312Y018166D01*
X002324Y018154D01*
X002333Y018140D01*
X002338Y018124D01*
X002340Y018107D01*
X002338Y018090D01*
X002333Y018074D01*
X002324Y018060D01*
X002312Y018048D01*
X002298Y018039D01*
X002282Y018034D01*
X002265Y018032D01*
X002248Y018034D01*
X002232Y018039D01*
X002218Y018048D01*
X002206Y018060D01*
X002197Y018074D01*
X002192Y018090D01*
X002190Y018107D01*
X002190Y017811D02*
X002192Y017828D01*
X002197Y017844D01*
X002206Y017858D01*
X002218Y017870D01*
X002232Y017879D01*
X002248Y017884D01*
X002265Y017886D01*
X002282Y017884D01*
X002298Y017879D01*
X002312Y017870D01*
X002324Y017858D01*
X002333Y017844D01*
X002338Y017828D01*
X002340Y017811D01*
X002338Y017794D01*
X002333Y017778D01*
X002324Y017764D01*
X002312Y017752D01*
X002298Y017743D01*
X002282Y017738D01*
X002265Y017736D01*
X002248Y017738D01*
X002232Y017743D01*
X002218Y017752D01*
X002206Y017764D01*
X002197Y017778D01*
X002192Y017794D01*
X002190Y017811D01*
X002190Y017516D02*
X002192Y017533D01*
X002197Y017549D01*
X002206Y017563D01*
X002218Y017575D01*
X002232Y017584D01*
X002248Y017589D01*
X002265Y017591D01*
X002282Y017589D01*
X002298Y017584D01*
X002312Y017575D01*
X002324Y017563D01*
X002333Y017549D01*
X002338Y017533D01*
X002340Y017516D01*
X002338Y017499D01*
X002333Y017483D01*
X002324Y017469D01*
X002312Y017457D01*
X002298Y017448D01*
X002282Y017443D01*
X002265Y017441D01*
X002248Y017443D01*
X002232Y017448D01*
X002218Y017457D01*
X002206Y017469D01*
X002197Y017483D01*
X002192Y017499D01*
X002190Y017516D01*
X002190Y017221D02*
X002192Y017238D01*
X002197Y017254D01*
X002206Y017268D01*
X002218Y017280D01*
X002232Y017289D01*
X002248Y017294D01*
X002265Y017296D01*
X002282Y017294D01*
X002298Y017289D01*
X002312Y017280D01*
X002324Y017268D01*
X002333Y017254D01*
X002338Y017238D01*
X002340Y017221D01*
X002338Y017204D01*
X002333Y017188D01*
X002324Y017174D01*
X002312Y017162D01*
X002298Y017153D01*
X002282Y017148D01*
X002265Y017146D01*
X002248Y017148D01*
X002232Y017153D01*
X002218Y017162D01*
X002206Y017174D01*
X002197Y017188D01*
X002192Y017204D01*
X002190Y017221D01*
X002190Y016926D02*
X002192Y016943D01*
X002197Y016959D01*
X002206Y016973D01*
X002218Y016985D01*
X002232Y016994D01*
X002248Y016999D01*
X002265Y017001D01*
X002282Y016999D01*
X002298Y016994D01*
X002312Y016985D01*
X002324Y016973D01*
X002333Y016959D01*
X002338Y016943D01*
X002340Y016926D01*
X002338Y016909D01*
X002333Y016893D01*
X002324Y016879D01*
X002312Y016867D01*
X002298Y016858D01*
X002282Y016853D01*
X002265Y016851D01*
X002248Y016853D01*
X002232Y016858D01*
X002218Y016867D01*
X002206Y016879D01*
X002197Y016893D01*
X002192Y016909D01*
X002190Y016926D01*
X002190Y016630D02*
X002192Y016647D01*
X002197Y016663D01*
X002206Y016677D01*
X002218Y016689D01*
X002232Y016698D01*
X002248Y016703D01*
X002265Y016705D01*
X002282Y016703D01*
X002298Y016698D01*
X002312Y016689D01*
X002324Y016677D01*
X002333Y016663D01*
X002338Y016647D01*
X002340Y016630D01*
X002338Y016613D01*
X002333Y016597D01*
X002324Y016583D01*
X002312Y016571D01*
X002298Y016562D01*
X002282Y016557D01*
X002265Y016555D01*
X002248Y016557D01*
X002232Y016562D01*
X002218Y016571D01*
X002206Y016583D01*
X002197Y016597D01*
X002192Y016613D01*
X002190Y016630D01*
X000690Y017516D02*
X000692Y017564D01*
X000698Y017612D01*
X000708Y017659D01*
X000721Y017705D01*
X000739Y017750D01*
X000759Y017794D01*
X000784Y017836D01*
X000812Y017875D01*
X000842Y017912D01*
X000876Y017946D01*
X000913Y017978D01*
X000951Y018007D01*
X000992Y018032D01*
X001035Y018054D01*
X001080Y018072D01*
X001126Y018086D01*
X001173Y018097D01*
X001221Y018104D01*
X001269Y018107D01*
X001317Y018106D01*
X001365Y018101D01*
X001413Y018092D01*
X001459Y018080D01*
X001504Y018063D01*
X001548Y018043D01*
X001590Y018020D01*
X001630Y017993D01*
X001668Y017963D01*
X001703Y017930D01*
X001735Y017894D01*
X001765Y017856D01*
X001791Y017815D01*
X001813Y017772D01*
X001833Y017728D01*
X001848Y017683D01*
X001860Y017636D01*
X001868Y017588D01*
X001872Y017540D01*
X001872Y017492D01*
X001868Y017444D01*
X001860Y017396D01*
X001848Y017349D01*
X001833Y017304D01*
X001813Y017260D01*
X001791Y017217D01*
X001765Y017176D01*
X001735Y017138D01*
X001703Y017102D01*
X001668Y017069D01*
X001630Y017039D01*
X001590Y017012D01*
X001548Y016989D01*
X001504Y016969D01*
X001459Y016952D01*
X001413Y016940D01*
X001365Y016931D01*
X001317Y016926D01*
X001269Y016925D01*
X001221Y016928D01*
X001173Y016935D01*
X001126Y016946D01*
X001080Y016960D01*
X001035Y016978D01*
X000992Y017000D01*
X000951Y017025D01*
X000913Y017054D01*
X000876Y017086D01*
X000842Y017120D01*
X000812Y017157D01*
X000784Y017196D01*
X000759Y017238D01*
X000739Y017282D01*
X000721Y017327D01*
X000708Y017373D01*
X000698Y017420D01*
X000692Y017468D01*
X000690Y017516D01*
X011330Y022650D02*
X011332Y022698D01*
X011338Y022746D01*
X011348Y022793D01*
X011361Y022839D01*
X011379Y022884D01*
X011399Y022928D01*
X011424Y022970D01*
X011452Y023009D01*
X011482Y023046D01*
X011516Y023080D01*
X011553Y023112D01*
X011591Y023141D01*
X011632Y023166D01*
X011675Y023188D01*
X011720Y023206D01*
X011766Y023220D01*
X011813Y023231D01*
X011861Y023238D01*
X011909Y023241D01*
X011957Y023240D01*
X012005Y023235D01*
X012053Y023226D01*
X012099Y023214D01*
X012144Y023197D01*
X012188Y023177D01*
X012230Y023154D01*
X012270Y023127D01*
X012308Y023097D01*
X012343Y023064D01*
X012375Y023028D01*
X012405Y022990D01*
X012431Y022949D01*
X012453Y022906D01*
X012473Y022862D01*
X012488Y022817D01*
X012500Y022770D01*
X012508Y022722D01*
X012512Y022674D01*
X012512Y022626D01*
X012508Y022578D01*
X012500Y022530D01*
X012488Y022483D01*
X012473Y022438D01*
X012453Y022394D01*
X012431Y022351D01*
X012405Y022310D01*
X012375Y022272D01*
X012343Y022236D01*
X012308Y022203D01*
X012270Y022173D01*
X012230Y022146D01*
X012188Y022123D01*
X012144Y022103D01*
X012099Y022086D01*
X012053Y022074D01*
X012005Y022065D01*
X011957Y022060D01*
X011909Y022059D01*
X011861Y022062D01*
X011813Y022069D01*
X011766Y022080D01*
X011720Y022094D01*
X011675Y022112D01*
X011632Y022134D01*
X011591Y022159D01*
X011553Y022188D01*
X011516Y022220D01*
X011482Y022254D01*
X011452Y022291D01*
X011424Y022330D01*
X011399Y022372D01*
X011379Y022416D01*
X011361Y022461D01*
X011348Y022507D01*
X011338Y022554D01*
X011332Y022602D01*
X011330Y022650D01*
D11*
X012881Y018891D03*
X012868Y018440D03*
X012881Y018011D03*
X012868Y017609D03*
X012881Y017131D03*
X013472Y017131D03*
X013459Y017609D03*
X013472Y018011D03*
X013459Y018440D03*
X013472Y018891D03*
X005038Y007534D03*
X005038Y006944D03*
X003288Y006936D03*
X002897Y006936D03*
X002897Y007527D03*
X003288Y007527D03*
D12*
X003084Y017589D03*
X006564Y017589D03*
X013330Y004861D03*
X016810Y004861D03*
D13*
X007940Y006287D03*
X007940Y007787D03*
X005940Y007787D03*
X005940Y006287D03*
X011918Y019498D03*
X011918Y020998D03*
X013918Y020998D03*
X014975Y021005D03*
X014975Y019505D03*
X013918Y019498D03*
X016975Y019505D03*
X016975Y021005D03*
D14*
X016842Y013432D03*
X016842Y012432D03*
X016856Y009971D03*
X016856Y008971D03*
X016856Y007971D03*
X004060Y010293D03*
X003060Y010293D03*
X003058Y012499D03*
X003058Y013499D03*
X003058Y014499D03*
D15*
X008398Y016999D03*
X008398Y017959D03*
X011496Y005451D03*
X011496Y004491D03*
D16*
X016856Y010971D03*
X003058Y011499D03*
D17*
X003903Y007637D02*
X003903Y007161D01*
X004494Y007161D02*
X004494Y007637D01*
X014341Y021453D02*
X014341Y021928D01*
X014932Y021928D02*
X014932Y021453D01*
D18*
X012312Y018891D03*
X012325Y018430D03*
X012312Y017991D03*
X012325Y017562D03*
X012312Y017131D03*
X011800Y017131D03*
X011813Y017562D03*
X011800Y017991D03*
X011813Y018430D03*
X011800Y018891D03*
D19*
X011800Y018955D01*
X012056Y019211D01*
X012456Y019211D01*
X012536Y019291D01*
X013016Y019291D02*
X012216Y020091D01*
X012216Y020251D01*
X012136Y020331D01*
X012456Y020251D02*
X012456Y021291D01*
X013736Y022571D01*
X015496Y022571D01*
X015576Y022491D01*
X015576Y021771D01*
X015816Y021531D01*
X016216Y021531D01*
X016456Y021291D01*
X016456Y020811D01*
X016616Y020651D01*
X017256Y020651D01*
X017056Y020491D02*
X017151Y020396D01*
X017362Y020396D01*
X017489Y020523D01*
X017489Y019217D01*
X017395Y019311D01*
X017395Y019705D01*
X017324Y019775D01*
X016625Y019775D01*
X016555Y019705D01*
X016555Y019305D01*
X016625Y019235D01*
X017018Y019235D01*
X017176Y019077D01*
X017176Y018571D01*
X017162Y018586D01*
X016951Y018586D01*
X016801Y018436D01*
X016801Y018422D01*
X016485Y018106D01*
X016351Y018106D01*
X016201Y017956D01*
X016201Y017745D01*
X016351Y017596D01*
X016562Y017596D01*
X016601Y017635D01*
X016601Y017425D01*
X016683Y017343D01*
X016456Y017117D01*
X016456Y016571D01*
X016290Y016571D01*
X016196Y016477D01*
X015910Y016191D01*
X015816Y016097D01*
X015816Y015531D01*
X015671Y015531D01*
X015671Y015596D01*
X015522Y015746D01*
X015311Y015746D01*
X015161Y015596D01*
X015161Y015385D01*
X015311Y015236D01*
X015445Y015236D01*
X015470Y015211D01*
X015910Y015211D01*
X016150Y014971D01*
X016470Y014971D01*
X016536Y014904D01*
X016536Y014637D01*
X016470Y014571D01*
X016376Y014477D01*
X016376Y014466D01*
X016291Y014466D01*
X016141Y014316D01*
X016141Y014105D01*
X016291Y013956D01*
X016335Y013956D01*
X016136Y013757D01*
X016136Y013171D01*
X016121Y013156D01*
X016121Y012945D01*
X016263Y012803D01*
X016230Y012771D01*
X016136Y012677D01*
X016136Y012184D01*
X016190Y012131D01*
X015961Y012131D01*
X015858Y012088D01*
X015779Y012009D01*
X015736Y011906D01*
X015736Y011795D01*
X015779Y011692D01*
X015858Y011613D01*
X015961Y011571D01*
X016100Y011571D01*
X016366Y011305D01*
X016366Y011091D01*
X015973Y011091D01*
X015856Y010973D01*
X015813Y010931D01*
X015696Y010813D01*
X015696Y010248D01*
X015813Y010131D01*
X012943Y010131D01*
X012943Y010157D02*
X012794Y010306D01*
X012582Y010306D01*
X012487Y010211D01*
X011922Y010211D01*
X011736Y010397D01*
X011736Y012076D01*
X011842Y012076D01*
X011976Y012210D01*
X011976Y011144D01*
X012136Y010984D01*
X012230Y010891D01*
X012576Y010891D01*
X012651Y010816D01*
X012862Y010816D01*
X013011Y010965D01*
X013011Y011176D01*
X012862Y011326D01*
X012651Y011326D01*
X012536Y011211D01*
X012363Y011211D01*
X012296Y011277D01*
X012296Y012210D01*
X012431Y012076D01*
X012642Y012076D01*
X012646Y012080D01*
X012646Y012026D01*
X012611Y012026D01*
X012461Y011876D01*
X012461Y011665D01*
X012611Y011516D01*
X012822Y011516D01*
X012971Y011665D01*
X012971Y011876D01*
X012966Y011881D01*
X012966Y012104D01*
X013113Y012251D01*
X013510Y012251D01*
X013670Y012091D01*
X014016Y012091D01*
X014151Y011956D01*
X014362Y011956D01*
X014511Y012105D01*
X014511Y012316D01*
X014497Y012331D01*
X014763Y012331D01*
X015096Y012664D01*
X015096Y013010D01*
X015191Y013105D01*
X015191Y013316D01*
X015042Y013466D01*
X014831Y013466D01*
X014681Y013316D01*
X014681Y013105D01*
X014776Y013010D01*
X014776Y012797D01*
X014630Y012651D01*
X014151Y012651D01*
X014151Y012836D01*
X014002Y012986D01*
X013791Y012986D01*
X013696Y012891D01*
X012310Y012891D01*
X012216Y012797D01*
X012136Y012717D01*
X011883Y012971D01*
X011877Y012971D01*
X011782Y013066D01*
X011576Y013066D01*
X011576Y015110D01*
X011591Y015096D01*
X011802Y015096D01*
X011897Y015191D01*
X013263Y015191D01*
X013356Y015284D01*
X013408Y015336D01*
X013542Y015336D01*
X013691Y015485D01*
X013691Y015696D01*
X013550Y015838D01*
X013703Y015991D01*
X013856Y015991D01*
X013951Y015896D01*
X014162Y015896D01*
X014311Y016045D01*
X014311Y016256D01*
X014162Y016406D01*
X013951Y016406D01*
X013856Y016311D01*
X013570Y016311D01*
X013476Y016217D01*
X013050Y015791D01*
X012177Y015791D01*
X012082Y015886D01*
X011871Y015886D01*
X011756Y015771D01*
X011510Y015771D01*
X011430Y015691D01*
X011416Y015691D01*
X011416Y017304D01*
X011514Y017402D01*
X011555Y017402D01*
X011555Y017370D01*
X011543Y017358D01*
X011543Y016904D01*
X011613Y016833D01*
X011988Y016833D01*
X012056Y016902D01*
X012125Y016833D01*
X012500Y016833D01*
X012570Y016904D01*
X012570Y016931D01*
X012604Y016931D01*
X012604Y016923D01*
X012674Y016853D01*
X013088Y016853D01*
X013159Y016923D01*
X013159Y017082D01*
X013194Y017047D01*
X013194Y016923D01*
X013264Y016853D01*
X013679Y016853D01*
X013749Y016923D01*
X013749Y017338D01*
X013725Y017362D01*
X013728Y017366D01*
X013747Y017398D01*
X013756Y017433D01*
X013756Y017570D01*
X013498Y017570D01*
X013498Y017648D01*
X013756Y017648D01*
X013756Y017676D01*
X013922Y017676D01*
X014071Y017825D01*
X014071Y018036D01*
X014056Y018051D01*
X014056Y018077D01*
X013963Y018171D01*
X013937Y018171D01*
X013922Y018186D01*
X013749Y018186D01*
X013749Y018218D01*
X013744Y018223D01*
X013747Y018229D01*
X013756Y018264D01*
X013756Y018401D01*
X013498Y018401D01*
X013498Y018479D01*
X013756Y018479D01*
X013756Y018616D01*
X013747Y018652D01*
X013736Y018670D01*
X013749Y018683D01*
X013749Y019098D01*
X013679Y019168D01*
X013525Y019168D01*
X013336Y019357D01*
X013315Y019378D01*
X013498Y019378D01*
X013498Y019299D01*
X013568Y019228D01*
X014268Y019228D01*
X014338Y019299D01*
X014338Y019698D01*
X014268Y019768D01*
X013568Y019768D01*
X013498Y019698D01*
X013235Y019698D01*
X012616Y020317D01*
X012616Y021224D01*
X013803Y022411D01*
X015416Y022411D01*
X015416Y021704D01*
X015656Y021464D01*
X015750Y021371D01*
X016150Y021371D01*
X016296Y021224D01*
X016296Y020744D01*
X016390Y020651D01*
X016550Y020491D01*
X017056Y020491D01*
X017132Y020414D02*
X012616Y020414D01*
X012616Y020336D02*
X017489Y020336D01*
X017489Y020414D02*
X017381Y020414D01*
X017459Y020493D02*
X017489Y020493D01*
X017489Y020257D02*
X012676Y020257D01*
X012754Y020179D02*
X017489Y020179D01*
X017489Y020100D02*
X012833Y020100D01*
X012911Y020022D02*
X017489Y020022D01*
X017489Y019943D02*
X012990Y019943D01*
X013068Y019865D02*
X017489Y019865D01*
X017489Y019786D02*
X013147Y019786D01*
X013225Y019708D02*
X013508Y019708D01*
X013169Y019538D02*
X013878Y019538D01*
X013918Y019498D01*
X013689Y019158D02*
X017095Y019158D01*
X017173Y019080D02*
X013749Y019080D01*
X013749Y019001D02*
X017176Y019001D01*
X017176Y018923D02*
X013749Y018923D01*
X013749Y018844D02*
X017176Y018844D01*
X017176Y018766D02*
X013749Y018766D01*
X013749Y018687D02*
X017176Y018687D01*
X017176Y018609D02*
X013756Y018609D01*
X013756Y018530D02*
X016895Y018530D01*
X016817Y018452D02*
X013498Y018452D01*
X013459Y018440D02*
X013707Y018440D01*
X013756Y018373D02*
X016753Y018373D01*
X016674Y018295D02*
X013756Y018295D01*
X013749Y018216D02*
X016596Y018216D01*
X016517Y018138D02*
X013995Y018138D01*
X014056Y018059D02*
X016304Y018059D01*
X016226Y017981D02*
X014071Y017981D01*
X014071Y017902D02*
X016201Y017902D01*
X016201Y017824D02*
X014070Y017824D01*
X013992Y017745D02*
X016201Y017745D01*
X016279Y017667D02*
X013756Y017667D01*
X013756Y017510D02*
X016601Y017510D01*
X016601Y017588D02*
X013498Y017588D01*
X013176Y017291D02*
X013336Y017131D01*
X013472Y017131D01*
X013194Y017039D02*
X013159Y017039D01*
X013159Y016960D02*
X013194Y016960D01*
X013236Y016882D02*
X013117Y016882D01*
X013176Y017291D02*
X013176Y017931D01*
X013256Y018011D01*
X013472Y018011D01*
X013896Y018011D01*
X013816Y017931D01*
X013756Y017431D02*
X016601Y017431D01*
X016673Y017353D02*
X013734Y017353D01*
X013749Y017274D02*
X016614Y017274D01*
X016535Y017196D02*
X013749Y017196D01*
X013749Y017117D02*
X016457Y017117D01*
X016456Y017039D02*
X013749Y017039D01*
X013749Y016960D02*
X016456Y016960D01*
X016456Y016882D02*
X013707Y016882D01*
X013877Y016332D02*
X011416Y016332D01*
X011416Y016254D02*
X013513Y016254D01*
X013435Y016175D02*
X011416Y016175D01*
X011416Y016097D02*
X013356Y016097D01*
X013278Y016018D02*
X011416Y016018D01*
X011416Y015940D02*
X013199Y015940D01*
X013121Y015861D02*
X012106Y015861D01*
X011846Y015861D02*
X011416Y015861D01*
X011416Y015783D02*
X011768Y015783D01*
X011956Y015611D02*
X011576Y015611D01*
X011496Y015531D01*
X011416Y015531D01*
X011416Y010251D01*
X012036Y009631D01*
X012676Y009631D01*
X012851Y009817D02*
X016127Y009817D01*
X016136Y009808D02*
X016136Y009771D01*
X016081Y009716D01*
X016081Y009505D01*
X016231Y009356D01*
X016442Y009356D01*
X016591Y009505D01*
X016591Y009533D01*
X016661Y009498D01*
X016737Y009473D01*
X016816Y009461D01*
X016816Y009461D01*
X016816Y009931D01*
X016896Y009931D01*
X016896Y010011D01*
X017366Y010011D01*
X017354Y010090D01*
X017329Y010166D01*
X017292Y010238D01*
X017254Y010291D01*
X017363Y010291D01*
X017403Y010331D01*
X017489Y010417D01*
X017489Y005958D01*
X017496Y005951D01*
X017496Y005910D01*
X017494Y005908D01*
X017494Y005730D01*
X017496Y005728D01*
X017496Y005615D01*
X017494Y005613D01*
X017494Y005435D01*
X017496Y005433D01*
X017496Y005320D01*
X017494Y005318D01*
X017494Y005140D01*
X017496Y005137D01*
X017496Y005024D01*
X017494Y005022D01*
X017494Y004844D01*
X017496Y004842D01*
X017496Y004729D01*
X017494Y004727D01*
X017494Y004549D01*
X017496Y004547D01*
X017496Y004434D01*
X017494Y004432D01*
X017494Y004254D01*
X017496Y004252D01*
X017496Y004139D01*
X017494Y004137D01*
X017494Y004011D01*
X017400Y004011D01*
X017400Y004821D01*
X016850Y004821D01*
X016850Y004901D01*
X016770Y004901D01*
X016770Y006001D01*
X016342Y006001D01*
X016306Y005991D01*
X016274Y005973D01*
X016248Y005947D01*
X016230Y005915D01*
X016220Y005879D01*
X016220Y004901D01*
X016770Y004901D01*
X016770Y004821D01*
X016220Y004821D01*
X016220Y004011D01*
X013920Y004011D01*
X013920Y004821D01*
X013370Y004821D01*
X013370Y004901D01*
X013290Y004901D01*
X013290Y006001D01*
X012862Y006001D01*
X012826Y005991D01*
X012794Y005973D01*
X012768Y005947D01*
X012750Y005915D01*
X012740Y005879D01*
X012740Y004901D01*
X013290Y004901D01*
X013290Y004821D01*
X012740Y004821D01*
X012740Y004011D01*
X011153Y004011D01*
X011118Y004030D01*
X011096Y004066D01*
X011096Y005624D01*
X011147Y005574D01*
X011126Y005524D01*
X011126Y005377D01*
X011183Y005241D01*
X011287Y005137D01*
X011423Y005081D01*
X011570Y005081D01*
X011706Y005137D01*
X011810Y005241D01*
X011866Y005377D01*
X011866Y005524D01*
X011810Y005660D01*
X011706Y005764D01*
X011570Y005821D01*
X011423Y005821D01*
X011373Y005800D01*
X011336Y005837D01*
X011336Y007931D01*
X012230Y007931D01*
X012310Y007851D01*
X012361Y007851D01*
X012361Y007825D01*
X012511Y007676D01*
X012722Y007676D01*
X012871Y007825D01*
X012871Y008036D01*
X012722Y008186D01*
X012511Y008186D01*
X012496Y008171D01*
X012443Y008171D01*
X012363Y008251D01*
X012177Y008251D01*
X012311Y008385D01*
X012311Y008453D01*
X012445Y008318D01*
X012657Y008318D01*
X012806Y008468D01*
X012806Y008679D01*
X012753Y008732D01*
X012777Y008732D01*
X012926Y008882D01*
X012926Y009093D01*
X012777Y009242D01*
X012565Y009242D01*
X012488Y009165D01*
X012183Y009471D01*
X012476Y009471D01*
X012571Y009376D01*
X012782Y009376D01*
X012931Y009525D01*
X012931Y009736D01*
X012832Y009835D01*
X012943Y009946D01*
X012943Y010157D01*
X012891Y010209D02*
X015735Y010209D01*
X015696Y010288D02*
X012812Y010288D01*
X012564Y010288D02*
X011845Y010288D01*
X011767Y010366D02*
X015696Y010366D01*
X015696Y010445D02*
X011736Y010445D01*
X011736Y010523D02*
X015696Y010523D01*
X015696Y010602D02*
X011736Y010602D01*
X011736Y010680D02*
X015696Y010680D01*
X015696Y010759D02*
X011736Y010759D01*
X011736Y010837D02*
X012629Y010837D01*
X012736Y011051D02*
X012756Y011071D01*
X012736Y011051D02*
X012296Y011051D01*
X012136Y011211D01*
X012136Y012491D01*
X012376Y012731D01*
X013896Y012731D01*
X014109Y012878D02*
X014776Y012878D01*
X014776Y012800D02*
X014151Y012800D01*
X014151Y012721D02*
X014701Y012721D01*
X014696Y012491D02*
X014936Y012731D01*
X014936Y013211D01*
X014751Y013035D02*
X011812Y013035D01*
X011896Y012957D02*
X013762Y012957D01*
X014031Y012957D02*
X014776Y012957D01*
X014681Y013114D02*
X011576Y013114D01*
X011576Y013192D02*
X014681Y013192D01*
X014681Y013271D02*
X011576Y013271D01*
X011576Y013349D02*
X014714Y013349D01*
X014793Y013428D02*
X011576Y013428D01*
X011576Y013506D02*
X016136Y013506D01*
X016136Y013428D02*
X015080Y013428D01*
X015158Y013349D02*
X016136Y013349D01*
X016136Y013271D02*
X015191Y013271D01*
X015191Y013192D02*
X016136Y013192D01*
X016121Y013114D02*
X015191Y013114D01*
X015122Y013035D02*
X016121Y013035D01*
X016121Y012957D02*
X015096Y012957D01*
X015096Y012878D02*
X016188Y012878D01*
X016259Y012800D02*
X015096Y012800D01*
X015096Y012721D02*
X016181Y012721D01*
X016136Y012643D02*
X015075Y012643D01*
X014996Y012564D02*
X016136Y012564D01*
X016136Y012486D02*
X014918Y012486D01*
X014839Y012407D02*
X016136Y012407D01*
X016136Y012329D02*
X014499Y012329D01*
X014511Y012250D02*
X016136Y012250D01*
X016149Y012172D02*
X014511Y012172D01*
X014500Y012093D02*
X015871Y012093D01*
X015785Y012015D02*
X014421Y012015D01*
X014256Y012211D02*
X014216Y012251D01*
X013736Y012251D01*
X013576Y012411D01*
X013046Y012411D01*
X012806Y012171D01*
X012806Y011861D01*
X012716Y011771D01*
X012461Y011779D02*
X012296Y011779D01*
X012296Y011701D02*
X012461Y011701D01*
X012504Y011622D02*
X012296Y011622D01*
X012296Y011544D02*
X012582Y011544D01*
X012633Y011308D02*
X012296Y011308D01*
X012296Y011387D02*
X016284Y011387D01*
X016206Y011465D02*
X012296Y011465D01*
X012343Y011230D02*
X012555Y011230D01*
X012879Y011308D02*
X016363Y011308D01*
X016366Y011230D02*
X012958Y011230D01*
X013011Y011151D02*
X016366Y011151D01*
X015956Y011073D02*
X013011Y011073D01*
X013011Y010994D02*
X015877Y010994D01*
X015856Y010973D02*
X015856Y010973D01*
X015813Y010931D02*
X015813Y010931D01*
X015799Y010916D02*
X012962Y010916D01*
X012884Y010837D02*
X015720Y010837D01*
X016216Y010491D02*
X016256Y010451D01*
X017296Y010451D01*
X017336Y010491D01*
X017336Y013931D01*
X017016Y014251D01*
X017016Y015211D01*
X016776Y015451D01*
X016616Y015451D01*
X016496Y015571D01*
X016376Y015571D01*
X016136Y015451D02*
X016136Y015931D01*
X016456Y016251D01*
X016696Y016251D01*
X016856Y016411D01*
X016856Y016971D01*
X017336Y017451D01*
X017336Y019143D01*
X016975Y019505D01*
X017395Y019472D02*
X017489Y019472D01*
X017489Y019394D02*
X017395Y019394D01*
X017395Y019315D02*
X017489Y019315D01*
X017489Y019237D02*
X017469Y019237D01*
X017489Y019551D02*
X017395Y019551D01*
X017395Y019629D02*
X017489Y019629D01*
X017489Y019708D02*
X017391Y019708D01*
X016558Y019708D02*
X015391Y019708D01*
X015395Y019705D02*
X015324Y019775D01*
X014625Y019775D01*
X014555Y019705D01*
X014555Y019305D01*
X014625Y019235D01*
X015324Y019235D01*
X015395Y019305D01*
X015395Y019705D01*
X015395Y019629D02*
X016555Y019629D01*
X016555Y019551D02*
X015395Y019551D01*
X015395Y019472D02*
X016555Y019472D01*
X016555Y019394D02*
X015395Y019394D01*
X015395Y019315D02*
X016555Y019315D01*
X016623Y019237D02*
X015326Y019237D01*
X015176Y018971D02*
X015256Y018891D01*
X014623Y019237D02*
X014276Y019237D01*
X014338Y019315D02*
X014555Y019315D01*
X014555Y019394D02*
X014338Y019394D01*
X014338Y019472D02*
X014555Y019472D01*
X014555Y019551D02*
X014338Y019551D01*
X014338Y019629D02*
X014555Y019629D01*
X014558Y019708D02*
X014328Y019708D01*
X014536Y019051D02*
X014376Y018891D01*
X013552Y018971D02*
X013472Y018891D01*
X013416Y018946D01*
X013416Y019051D01*
X013176Y019291D01*
X013016Y019291D01*
X013159Y019082D02*
X013194Y019047D01*
X013194Y018688D01*
X013189Y018684D01*
X013171Y018652D01*
X013161Y018616D01*
X013161Y018479D01*
X013420Y018479D01*
X013420Y018401D01*
X013161Y018401D01*
X013161Y018264D01*
X013171Y018229D01*
X013189Y018197D01*
X013194Y018192D01*
X013194Y018171D01*
X013190Y018171D01*
X013159Y018139D01*
X013159Y018218D01*
X013145Y018232D01*
X013146Y018233D01*
X013146Y018647D01*
X013134Y018659D01*
X013159Y018683D01*
X013159Y019082D01*
X013159Y019080D02*
X013161Y019080D01*
X013159Y019001D02*
X013194Y019001D01*
X013194Y018923D02*
X013159Y018923D01*
X013159Y018844D02*
X013194Y018844D01*
X013194Y018766D02*
X013159Y018766D01*
X013159Y018687D02*
X013193Y018687D01*
X013161Y018609D02*
X013146Y018609D01*
X013146Y018530D02*
X013161Y018530D01*
X013146Y018452D02*
X013420Y018452D01*
X013161Y018373D02*
X013146Y018373D01*
X013146Y018295D02*
X013161Y018295D01*
X013159Y018216D02*
X013178Y018216D01*
X013456Y019237D02*
X013560Y019237D01*
X013498Y019315D02*
X013378Y019315D01*
X013169Y019538D02*
X012456Y020251D01*
X012616Y020493D02*
X016548Y020493D01*
X016469Y020571D02*
X012616Y020571D01*
X012616Y020650D02*
X013831Y020650D01*
X013852Y020629D02*
X013984Y020629D01*
X014078Y020723D01*
X014078Y020728D01*
X016312Y020728D01*
X016296Y020807D02*
X015395Y020807D01*
X015395Y020805D02*
X015395Y021205D01*
X015324Y021275D01*
X015245Y021275D01*
X015289Y021382D01*
X015289Y022000D01*
X015235Y022131D01*
X015134Y022232D01*
X015003Y022286D01*
X014860Y022286D01*
X014729Y022232D01*
X014647Y022150D01*
X014634Y022169D01*
X014582Y022222D01*
X014520Y022263D01*
X014451Y022292D01*
X014378Y022306D01*
X014370Y022306D01*
X014370Y021720D01*
X014312Y021720D01*
X014312Y022306D01*
X014304Y022306D01*
X014231Y022292D01*
X014162Y022263D01*
X014100Y022222D01*
X014048Y022169D01*
X014006Y022107D01*
X013978Y022039D01*
X013963Y021966D01*
X013963Y021720D01*
X014312Y021720D01*
X014312Y021662D01*
X013963Y021662D01*
X013963Y021584D01*
X013922Y021626D01*
X013711Y021626D01*
X013561Y021476D01*
X013561Y021265D01*
X013563Y021263D01*
X013498Y021198D01*
X013498Y020799D01*
X013568Y020728D01*
X013758Y020728D01*
X012616Y020728D01*
X012616Y020807D02*
X013498Y020807D01*
X013498Y020885D02*
X012616Y020885D01*
X012616Y020964D02*
X013498Y020964D01*
X013498Y021042D02*
X012616Y021042D01*
X012616Y021121D02*
X013498Y021121D01*
X013499Y021199D02*
X012616Y021199D01*
X012670Y021278D02*
X013561Y021278D01*
X013561Y021356D02*
X012748Y021356D01*
X012827Y021435D02*
X013561Y021435D01*
X013598Y021513D02*
X012905Y021513D01*
X012984Y021592D02*
X013677Y021592D01*
X013956Y021592D02*
X013963Y021592D01*
X013963Y021749D02*
X013141Y021749D01*
X013219Y021827D02*
X013963Y021827D01*
X013963Y021906D02*
X013298Y021906D01*
X013376Y021984D02*
X013967Y021984D01*
X013988Y022063D02*
X013455Y022063D01*
X013533Y022141D02*
X014029Y022141D01*
X014098Y022220D02*
X013612Y022220D01*
X013690Y022298D02*
X014264Y022298D01*
X014312Y022298D02*
X014370Y022298D01*
X014418Y022298D02*
X015416Y022298D01*
X015416Y022220D02*
X015146Y022220D01*
X015225Y022141D02*
X015416Y022141D01*
X015416Y022063D02*
X015263Y022063D01*
X015289Y021984D02*
X015416Y021984D01*
X015416Y021906D02*
X015289Y021906D01*
X015289Y021827D02*
X015416Y021827D01*
X015416Y021749D02*
X015289Y021749D01*
X015289Y021670D02*
X015450Y021670D01*
X015529Y021592D02*
X015289Y021592D01*
X015289Y021513D02*
X015607Y021513D01*
X015686Y021435D02*
X015289Y021435D01*
X015279Y021356D02*
X016164Y021356D01*
X016243Y021278D02*
X015246Y021278D01*
X015395Y021199D02*
X016296Y021199D01*
X016296Y021121D02*
X015395Y021121D01*
X015395Y021042D02*
X016296Y021042D01*
X016296Y020964D02*
X015395Y020964D01*
X015395Y020885D02*
X016296Y020885D01*
X016391Y020650D02*
X014005Y020650D01*
X014078Y020728D02*
X014268Y020728D01*
X014338Y020799D01*
X014338Y021198D01*
X014312Y021224D01*
X014312Y021662D01*
X014370Y021662D01*
X014370Y021075D01*
X014378Y021075D01*
X014451Y021090D01*
X014520Y021118D01*
X014555Y021141D01*
X014555Y020805D01*
X014625Y020735D01*
X015324Y020735D01*
X015395Y020805D01*
X016097Y021691D02*
X016151Y021745D01*
X016151Y021956D01*
X016056Y022051D01*
X016056Y022504D01*
X016188Y022636D01*
X016322Y022636D01*
X016471Y022785D01*
X016471Y022996D01*
X016322Y023146D01*
X016111Y023146D01*
X015961Y022996D01*
X015961Y022862D01*
X015736Y022637D01*
X015736Y022051D01*
X015736Y022557D01*
X015643Y022651D01*
X015563Y022731D01*
X013670Y022731D01*
X013576Y022637D01*
X012296Y021357D01*
X012296Y021240D01*
X012268Y021268D01*
X011656Y021268D01*
X011656Y021611D01*
X011176Y021691D01*
X011176Y023051D01*
X011437Y023200D01*
X011301Y023064D01*
X011190Y022795D01*
X011190Y022505D01*
X011301Y022236D01*
X011507Y022031D01*
X011775Y021919D01*
X012066Y021919D01*
X012334Y022031D01*
X012540Y022236D01*
X012651Y022505D01*
X012651Y022795D01*
X012540Y023064D01*
X012334Y023269D01*
X012089Y023371D01*
X017494Y023371D01*
X017494Y023250D01*
X017496Y023248D01*
X017496Y023153D01*
X017494Y023151D01*
X017494Y022973D01*
X017496Y022971D01*
X017496Y022858D01*
X017494Y022856D01*
X017494Y022678D01*
X017496Y022676D01*
X017496Y022563D01*
X017494Y022560D01*
X017494Y022382D01*
X017496Y022380D01*
X017496Y022267D01*
X017494Y022265D01*
X017494Y022087D01*
X017496Y022085D01*
X017496Y021972D01*
X017494Y021970D01*
X017494Y021792D01*
X017496Y021790D01*
X017496Y021677D01*
X017494Y021675D01*
X017494Y021497D01*
X017496Y021494D01*
X017496Y021435D01*
X016538Y021435D01*
X016616Y021357D02*
X016376Y021597D01*
X016283Y021691D01*
X016097Y021691D01*
X016151Y021749D02*
X017496Y021749D01*
X017494Y021827D02*
X016151Y021827D01*
X016151Y021906D02*
X017494Y021906D01*
X017496Y021984D02*
X016123Y021984D01*
X016056Y022063D02*
X017496Y022063D01*
X017494Y022141D02*
X016056Y022141D01*
X016056Y022220D02*
X017494Y022220D01*
X017496Y022298D02*
X016056Y022298D01*
X016056Y022377D02*
X017496Y022377D01*
X017494Y022455D02*
X016056Y022455D01*
X016086Y022534D02*
X017494Y022534D01*
X017496Y022612D02*
X016164Y022612D01*
X016377Y022691D02*
X017494Y022691D01*
X017494Y022769D02*
X016456Y022769D01*
X016471Y022848D02*
X017494Y022848D01*
X017496Y022926D02*
X016471Y022926D01*
X016463Y023005D02*
X017494Y023005D01*
X017494Y023083D02*
X016384Y023083D01*
X016216Y022891D02*
X015896Y022571D01*
X015896Y021851D01*
X015736Y022051D02*
X015736Y022051D01*
X015736Y022063D02*
X015736Y022063D01*
X015736Y022141D02*
X015736Y022141D01*
X015736Y022220D02*
X015736Y022220D01*
X015736Y022298D02*
X015736Y022298D01*
X015736Y022377D02*
X015736Y022377D01*
X015736Y022455D02*
X015736Y022455D01*
X015736Y022534D02*
X015736Y022534D01*
X015736Y022612D02*
X015681Y022612D01*
X015602Y022691D02*
X015790Y022691D01*
X015869Y022769D02*
X012651Y022769D01*
X012651Y022691D02*
X013630Y022691D01*
X013552Y022612D02*
X012651Y022612D01*
X012651Y022534D02*
X013473Y022534D01*
X013395Y022455D02*
X012631Y022455D01*
X012598Y022377D02*
X013316Y022377D01*
X013238Y022298D02*
X012566Y022298D01*
X012524Y022220D02*
X013159Y022220D01*
X013081Y022141D02*
X012445Y022141D01*
X012367Y022063D02*
X013002Y022063D01*
X012924Y021984D02*
X012223Y021984D01*
X012610Y021670D02*
X011298Y021670D01*
X011176Y021749D02*
X012688Y021749D01*
X012767Y021827D02*
X011176Y021827D01*
X011176Y021906D02*
X012845Y021906D01*
X013062Y021670D02*
X014312Y021670D01*
X014312Y021592D02*
X014370Y021592D01*
X014370Y021513D02*
X014312Y021513D01*
X014312Y021435D02*
X014370Y021435D01*
X014370Y021356D02*
X014312Y021356D01*
X014312Y021278D02*
X014370Y021278D01*
X014370Y021199D02*
X014337Y021199D01*
X014338Y021121D02*
X014370Y021121D01*
X014338Y021042D02*
X014555Y021042D01*
X014555Y020964D02*
X014338Y020964D01*
X014338Y020885D02*
X014555Y020885D01*
X014555Y020807D02*
X014338Y020807D01*
X014524Y021121D02*
X014555Y021121D01*
X014370Y021749D02*
X014312Y021749D01*
X014312Y021827D02*
X014370Y021827D01*
X014370Y021906D02*
X014312Y021906D01*
X014312Y021984D02*
X014370Y021984D01*
X014370Y022063D02*
X014312Y022063D01*
X014312Y022141D02*
X014370Y022141D01*
X014370Y022220D02*
X014312Y022220D01*
X014584Y022220D02*
X014717Y022220D01*
X015416Y022377D02*
X013769Y022377D01*
X013918Y020998D02*
X013918Y020789D01*
X013758Y020728D02*
X013758Y020723D01*
X013852Y020629D01*
X012531Y021592D02*
X011656Y021592D01*
X011656Y021513D02*
X012453Y021513D01*
X012374Y021435D02*
X011656Y021435D01*
X011656Y021356D02*
X012296Y021356D01*
X012296Y021278D02*
X011656Y021278D01*
X011618Y021984D02*
X011176Y021984D01*
X011176Y022063D02*
X011474Y022063D01*
X011396Y022141D02*
X011176Y022141D01*
X011176Y022220D02*
X011317Y022220D01*
X011275Y022298D02*
X011176Y022298D01*
X011176Y022377D02*
X011243Y022377D01*
X011210Y022455D02*
X011176Y022455D01*
X011176Y022534D02*
X011190Y022534D01*
X011190Y022612D02*
X011176Y022612D01*
X011176Y022691D02*
X011190Y022691D01*
X011190Y022769D02*
X011176Y022769D01*
X011176Y022848D02*
X011212Y022848D01*
X011244Y022926D02*
X011176Y022926D01*
X011176Y023005D02*
X011277Y023005D01*
X011234Y023083D02*
X011321Y023083D01*
X011371Y023162D02*
X011399Y023162D01*
X012214Y023319D02*
X017494Y023319D01*
X017496Y023240D02*
X012363Y023240D01*
X012442Y023162D02*
X017496Y023162D01*
X016048Y023083D02*
X012520Y023083D01*
X012564Y023005D02*
X015970Y023005D01*
X015961Y022926D02*
X012597Y022926D01*
X012629Y022848D02*
X015947Y022848D01*
X016303Y021670D02*
X017494Y021670D01*
X017494Y021592D02*
X016381Y021592D01*
X016460Y021513D02*
X017494Y021513D01*
X017496Y021435D02*
X017489Y021428D01*
X017489Y020778D01*
X017415Y020853D01*
X017415Y020970D01*
X017010Y020970D01*
X017010Y021040D01*
X017415Y021040D01*
X017415Y021173D01*
X017405Y021209D01*
X017387Y021241D01*
X017361Y021267D01*
X017329Y021285D01*
X017293Y021295D01*
X017010Y021295D01*
X017010Y021040D01*
X016940Y021040D01*
X016940Y021295D01*
X016656Y021295D01*
X016621Y021285D01*
X016616Y021283D01*
X016616Y021357D01*
X016616Y021356D02*
X017489Y021356D01*
X017489Y021278D02*
X017342Y021278D01*
X017408Y021199D02*
X017489Y021199D01*
X017489Y021121D02*
X017415Y021121D01*
X017415Y021042D02*
X017489Y021042D01*
X017489Y020964D02*
X017415Y020964D01*
X017415Y020885D02*
X017489Y020885D01*
X017489Y020807D02*
X017461Y020807D01*
X017010Y021042D02*
X016940Y021042D01*
X016940Y021121D02*
X017010Y021121D01*
X017010Y021199D02*
X016940Y021199D01*
X016940Y021278D02*
X017010Y021278D01*
X017056Y018331D02*
X016936Y018331D01*
X016456Y017851D01*
X016136Y018091D02*
X015896Y017851D01*
X016616Y017051D02*
X016856Y017291D01*
X016856Y017531D01*
X016616Y017051D02*
X016616Y016491D01*
X016536Y016411D01*
X016356Y016411D01*
X015976Y016031D01*
X015976Y015371D01*
X015536Y015371D01*
X015416Y015491D01*
X015234Y015312D02*
X013384Y015312D01*
X013305Y015233D02*
X015447Y015233D01*
X015161Y015390D02*
X013597Y015390D01*
X013675Y015469D02*
X015161Y015469D01*
X015161Y015547D02*
X013691Y015547D01*
X013691Y015626D02*
X015191Y015626D01*
X015269Y015704D02*
X013683Y015704D01*
X013605Y015783D02*
X015816Y015783D01*
X015816Y015861D02*
X013573Y015861D01*
X013652Y015940D02*
X013906Y015940D01*
X014056Y016151D02*
X013636Y016151D01*
X013116Y015631D01*
X011976Y015631D01*
X011956Y015611D01*
X011696Y015351D02*
X013196Y015351D01*
X013436Y015591D01*
X012900Y014917D02*
X012900Y014694D01*
X012776Y014571D01*
X011861Y015155D02*
X015966Y015155D01*
X016044Y015076D02*
X011576Y015076D01*
X011576Y014998D02*
X016123Y014998D01*
X016216Y015131D02*
X015976Y015371D01*
X016136Y015451D02*
X016296Y015291D01*
X016696Y015291D01*
X016856Y015131D01*
X016856Y014251D01*
X016296Y013691D01*
X016296Y013131D01*
X016376Y013051D01*
X016296Y012611D02*
X016296Y012251D01*
X016616Y011931D01*
X016936Y011931D01*
X017016Y011851D01*
X016127Y011544D02*
X012850Y011544D01*
X012929Y011622D02*
X015849Y011622D01*
X015775Y011701D02*
X012971Y011701D01*
X012971Y011779D02*
X015743Y011779D01*
X015736Y011858D02*
X012971Y011858D01*
X012966Y011936D02*
X015749Y011936D01*
X016296Y012611D02*
X016842Y013156D01*
X016842Y013432D01*
X016136Y013585D02*
X011576Y013585D01*
X011576Y013663D02*
X016136Y013663D01*
X016136Y013742D02*
X011576Y013742D01*
X011576Y013820D02*
X016200Y013820D01*
X016278Y013899D02*
X011576Y013899D01*
X011576Y013977D02*
X016269Y013977D01*
X016190Y014056D02*
X011576Y014056D01*
X011576Y014134D02*
X016141Y014134D01*
X016141Y014213D02*
X011576Y014213D01*
X011576Y014291D02*
X016141Y014291D01*
X016195Y014370D02*
X011576Y014370D01*
X011576Y014448D02*
X016273Y014448D01*
X016426Y014527D02*
X011576Y014527D01*
X011576Y014605D02*
X016505Y014605D01*
X016470Y014571D02*
X016470Y014571D01*
X016536Y014684D02*
X011576Y014684D01*
X011576Y014762D02*
X016536Y014762D01*
X016536Y014841D02*
X011576Y014841D01*
X011576Y014919D02*
X016521Y014919D01*
X016696Y014971D02*
X016536Y015131D01*
X016216Y015131D01*
X016696Y014971D02*
X016696Y014571D01*
X016536Y014411D01*
X016536Y014351D01*
X016396Y014211D01*
X015816Y015547D02*
X015671Y015547D01*
X015642Y015626D02*
X015816Y015626D01*
X015816Y015704D02*
X015563Y015704D01*
X015416Y015851D02*
X015416Y015931D01*
X015816Y015940D02*
X014206Y015940D01*
X014285Y016018D02*
X015816Y016018D01*
X015816Y016097D02*
X014311Y016097D01*
X014311Y016175D02*
X015895Y016175D01*
X015973Y016254D02*
X014311Y016254D01*
X014235Y016332D02*
X016052Y016332D01*
X016130Y016411D02*
X011416Y016411D01*
X011416Y016489D02*
X016209Y016489D01*
X016196Y016477D02*
X016196Y016477D01*
X016287Y016568D02*
X011416Y016568D01*
X011416Y016646D02*
X016456Y016646D01*
X016456Y016725D02*
X011416Y016725D01*
X011416Y016803D02*
X016456Y016803D01*
X014936Y016171D02*
X014856Y016171D01*
X012645Y016882D02*
X012548Y016882D01*
X012076Y016882D02*
X012036Y016882D01*
X012056Y016731D02*
X012056Y016651D01*
X011565Y016882D02*
X011416Y016882D01*
X011416Y016960D02*
X011543Y016960D01*
X011543Y017039D02*
X011416Y017039D01*
X011416Y017117D02*
X011543Y017117D01*
X011543Y017196D02*
X011416Y017196D01*
X011416Y017274D02*
X011543Y017274D01*
X011543Y017353D02*
X011465Y017353D01*
X011448Y017562D02*
X011256Y017371D01*
X011256Y010171D01*
X012440Y008987D01*
X012671Y008987D01*
X012841Y008796D02*
X016398Y008796D01*
X016415Y008756D02*
X016136Y008477D01*
X016136Y007731D01*
X016121Y007716D01*
X016121Y007505D01*
X016271Y007356D01*
X016482Y007356D01*
X016631Y007505D01*
X016631Y007533D01*
X016759Y007481D01*
X016954Y007481D01*
X017134Y007555D01*
X017272Y007693D01*
X017346Y007873D01*
X017346Y008068D01*
X017272Y008248D01*
X017134Y008386D01*
X016954Y008461D01*
X016759Y008461D01*
X016579Y008386D01*
X016456Y008264D01*
X016456Y008344D01*
X016641Y008529D01*
X016759Y008481D01*
X016954Y008481D01*
X017134Y008555D01*
X017272Y008693D01*
X017346Y008873D01*
X017346Y009068D01*
X017272Y009248D01*
X017134Y009386D01*
X016954Y009461D01*
X016759Y009461D01*
X016579Y009386D01*
X016441Y009248D01*
X016366Y009068D01*
X016366Y008873D01*
X016415Y008756D01*
X016377Y008718D02*
X012767Y008718D01*
X012806Y008639D02*
X016299Y008639D01*
X016220Y008561D02*
X012806Y008561D01*
X012806Y008482D02*
X016142Y008482D01*
X016136Y008404D02*
X012742Y008404D01*
X012664Y008325D02*
X016136Y008325D01*
X016136Y008247D02*
X012366Y008247D01*
X012439Y008325D02*
X012252Y008325D01*
X012311Y008404D02*
X012360Y008404D01*
X012551Y008573D02*
X012551Y008636D01*
X011096Y010091D01*
X011096Y017771D01*
X011256Y017931D01*
X011576Y017931D01*
X011813Y018167D01*
X011813Y018430D01*
X012325Y018430D02*
X012335Y018440D01*
X011800Y017562D02*
X011448Y017562D01*
X011416Y015704D02*
X011444Y015704D01*
X011975Y012878D02*
X012298Y012878D01*
X012219Y012800D02*
X012053Y012800D01*
X012132Y012721D02*
X012141Y012721D01*
X012136Y012491D02*
X011816Y012811D01*
X011676Y012811D01*
X011736Y012331D02*
X011576Y012331D01*
X011576Y010331D01*
X011856Y010051D01*
X012688Y010051D01*
X012892Y009895D02*
X016049Y009895D01*
X015970Y009974D02*
X012943Y009974D01*
X012943Y010052D02*
X015892Y010052D01*
X015813Y010131D02*
X016136Y009808D01*
X016103Y009738D02*
X012929Y009738D01*
X012931Y009660D02*
X016081Y009660D01*
X016081Y009581D02*
X012931Y009581D01*
X012909Y009503D02*
X016083Y009503D01*
X016162Y009424D02*
X012831Y009424D01*
X012830Y009189D02*
X016416Y009189D01*
X016384Y009110D02*
X012909Y009110D01*
X012926Y009032D02*
X016366Y009032D01*
X016366Y008953D02*
X012926Y008953D01*
X012919Y008875D02*
X016366Y008875D01*
X016460Y009267D02*
X012386Y009267D01*
X012464Y009189D02*
X012512Y009189D01*
X012522Y009424D02*
X012229Y009424D01*
X012307Y009346D02*
X016539Y009346D01*
X016511Y009424D02*
X016671Y009424D01*
X016651Y009503D02*
X016589Y009503D01*
X016816Y009503D02*
X016896Y009503D01*
X016896Y009461D02*
X016896Y009461D01*
X016896Y009931D01*
X017366Y009931D01*
X017366Y009930D01*
X017354Y009851D01*
X017329Y009775D01*
X017292Y009703D01*
X017245Y009638D01*
X017189Y009582D01*
X017124Y009534D01*
X017052Y009498D01*
X016976Y009473D01*
X016896Y009461D01*
X016896Y009581D02*
X016816Y009581D01*
X016816Y009660D02*
X016896Y009660D01*
X016896Y009738D02*
X016816Y009738D01*
X016816Y009817D02*
X016896Y009817D01*
X016896Y009895D02*
X016816Y009895D01*
X016896Y009974D02*
X017489Y009974D01*
X017489Y010052D02*
X017360Y010052D01*
X017366Y010011D02*
X017366Y010011D01*
X017361Y009895D02*
X017489Y009895D01*
X017489Y009817D02*
X017343Y009817D01*
X017310Y009738D02*
X017489Y009738D01*
X017489Y009660D02*
X017261Y009660D01*
X017188Y009581D02*
X017489Y009581D01*
X017489Y009503D02*
X017062Y009503D01*
X017041Y009424D02*
X017489Y009424D01*
X017489Y009346D02*
X017174Y009346D01*
X017253Y009267D02*
X017489Y009267D01*
X017489Y009189D02*
X017296Y009189D01*
X017329Y009110D02*
X017489Y009110D01*
X017489Y009032D02*
X017346Y009032D01*
X017346Y008953D02*
X017489Y008953D01*
X017489Y008875D02*
X017346Y008875D01*
X017314Y008796D02*
X017489Y008796D01*
X017489Y008718D02*
X017282Y008718D01*
X017218Y008639D02*
X017489Y008639D01*
X017489Y008561D02*
X017139Y008561D01*
X017091Y008404D02*
X017489Y008404D01*
X017489Y008482D02*
X016958Y008482D01*
X016755Y008482D02*
X016594Y008482D01*
X016622Y008404D02*
X016516Y008404D01*
X016518Y008325D02*
X016456Y008325D01*
X016296Y008411D02*
X016856Y008971D01*
X017195Y008325D02*
X017489Y008325D01*
X017489Y008247D02*
X017272Y008247D01*
X017305Y008168D02*
X017489Y008168D01*
X017489Y008090D02*
X017337Y008090D01*
X017346Y008011D02*
X017489Y008011D01*
X017489Y007933D02*
X017346Y007933D01*
X017338Y007854D02*
X017489Y007854D01*
X017489Y007776D02*
X017306Y007776D01*
X017273Y007697D02*
X017489Y007697D01*
X017489Y007619D02*
X017197Y007619D01*
X017098Y007540D02*
X017489Y007540D01*
X017489Y007462D02*
X016588Y007462D01*
X016510Y007383D02*
X017489Y007383D01*
X017489Y007305D02*
X011336Y007305D01*
X011336Y007383D02*
X016243Y007383D01*
X016165Y007462D02*
X011336Y007462D01*
X011336Y007540D02*
X016121Y007540D01*
X016121Y007619D02*
X011336Y007619D01*
X011336Y007697D02*
X012489Y007697D01*
X012411Y007776D02*
X011336Y007776D01*
X011336Y007854D02*
X012306Y007854D01*
X012376Y008011D02*
X012296Y008091D01*
X011256Y008091D01*
X011176Y008011D01*
X011176Y005771D01*
X011496Y005451D01*
X011416Y005531D01*
X011143Y005578D02*
X011096Y005578D01*
X011096Y005499D02*
X011126Y005499D01*
X011126Y005421D02*
X011096Y005421D01*
X011096Y005342D02*
X011141Y005342D01*
X011173Y005264D02*
X011096Y005264D01*
X011096Y005185D02*
X011238Y005185D01*
X011360Y005107D02*
X011096Y005107D01*
X011096Y005028D02*
X012740Y005028D01*
X012740Y004950D02*
X011096Y004950D01*
X011096Y004871D02*
X011411Y004871D01*
X011383Y004866D02*
X011312Y004836D01*
X011248Y004794D01*
X011193Y004739D01*
X011151Y004675D01*
X011121Y004604D01*
X011107Y004531D01*
X011456Y004531D01*
X011456Y004880D01*
X011383Y004866D01*
X011456Y004871D02*
X011536Y004871D01*
X011536Y004880D02*
X011536Y004531D01*
X011456Y004531D01*
X011456Y004451D01*
X011107Y004451D01*
X011121Y004377D01*
X011151Y004306D01*
X011193Y004242D01*
X011248Y004188D01*
X011312Y004145D01*
X011383Y004116D01*
X011456Y004101D01*
X011456Y004451D01*
X011536Y004451D01*
X011536Y004531D01*
X011886Y004531D01*
X011871Y004604D01*
X011842Y004675D01*
X011799Y004739D01*
X011745Y004794D01*
X011681Y004836D01*
X011610Y004866D01*
X011536Y004880D01*
X011582Y004871D02*
X013290Y004871D01*
X013290Y004950D02*
X013370Y004950D01*
X013370Y004901D02*
X013370Y006001D01*
X013799Y006001D01*
X013834Y005991D01*
X013866Y005973D01*
X013892Y005947D01*
X013911Y005915D01*
X013920Y005879D01*
X013920Y004901D01*
X013370Y004901D01*
X013370Y004871D02*
X016770Y004871D01*
X016770Y004950D02*
X016850Y004950D01*
X016850Y004901D02*
X016850Y006001D01*
X017279Y006001D01*
X017314Y005991D01*
X017346Y005973D01*
X017372Y005947D01*
X017391Y005915D01*
X017400Y005879D01*
X017400Y004901D01*
X016850Y004901D01*
X016850Y004871D02*
X017494Y004871D01*
X017496Y004793D02*
X017400Y004793D01*
X017400Y004714D02*
X017494Y004714D01*
X017494Y004636D02*
X017400Y004636D01*
X017400Y004557D02*
X017494Y004557D01*
X017496Y004479D02*
X017400Y004479D01*
X017400Y004400D02*
X017494Y004400D01*
X017494Y004322D02*
X017400Y004322D01*
X017400Y004243D02*
X017496Y004243D01*
X017496Y004165D02*
X017400Y004165D01*
X017400Y004086D02*
X017494Y004086D01*
X017494Y004950D02*
X017400Y004950D01*
X017400Y005028D02*
X017496Y005028D01*
X017496Y005107D02*
X017400Y005107D01*
X017400Y005185D02*
X017494Y005185D01*
X017494Y005264D02*
X017400Y005264D01*
X017400Y005342D02*
X017496Y005342D01*
X017496Y005421D02*
X017400Y005421D01*
X017400Y005499D02*
X017494Y005499D01*
X017494Y005578D02*
X017400Y005578D01*
X017400Y005656D02*
X017496Y005656D01*
X017494Y005735D02*
X017400Y005735D01*
X017400Y005813D02*
X017494Y005813D01*
X017494Y005892D02*
X017397Y005892D01*
X017348Y005970D02*
X017489Y005970D01*
X017489Y006049D02*
X011336Y006049D01*
X011336Y006127D02*
X017489Y006127D01*
X017489Y006206D02*
X011336Y006206D01*
X011336Y006284D02*
X017489Y006284D01*
X017489Y006363D02*
X011336Y006363D01*
X011336Y006441D02*
X017489Y006441D01*
X017489Y006520D02*
X011336Y006520D01*
X011336Y006598D02*
X017489Y006598D01*
X017489Y006677D02*
X011336Y006677D01*
X011336Y006755D02*
X017489Y006755D01*
X017489Y006834D02*
X011336Y006834D01*
X011336Y006912D02*
X017489Y006912D01*
X017489Y006991D02*
X011336Y006991D01*
X011336Y007069D02*
X017489Y007069D01*
X017489Y007148D02*
X011336Y007148D01*
X011336Y007226D02*
X017489Y007226D01*
X016456Y007611D02*
X016296Y007771D01*
X016296Y008411D01*
X016136Y008168D02*
X012739Y008168D01*
X012818Y008090D02*
X016136Y008090D01*
X016136Y008011D02*
X012871Y008011D01*
X012871Y007933D02*
X016136Y007933D01*
X016136Y007854D02*
X012871Y007854D01*
X012822Y007776D02*
X016136Y007776D01*
X016121Y007697D02*
X012744Y007697D01*
X012616Y007931D02*
X012536Y008011D01*
X012376Y008011D01*
X012056Y008491D02*
X011256Y008491D01*
X011736Y010916D02*
X012205Y010916D01*
X012126Y010994D02*
X011736Y010994D01*
X011736Y011073D02*
X012048Y011073D01*
X011976Y011151D02*
X011736Y011151D01*
X011736Y011230D02*
X011976Y011230D01*
X011976Y011308D02*
X011736Y011308D01*
X011736Y011387D02*
X011976Y011387D01*
X011976Y011465D02*
X011736Y011465D01*
X011736Y011544D02*
X011976Y011544D01*
X011976Y011622D02*
X011736Y011622D01*
X011736Y011701D02*
X011976Y011701D01*
X011976Y011779D02*
X011736Y011779D01*
X011736Y011858D02*
X011976Y011858D01*
X011976Y011936D02*
X011736Y011936D01*
X011736Y012015D02*
X011976Y012015D01*
X011976Y012093D02*
X011860Y012093D01*
X011938Y012172D02*
X011976Y012172D01*
X012296Y012172D02*
X012334Y012172D01*
X012296Y012093D02*
X012413Y012093D01*
X012296Y012015D02*
X012600Y012015D01*
X012521Y011936D02*
X012296Y011936D01*
X012296Y011858D02*
X012461Y011858D01*
X012536Y012331D02*
X012776Y012571D01*
X013656Y012571D01*
X013816Y012411D01*
X013976Y012411D01*
X014056Y012491D01*
X014696Y012491D01*
X014091Y012015D02*
X012966Y012015D01*
X012966Y012093D02*
X013667Y012093D01*
X013589Y012172D02*
X013034Y012172D01*
X013112Y012250D02*
X013510Y012250D01*
X017256Y010288D02*
X017489Y010288D01*
X017489Y010366D02*
X017438Y010366D01*
X017489Y010209D02*
X017307Y010209D01*
X017340Y010131D02*
X017489Y010131D01*
X015816Y007771D02*
X015896Y007691D01*
X016376Y007611D02*
X016456Y007611D01*
X015816Y006411D02*
X015576Y006411D01*
X016272Y005970D02*
X013868Y005970D01*
X013917Y005892D02*
X016224Y005892D01*
X016220Y005813D02*
X013920Y005813D01*
X013920Y005735D02*
X016220Y005735D01*
X016220Y005656D02*
X013920Y005656D01*
X013920Y005578D02*
X016220Y005578D01*
X016220Y005499D02*
X013920Y005499D01*
X013920Y005421D02*
X016220Y005421D01*
X016220Y005342D02*
X013920Y005342D01*
X013920Y005264D02*
X016220Y005264D01*
X016220Y005185D02*
X013920Y005185D01*
X013920Y005107D02*
X016220Y005107D01*
X016220Y005028D02*
X013920Y005028D01*
X013920Y004950D02*
X016220Y004950D01*
X016220Y004793D02*
X013920Y004793D01*
X013920Y004714D02*
X016220Y004714D01*
X016220Y004636D02*
X013920Y004636D01*
X013920Y004557D02*
X016220Y004557D01*
X016220Y004479D02*
X013920Y004479D01*
X013920Y004400D02*
X016220Y004400D01*
X016220Y004322D02*
X013920Y004322D01*
X013920Y004243D02*
X016220Y004243D01*
X016220Y004165D02*
X013920Y004165D01*
X013920Y004086D02*
X016220Y004086D01*
X016770Y005028D02*
X016850Y005028D01*
X016850Y005107D02*
X016770Y005107D01*
X016770Y005185D02*
X016850Y005185D01*
X016850Y005264D02*
X016770Y005264D01*
X016770Y005342D02*
X016850Y005342D01*
X016850Y005421D02*
X016770Y005421D01*
X016770Y005499D02*
X016850Y005499D01*
X016850Y005578D02*
X016770Y005578D01*
X016770Y005656D02*
X016850Y005656D01*
X016850Y005735D02*
X016770Y005735D01*
X016770Y005813D02*
X016850Y005813D01*
X016850Y005892D02*
X016770Y005892D01*
X016770Y005970D02*
X016850Y005970D01*
X014136Y006331D02*
X014056Y006331D01*
X013370Y005970D02*
X013290Y005970D01*
X013290Y005892D02*
X013370Y005892D01*
X013370Y005813D02*
X013290Y005813D01*
X013290Y005735D02*
X013370Y005735D01*
X013370Y005656D02*
X013290Y005656D01*
X013290Y005578D02*
X013370Y005578D01*
X013370Y005499D02*
X013290Y005499D01*
X013290Y005421D02*
X013370Y005421D01*
X013370Y005342D02*
X013290Y005342D01*
X013290Y005264D02*
X013370Y005264D01*
X013370Y005185D02*
X013290Y005185D01*
X013290Y005107D02*
X013370Y005107D01*
X013370Y005028D02*
X013290Y005028D01*
X012740Y005107D02*
X011633Y005107D01*
X011754Y005185D02*
X012740Y005185D01*
X012740Y005264D02*
X011819Y005264D01*
X011852Y005342D02*
X012740Y005342D01*
X012740Y005421D02*
X011866Y005421D01*
X011866Y005499D02*
X012740Y005499D01*
X012740Y005578D02*
X011844Y005578D01*
X011812Y005656D02*
X012740Y005656D01*
X012740Y005735D02*
X011735Y005735D01*
X011588Y005813D02*
X012740Y005813D01*
X012744Y005892D02*
X011336Y005892D01*
X011336Y005970D02*
X012792Y005970D01*
X012740Y004793D02*
X011746Y004793D01*
X011816Y004714D02*
X012740Y004714D01*
X012740Y004636D02*
X011858Y004636D01*
X011881Y004557D02*
X012740Y004557D01*
X012740Y004479D02*
X011536Y004479D01*
X011536Y004451D02*
X011886Y004451D01*
X011871Y004377D01*
X011842Y004306D01*
X011799Y004242D01*
X011745Y004188D01*
X011681Y004145D01*
X011610Y004116D01*
X011536Y004101D01*
X011536Y004451D01*
X011536Y004400D02*
X011456Y004400D01*
X011456Y004322D02*
X011536Y004322D01*
X011536Y004243D02*
X011456Y004243D01*
X011456Y004165D02*
X011536Y004165D01*
X011711Y004165D02*
X012740Y004165D01*
X012740Y004243D02*
X011800Y004243D01*
X011848Y004322D02*
X012740Y004322D01*
X012740Y004400D02*
X011876Y004400D01*
X011536Y004557D02*
X011456Y004557D01*
X011456Y004479D02*
X011096Y004479D01*
X011096Y004557D02*
X011112Y004557D01*
X011096Y004636D02*
X011134Y004636D01*
X011096Y004714D02*
X011177Y004714D01*
X011247Y004793D02*
X011096Y004793D01*
X011456Y004793D02*
X011536Y004793D01*
X011536Y004714D02*
X011456Y004714D01*
X011456Y004636D02*
X011536Y004636D01*
X011144Y004322D02*
X011096Y004322D01*
X011096Y004400D02*
X011117Y004400D01*
X011096Y004243D02*
X011193Y004243D01*
X011282Y004165D02*
X011096Y004165D01*
X011096Y004086D02*
X012740Y004086D01*
X011405Y005813D02*
X011360Y005813D01*
X008744Y009302D02*
X008719Y009299D01*
X008719Y009299D01*
X008661Y009299D01*
X008661Y009299D01*
X008558Y009299D01*
X008419Y009218D01*
X008338Y009079D01*
X008338Y007994D01*
X008286Y008047D01*
X008090Y008047D01*
X008090Y009198D01*
X008220Y009329D01*
X008442Y009329D01*
X008457Y009314D01*
X008660Y009314D01*
X008803Y009457D01*
X008803Y009660D01*
X008809Y009660D01*
X008803Y009660D02*
X008660Y009804D01*
X008457Y009804D01*
X008313Y009660D01*
X002708Y009660D01*
X002708Y009738D02*
X008391Y009738D01*
X008313Y009660D02*
X008313Y009629D01*
X008096Y009629D01*
X008008Y009541D01*
X007790Y009323D01*
X007790Y008047D01*
X007594Y008047D01*
X007530Y007982D01*
X007530Y007591D01*
X007594Y007527D01*
X008286Y007527D01*
X008338Y007579D01*
X008338Y006494D01*
X008286Y006547D01*
X007594Y006547D01*
X007530Y006482D01*
X007530Y006437D01*
X006933Y006437D01*
X006460Y006909D01*
X005616Y006909D01*
X005296Y006589D01*
X004115Y006589D01*
X004060Y006644D01*
X003857Y006644D01*
X003713Y006500D01*
X003713Y006297D01*
X003857Y006154D01*
X004060Y006154D01*
X004195Y006289D01*
X004662Y006289D01*
X004553Y006180D01*
X004553Y006109D01*
X003188Y006109D01*
X003188Y006457D01*
X003260Y006529D01*
X003348Y006617D01*
X003348Y006669D01*
X003491Y006669D01*
X003555Y006733D01*
X003555Y007091D01*
X003608Y006964D01*
X003706Y006866D01*
X003834Y006813D01*
X003972Y006813D01*
X004100Y006866D01*
X004182Y006948D01*
X004200Y006920D01*
X004253Y006868D01*
X004315Y006826D01*
X004383Y006798D01*
X004456Y006783D01*
X004465Y006783D01*
X004465Y007370D01*
X004522Y007370D01*
X004522Y006783D01*
X004531Y006783D01*
X004604Y006798D01*
X004672Y006826D01*
X004734Y006868D01*
X004771Y006904D01*
X004771Y006740D01*
X004835Y006676D01*
X005241Y006676D01*
X005306Y006740D01*
X005306Y006894D01*
X005405Y006994D01*
X005540Y006994D01*
X005683Y007137D01*
X005683Y007340D01*
X005540Y007484D01*
X005337Y007484D01*
X005306Y007453D01*
X005306Y007737D01*
X005241Y007802D01*
X005188Y007802D01*
X005188Y007941D01*
X004628Y008501D01*
X004628Y008914D01*
X004660Y008914D01*
X004803Y009057D01*
X004803Y009260D01*
X004660Y009404D01*
X004457Y009404D01*
X004313Y009260D01*
X004313Y009057D01*
X004328Y009042D01*
X004328Y008377D01*
X004416Y008289D01*
X004888Y007817D01*
X004888Y007802D01*
X004835Y007802D01*
X004834Y007801D01*
X004828Y007816D01*
X004787Y007877D01*
X004734Y007930D01*
X004672Y007971D01*
X004604Y008000D01*
X004531Y008014D01*
X004522Y008014D01*
X004522Y007428D01*
X004465Y007428D01*
X004465Y008014D01*
X004456Y008014D01*
X004383Y008000D01*
X004315Y007971D01*
X004253Y007930D01*
X004200Y007877D01*
X004182Y007850D01*
X004100Y007931D01*
X003972Y007984D01*
X003834Y007984D01*
X003706Y007931D01*
X003608Y007834D01*
X003555Y007706D01*
X003555Y007730D01*
X003491Y007794D01*
X003428Y007794D01*
X003428Y007861D01*
X003340Y007949D01*
X003180Y008109D01*
X002940Y008109D01*
X002708Y008341D01*
X002708Y009966D01*
X002788Y009886D01*
X002964Y009813D01*
X003155Y009813D01*
X003332Y009886D01*
X003467Y010021D01*
X003540Y010198D01*
X003540Y010389D01*
X003467Y010565D01*
X003343Y010689D01*
X003660Y010689D01*
X003748Y010777D01*
X004068Y011097D01*
X004068Y011522D01*
X004163Y011617D01*
X004163Y011820D01*
X004020Y011964D01*
X003923Y011964D01*
X003923Y012140D01*
X003780Y012284D01*
X003577Y012284D01*
X003442Y012149D01*
X003430Y012149D01*
X003447Y012167D01*
X003494Y012232D01*
X003531Y012303D01*
X003556Y012379D01*
X003568Y012459D01*
X003098Y012459D01*
X003098Y012539D01*
X003018Y012539D01*
X003018Y012459D01*
X002548Y012459D01*
X002548Y012459D01*
X002561Y012379D01*
X002586Y012303D01*
X002622Y012232D01*
X002669Y012167D01*
X002687Y012149D01*
X002536Y012149D01*
X002448Y012061D01*
X002405Y012018D01*
X002405Y016466D01*
X002480Y016541D01*
X002480Y016719D01*
X002422Y016778D01*
X002480Y016837D01*
X002480Y017015D01*
X002422Y017073D01*
X002480Y017132D01*
X002480Y017310D01*
X002422Y017369D01*
X002480Y017427D01*
X002480Y017605D01*
X002422Y017664D01*
X002480Y017722D01*
X002480Y017900D01*
X002422Y017959D01*
X002480Y018018D01*
X002480Y018196D01*
X002422Y018254D01*
X002480Y018313D01*
X002480Y018461D01*
X002494Y018461D01*
X002494Y017629D01*
X003044Y017629D01*
X003044Y017549D01*
X002494Y017549D01*
X002494Y016570D01*
X002504Y016535D01*
X002522Y016503D01*
X002548Y016477D01*
X002580Y016458D01*
X002616Y016449D01*
X003044Y016449D01*
X003044Y017549D01*
X003124Y017549D01*
X003124Y016449D01*
X003553Y016449D01*
X003588Y016458D01*
X003620Y016477D01*
X003646Y016503D01*
X003665Y016535D01*
X003674Y016570D01*
X003674Y017549D01*
X003124Y017549D01*
X003124Y017629D01*
X003674Y017629D01*
X003674Y018459D01*
X005974Y018459D01*
X005974Y017629D01*
X006524Y017629D01*
X006524Y017549D01*
X005974Y017549D01*
X005974Y016570D01*
X005984Y016535D01*
X006002Y016503D01*
X006028Y016477D01*
X006060Y016458D01*
X006096Y016449D01*
X006524Y016449D01*
X006524Y017549D01*
X006604Y017549D01*
X006604Y016449D01*
X007033Y016449D01*
X007068Y016458D01*
X007100Y016477D01*
X007126Y016503D01*
X007145Y016535D01*
X007154Y016570D01*
X007154Y017549D01*
X006604Y017549D01*
X006604Y017629D01*
X007154Y017629D01*
X007154Y018461D01*
X008616Y018461D01*
X008617Y018460D01*
X008674Y018461D01*
X008675Y018461D01*
X008711Y018457D01*
X008775Y018422D01*
X008784Y018406D01*
X008776Y018299D01*
X008777Y018055D01*
X008773Y018073D01*
X008744Y018144D01*
X008701Y018207D01*
X008647Y018262D01*
X008583Y018304D01*
X008512Y018334D01*
X008438Y018349D01*
X008438Y017999D01*
X008358Y017999D01*
X008358Y017919D01*
X008009Y017919D01*
X008023Y017845D01*
X008053Y017774D01*
X008095Y017710D01*
X008150Y017656D01*
X008214Y017613D01*
X008285Y017584D01*
X008358Y017569D01*
X008358Y017919D01*
X008438Y017919D01*
X008438Y017569D01*
X008512Y017584D01*
X008583Y017613D01*
X008647Y017656D01*
X008701Y017710D01*
X008744Y017774D01*
X008773Y017845D01*
X008777Y017866D01*
X008787Y015302D01*
X008700Y015389D01*
X008628Y015461D01*
X008628Y016720D01*
X008703Y016795D01*
X008758Y016927D01*
X008758Y017070D01*
X008703Y017203D01*
X008602Y017304D01*
X008470Y017359D01*
X008327Y017359D01*
X008194Y017304D01*
X008093Y017203D01*
X008038Y017070D01*
X008038Y016927D01*
X008093Y016795D01*
X008194Y016694D01*
X008327Y016639D01*
X008328Y016639D01*
X008328Y015337D01*
X008488Y015177D01*
X008488Y015061D01*
X008336Y014909D01*
X008220Y014909D01*
X008140Y014989D01*
X007136Y014989D01*
X007048Y014901D01*
X006808Y014661D01*
X006808Y014297D01*
X006896Y014209D01*
X007048Y014057D01*
X007048Y013995D01*
X006953Y013900D01*
X006953Y013697D01*
X007097Y013554D01*
X007300Y013554D01*
X007443Y013697D01*
X007443Y013900D01*
X007348Y013995D01*
X007348Y014181D01*
X007108Y014421D01*
X007108Y014537D01*
X007260Y014689D01*
X008016Y014689D01*
X008096Y014609D01*
X008460Y014609D01*
X008548Y014697D01*
X008788Y014937D01*
X008788Y015015D01*
X008810Y009364D01*
X008788Y009327D01*
X008744Y009302D01*
X008692Y009346D02*
X008799Y009346D01*
X008810Y009424D02*
X008770Y009424D01*
X008803Y009503D02*
X008809Y009503D01*
X008803Y009581D02*
X008809Y009581D01*
X008808Y009738D02*
X008725Y009738D01*
X008808Y009817D02*
X004164Y009817D01*
X004155Y009813D02*
X004332Y009886D01*
X004467Y010021D01*
X004540Y010198D01*
X004540Y010389D01*
X004467Y010565D01*
X004332Y010700D01*
X004155Y010773D01*
X003964Y010773D01*
X003788Y010700D01*
X003653Y010565D01*
X003580Y010389D01*
X003580Y010198D01*
X003653Y010021D01*
X003788Y009886D01*
X003964Y009813D01*
X004155Y009813D01*
X003956Y009817D02*
X003164Y009817D01*
X003341Y009895D02*
X003779Y009895D01*
X003700Y009974D02*
X003419Y009974D01*
X003479Y010052D02*
X003640Y010052D01*
X003607Y010131D02*
X003512Y010131D01*
X003540Y010209D02*
X003580Y010209D01*
X003580Y010288D02*
X003540Y010288D01*
X003540Y010366D02*
X003580Y010366D01*
X003603Y010445D02*
X003516Y010445D01*
X003484Y010523D02*
X003635Y010523D01*
X003689Y010602D02*
X003430Y010602D01*
X003352Y010680D02*
X003768Y010680D01*
X003730Y010759D02*
X003929Y010759D01*
X003809Y010837D02*
X008804Y010837D01*
X008804Y010759D02*
X004190Y010759D01*
X004352Y010680D02*
X008805Y010680D01*
X008805Y010602D02*
X004430Y010602D01*
X004484Y010523D02*
X008805Y010523D01*
X008806Y010445D02*
X004516Y010445D01*
X004540Y010366D02*
X008806Y010366D01*
X008806Y010288D02*
X004540Y010288D01*
X004540Y010209D02*
X008807Y010209D01*
X008807Y010131D02*
X004512Y010131D01*
X004479Y010052D02*
X008807Y010052D01*
X008807Y009974D02*
X004419Y009974D01*
X004341Y009895D02*
X008808Y009895D01*
X008558Y009559D02*
X008478Y009479D01*
X008158Y009479D01*
X007940Y009261D01*
X007940Y007787D01*
X008090Y008090D02*
X008338Y008090D01*
X008338Y008168D02*
X008090Y008168D01*
X008090Y008247D02*
X008338Y008247D01*
X008338Y008325D02*
X008090Y008325D01*
X008090Y008404D02*
X008338Y008404D01*
X008338Y008482D02*
X008090Y008482D01*
X008090Y008561D02*
X008338Y008561D01*
X008338Y008639D02*
X008090Y008639D01*
X008090Y008718D02*
X008338Y008718D01*
X008338Y008796D02*
X008090Y008796D01*
X008090Y008875D02*
X008338Y008875D01*
X008338Y008953D02*
X008090Y008953D01*
X008090Y009032D02*
X008338Y009032D01*
X008356Y009110D02*
X008090Y009110D01*
X008090Y009189D02*
X008402Y009189D01*
X008419Y009218D02*
X008419Y009218D01*
X008419Y009218D01*
X008503Y009267D02*
X008159Y009267D01*
X007970Y009503D02*
X002708Y009503D01*
X002708Y009581D02*
X008049Y009581D01*
X007892Y009424D02*
X002708Y009424D01*
X002708Y009346D02*
X004399Y009346D01*
X004320Y009267D02*
X002708Y009267D01*
X002708Y009189D02*
X004313Y009189D01*
X004313Y009110D02*
X002708Y009110D01*
X002708Y009032D02*
X004328Y009032D01*
X004328Y008953D02*
X002708Y008953D01*
X002708Y008875D02*
X004328Y008875D01*
X004328Y008796D02*
X002708Y008796D01*
X002708Y008718D02*
X004328Y008718D01*
X004328Y008639D02*
X002708Y008639D01*
X002708Y008561D02*
X004328Y008561D01*
X004328Y008482D02*
X002708Y008482D01*
X002708Y008404D02*
X004328Y008404D01*
X004380Y008325D02*
X002724Y008325D01*
X002802Y008247D02*
X004458Y008247D01*
X004537Y008168D02*
X002881Y008168D01*
X002878Y007959D02*
X003118Y007959D01*
X003278Y007799D01*
X003278Y007536D01*
X003288Y007527D01*
X003509Y007776D02*
X003584Y007776D01*
X003629Y007854D02*
X003428Y007854D01*
X003356Y007933D02*
X003709Y007933D01*
X004097Y007933D02*
X004257Y007933D01*
X004185Y007854D02*
X004177Y007854D01*
X004465Y007854D02*
X004522Y007854D01*
X004522Y007776D02*
X004465Y007776D01*
X004465Y007697D02*
X004522Y007697D01*
X004522Y007619D02*
X004465Y007619D01*
X004465Y007540D02*
X004522Y007540D01*
X004522Y007462D02*
X004465Y007462D01*
X004465Y007305D02*
X004522Y007305D01*
X004522Y007226D02*
X004465Y007226D01*
X004465Y007148D02*
X004522Y007148D01*
X004522Y007069D02*
X004465Y007069D01*
X004465Y006991D02*
X004522Y006991D01*
X004522Y006912D02*
X004465Y006912D01*
X004465Y006834D02*
X004522Y006834D01*
X004684Y006834D02*
X004771Y006834D01*
X004771Y006755D02*
X003555Y006755D01*
X003555Y006834D02*
X003784Y006834D01*
X003660Y006912D02*
X003555Y006912D01*
X003555Y006991D02*
X003597Y006991D01*
X003565Y007069D02*
X003555Y007069D01*
X003288Y006936D02*
X003198Y006847D01*
X003198Y006679D01*
X003038Y006519D01*
X003038Y006039D01*
X003118Y005959D01*
X004678Y005959D01*
X004798Y006079D01*
X004657Y006284D02*
X004190Y006284D01*
X004112Y006206D02*
X004579Y006206D01*
X004553Y006127D02*
X003188Y006127D01*
X003188Y006206D02*
X003805Y006206D01*
X003726Y006284D02*
X003188Y006284D01*
X003188Y006363D02*
X003713Y006363D01*
X003713Y006441D02*
X003188Y006441D01*
X003251Y006520D02*
X003733Y006520D01*
X003811Y006598D02*
X003330Y006598D01*
X003499Y006677D02*
X004834Y006677D01*
X005038Y006944D02*
X005143Y006944D01*
X005438Y007239D01*
X005615Y007069D02*
X008338Y007069D01*
X008338Y006991D02*
X005402Y006991D01*
X005324Y006912D02*
X008338Y006912D01*
X008338Y006834D02*
X006535Y006834D01*
X006614Y006755D02*
X008338Y006755D01*
X008338Y006677D02*
X006692Y006677D01*
X006771Y006598D02*
X008338Y006598D01*
X008338Y006520D02*
X008312Y006520D01*
X007940Y006287D02*
X006870Y006287D01*
X006398Y006759D01*
X005678Y006759D01*
X005358Y006439D01*
X003998Y006439D01*
X003958Y006399D01*
X004105Y006598D02*
X005306Y006598D01*
X005242Y006677D02*
X005384Y006677D01*
X005306Y006755D02*
X005463Y006755D01*
X005541Y006834D02*
X005306Y006834D01*
X005683Y007148D02*
X008338Y007148D01*
X008338Y007226D02*
X005683Y007226D01*
X005683Y007305D02*
X008338Y007305D01*
X008338Y007383D02*
X005640Y007383D01*
X005562Y007462D02*
X008338Y007462D01*
X008338Y007540D02*
X008299Y007540D01*
X008321Y008011D02*
X008338Y008011D01*
X007790Y008090D02*
X005039Y008090D01*
X004961Y008168D02*
X007790Y008168D01*
X007790Y008247D02*
X004882Y008247D01*
X004804Y008325D02*
X007790Y008325D01*
X007790Y008404D02*
X004725Y008404D01*
X004647Y008482D02*
X007790Y008482D01*
X007790Y008561D02*
X004628Y008561D01*
X004628Y008639D02*
X007790Y008639D01*
X007790Y008718D02*
X004628Y008718D01*
X004628Y008796D02*
X007790Y008796D01*
X007790Y008875D02*
X004628Y008875D01*
X004699Y008953D02*
X007790Y008953D01*
X007790Y009032D02*
X004778Y009032D01*
X004803Y009110D02*
X007790Y009110D01*
X007790Y009189D02*
X004803Y009189D01*
X004796Y009267D02*
X007790Y009267D01*
X007813Y009346D02*
X004718Y009346D01*
X004558Y009159D02*
X004478Y009079D01*
X004478Y008439D01*
X005038Y007879D01*
X005038Y007534D01*
X005306Y007540D02*
X005581Y007540D01*
X005594Y007527D02*
X006286Y007527D01*
X006350Y007591D01*
X006350Y007982D01*
X006286Y008047D01*
X005594Y008047D01*
X005530Y007982D01*
X005530Y007591D01*
X005594Y007527D01*
X005530Y007619D02*
X005306Y007619D01*
X005306Y007697D02*
X005530Y007697D01*
X005530Y007776D02*
X005267Y007776D01*
X005188Y007854D02*
X005530Y007854D01*
X005530Y007933D02*
X005188Y007933D01*
X005118Y008011D02*
X005559Y008011D01*
X005315Y007462D02*
X005306Y007462D01*
X004851Y007854D02*
X004802Y007854D01*
X004772Y007933D02*
X004730Y007933D01*
X004694Y008011D02*
X004546Y008011D01*
X004522Y008011D02*
X004465Y008011D01*
X004441Y008011D02*
X003278Y008011D01*
X003199Y008090D02*
X004615Y008090D01*
X004522Y007933D02*
X004465Y007933D01*
X004208Y006912D02*
X004146Y006912D01*
X004022Y006834D02*
X004303Y006834D01*
X003288Y006848D02*
X003288Y006936D01*
X002897Y006936D02*
X002878Y006918D01*
X002878Y005959D01*
X003038Y005799D01*
X005758Y005799D01*
X005838Y005879D01*
X006849Y006520D02*
X007568Y006520D01*
X007530Y006441D02*
X006928Y006441D01*
X006299Y007540D02*
X007581Y007540D01*
X007530Y007619D02*
X006350Y007619D01*
X006350Y007697D02*
X007530Y007697D01*
X007530Y007776D02*
X006350Y007776D01*
X006350Y007854D02*
X007530Y007854D01*
X007530Y007933D02*
X006350Y007933D01*
X006321Y008011D02*
X007559Y008011D01*
X006798Y009559D02*
X006798Y009719D01*
X006728Y011369D02*
X006135Y011369D01*
X006040Y011274D01*
X005837Y011274D01*
X005693Y011417D01*
X005693Y011620D01*
X005837Y011764D01*
X006040Y011764D01*
X006135Y011669D01*
X006604Y011669D01*
X006648Y011713D01*
X006648Y011722D01*
X006613Y011757D01*
X006613Y011960D01*
X006757Y012104D01*
X006960Y012104D01*
X007103Y011960D01*
X007103Y011757D01*
X006960Y011614D01*
X006948Y011614D01*
X006948Y011589D01*
X006860Y011501D01*
X006728Y011369D01*
X006746Y011387D02*
X008802Y011387D01*
X008802Y011465D02*
X006825Y011465D01*
X006903Y011544D02*
X007627Y011544D01*
X007657Y011514D02*
X007860Y011514D01*
X008003Y011657D01*
X008003Y011860D01*
X007862Y012001D01*
X007862Y012073D01*
X007775Y012161D01*
X007443Y012492D01*
X007443Y012540D01*
X007300Y012684D01*
X007097Y012684D01*
X006953Y012540D01*
X006953Y012337D01*
X007097Y012194D01*
X007300Y012194D01*
X007309Y012203D01*
X007562Y011949D01*
X007562Y011909D01*
X007513Y011860D01*
X007513Y011657D01*
X007657Y011514D01*
X007548Y011622D02*
X006968Y011622D01*
X007047Y011701D02*
X007513Y011701D01*
X007513Y011779D02*
X007103Y011779D01*
X007103Y011858D02*
X007513Y011858D01*
X007562Y011936D02*
X007103Y011936D01*
X007049Y012015D02*
X007496Y012015D01*
X007418Y012093D02*
X006970Y012093D01*
X007040Y012250D02*
X003813Y012250D01*
X003892Y012172D02*
X007339Y012172D01*
X007284Y012439D02*
X007712Y012011D01*
X007712Y011805D01*
X007758Y011759D01*
X007927Y011936D02*
X008800Y011936D01*
X008800Y011858D02*
X008003Y011858D01*
X008003Y011779D02*
X008801Y011779D01*
X008801Y011701D02*
X008003Y011701D01*
X007968Y011622D02*
X008801Y011622D01*
X008801Y011544D02*
X007890Y011544D01*
X007862Y012015D02*
X008800Y012015D01*
X008799Y012093D02*
X007842Y012093D01*
X007764Y012172D02*
X008799Y012172D01*
X008799Y012250D02*
X007685Y012250D01*
X007607Y012329D02*
X008798Y012329D01*
X008798Y012407D02*
X007528Y012407D01*
X007450Y012486D02*
X008798Y012486D01*
X008798Y012564D02*
X007419Y012564D01*
X007341Y012643D02*
X008797Y012643D01*
X008797Y012721D02*
X003517Y012721D01*
X003531Y012695D02*
X003494Y012766D01*
X003447Y012831D01*
X003391Y012888D01*
X003326Y012935D01*
X003254Y012971D01*
X003178Y012996D01*
X003098Y013009D01*
X003098Y013009D01*
X003098Y012539D01*
X003568Y012539D01*
X003556Y012618D01*
X003531Y012695D01*
X003548Y012643D02*
X007056Y012643D01*
X006977Y012564D02*
X003564Y012564D01*
X003568Y012539D02*
X003568Y012539D01*
X003568Y012459D02*
X003568Y012459D01*
X003560Y012407D02*
X006953Y012407D01*
X006962Y012329D02*
X003539Y012329D01*
X003543Y012250D02*
X003504Y012250D01*
X003465Y012172D02*
X003451Y012172D01*
X003638Y011999D02*
X003678Y012039D01*
X003638Y011999D02*
X002598Y011999D01*
X002398Y011799D01*
X002398Y008199D01*
X002798Y007799D01*
X002798Y007625D01*
X002897Y007527D01*
X002878Y007959D02*
X002558Y008279D01*
X002558Y010599D01*
X002798Y010839D01*
X003598Y010839D01*
X003918Y011159D01*
X003918Y011719D01*
X004090Y011544D02*
X005693Y011544D01*
X005695Y011622D02*
X004163Y011622D01*
X004163Y011701D02*
X005774Y011701D01*
X005938Y011519D02*
X006666Y011519D01*
X006798Y011651D01*
X006798Y011799D01*
X006858Y011859D01*
X006613Y011858D02*
X004126Y011858D01*
X004163Y011779D02*
X006613Y011779D01*
X006636Y011701D02*
X006103Y011701D01*
X006074Y011308D02*
X008802Y011308D01*
X008803Y011230D02*
X004068Y011230D01*
X004068Y011308D02*
X005802Y011308D01*
X005724Y011387D02*
X004068Y011387D01*
X004068Y011465D02*
X005693Y011465D01*
X006613Y011936D02*
X004047Y011936D01*
X003923Y012015D02*
X006668Y012015D01*
X006746Y012093D02*
X003923Y012093D01*
X003470Y012800D02*
X008797Y012800D01*
X008796Y012878D02*
X003400Y012878D01*
X003283Y012957D02*
X008796Y012957D01*
X008796Y013035D02*
X003194Y013035D01*
X003154Y013019D02*
X003330Y013092D01*
X003465Y013227D01*
X003538Y013403D01*
X003538Y013527D01*
X003988Y013977D01*
X003988Y014562D01*
X004083Y014657D01*
X004083Y014860D01*
X003940Y015004D01*
X003737Y015004D01*
X003593Y014860D01*
X003593Y014657D01*
X003688Y014562D01*
X003688Y014101D01*
X003412Y013824D01*
X003330Y013906D01*
X003154Y013979D01*
X002963Y013979D01*
X002786Y013906D01*
X002651Y013771D01*
X002578Y013594D01*
X002578Y013403D01*
X002651Y013227D01*
X002786Y013092D01*
X002963Y013019D01*
X003154Y013019D01*
X003098Y012957D02*
X003018Y012957D01*
X003018Y013009D02*
X002939Y012996D01*
X002862Y012971D01*
X002791Y012935D01*
X002726Y012888D01*
X002669Y012831D01*
X002622Y012766D01*
X002586Y012695D01*
X002561Y012618D01*
X002548Y012539D01*
X002548Y012539D01*
X003018Y012539D01*
X003018Y013009D01*
X003018Y013009D01*
X002923Y013035D02*
X002405Y013035D01*
X002405Y012957D02*
X002834Y012957D01*
X002717Y012878D02*
X002405Y012878D01*
X002405Y012800D02*
X002647Y012800D01*
X002599Y012721D02*
X002405Y012721D01*
X002405Y012643D02*
X002569Y012643D01*
X002552Y012564D02*
X002405Y012564D01*
X002405Y012486D02*
X003018Y012486D01*
X003018Y012564D02*
X003098Y012564D01*
X003098Y012486D02*
X006953Y012486D01*
X007198Y012439D02*
X007284Y012439D01*
X007331Y013585D02*
X008794Y013585D01*
X008793Y013663D02*
X007409Y013663D01*
X007443Y013742D02*
X008793Y013742D01*
X008793Y013820D02*
X007443Y013820D01*
X007443Y013899D02*
X008793Y013899D01*
X008792Y013977D02*
X007366Y013977D01*
X007348Y014056D02*
X008792Y014056D01*
X008792Y014134D02*
X007348Y014134D01*
X007316Y014213D02*
X008791Y014213D01*
X008791Y014291D02*
X007238Y014291D01*
X007159Y014370D02*
X008791Y014370D01*
X008790Y014448D02*
X007108Y014448D01*
X007108Y014527D02*
X008790Y014527D01*
X008790Y014605D02*
X007177Y014605D01*
X007255Y014684D02*
X008021Y014684D01*
X008158Y014759D02*
X008078Y014839D01*
X007198Y014839D01*
X006958Y014599D01*
X006958Y014359D01*
X007198Y014119D01*
X007198Y013799D01*
X007030Y013977D02*
X003988Y013977D01*
X003988Y014056D02*
X007048Y014056D01*
X006971Y014134D02*
X003988Y014134D01*
X003988Y014213D02*
X006892Y014213D01*
X006814Y014291D02*
X003988Y014291D01*
X003988Y014370D02*
X006808Y014370D01*
X006808Y014448D02*
X003988Y014448D01*
X003988Y014527D02*
X006808Y014527D01*
X006808Y014605D02*
X004031Y014605D01*
X004083Y014684D02*
X006831Y014684D01*
X006910Y014762D02*
X004083Y014762D01*
X004083Y014841D02*
X006988Y014841D01*
X007067Y014919D02*
X004024Y014919D01*
X003946Y014998D02*
X008425Y014998D01*
X008488Y015076D02*
X002405Y015076D01*
X002405Y014998D02*
X003731Y014998D01*
X003652Y014919D02*
X003297Y014919D01*
X003330Y014906D02*
X003154Y014979D01*
X002963Y014979D01*
X002786Y014906D01*
X002651Y014771D01*
X002578Y014594D01*
X002578Y014403D01*
X002651Y014227D01*
X002786Y014092D01*
X002963Y014019D01*
X003154Y014019D01*
X003330Y014092D01*
X003465Y014227D01*
X003538Y014403D01*
X003538Y014594D01*
X003465Y014771D01*
X003330Y014906D01*
X003395Y014841D02*
X003593Y014841D01*
X003593Y014762D02*
X003469Y014762D01*
X003501Y014684D02*
X003593Y014684D01*
X003645Y014605D02*
X003534Y014605D01*
X003538Y014527D02*
X003688Y014527D01*
X003688Y014448D02*
X003538Y014448D01*
X003524Y014370D02*
X003688Y014370D01*
X003688Y014291D02*
X003492Y014291D01*
X003451Y014213D02*
X003688Y014213D01*
X003688Y014134D02*
X003373Y014134D01*
X003243Y014056D02*
X003643Y014056D01*
X003565Y013977D02*
X003157Y013977D01*
X003337Y013899D02*
X003486Y013899D01*
X003675Y013663D02*
X006987Y013663D01*
X006953Y013742D02*
X003753Y013742D01*
X003832Y013820D02*
X006953Y013820D01*
X006953Y013899D02*
X003910Y013899D01*
X003838Y014039D02*
X003358Y013559D01*
X003074Y013559D01*
X003074Y013514D01*
X003058Y013499D01*
X002607Y013663D02*
X002405Y013663D01*
X002405Y013585D02*
X002578Y013585D01*
X002578Y013506D02*
X002405Y013506D01*
X002405Y013428D02*
X002578Y013428D01*
X002601Y013349D02*
X002405Y013349D01*
X002405Y013271D02*
X002633Y013271D01*
X002686Y013192D02*
X002405Y013192D01*
X002405Y013114D02*
X002764Y013114D01*
X003018Y012878D02*
X003098Y012878D01*
X003098Y012800D02*
X003018Y012800D01*
X003018Y012721D02*
X003098Y012721D01*
X003098Y012643D02*
X003018Y012643D01*
X003352Y013114D02*
X008796Y013114D01*
X008795Y013192D02*
X003431Y013192D01*
X003483Y013271D02*
X008795Y013271D01*
X008795Y013349D02*
X003516Y013349D01*
X003538Y013428D02*
X008794Y013428D01*
X008794Y013506D02*
X003538Y013506D01*
X003596Y013585D02*
X007066Y013585D01*
X007258Y014519D02*
X007438Y014519D01*
X008158Y014759D02*
X008398Y014759D01*
X008638Y014999D01*
X008638Y015239D01*
X008478Y015399D01*
X008478Y016919D01*
X008398Y016999D01*
X008739Y017117D02*
X008780Y017117D01*
X008781Y017039D02*
X008758Y017039D01*
X008758Y016960D02*
X008781Y016960D01*
X008781Y016882D02*
X008739Y016882D01*
X008707Y016803D02*
X008781Y016803D01*
X008782Y016725D02*
X008633Y016725D01*
X008628Y016646D02*
X008782Y016646D01*
X008782Y016568D02*
X008628Y016568D01*
X008628Y016489D02*
X008783Y016489D01*
X008783Y016411D02*
X008628Y016411D01*
X008628Y016332D02*
X008783Y016332D01*
X008784Y016254D02*
X008628Y016254D01*
X008628Y016175D02*
X008784Y016175D01*
X008784Y016097D02*
X008628Y016097D01*
X008628Y016018D02*
X008784Y016018D01*
X008785Y015940D02*
X008628Y015940D01*
X008628Y015861D02*
X008785Y015861D01*
X008785Y015783D02*
X008628Y015783D01*
X008628Y015704D02*
X008786Y015704D01*
X008786Y015626D02*
X008628Y015626D01*
X008628Y015547D02*
X008786Y015547D01*
X008787Y015469D02*
X008628Y015469D01*
X008699Y015390D02*
X008787Y015390D01*
X008777Y015312D02*
X008787Y015312D01*
X008788Y014998D02*
X008788Y014998D01*
X008789Y014919D02*
X008771Y014919D01*
X008789Y014841D02*
X008692Y014841D01*
X008614Y014762D02*
X008789Y014762D01*
X008790Y014684D02*
X008535Y014684D01*
X008347Y014919D02*
X008210Y014919D01*
X008318Y015079D02*
X008238Y015159D01*
X008353Y015312D02*
X002405Y015312D01*
X002405Y015390D02*
X008328Y015390D01*
X008328Y015469D02*
X002405Y015469D01*
X002405Y015547D02*
X008328Y015547D01*
X008328Y015626D02*
X002405Y015626D01*
X002405Y015704D02*
X008328Y015704D01*
X008328Y015783D02*
X002405Y015783D01*
X002405Y015861D02*
X008328Y015861D01*
X008328Y015940D02*
X002405Y015940D01*
X002405Y016018D02*
X008328Y016018D01*
X008328Y016097D02*
X002405Y016097D01*
X002405Y016175D02*
X008328Y016175D01*
X008328Y016254D02*
X002405Y016254D01*
X002405Y016332D02*
X008328Y016332D01*
X008328Y016411D02*
X002405Y016411D01*
X002428Y016489D02*
X002536Y016489D01*
X002495Y016568D02*
X002480Y016568D01*
X002480Y016646D02*
X002494Y016646D01*
X002494Y016725D02*
X002475Y016725D01*
X002494Y016803D02*
X002447Y016803D01*
X002480Y016882D02*
X002494Y016882D01*
X002494Y016960D02*
X002480Y016960D01*
X002494Y017039D02*
X002456Y017039D01*
X002466Y017117D02*
X002494Y017117D01*
X002494Y017196D02*
X002480Y017196D01*
X002480Y017274D02*
X002494Y017274D01*
X002494Y017353D02*
X002437Y017353D01*
X002480Y017431D02*
X002494Y017431D01*
X002494Y017510D02*
X002480Y017510D01*
X002480Y017588D02*
X003044Y017588D01*
X003044Y017510D02*
X003124Y017510D01*
X003124Y017588D02*
X006524Y017588D01*
X006524Y017510D02*
X006604Y017510D01*
X006604Y017588D02*
X008274Y017588D01*
X008358Y017588D02*
X008438Y017588D01*
X008438Y017667D02*
X008358Y017667D01*
X008358Y017745D02*
X008438Y017745D01*
X008438Y017824D02*
X008358Y017824D01*
X008358Y017902D02*
X008438Y017902D01*
X008358Y017981D02*
X007154Y017981D01*
X007154Y018059D02*
X008021Y018059D01*
X008023Y018073D02*
X008009Y017999D01*
X008358Y017999D01*
X008358Y018349D01*
X008285Y018334D01*
X008214Y018304D01*
X008150Y018262D01*
X008095Y018207D01*
X008053Y018144D01*
X008023Y018073D01*
X008050Y018138D02*
X007154Y018138D01*
X007154Y018216D02*
X008104Y018216D01*
X008199Y018295D02*
X007154Y018295D01*
X007154Y018373D02*
X008781Y018373D01*
X008776Y018295D02*
X008597Y018295D01*
X008692Y018216D02*
X008776Y018216D01*
X008776Y018138D02*
X008746Y018138D01*
X008776Y018059D02*
X008777Y018059D01*
X008764Y017824D02*
X008778Y017824D01*
X008778Y017745D02*
X008725Y017745D01*
X008778Y017667D02*
X008658Y017667D01*
X008778Y017588D02*
X008523Y017588D01*
X008484Y017353D02*
X008779Y017353D01*
X008779Y017431D02*
X007154Y017431D01*
X007154Y017353D02*
X008312Y017353D01*
X008165Y017274D02*
X007154Y017274D01*
X007154Y017196D02*
X008090Y017196D01*
X008058Y017117D02*
X007154Y017117D01*
X007154Y017039D02*
X008038Y017039D01*
X008038Y016960D02*
X007154Y016960D01*
X007154Y016882D02*
X008057Y016882D01*
X008090Y016803D02*
X007154Y016803D01*
X007154Y016725D02*
X008163Y016725D01*
X008309Y016646D02*
X007154Y016646D01*
X007154Y016568D02*
X008328Y016568D01*
X008328Y016489D02*
X007113Y016489D01*
X006604Y016489D02*
X006524Y016489D01*
X006524Y016568D02*
X006604Y016568D01*
X006604Y016646D02*
X006524Y016646D01*
X006524Y016725D02*
X006604Y016725D01*
X006604Y016803D02*
X006524Y016803D01*
X006524Y016882D02*
X006604Y016882D01*
X006604Y016960D02*
X006524Y016960D01*
X006524Y017039D02*
X006604Y017039D01*
X006604Y017117D02*
X006524Y017117D01*
X006524Y017196D02*
X006604Y017196D01*
X006604Y017274D02*
X006524Y017274D01*
X006524Y017353D02*
X006604Y017353D01*
X006604Y017431D02*
X006524Y017431D01*
X005974Y017431D02*
X003674Y017431D01*
X003674Y017353D02*
X005974Y017353D01*
X005974Y017274D02*
X003674Y017274D01*
X003674Y017196D02*
X005974Y017196D01*
X005974Y017117D02*
X003674Y017117D01*
X003674Y017039D02*
X005974Y017039D01*
X005974Y016960D02*
X003674Y016960D01*
X003674Y016882D02*
X005974Y016882D01*
X005974Y016803D02*
X003674Y016803D01*
X003674Y016725D02*
X005974Y016725D01*
X005974Y016646D02*
X003674Y016646D01*
X003674Y016568D02*
X005975Y016568D01*
X006016Y016489D02*
X003633Y016489D01*
X004158Y016199D02*
X004158Y016119D01*
X003124Y016489D02*
X003044Y016489D01*
X003044Y016568D02*
X003124Y016568D01*
X003124Y016646D02*
X003044Y016646D01*
X003044Y016725D02*
X003124Y016725D01*
X003124Y016803D02*
X003044Y016803D01*
X003044Y016882D02*
X003124Y016882D01*
X003124Y016960D02*
X003044Y016960D01*
X003044Y017039D02*
X003124Y017039D01*
X003124Y017117D02*
X003044Y017117D01*
X003044Y017196D02*
X003124Y017196D01*
X003124Y017274D02*
X003044Y017274D01*
X003044Y017353D02*
X003124Y017353D01*
X003124Y017431D02*
X003044Y017431D01*
X002494Y017667D02*
X002425Y017667D01*
X002480Y017745D02*
X002494Y017745D01*
X002494Y017824D02*
X002480Y017824D01*
X002478Y017902D02*
X002494Y017902D01*
X002494Y017981D02*
X002444Y017981D01*
X002480Y018059D02*
X002494Y018059D01*
X002494Y018138D02*
X002480Y018138D01*
X002494Y018216D02*
X002460Y018216D01*
X002462Y018295D02*
X002494Y018295D01*
X002494Y018373D02*
X002480Y018373D01*
X002480Y018452D02*
X002494Y018452D01*
X003674Y018452D02*
X005974Y018452D01*
X005974Y018373D02*
X003674Y018373D01*
X003674Y018295D02*
X005974Y018295D01*
X005974Y018216D02*
X003674Y018216D01*
X003674Y018138D02*
X005974Y018138D01*
X005974Y018059D02*
X003674Y018059D01*
X003674Y017981D02*
X005974Y017981D01*
X005974Y017902D02*
X003674Y017902D01*
X003674Y017824D02*
X005974Y017824D01*
X005974Y017745D02*
X003674Y017745D01*
X003674Y017667D02*
X005974Y017667D01*
X005974Y017510D02*
X003674Y017510D01*
X005678Y016199D02*
X005678Y016119D01*
X007154Y017510D02*
X008779Y017510D01*
X008780Y017274D02*
X008632Y017274D01*
X008706Y017196D02*
X008780Y017196D01*
X008438Y018059D02*
X008358Y018059D01*
X008358Y018138D02*
X008438Y018138D01*
X008438Y018216D02*
X008358Y018216D01*
X008358Y018295D02*
X008438Y018295D01*
X008720Y018452D02*
X007154Y018452D01*
X007154Y017902D02*
X008012Y017902D01*
X008032Y017824D02*
X007154Y017824D01*
X007154Y017745D02*
X008072Y017745D01*
X008139Y017667D02*
X007154Y017667D01*
X008432Y015233D02*
X002405Y015233D01*
X002405Y015155D02*
X008488Y015155D01*
X008803Y011151D02*
X004068Y011151D01*
X004044Y011073D02*
X008803Y011073D01*
X008804Y010994D02*
X003966Y010994D01*
X003887Y010916D02*
X008804Y010916D01*
X003838Y014039D02*
X003838Y014759D01*
X002819Y014919D02*
X002405Y014919D01*
X002405Y014841D02*
X002721Y014841D01*
X002648Y014762D02*
X002405Y014762D01*
X002405Y014684D02*
X002615Y014684D01*
X002583Y014605D02*
X002405Y014605D01*
X002405Y014527D02*
X002578Y014527D01*
X002578Y014448D02*
X002405Y014448D01*
X002405Y014370D02*
X002592Y014370D01*
X002625Y014291D02*
X002405Y014291D01*
X002405Y014213D02*
X002665Y014213D01*
X002744Y014134D02*
X002405Y014134D01*
X002405Y014056D02*
X002873Y014056D01*
X002959Y013977D02*
X002405Y013977D01*
X002405Y013899D02*
X002779Y013899D01*
X002701Y013820D02*
X002405Y013820D01*
X002405Y013742D02*
X002639Y013742D01*
X002556Y012407D02*
X002405Y012407D01*
X002405Y012329D02*
X002577Y012329D01*
X002613Y012250D02*
X002405Y012250D01*
X002405Y012172D02*
X002665Y012172D01*
X002481Y012093D02*
X002405Y012093D01*
X002708Y009895D02*
X002779Y009895D01*
X002718Y009879D02*
X002718Y009799D01*
X002708Y009817D02*
X002956Y009817D01*
X003518Y009479D02*
X003598Y009399D01*
D20*
X003518Y009479D03*
X003518Y009159D03*
X003598Y008839D03*
X004558Y009159D03*
X005018Y010399D03*
X005478Y010399D03*
X005958Y010399D03*
X005938Y011519D03*
X006858Y011859D03*
X007198Y012439D03*
X007758Y011759D03*
X008558Y010679D03*
X008558Y009559D03*
X006798Y008839D03*
X006958Y008279D03*
X005438Y007239D03*
X005358Y008039D03*
X003958Y006399D03*
X004798Y006079D03*
X005838Y005879D03*
X003918Y011719D03*
X003678Y012039D03*
X004798Y013319D03*
X005038Y012919D03*
X005438Y012679D03*
X005838Y012919D03*
X006078Y013319D03*
X005838Y013719D03*
X005438Y013959D03*
X005038Y013719D03*
X005438Y013319D03*
X003838Y014759D03*
X004158Y016119D03*
X003758Y016839D03*
X003758Y017479D03*
X003758Y018199D03*
X005678Y016119D03*
X005918Y016839D03*
X005918Y017559D03*
X005918Y018359D03*
X007198Y018279D03*
X008078Y017479D03*
X007198Y016999D03*
X007118Y015399D03*
X007258Y014519D03*
X007198Y013799D03*
X007278Y013399D03*
X008078Y013959D03*
X008318Y015079D03*
X011516Y015891D03*
X011696Y015351D03*
X011976Y015631D03*
X012856Y016531D03*
X013256Y016171D03*
X013436Y015591D03*
X014056Y016151D03*
X013996Y016511D03*
X014856Y016171D03*
X015416Y015851D03*
X015416Y015491D03*
X016376Y014731D03*
X016396Y014211D03*
X016376Y013051D03*
X016016Y011851D03*
X015267Y011060D03*
X016216Y010491D03*
X016336Y009611D03*
X015016Y009131D03*
X014856Y009531D03*
X014456Y009691D03*
X014056Y009531D03*
X013896Y009131D03*
X014056Y008731D03*
X014456Y008571D03*
X014856Y008731D03*
X014456Y009131D03*
X012756Y011071D03*
X012716Y011771D03*
X012536Y012331D03*
X013496Y012111D03*
X014076Y011891D03*
X014256Y012211D03*
X013896Y012731D03*
X013016Y013611D03*
X012616Y014011D03*
X012216Y014411D03*
X012216Y013611D03*
X011676Y012811D03*
X011736Y012331D03*
X013016Y014411D03*
X014227Y014580D03*
X014147Y014980D03*
X014227Y015300D03*
X014936Y013211D03*
X017016Y011851D03*
X016376Y007611D03*
X015816Y006411D03*
X015416Y006411D03*
X015136Y006811D03*
X014136Y006331D03*
X013896Y005691D03*
X013896Y005131D03*
X013896Y004571D03*
X012776Y004491D03*
X012776Y005131D03*
X012776Y005691D03*
X012776Y006431D03*
X012756Y006871D03*
X012616Y007931D03*
X012551Y008573D03*
X012671Y008987D03*
X012676Y009631D03*
X012688Y010051D03*
X012056Y008491D03*
X011256Y008491D03*
X011456Y007351D03*
X011496Y006891D03*
X011816Y004971D03*
X016216Y005131D03*
X016216Y005691D03*
X016216Y004571D03*
X017376Y004511D03*
X017376Y005071D03*
X017376Y005671D03*
X016336Y016691D03*
X016856Y017531D03*
X016456Y017851D03*
X015896Y017851D03*
X016616Y018891D03*
X017056Y018331D03*
X016696Y020171D03*
X017256Y020651D03*
X015896Y021851D03*
X016216Y022891D03*
X014456Y020791D03*
X013816Y021371D03*
X013516Y020611D03*
X012796Y021171D03*
X012716Y021971D03*
X012136Y020331D03*
X012536Y019291D03*
X013896Y019091D03*
X014536Y019051D03*
X014596Y018091D03*
X013816Y017931D03*
D21*
X015736Y018411D02*
X015736Y018571D01*
X014048Y020395D02*
X013952Y020491D01*
X013918Y020998D02*
X013816Y021100D01*
X013816Y021371D01*
X016856Y010971D02*
X016696Y010811D01*
X016856Y009931D02*
X016856Y009691D01*
X016616Y009451D01*
D22*
X016336Y009611D02*
X016336Y009891D01*
X015896Y010331D01*
X015896Y010731D01*
X016056Y010891D01*
X016776Y010891D01*
X016856Y010971D01*
X012881Y017131D02*
X012312Y017131D01*
X012325Y017562D02*
X012821Y017562D01*
X012868Y017609D01*
X012861Y017991D02*
X012881Y018011D01*
X012861Y017991D02*
X012312Y017991D01*
X012335Y018440D02*
X012868Y018440D01*
X012881Y018891D02*
X012312Y018891D01*
X011813Y018430D02*
X011800Y018430D01*
X011800Y017991D01*
X011800Y017562D02*
X011800Y017131D01*
X011813Y017562D02*
X011800Y017562D01*
X016696Y020171D02*
X016776Y020171D01*
D23*
X016216Y011851D02*
X016016Y011851D01*
X016216Y011851D02*
X016856Y011211D01*
X016856Y010971D01*
D24*
X016376Y015571D03*
M02*
